<svg width="100%" height="100%" viewBox="0 -8 113 44" fill="#686672" xmlns="http://www.w3.org/2000/svg" aria-labelledby="amazonLogoTitle" role="img"><title id="amazonLogoTitle">Amazon Logo</title><g clip-path="url(#clip0_1901_19176)"><path fill-rule="evenodd" clip-rule="evenodd" d="M70.0612 27.0782C63.5547 31.8617 54.1097 34.4106 45.994 34.4106C34.5901 34.4106 24.3405 30.2207 16.6096 23.2025C16.0149 22.6438 16.5397 21.9106 17.2743 22.3295C25.6348 27.183 35.9893 30.1159 46.6936 30.1159C53.8998 30.1159 61.8406 28.6145 69.1167 25.5419C70.2361 25.088 71.1456 26.2751 70.0612 27.0782Z" fill="var(--color-navy-500)"></path><path fill-rule="evenodd" clip-rule="evenodd" d="M72.7892 23.972C71.9497 22.9245 67.2972 23.4832 65.1983 23.7276C64.5686 23.7974 64.4637 23.2388 65.0234 22.8547C68.7664 20.2359 74.8531 21.0041 75.5528 21.877C76.2524 22.75 75.3779 28.8603 71.8798 31.7932C71.355 32.2472 70.8303 32.0027 71.0752 31.4091C71.8447 29.419 73.6288 25.0544 72.7892 23.972Z" fill="var(--color-navy-500)"></path><path fill-rule="evenodd" clip-rule="evenodd" d="M65.339 4.38355V1.86958C65.339 1.4855 65.6188 1.24109 65.9686 1.24109H77.3726C77.7221 1.24109 78.0374 1.52042 78.0374 1.86958V4.03439C78.0374 4.38355 77.7221 4.87238 77.1627 5.64054L71.2508 14.0554C73.4546 14.0204 75.7634 14.3347 77.7572 15.452C78.2122 15.6964 78.3167 16.0805 78.3518 16.4297V19.1531C78.3518 19.5372 77.932 19.9562 77.5122 19.7467C74.0143 17.8962 69.3618 17.7216 65.4789 19.7816C65.0941 19.9911 64.6743 19.5721 64.6743 19.188V16.6042C64.6743 16.1853 64.6743 15.4869 65.0941 14.8584L71.9154 5.08188H65.9686C65.6188 5.04696 65.339 4.76763 65.339 4.38355Z" fill="var(--color-navy-500)"></path><path fill-rule="evenodd" clip-rule="evenodd" d="M23.7808 20.2346H20.3176C20.0028 20.1997 19.7229 19.9552 19.688 19.641V1.86865C19.688 1.51949 20.0028 1.24016 20.3527 1.24016H23.5709C23.9207 1.24016 24.1656 1.51949 24.2006 1.83374V4.13821H24.2705C25.1101 1.90357 26.6843 0.856079 28.8181 0.856079C30.987 0.856079 32.3513 1.90357 33.3307 4.13821C34.1703 1.90357 36.0943 0.856079 38.1232 0.856079C39.5924 0.856079 41.1666 1.44966 42.146 2.81139C43.2304 4.31279 43.0205 6.47759 43.0205 8.36308V19.5712C43.0205 19.9204 42.7058 20.1997 42.356 20.1997H38.8928C38.543 20.1648 38.2631 19.8855 38.2631 19.5712V10.1438C38.2631 9.41053 38.3331 7.52509 38.1582 6.82676C37.9133 5.63961 37.1088 5.29044 36.1292 5.29044C35.2897 5.29044 34.4151 5.84911 34.0653 6.75693C33.7155 7.66475 33.7505 9.13125 33.7505 10.1438V19.5712C33.7505 19.9204 33.4357 20.1997 33.0859 20.1997H29.6227C29.2729 20.1648 28.993 19.8855 28.993 19.5712V10.1438C28.993 8.15358 29.3079 5.25553 26.8592 5.25553C24.3755 5.25553 24.4804 8.08374 24.4804 10.1438V19.5712C24.4455 19.9552 24.1306 20.2346 23.7808 20.2346Z" fill="var(--color-navy-500)"></path><path fill-rule="evenodd" clip-rule="evenodd" d="M87.8306 0.891235C92.9728 0.891235 95.7718 5.29068 95.7718 10.9122C95.7718 16.3242 92.6934 20.6189 87.8306 20.6189C82.7936 20.6189 80.0298 16.2195 80.0298 10.7027C80.0298 5.18594 82.828 0.891235 87.8306 0.891235ZM87.8657 4.52253C85.3117 4.52253 85.1369 8.01415 85.1369 10.179C85.1369 12.3437 85.1018 16.9876 87.8306 16.9876C90.5242 16.9876 90.6295 13.2516 90.6295 10.982C90.6295 9.48067 90.5593 7.69991 90.1044 6.26834C89.7548 5.01136 88.9854 4.52253 87.8657 4.52253Z" fill="var(--color-navy-500)"></path><path fill-rule="evenodd" clip-rule="evenodd" d="M102.455 20.2346H98.9915C98.6419 20.1997 98.3618 19.9204 98.3618 19.6061V1.83374C98.3969 1.51949 98.6763 1.24016 99.0266 1.24016H102.245C102.56 1.24016 102.804 1.44966 102.874 1.72898V4.45245H102.945C103.924 2.00832 105.288 0.856079 107.667 0.856079C109.206 0.856079 110.745 1.41474 111.725 2.95106C112.634 4.38262 112.634 6.75693 112.634 8.4678V19.641C112.599 19.9552 112.319 20.1997 111.97 20.1997H108.507C108.191 20.1648 107.912 19.9552 107.877 19.641V10.039C107.877 8.08375 108.087 5.25553 105.708 5.25553C104.868 5.25553 104.099 5.81419 103.714 6.68709C103.224 7.7695 103.154 8.85188 103.154 10.039V19.6061C103.119 19.9552 102.804 20.2346 102.455 20.2346Z" fill="var(--color-navy-500)"></path><path fill-rule="evenodd" clip-rule="evenodd" d="M56.2446 11.7509C56.2446 13.1127 56.2795 14.23 55.5799 15.4171C55.0202 16.3948 54.1456 16.9884 53.1662 16.9884C51.8369 16.9884 51.0673 15.9758 51.0673 14.4744C51.0673 11.5415 53.7259 10.9828 56.2095 10.9828V11.7509H56.2446ZM59.7427 20.2007C59.4978 20.4102 59.183 20.4102 58.9381 20.2705C57.7837 19.3277 57.5738 18.8739 56.9442 17.966C55.0551 19.8864 53.6909 20.48 51.2422 20.48C48.3388 20.48 46.0649 18.6644 46.0649 15.1029C46.0649 12.3096 47.6041 10.3892 49.773 9.44649C51.662 8.60848 54.2856 8.4688 56.2795 8.25932V7.80541C56.2795 6.96741 56.3494 6.02468 55.8597 5.29144C55.44 4.66294 54.6354 4.38362 53.9007 4.38362C52.5715 4.38362 51.4171 5.04703 51.1022 6.47859C51.0323 6.79284 50.8224 7.10708 50.5076 7.10708L47.1493 6.75792C46.8695 6.68809 46.5547 6.47859 46.6247 6.02468C47.3942 1.93948 51.0673 0.717407 54.3555 0.717407C56.0347 0.717407 58.2385 1.17132 59.5678 2.4283C61.2469 3.99953 61.1069 6.09451 61.1069 8.39895V13.7761C61.1069 15.3822 61.7716 16.1155 62.4012 16.9884C62.6111 17.3026 62.6811 17.6867 62.4012 17.8962C61.7016 18.4898 60.4423 19.6071 59.7427 20.2007Z" fill="var(--color-navy-500)"></path><path fill-rule="evenodd" clip-rule="evenodd" d="M10.803 11.7509C10.803 13.1127 10.8379 14.23 10.1383 15.4171C9.57858 16.3948 8.70408 16.9884 7.72458 16.9884C6.39529 16.9884 5.6257 15.9758 5.6257 14.4744C5.6257 11.5415 8.28428 10.9828 10.7679 10.9828V11.7509H10.803ZM14.3011 20.2007C14.0562 20.4102 13.7414 20.4102 13.4965 20.2705C12.3421 19.3277 12.1322 18.8739 11.5026 17.966C9.61361 19.8864 8.24932 20.48 5.80061 20.48C2.86217 20.48 0.588379 18.6993 0.588379 15.1029C0.588379 12.3096 2.12756 10.3892 4.29641 9.44649C6.1854 8.60848 8.80904 8.4688 10.803 8.25932V7.80541C10.803 6.96741 10.8729 6.02468 10.3832 5.29144C9.96343 4.66294 9.15885 4.38362 8.42419 4.38362C7.09492 4.38362 5.94053 5.04703 5.6257 6.47859C5.55574 6.79284 5.34585 7.10708 5.03102 7.10708L1.6728 6.75792C1.39295 6.68809 1.07812 6.47859 1.14808 6.02468C1.95265 1.93948 5.6257 0.717407 8.91399 0.717407C10.5931 0.717407 12.8319 1.17132 14.1612 2.4283C15.8403 3.99953 15.7004 6.09451 15.7004 8.39895V13.7761C15.7004 15.3822 16.365 16.1155 16.9947 16.9884C17.2046 17.3026 17.2745 17.6867 16.9947 17.8962C16.2601 18.4898 15.0007 19.6071 14.3011 20.2007Z" fill="var(--color-navy-500)"></path></g><defs><clipPath id="clip0_1901_19176"><rect width="112.203" height="34.3478" fill="white" transform="translate(0.588379 0.717407)"></rect></clipPath></defs></svg>
