<svg width="100%" height="100%" viewBox="-16 0 61 40" fill="#686672" xmlns="http://www.w3.org/2000/svg" aria-labelledby="appleLogoTitle" role="img"><title id="appleLogoTitle">Apple Logo</title><g clip-path="url(#clip0_1901_19163)"><path fill-rule="evenodd" clip-rule="evenodd" d="M16.1385 2.95676C18.3701 0.0167362 21.4718 0 21.4718 0C21.4718 0 21.9349 2.76708 19.7145 5.42816C17.3491 8.27336 14.6601 7.80474 14.6601 7.80474C14.6601 7.80474 14.1525 5.56763 16.1385 2.95676Z" fill="var(--color-navy-500)"></path><path fill-rule="evenodd" clip-rule="evenodd" d="M14.9446 9.74677C16.0939 9.74677 18.2249 8.16797 20.9976 8.16797C25.773 8.16797 27.6475 11.5654 27.6475 11.5654C27.6475 11.5654 23.9767 13.4455 23.9767 17.9977C23.9767 23.1358 28.5513 24.9099 28.5513 24.9099C28.5513 24.9099 25.3546 33.9141 21.0311 33.9141C19.045 33.9141 17.5053 32.5751 15.4132 32.5751C13.2822 32.5751 11.1678 33.9643 9.78985 33.9643C5.84562 33.9587 0.86377 25.4231 0.86377 18.5557C0.86377 11.7997 5.08133 8.25722 9.03666 8.25722C11.6085 8.26277 13.6057 9.74677 14.9446 9.74677Z" fill="var(--color-navy-500)"></path></g><defs><clipPath id="clip0_1901_19163"><rect width="28.0507" height="34.3478" fill="white" transform="translate(0.86377)"></rect></clipPath></defs></svg>
