<svg width="32" height="32" viewBox="0 0 32 32" fill="none" xmlns="http://www.w3.org/2000/svg">
<g clip-path="url(#clip0_1006_332)">
<path fill-rule="evenodd" clip-rule="evenodd" d="M30 25C30 26.104 29.073 26.656 28 27C28 27 22.557 28.515 17 29.977V5L28 2C29.104 2 30 2.896 30 4V25ZM15 29.998C9.538 28.53 4 27 4 27C2.864 26.688 2 26.104 2 25V4C2 2.896 2.896 2 4 2L15 5V29.998ZM28 0C28 0 22.211 1.594 16.95 3C16.291 3.025 15.627 3 14.967 3C9.95501 1.656 4 0 4 0C1.791 0 0 1.791 0 4V25C0 27.209 1.885 28.313 4 29C4 29 9.39301 30.5 14.967 32H16.992C22.612 30.5 28 29 28 29C30.053 28.469 32 27.209 32 25V4C32 1.791 30.209 0 28 0Z" fill="#C9B49A"/>
</g>
<defs>
<clipPath id="clip0_1006_332">
<rect width="32" height="32" fill="white"/>
</clipPath>
</defs>
</svg>
