<svg width="64" height="64" viewBox="0 0 64 64" fill="none" xmlns="http://www.w3.org/2000/svg">
<path d="M57 57H7V7" stroke="#0B0B0B" stroke-linecap="round" stroke-linejoin="round"/>
<path d="M27.2598 28.7383L39.9199 37.9482" stroke="#0B0B0B" stroke-linecap="round" stroke-linejoin="round"/>
<path d="M14.5605 44.3384L27.2598 28.7383" stroke="#0B0B0B" stroke-linecap="round" stroke-linejoin="round"/>
<path d="M39.9199 37.9512L52.7705 18.9414" stroke="#0B0B0B" stroke-linecap="round" stroke-linejoin="round"/>
<path d="M14.5605 48.5581C16.9022 48.5581 18.7998 46.66 18.7998 44.3184C18.7998 41.9767 16.9022 40.0781 14.5605 40.0781C12.2189 40.0781 10.3203 41.9767 10.3203 44.3184C10.3203 46.66 12.2189 48.5581 14.5605 48.5581Z" fill="#9E62FF"/>
<path d="M27.2598 32.98C29.6015 32.98 31.5 31.0819 31.5 28.7402C31.5 26.3985 29.6015 24.5 27.2598 24.5C24.9181 24.5 23.0205 26.3985 23.0205 28.7402C23.0205 31.0819 24.9181 32.98 27.2598 32.98Z" fill="#3F7DFF"/>
<path d="M40.0498 42.1875C42.3915 42.1875 44.29 40.289 44.29 37.9473C44.29 35.6056 42.3915 33.707 40.0498 33.707C37.7081 33.707 35.8105 35.6056 35.8105 37.9473C35.8105 40.289 37.7081 42.1875 40.0498 42.1875Z" fill="#BDEA09"/>
<path d="M52.7598 23.1089C55.1015 23.1089 57 21.2103 57 18.8687C57 16.527 55.1015 14.6289 52.7598 14.6289C50.4181 14.6289 48.5205 16.527 48.5205 18.8687C48.5205 21.2103 50.4181 23.1089 52.7598 23.1089Z" fill="#00C5A1"/>
</svg>
