<svg width="803" height="953" viewBox="0 0 803 953" fill="none" xmlns="http://www.w3.org/2000/svg">
<path d="M452.29 245.918C452.29 246.459 452.222 247.068 452.155 247.609L452.019 248.555C451.749 249.908 451.275 251.193 450.667 252.478C449.72 241.995 437.411 233.677 422.398 233.677C407.384 233.677 395.076 241.995 394.129 252.478C393.453 251.193 393.047 249.908 392.776 248.488L392.709 248.217C392.573 247.473 392.506 246.729 392.506 245.918C392.506 234.827 405.896 225.832 422.398 225.832C438.899 225.832 452.29 234.827 452.29 245.918Z" fill="#1D1D1D" stroke="#1D1D1D" stroke-width="2" stroke-miterlimit="10" stroke-linecap="round" stroke-linejoin="round"/>
<path d="M450.667 252.479C446.609 260.391 435.518 266.072 422.398 266.072C409.278 266.072 398.119 260.391 394.129 252.479C395.076 241.996 407.384 233.678 422.398 233.678C437.411 233.678 449.72 241.996 450.667 252.479Z" fill="#FFC600" stroke="#1D1D1D" stroke-width="2" stroke-miterlimit="10" stroke-linecap="round" stroke-linejoin="round"/>
<path d="M452.02 248.556L445.392 290.08C444.851 298.263 434.774 304.823 422.398 304.823C410.09 304.823 400.013 298.263 399.404 290.08V290.012L392.709 248.488C392.98 249.841 393.453 251.193 394.062 252.478C398.119 260.391 409.21 266.072 422.33 266.072C435.451 266.072 446.542 260.391 450.599 252.478C451.276 251.261 451.749 249.908 452.02 248.556Z" fill="#2D7E57" stroke="#1D1D1D" stroke-width="2" stroke-miterlimit="10" stroke-linecap="round" stroke-linejoin="round"/>
<path d="M401.906 250.043C404.07 243.551 415.838 237.938 424.9 239.629" stroke="#1D1D1D" stroke-width="2" stroke-miterlimit="10" stroke-linecap="round" stroke-linejoin="round"/>
<path d="M437.613 255.59C439.507 255.184 441.13 253.764 441.739 251.938C442.347 250.112 441.942 247.948 440.657 246.527" stroke="#1D1D1D" stroke-width="2" stroke-miterlimit="10" stroke-linecap="round" stroke-linejoin="round"/>
<path d="M409.616 254.98C406.64 249.84 412.253 244.633 418.746 244.633" stroke="#1D1D1D" stroke-width="2" stroke-miterlimit="10" stroke-linecap="round" stroke-linejoin="round"/>
<path d="M348.343 337.623L263.469 443.733L242.774 455.095L143.427 363.119C142.21 362.172 141.872 360.076 143.224 358.994C143.292 358.926 143.427 358.859 143.495 358.791L288.086 281.288C289.641 280.477 291.67 280.747 293.023 281.964L348.343 337.623Z" fill="#E5E5E5" stroke="#1D1D1D" stroke-width="2" stroke-miterlimit="10" stroke-linecap="round" stroke-linejoin="round"/>
<path d="M187.926 384.625L310.47 318.957" stroke="#1D1D1D" stroke-width="2" stroke-miterlimit="10" stroke-linecap="round" stroke-linejoin="round"/>
<path d="M195.635 392.133L318.179 326.465" stroke="#1D1D1D" stroke-width="2" stroke-miterlimit="10" stroke-linecap="round" stroke-linejoin="round"/>
<path d="M203.412 399.638L325.888 333.902" stroke="#1D1D1D" stroke-width="2" stroke-miterlimit="10" stroke-linecap="round" stroke-linejoin="round"/>
<path d="M211.123 407.146L333.667 341.41" stroke="#1D1D1D" stroke-width="2" stroke-miterlimit="10" stroke-linecap="round" stroke-linejoin="round"/>
<path d="M218.9 414.651L341.377 348.916" stroke="#1D1D1D" stroke-width="2" stroke-miterlimit="10" stroke-linecap="round" stroke-linejoin="round"/>
<path d="M226.609 422.092L349.153 356.424" stroke="#1D1D1D" stroke-width="2" stroke-miterlimit="10" stroke-linecap="round" stroke-linejoin="round"/>
<path d="M260.494 333.701L229.587 349.661C228.505 350.27 227.288 350.067 226.341 349.188L211.463 334.648C210.786 333.971 210.989 332.889 211.733 332.416L242.64 316.455C243.722 315.847 244.939 316.05 245.886 316.929L260.764 331.469C261.441 332.145 261.238 333.227 260.494 333.701Z" stroke="#1D1D1D" stroke-width="2" stroke-miterlimit="10" stroke-linecap="round" stroke-linejoin="round"/>
<path d="M242.842 454.621L234.862 456.582L144.239 372.046C143.021 370.761 142.278 369.07 142.278 367.379L142.21 362.037C142.142 360.752 142.278 359.602 143.292 358.926C141.939 359.94 142.278 362.104 143.495 363.051L242.842 454.621Z" fill="#E5E5E5" stroke="#1D1D1D" stroke-width="2" stroke-miterlimit="10" stroke-linecap="round" stroke-linejoin="round"/>
<path d="M429.837 292.582L282.27 371.708C281.188 372.317 280.377 373.061 279.903 374.21L244.06 447.858C244.06 447.858 241.49 452.795 240.611 454.283C238.311 458.206 236.891 458.003 236.485 457.867H236.418C235.065 457.259 233.51 455.568 233.51 452.998C233.442 449.549 235.2 447.52 237.5 447.453C237.838 447.453 238.041 447.453 238.311 447.52L275.372 369.071C276.048 367.718 277.13 366.568 278.348 365.892L423.547 289.133C424.291 288.795 425.103 288.795 425.779 289.336L429.837 292.582Z" fill="#E5E5E5" stroke="#1D1D1D" stroke-width="2" stroke-miterlimit="10" stroke-linecap="round" stroke-linejoin="round"/>
<path d="M430.309 293.664L391.422 374.278C391.22 374.819 390.746 375.157 389.461 375.901C389.461 375.901 238.446 457.935 237.634 458.07C237.296 458.138 236.89 458.07 236.484 457.867C236.89 458.07 238.378 458.205 240.61 454.283C241.489 452.795 244.059 447.858 244.059 447.858L279.902 374.21C280.443 373.061 281.187 372.317 282.269 371.708L429.836 292.582L429.971 292.717C430.309 292.92 430.58 293.258 430.309 293.664Z" fill="#E5E5E5" stroke="#1D1D1D" stroke-width="2" stroke-miterlimit="10" stroke-linecap="round" stroke-linejoin="round"/>
<path d="M236.35 457.732C236.35 457.732 236.35 457.732 236.417 457.8H236.485" stroke="#1D1D1D" stroke-width="2" stroke-miterlimit="10" stroke-linecap="round" stroke-linejoin="round"/>
<path d="M404.948 184.984L1 389.9" stroke="#1D1D1D" stroke-width="2" stroke-miterlimit="10" stroke-linecap="round" stroke-linejoin="round"/>
<path d="M407.518 418.913C390.813 424.323 389.528 419.454 389.528 419.454C389.528 419.454 386.891 415.937 394.195 413.299C399.064 411.473 398.32 406.131 398.32 406.131C398.252 399.503 400.822 392.943 406.706 389.562C414.551 385.098 427.265 386.451 431.661 395.175C432.067 395.986 433.352 398.894 433.42 402.005C448.704 397.001 454.79 396.73 454.79 396.73C454.79 396.73 461.08 387.803 466.828 388.818C473.523 390.035 474.538 393.89 475.891 411.27C476.567 419.792 475.755 428.719 470.683 435.955C464.123 445.153 451.747 451.645 441.197 454.824C430.106 458.205 417.527 458.137 408.059 450.631C390.881 437.105 400.011 421.009 400.011 421.009" fill="#FFC600"/>
<path d="M407.518 418.913C390.813 424.323 389.528 419.454 389.528 419.454C389.528 419.454 386.891 415.937 394.195 413.299C399.064 411.473 398.32 406.131 398.32 406.131C398.252 399.503 400.822 392.943 406.706 389.562C414.551 385.098 427.265 386.451 431.661 395.175C432.067 395.986 433.352 398.894 433.42 402.005C448.704 397.001 454.79 396.73 454.79 396.73C454.79 396.73 461.08 387.803 466.828 388.818C473.523 390.035 474.538 393.89 475.891 411.27C476.567 419.792 475.755 428.719 470.683 435.955C464.123 445.153 451.747 451.645 441.197 454.824C430.106 458.205 417.527 458.137 408.059 450.631C390.881 437.105 400.011 421.009 400.011 421.009" stroke="#1D1D1D" stroke-width="2" stroke-miterlimit="10" stroke-linecap="round" stroke-linejoin="round"/>
<path d="M419.352 413.57C421.033 413.57 422.395 411.905 422.395 409.85C422.395 407.796 421.033 406.131 419.352 406.131C417.671 406.131 416.309 407.796 416.309 409.85C416.309 411.905 417.671 413.57 419.352 413.57Z" fill="#1D1D1D" stroke="#1D1D1D" stroke-width="2" stroke-miterlimit="10" stroke-linecap="round" stroke-linejoin="round"/>
<path d="M433.354 401.938C433.354 401.938 433.624 405.319 432.271 409.85" stroke="#1D1D1D" stroke-width="2" stroke-miterlimit="10" stroke-linecap="round" stroke-linejoin="round"/>
<path d="M373.773 580.883L363.358 636.88L248.794 654.937L244.398 601.104L373.773 580.883Z" fill="#2D7E57" stroke="#1D1D1D" stroke-width="2" stroke-miterlimit="10" stroke-linecap="round" stroke-linejoin="round"/>
<path d="M220.254 549.977L230.872 611.587L248.793 654.937L244.465 601.713L220.254 549.977Z" fill="#2D7E57" stroke="#1D1D1D" stroke-width="2" stroke-miterlimit="10" stroke-linecap="round" stroke-linejoin="round"/>
<path d="M380.536 559.513L239.529 582.642L213.289 515.284L349.426 494.521L380.536 559.513Z" fill="#2D7E57" stroke="#1D1D1D" stroke-width="2" stroke-miterlimit="10" stroke-linecap="round" stroke-linejoin="round"/>
<path d="M223.096 520.76L344.693 502.365L370.797 554.034L244.196 574.796L223.096 520.76Z" fill="#1D1D1D" stroke="#1D1D1D" stroke-width="2" stroke-miterlimit="10" stroke-linecap="round" stroke-linejoin="round"/>
<path d="M380.536 559.513L378.845 580.139L240.476 601.713L215.386 539.968L213.289 515.283L239.529 582.642L380.536 559.513Z" fill="#6CCA9D" stroke="#1D1D1D" stroke-width="2" stroke-miterlimit="10" stroke-linecap="round" stroke-linejoin="round"/>
<path d="M239.529 582.643L240.476 601.714" stroke="#1D1D1D" stroke-width="2" stroke-miterlimit="10" stroke-linecap="round" stroke-linejoin="round"/>
<path d="M344.353 500.81C348.749 491.409 355.985 480.048 362.545 480.927C370.323 481.941 368.091 495.67 365.927 502.027C362.14 513.457 356.932 523.06 349.764 535.301C349.764 535.301 340.634 551.261 334.074 549.57C328.596 548.218 330.489 538.006 333.533 529.417C335.832 522.789 339.552 511.022 344.353 500.81Z" fill="#6CCA9D" stroke="#1D1D1D" stroke-width="2" stroke-miterlimit="10" stroke-linecap="round" stroke-linejoin="round"/>
<path d="M315.477 462.871C317.438 455.094 322.646 430.748 334.684 433.791C342.799 435.82 339.147 463.007 336.848 474.368C332.993 493.575 329.341 510.55 322.51 528.945C322.51 528.945 317.506 544.364 311.825 543.418C306.55 542.538 306.212 529.892 306.55 525.023C306.956 520.018 310.811 481.469 315.477 462.871Z" fill="#6CCA9D" stroke="#1D1D1D" stroke-width="2" stroke-miterlimit="10" stroke-linecap="round" stroke-linejoin="round"/>
<path d="M285.786 546.663C290.994 546.393 291.941 532.326 292.008 526.78C292.076 521.235 293.699 470.648 289.574 443.123C288.694 437.307 285.042 403.898 269.826 404.71C256.909 405.454 262.995 458.61 264.077 468.687C266.242 489.178 273.072 523.669 273.748 526.239C274.492 528.944 278.144 547.069 285.786 546.663Z" fill="#6CCA9D" stroke="#1D1D1D" stroke-width="2" stroke-miterlimit="10" stroke-linecap="round" stroke-linejoin="round"/>
<path d="M284.975 530.77C275.845 507.438 271.517 489.178 252.175 459.489C246.833 451.374 231.345 429.597 219.984 437.51C211.463 443.461 218.766 460.774 224.312 470.783C233.577 487.352 253.257 515.215 269.556 538.48C269.556 538.48 278.077 552.411 284.772 549.841C291.468 547.271 286.801 535.436 284.975 530.77Z" fill="#6CCA9D" stroke="#1D1D1D" stroke-width="2" stroke-miterlimit="10" stroke-linecap="round" stroke-linejoin="round"/>
<path d="M273.614 535.979C265.566 524.549 239.394 496.686 219.714 495.401C216.265 495.198 210.449 496.348 209.502 500.338C208.149 506.357 214.912 511.564 219.308 514.405C236.08 525.226 259.006 544.703 261.509 547.002C268.136 553.156 276.049 561.407 280.107 558.161C283.623 555.456 279.904 544.906 273.614 535.979Z" fill="#6CCA9D" stroke="#1D1D1D" stroke-width="2" stroke-miterlimit="10" stroke-linecap="round" stroke-linejoin="round"/>
<path d="M307.902 539.967C308.984 532.663 314.868 476.531 315.68 446.639C315.815 441.364 315.274 420.872 304.927 419.926C290.454 418.641 290.048 460.165 289.507 467.807C287.816 492.153 289.913 531.04 290.589 537.397C291.333 544.904 293.565 554.237 299.043 554.778C306.076 555.387 307.902 539.967 307.902 539.967Z" fill="#6CCA9D" stroke="#1D1D1D" stroke-width="2" stroke-miterlimit="10" stroke-linecap="round" stroke-linejoin="round"/>
<path d="M145.93 441.231C146.403 440.69 147.08 439.54 146.336 438.864C145.321 437.917 142.278 436.226 140.993 435.753C139.64 435.144 138.761 436.429 138.355 437.106L145.93 441.231Z" fill="#FB781E" stroke="#1D1D1D" stroke-width="2" stroke-miterlimit="10" stroke-linecap="round" stroke-linejoin="round"/>
<path d="M158.711 449.617L158.508 453.81C158.441 454.757 158.103 455.568 157.494 456.312L130.848 485.798C129.36 487.489 126.858 487.827 124.897 486.678L112.385 479.374L95.0723 469.297L55.9827 446.506C54.7654 445.762 54.0215 444.477 54.0215 443.057V441.096L158.711 449.617Z" fill="#FB781E" stroke="#1D1D1D" stroke-width="2" stroke-miterlimit="10" stroke-linecap="round" stroke-linejoin="round"/>
<path d="M158.305 450.361L129.428 481.877C128.413 482.959 126.79 483.229 125.505 482.485L54.7652 441.705C53.886 441.164 53.6831 439.947 54.427 439.203L83.3046 409.108C84.3191 408.093 85.8745 407.823 87.1595 408.499L157.899 447.859C158.779 448.4 158.982 449.618 158.305 450.361Z" fill="#FB781E" stroke="#1D1D1D" stroke-width="2" stroke-miterlimit="10" stroke-linecap="round" stroke-linejoin="round"/>
<path d="M60.582 439.473L85.9429 413.436L152.084 450.023L126.791 477.683L60.582 439.473Z" fill="#1D1D1D" stroke="#1D1D1D" stroke-width="2" stroke-miterlimit="10" stroke-linecap="round" stroke-linejoin="round"/>
<path d="M105.96 473.828C105.96 473.828 104.201 475.451 105.216 476.601C106.027 477.548 109.206 479.306 110.423 479.847C112.249 480.659 113.263 478.089 113.263 478.089L105.96 473.828Z" fill="#FB781E" stroke="#1D1D1D" stroke-width="2" stroke-miterlimit="10" stroke-linecap="round" stroke-linejoin="round"/>
<path d="M95.9498 468.08C95.9498 468.08 94.1914 469.703 95.2059 470.853C96.0174 471.8 99.196 473.558 100.413 474.099C102.239 474.911 103.254 472.341 103.254 472.341L95.9498 468.08Z" fill="#FB781E" stroke="#1D1D1D" stroke-width="2" stroke-miterlimit="10" stroke-linecap="round" stroke-linejoin="round"/>
<path d="M495.706 210.346C496.179 210.278 510.855 209.534 511.193 209.264C511.801 208.723 511.057 207.708 511.057 207.099C510.99 205.95 511.801 204.8 510.922 203.786C510.246 203.042 509.096 202.906 508.623 201.892C508.217 201.08 509.164 200.134 509.029 199.254C508.826 198.105 507.203 198.375 507.067 197.09C506.932 195.873 508.014 195.941 508.69 195.264C507.676 194.52 506.256 194.994 506.053 193.235C505.918 192.153 506.864 190.936 505.174 190.666C504.497 190.598 492.459 191.545 491.783 191.612L495.706 210.346Z" fill="#BE957E" stroke="#1D1D1D" stroke-width="2" stroke-miterlimit="10" stroke-linecap="round" stroke-linejoin="round"/>
<path d="M494.826 205.95L511.328 204.598" stroke="#1D1D1D" stroke-width="2" stroke-miterlimit="10" stroke-linecap="round" stroke-linejoin="round"/>
<path d="M445.052 214.606C445.052 214.606 447.149 212.036 449.042 211.833C450.936 211.63 462.703 210.345 462.703 210.345C471.833 209.399 494.827 207.911 497.465 206.693C501.116 204.935 502.199 203.988 504.498 202.771C504.701 202.703 504.836 202.568 504.971 202.433C505.039 202.23 504.971 201.959 504.904 201.757C503.619 198.51 501.86 195.94 501.59 192.288C501.455 190.936 501.522 189.583 501.049 188.298C500.305 186.202 498.411 184.849 496.585 183.564C496.315 183.361 495.977 183.159 495.639 183.294C495.436 183.361 495.3 183.564 495.165 183.767C493.407 186.675 490.364 190.124 486.847 191.206C486.035 191.477 460.336 194.385 453.911 195.061C450.462 195.399 447.013 195.805 443.564 196.143C443.564 196.143 441.197 197.293 440.048 198.713L435.584 198.105C435.584 198.105 437.207 200.336 436.734 201.554C436.26 202.839 437.545 204.462 437.545 204.462C437.545 204.462 436.869 206.558 437.342 207.708C437.816 208.858 438.965 210.345 438.965 210.345C438.965 210.345 438.086 211.833 438.898 212.983C439.709 214.133 440.589 214.133 440.25 215.485C440.048 216.161 445.052 214.606 445.052 214.606Z" fill="#69BAE5" stroke="#1D1D1D" stroke-width="2" stroke-miterlimit="10" stroke-linecap="round" stroke-linejoin="round"/>
<path d="M445.053 214.606C445.053 214.606 446.541 216.973 448.164 216.973C449.787 216.973 482.79 213.321 492.596 212.307C495.775 211.969 498.885 211.631 502.064 211.293C504.634 211.293 506.866 211.428 509.368 211.901C505.175 207.032 497.6 207.167 495.91 207.1C495.91 207.1 451.275 211.225 449.043 211.834C446.811 212.375 445.053 214.606 445.053 214.606Z" fill="#69BAE5" stroke="#1D1D1D" stroke-width="2" stroke-miterlimit="10" stroke-linecap="round" stroke-linejoin="round"/>
<path d="M445.053 214.201L441.266 202.975" stroke="#1D1D1D" stroke-width="2" stroke-miterlimit="10" stroke-linecap="round" stroke-linejoin="round"/>
<path d="M452.086 195.264C452.086 195.264 454.047 203.109 454.994 205.07C455.941 207.031 458.24 207.031 458.24 207.031C458.24 207.031 485.089 204.529 486.577 203.582C488.065 202.636 487.524 200.674 487.524 200.674L483.669 191.68L452.086 195.264Z" fill="#FFC600" stroke="#1D1D1D" stroke-width="2" stroke-miterlimit="10" stroke-linecap="round" stroke-linejoin="round"/>
<path d="M482.45 197.294C481.301 196.82 480.151 196.415 478.866 196.279C477.581 196.144 476.296 196.415 475.349 197.226C474.403 198.038 473.997 199.458 474.538 200.608C474.944 201.351 475.755 201.825 476.567 201.825C476.702 200.608 475.417 199.728 474.267 199.255C471.427 198.105 467.775 198.241 465.814 200.54C465.611 200.81 465.408 201.081 465.07 201.216C464.867 201.284 464.596 201.284 464.394 201.216C462.229 200.878 460.133 200.608 457.969 200.269" stroke="#1D1D1D" stroke-width="2" stroke-miterlimit="10" stroke-linecap="round" stroke-linejoin="round"/>
<path d="M656.934 329.236L548.389 278.041C546.901 277.365 545.752 276.147 545.143 274.592C545.143 274.592 544.332 272.022 543.926 269.182C544.129 270.196 544.264 270.331 544.264 270.331L653.688 321.324C653.688 322.609 653.823 324.232 654.364 325.787C654.905 327.41 655.852 328.56 656.934 329.236Z" fill="#C6F6DA" stroke="#1D1D1D" stroke-width="2" stroke-miterlimit="10" stroke-linecap="round" stroke-linejoin="round"/>
<path d="M760.206 224.412C759.191 226.779 663.023 328.561 663.023 328.561C663.023 328.561 663.09 328.426 663.158 328.223C663.564 327.073 664.713 323.015 661.467 319.769C661.4 319.701 661.4 319.701 661.332 319.634C660.52 318.89 659.506 318.214 658.153 317.537C654.704 315.914 545.822 265.598 545.822 265.598C544.401 264.922 543.928 263.164 544.74 261.879C544.807 261.743 544.875 261.676 544.942 261.54L644.357 165.169C645.439 163.884 647.265 163.478 648.753 164.222L756.08 214.471C756.08 214.538 763.114 217.514 760.206 224.412Z" fill="#C6F6DA" stroke="#1D1D1D" stroke-width="2" stroke-miterlimit="10" stroke-linecap="round" stroke-linejoin="round"/>
<path d="M663.157 328.289C662.684 329.101 662.007 329.71 661.128 330.115C660.114 330.521 658.423 330.318 656.935 329.304C655.853 328.56 654.839 327.478 654.365 325.855C653.892 324.299 653.689 322.676 653.689 321.391L544.265 270.399C544.265 270.399 544.13 270.264 543.927 269.249C543.927 269.249 543.927 269.249 543.927 269.182V269.114C543.859 268.641 543.724 268.032 543.657 267.153C543.454 265.192 543.386 262.757 544.603 261.945C543.792 263.23 544.265 264.989 545.685 265.665C545.685 265.665 654.568 315.981 658.017 317.604C659.032 318.145 660.181 318.754 661.196 319.701C661.263 319.768 661.263 319.768 661.331 319.836C664.713 323.082 663.563 327.14 663.157 328.289Z" fill="#C6F6DA" stroke="#1D1D1D" stroke-width="2" stroke-miterlimit="10" stroke-linecap="round" stroke-linejoin="round"/>
<path d="M661.467 319.77C662.211 320.446 662.819 321.257 663.158 322.204C664.104 324.571 663.969 326.735 663.158 328.223" stroke="#1D1D1D" stroke-width="2" stroke-miterlimit="10" stroke-linecap="round" stroke-linejoin="round"/>
<path d="M630.086 225.697C629.612 224.75 628.125 229.146 631.641 231.378C633.129 232.325 636.24 232.595 634.685 235.436C633.603 237.397 629.68 239.29 630.965 244.024C632.25 248.758 639.486 251.599 644.288 249.84C649.428 247.947 650.036 244.024 650.036 244.024L654.568 254.372L659.369 253.29L653.688 243.01L661.466 251.531L665.05 248.42L656.326 240.372L668.161 240.643L666.403 236.45C666.403 236.45 656.055 237.262 656.055 237.059C661.128 234.421 659.369 229.619 658.49 228.402C653.824 222.045 647.061 224.885 645.235 226.441C643.409 227.996 641.853 230.16 639.216 230.228C637.796 230.228 637.525 228.74 634.482 228.875C633.129 228.875 631.979 229.349 630.086 225.697Z" fill="#1D1D1D" stroke="#1D1D1D" stroke-width="2" stroke-miterlimit="10" stroke-linecap="round" stroke-linejoin="round"/>
<path d="M667.283 312.06L751.819 222.857" stroke="#1D1D1D" stroke-width="2" stroke-miterlimit="10" stroke-linecap="round" stroke-linejoin="round"/>
<path d="M769.537 398.082C777.652 413.366 775.691 429.462 772.377 436.901C763.518 457.122 734.843 465.576 714.216 460.571C678.778 451.915 682.16 412.96 682.633 409.038C682.633 409.038 686.556 449.142 733.22 443.461C780.222 437.78 769.537 398.082 769.537 398.082Z" fill="#C6F6DA" stroke="#1D1D1D" stroke-width="2" stroke-miterlimit="10" stroke-linecap="round" stroke-linejoin="round"/>
<path d="M691.493 358.926L684.528 358.25C684.528 358.25 672.963 362.646 671.137 380.094C669.176 398.76 677.021 406.808 678.441 407.822C678.441 407.822 680.47 410.527 687.436 407.754L691.493 358.926Z" fill="#2D7E57" stroke="#1D1D1D" stroke-width="2" stroke-miterlimit="10" stroke-linecap="round" stroke-linejoin="round"/>
<path d="M767.171 393.754C768.32 395.648 769.335 397.406 770.146 399.841C780.967 433.79 740.457 450.698 712.729 443.664C678.915 435.075 682.77 405.521 682.77 405.521C682.77 405.521 685.069 404.71 686.557 405.792C686.557 405.792 681.147 431.626 712.729 440.621C739.24 448.128 780.629 430.544 765.818 396.256C765.818 396.324 766.359 395.377 767.171 393.754Z" fill="#C6F6DA" stroke="#1D1D1D" stroke-width="2" stroke-miterlimit="10" stroke-linecap="round" stroke-linejoin="round"/>
<path d="M689.668 410.932C690.547 411.879 691.562 412.623 692.711 413.029C695.957 414.178 700.083 413.908 703.329 412.961C718.884 408.362 714.691 362.577 708.401 358.317C702.112 354.056 694.808 355.815 694.808 355.815C694.808 355.815 686.016 361.563 683.852 377.524C682.973 383.948 683.243 390.576 684.258 396.933C684.731 399.976 685.272 403.087 686.489 405.928C687.233 407.483 688.315 409.444 689.668 410.932Z" fill="#6CCA9D" stroke="#1D1D1D" stroke-width="2" stroke-miterlimit="10" stroke-linecap="round" stroke-linejoin="round"/>
<path d="M705.086 383.948C705.018 382.731 704.883 373.466 703.193 373.601C700.69 373.804 700.217 378.876 700.014 380.702C699.676 383.61 699.676 386.586 699.879 389.494C699.946 390.711 700.893 399.976 703.531 397.001C705.289 395.039 705.086 384.016 705.086 383.948Z" fill="#1D1D1D" stroke="#1D1D1D" stroke-width="2" stroke-miterlimit="10" stroke-linecap="round" stroke-linejoin="round"/>
<path d="M702.381 355.746C700.082 355.746 689.396 363.456 689.396 378.875" stroke="#1D1D1D" stroke-width="2" stroke-miterlimit="10" stroke-linecap="round" stroke-linejoin="round"/>
<path d="M731.26 368.934C733.153 367.514 737.82 363.456 740.254 363.05C742.486 362.712 763.045 364.673 769.741 384.421C770.214 385.774 769.944 387.87 769.335 389.155C768.253 391.59 766.292 395.242 765.007 397.541L731.26 368.934Z" fill="#2D7E57" stroke="#1D1D1D" stroke-width="2" stroke-miterlimit="10" stroke-linecap="round" stroke-linejoin="round"/>
<path d="M729.231 367.31C729.231 367.31 727.067 366.295 722.806 370.894C718.613 375.493 718.208 378.739 718.14 380.971C718.005 391.318 727.946 406.941 747.018 412.486C747.018 412.486 753.983 414.177 758.312 412.959C761.152 412.148 765.21 407.887 767.103 402.748C768.997 397.608 750.737 370.421 729.231 367.31Z" fill="#6CCA9D" stroke="#1D1D1D" stroke-width="2" stroke-miterlimit="10" stroke-linecap="round" stroke-linejoin="round"/>
<path d="M739.106 398.624C742.014 400.72 745.328 402.208 746.41 402.208C746.613 401.937 736.671 390.102 730.111 388.006C731.464 392.334 735.454 395.986 739.106 398.624Z" fill="#1D1D1D" stroke="#1D1D1D" stroke-width="2" stroke-miterlimit="10" stroke-linecap="round" stroke-linejoin="round"/>
<path d="M729.365 377.523C733.626 379.214 737.143 382.257 740.456 385.504C745.596 390.441 750.33 395.783 754.726 401.396" stroke="#1D1D1D" stroke-width="2" stroke-miterlimit="10" stroke-linecap="round" stroke-linejoin="round"/>
<path d="M394.262 676.039C394.262 676.039 389.325 673.875 387.973 672.86C386.417 671.711 386.079 670.628 385.876 669.885L359.23 557.688C358.689 555.253 359.839 552.819 362.003 551.737L513.695 476.398C514.574 475.925 515.656 476.06 516.468 476.668L521.472 479.374L394.262 676.039Z" fill="#E5E5E5" stroke="#1D1D1D" stroke-width="2" stroke-miterlimit="10" stroke-linecap="round" stroke-linejoin="round"/>
<path d="M642.055 685.169L486.17 760.71L391.625 666.909L545.954 589.744L642.055 685.169Z" fill="#E5E5E5" stroke="#1D1D1D" stroke-width="2" stroke-miterlimit="10" stroke-linecap="round" stroke-linejoin="round"/>
<path d="M642.055 685.169L641.244 692C641.108 692.879 640.567 693.69 639.823 694.029L488.47 769.706C487.455 770.247 486.238 770.044 485.426 769.232L394.736 679.218L391.625 666.842L486.103 760.643L642.055 685.169Z" fill="#E5E5E5" stroke="#1D1D1D" stroke-width="2" stroke-miterlimit="10" stroke-linecap="round" stroke-linejoin="round"/>
<path d="M545.955 589.744L391.626 666.908L365.791 558.634C365.521 557.417 366.062 556.2 367.211 555.658L520.729 479.508C521.473 479.102 522.42 479.576 522.623 480.455L545.955 589.744Z" fill="#E5E5E5" stroke="#1D1D1D" stroke-width="2" stroke-miterlimit="10" stroke-linecap="round" stroke-linejoin="round"/>
<path d="M369.916 558.77L519.444 484.648L541.423 587.58L394.33 661.093L369.916 558.77Z" fill="#B4B4B4" stroke="#1D1D1D" stroke-width="2" stroke-miterlimit="10" stroke-linecap="round" stroke-linejoin="round"/>
<path d="M509.434 527.66L417.661 573.445L416.173 567.223C415.768 565.397 416.579 563.571 418.27 562.692L504.226 520.086C505.782 519.342 507.608 520.221 508.014 521.844L509.434 527.66Z" fill="#B4B4B4" stroke="#1D1D1D" stroke-width="2" stroke-miterlimit="10" stroke-linecap="round" stroke-linejoin="round"/>
<path d="M519.309 582.101L433.42 625.045C431.865 625.789 430.039 624.978 429.633 623.287L417.73 573.377L509.503 527.592L521.473 577.57C521.811 579.396 520.932 581.289 519.309 582.101Z" fill="#F7F7F7" stroke="#1D1D1D" stroke-width="2" stroke-miterlimit="10" stroke-linecap="round" stroke-linejoin="round"/>
<path d="M503.278 527.796C504.249 527.796 505.036 526.767 505.036 525.497C505.036 524.227 504.249 523.197 503.278 523.197C502.307 523.197 501.52 524.227 501.52 525.497C501.52 526.767 502.307 527.796 503.278 527.796Z" fill="#1D1D1D" stroke="#1D1D1D" stroke-width="2" stroke-miterlimit="10" stroke-linecap="round" stroke-linejoin="round"/>
<path d="M497.665 530.569C498.636 530.569 499.423 529.54 499.423 528.27C499.423 527 498.636 525.971 497.665 525.971C496.694 525.971 495.906 527 495.906 528.27C495.906 529.54 496.694 530.569 497.665 530.569Z" fill="#1D1D1D" stroke="#1D1D1D" stroke-width="2" stroke-miterlimit="10" stroke-linecap="round" stroke-linejoin="round"/>
<path d="M492.12 533.409C493.091 533.409 493.878 532.38 493.878 531.11C493.878 529.84 493.091 528.811 492.12 528.811C491.149 528.811 490.361 529.84 490.361 531.11C490.361 532.38 491.149 533.409 492.12 533.409Z" fill="#1D1D1D" stroke="#1D1D1D" stroke-width="2" stroke-miterlimit="10" stroke-linecap="round" stroke-linejoin="round"/>
<path d="M485.494 529.352L393.722 575.137L392.234 568.915C391.828 567.089 392.64 565.263 394.33 564.383L480.287 521.777C481.842 521.033 483.668 521.912 484.074 523.536L485.494 529.352Z" fill="#B4B4B4" stroke="#1D1D1D" stroke-width="2" stroke-miterlimit="10" stroke-linecap="round" stroke-linejoin="round"/>
<path d="M495.368 583.794L409.479 626.739C407.924 627.483 406.098 626.671 405.692 624.98L393.789 575.07L485.562 529.285L497.532 579.263C497.87 581.089 496.991 582.983 495.368 583.794Z" fill="#F7F7F7" stroke="#1D1D1D" stroke-width="2" stroke-miterlimit="10" stroke-linecap="round" stroke-linejoin="round"/>
<path d="M479.338 529.487C480.31 529.487 481.097 528.458 481.097 527.188C481.097 525.918 480.31 524.889 479.338 524.889C478.367 524.889 477.58 525.918 477.58 527.188C477.58 528.458 478.367 529.487 479.338 529.487Z" fill="#1D1D1D" stroke="#1D1D1D" stroke-width="2" stroke-miterlimit="10" stroke-linecap="round" stroke-linejoin="round"/>
<path d="M473.725 532.261C474.696 532.261 475.483 531.231 475.483 529.961C475.483 528.692 474.696 527.662 473.725 527.662C472.754 527.662 471.967 528.692 471.967 529.961C471.967 531.231 472.754 532.261 473.725 532.261Z" fill="#1D1D1D" stroke="#1D1D1D" stroke-width="2" stroke-miterlimit="10" stroke-linecap="round" stroke-linejoin="round"/>
<path d="M468.18 535.101C469.151 535.101 469.939 534.071 469.939 532.801C469.939 531.531 469.151 530.502 468.18 530.502C467.209 530.502 466.422 531.531 466.422 532.801C466.422 534.071 467.209 535.101 468.18 535.101Z" fill="#1D1D1D" stroke="#1D1D1D" stroke-width="2" stroke-miterlimit="10" stroke-linecap="round" stroke-linejoin="round"/>
<path d="M402.785 578.18L424.968 567.021" stroke="#1D1D1D" stroke-width="2" stroke-miterlimit="10" stroke-linecap="round" stroke-linejoin="round"/>
<path d="M411.307 580.952L463.651 554.645" stroke="#1D1D1D" stroke-width="2" stroke-miterlimit="10" stroke-linecap="round" stroke-linejoin="round"/>
<path d="M413.133 587.173L460.473 563.436" stroke="#1D1D1D" stroke-width="2" stroke-miterlimit="10" stroke-linecap="round" stroke-linejoin="round"/>
<path d="M407.52 597.048L450.802 575.406" stroke="#1D1D1D" stroke-width="2" stroke-miterlimit="10" stroke-linecap="round" stroke-linejoin="round"/>
<path d="M416.986 599.415L470.684 572.566" stroke="#1D1D1D" stroke-width="2" stroke-miterlimit="10" stroke-linecap="round" stroke-linejoin="round"/>
<path d="M426.252 601.917L461.757 584.131" stroke="#1D1D1D" stroke-width="2" stroke-miterlimit="10" stroke-linecap="round" stroke-linejoin="round"/>
<path d="M427.537 608.342L471.496 586.43" stroke="#1D1D1D" stroke-width="2" stroke-miterlimit="10" stroke-linecap="round" stroke-linejoin="round"/>
<path d="M429.768 673.132L545.819 617.135" stroke="#1D1D1D" stroke-width="2" stroke-miterlimit="10" stroke-linecap="round" stroke-linejoin="round"/>
<path d="M436.869 680.841L552.921 624.844" stroke="#1D1D1D" stroke-width="2" stroke-miterlimit="10" stroke-linecap="round" stroke-linejoin="round"/>
<path d="M443.971 688.484L560.022 632.555" stroke="#1D1D1D" stroke-width="2" stroke-miterlimit="10" stroke-linecap="round" stroke-linejoin="round"/>
<path d="M451.07 696.192L567.122 640.195" stroke="#1D1D1D" stroke-width="2" stroke-miterlimit="10" stroke-linecap="round" stroke-linejoin="round"/>
<path d="M458.172 703.903L574.223 647.906" stroke="#1D1D1D" stroke-width="2" stroke-miterlimit="10" stroke-linecap="round" stroke-linejoin="round"/>
<path d="M465.205 711.544L581.324 655.615" stroke="#1D1D1D" stroke-width="2" stroke-miterlimit="10" stroke-linecap="round" stroke-linejoin="round"/>
<path d="M570.774 698.492L532.36 717.834C531.346 718.375 530.129 718.172 529.317 717.36L513.018 701.4C512.342 700.791 512.545 699.641 513.357 699.236L551.77 679.894C552.784 679.353 554.002 679.556 554.813 680.367L571.112 696.328C571.788 697.004 571.585 698.086 570.774 698.492Z" stroke="#1D1D1D" stroke-width="2" stroke-miterlimit="10" stroke-linecap="round" stroke-linejoin="round"/>
<path d="M289.846 814.273C281.663 813.596 276.455 803.858 275.17 797.298C273.209 787.356 275.914 781.675 284.435 782.419L290.319 772.816C282.812 771.125 276.59 771.734 271.856 776.941C267.799 781.405 266.446 788.236 266.784 794.254C268.001 816.166 287.343 826.716 291.739 826.852L289.846 814.273Z" fill="#FFC7D9" stroke="#1D1D1D" stroke-width="2" stroke-miterlimit="10" stroke-linecap="round" stroke-linejoin="round"/>
<path d="M278.755 783.096C278.755 783.096 271.18 785.666 270.504 795.472" stroke="#1D1D1D" stroke-width="2" stroke-miterlimit="10" stroke-linecap="round" stroke-linejoin="round"/>
<path d="M364.034 788.505C364.034 791.819 363.155 794.997 361.531 797.905C355.648 808.388 340.364 815.827 322.374 815.827C304.385 815.827 289.033 808.388 283.217 797.905C281.729 795.268 280.85 792.36 280.715 789.452C280.715 789.317 280.715 789.249 280.715 789.114C280.715 788.911 280.715 788.708 280.715 788.505C280.715 773.424 299.38 761.115 322.442 761.115C345.368 761.115 364.034 773.356 364.034 788.505Z" fill="#FF7CAA" stroke="#1D1D1D" stroke-width="2" stroke-miterlimit="10" stroke-linecap="round" stroke-linejoin="round"/>
<path d="M361.531 797.906C355.647 808.388 340.363 815.828 322.374 815.828C304.385 815.828 289.033 808.388 283.217 797.906C284.299 783.433 301.409 772.004 322.374 772.004C343.339 772.004 360.449 783.433 361.531 797.906Z" fill="#91664E" stroke="#1D1D1D" stroke-width="2" stroke-miterlimit="10" stroke-linecap="round" stroke-linejoin="round"/>
<path d="M343.745 838.348C338.876 842.676 331.166 845.516 322.374 845.516C312.433 845.516 303.709 841.864 299.245 836.522C299.245 836.454 299.178 836.454 299.178 836.386C289.98 826.039 285.314 814.069 283.014 804.668C281.188 797.297 280.782 791.548 280.715 789.384C280.85 792.36 281.729 795.2 283.217 797.838C289.101 808.32 304.385 815.76 322.374 815.76C340.364 815.76 355.715 808.32 361.531 797.838C363.155 794.93 364.034 791.751 364.034 788.438C365.725 815.76 348.817 834.087 343.745 838.348Z" fill="#FFC7D9" stroke="#1D1D1D" stroke-width="2" stroke-miterlimit="10" stroke-linecap="round" stroke-linejoin="round"/>
<path d="M280.648 789.115C280.648 788.709 280.648 788.506 280.648 788.506" stroke="#1D1D1D" stroke-width="2" stroke-miterlimit="10" stroke-linecap="round" stroke-linejoin="round"/>
<path d="M292.889 828.203C293.768 829.42 297.217 833.343 299.584 829.894C302.56 825.498 293.836 823.739 292.686 823.401C294.377 822.59 300.396 820.493 297.623 816.638C294.715 812.581 290.792 818.126 290.116 819.276C290.116 817.112 287.276 810.281 285.179 810.89C285.111 810.89 287.546 820.696 292.889 828.203Z" fill="white" stroke="#1D1D1D" stroke-width="2" stroke-miterlimit="10" stroke-linecap="round" stroke-linejoin="round"/>
<path d="M309.457 829.894C309.931 825.363 317.37 828.136 320.21 829.218C318.52 828.203 315.138 821.846 319.669 820.561C324.742 819.073 325.621 825.228 324.404 829.285C328.461 828.136 335.359 825.769 335.359 831.247C335.359 836.792 325.418 834.493 324.336 832.667C324.674 834.357 326.703 842.135 321.022 842.135C316.423 842.135 318.114 835.237 320.143 832.802C316.288 834.425 308.984 835.169 309.457 829.894Z" fill="white" stroke="#1D1D1D" stroke-width="2" stroke-miterlimit="10" stroke-linecap="round" stroke-linejoin="round"/>
<path d="M359.707 815.151L356.663 818.6C356.663 818.6 358.76 810.079 354.905 810.485C349.63 811.093 352.876 817.856 353.012 819.277C351.186 818.262 343.07 814.272 342.394 819.277C341.853 823.47 347.466 823.267 351.794 822.32C349.427 822.996 344.423 827.798 347.736 830.165C350.509 832.126 352.132 828.812 353.012 827.595C353.012 827.662 357.205 820.629 359.707 815.151Z" fill="white" stroke="#1D1D1D" stroke-width="2" stroke-miterlimit="10" stroke-linecap="round" stroke-linejoin="round"/>
<path d="M296.135 787.49C299.178 784.311 303.168 782.147 307.429 780.862C311.622 779.51 316.018 778.969 320.414 778.428" stroke="#1D1D1D" stroke-width="2" stroke-miterlimit="10" stroke-linecap="round" stroke-linejoin="round"/>
<path d="M459.458 869.119C470.414 825.228 487.05 788.235 488.674 771.057C489.958 757.261 487.186 744.411 479.814 732.644C476.027 726.693 460.743 708.771 459.525 701.332C458.849 697.206 462.433 694.839 465.342 696.259C469.129 698.085 479.003 711.679 482.316 716.21C479.408 707.824 472.375 684.695 471.563 680.367C470.955 677.256 469.805 671.169 472.713 669.005C476.771 665.962 480.49 672.386 481.505 675.903C485.36 689.767 492.19 710.056 491.987 708.636L483.331 682.26C480.355 673.13 479.07 667.585 480.085 664.271C481.505 659.537 485.63 659.74 488.133 663.189C490.635 666.638 492.326 672.454 494.354 678.676C498.345 690.714 505.175 707.351 505.175 707.351C505.175 707.351 501.726 687.062 500.712 677.323C500.238 672.86 499.021 663.662 502.47 661.498C508.015 657.981 510.924 669.749 511.6 673.13C512.073 675.43 515.725 694.028 517.416 700.926C518.295 704.375 520.662 713.64 523.638 720.944C522.759 716.21 521.744 693.216 528.845 688.144C530.063 687.265 531.889 687.332 533.173 688.212C534.256 688.956 534.864 690.24 535.27 691.525C535.946 694.028 535.879 711.949 539.733 727.301C541.898 735.958 537.096 755.3 532.091 770.381C532.091 770.381 534.864 866.955 535.135 877.235C535.338 887.514 537.637 953.858 490.432 945.472C439.507 936.342 459.458 869.119 459.458 869.119Z" fill="#FFD4B6" stroke="#1D1D1D" stroke-width="2" stroke-miterlimit="10" stroke-linecap="round" stroke-linejoin="round"/>
<path d="M523.639 720.809C523.639 720.809 525.059 724.122 526.75 726.828" stroke="#1D1D1D" stroke-width="2" stroke-miterlimit="10" stroke-linecap="round" stroke-linejoin="round"/>
<path d="M469.398 890.084C469.398 890.084 503.551 802.031 517.28 759.154L586.397 802.031C586.397 802.031 557.925 919.029 512.478 942.699" fill="#FFD4B6"/>
<path d="M469.398 890.084C469.398 890.084 503.551 802.031 517.28 759.154L586.397 802.031C586.397 802.031 557.925 919.029 512.478 942.699" stroke="#1D1D1D" stroke-width="2" stroke-miterlimit="10" stroke-linecap="round" stroke-linejoin="round"/>
<path d="M621.022 706.067C621.022 706.067 604.927 691.188 595.932 684.899C594.376 683.817 589.169 680.909 583.15 681.788C578.281 682.464 571.653 681.044 567.19 678.745C564.62 677.46 555.219 669.412 552.582 667.586C548.524 664.813 544.06 661.634 540.408 658.253C538.447 656.427 536.283 652.843 540.273 650.678C547.983 646.553 559.683 657.509 565.296 662.04C561.915 656.495 557.992 650.814 554.205 645.539C550.891 640.94 547.51 636.341 540.679 636.679C537.906 636.815 533.307 636.95 531.481 634.245C527.491 628.361 540.882 626.67 544.263 626.467C551.905 625.926 561.171 634.312 565.161 640.061C560.9 629.578 555.557 624.303 546.427 620.584C543.249 619.299 531.481 615.917 533.916 610.98C536.689 605.435 556.978 614.024 561.576 616.526C565.634 618.758 571.856 625.52 574.832 630.525C574.155 628.293 571.112 618.758 569.421 617.067C567.731 615.309 565.634 615.241 562.794 617.337C559.818 615.647 554.949 613.212 554.949 613.212C558.33 609.087 564.282 604.894 569.759 606.381C577.604 608.478 581.933 618.419 585.72 626.738C584.638 621.53 582 611.386 581.392 606.314C581.189 604.623 581.121 602.324 582.947 601.309C584.841 600.227 586.464 601.445 587.072 602.391C590.454 607.328 594.038 622.004 596.338 628.226C600.531 639.384 601.883 643.104 607.361 649.799C613.515 657.306 634.751 670.9 641.649 675.769L621.022 706.067Z" fill="#FFD4B6" stroke="#1D1D1D" stroke-width="2" stroke-miterlimit="10" stroke-linecap="round" stroke-linejoin="round"/>
<path d="M559.819 929.513L560.968 786.275L518.43 757.938C522.149 744.954 528.101 734.945 538.177 726.829C555.896 712.559 595.865 694.367 601.681 691.662L689.058 657.307C689.058 657.307 742.958 629.24 767.981 633.839C792.462 638.303 801.66 657.442 801.322 695.99C800.984 728.52 780.627 893.467 780.627 893.467C780.627 893.467 700.825 993.761 559.819 929.513Z" fill="#A09CE0" stroke="#1D1D1D" stroke-width="2" stroke-miterlimit="10" stroke-linecap="round" stroke-linejoin="round"/>
<path d="M522.352 747.252C513.695 764.971 505.309 795.404 483.465 853.294C500.507 893.601 564.349 902.663 569.692 900.026L597.42 807.983" fill="#A09CE0"/>
<path d="M522.352 747.252C513.695 764.971 505.309 795.404 483.465 853.294C500.507 893.601 564.349 902.663 569.692 900.026L597.42 807.983" stroke="#1D1D1D" stroke-width="2" stroke-miterlimit="10" stroke-linecap="round" stroke-linejoin="round"/>
<path d="M692.709 622.206C694.467 642.697 697.781 652.977 697.781 652.977L712.93 646.281C723.345 669.005 716.379 691.322 696.564 699.032C662.005 712.49 622.713 699.032 613.042 687.197L631.911 679.758C626.094 662.715 622.51 644.185 622.51 644.185C611.892 646.89 605.332 649.595 596.743 646.823C586.193 643.441 584.3 626.466 581.053 614.293C578.281 603.743 572.803 594.816 572.803 594.816C572.803 594.816 579.836 586.024 590.657 580.546C587.275 546.461 599.922 532.462 610.946 526.713C621.969 520.965 656.866 507.439 685.202 535.573C715.432 565.532 692.709 622.206 692.709 622.206Z" fill="#FFD4B6" stroke="#1D1D1D" stroke-width="2" stroke-miterlimit="10" stroke-linecap="round" stroke-linejoin="round"/>
<path d="M714.891 563.572C722.465 534.83 704.138 503.855 685.81 492.359C680.603 489.045 673.231 489.721 675.598 497.431C668.294 484.919 644.624 471.055 632.316 475.992C626.026 478.495 629.475 489.18 632.654 492.02C625.282 485.325 603.979 478.156 594.241 483.296C584.975 488.233 593.7 502.232 606.143 511.295C600.868 510.348 583.42 508.454 583.42 518.125C583.42 532.801 611.486 533.95 618.046 545.447C625.688 558.838 624.538 575.407 622.509 589.947C620.819 602.12 623.592 600.43 624.876 597.995C627.041 593.734 629.137 584.537 636.171 584.334C646.856 584.063 647.735 594.681 647.735 602.323C647.735 613.82 648.411 625.858 650.237 638.64C661.937 630.119 680.806 620.515 693.047 623.897C693.047 623.965 708.669 587.107 714.891 563.572Z" fill="#1D1D1D" stroke="#1D1D1D" stroke-width="2" stroke-miterlimit="10" stroke-linecap="round" stroke-linejoin="round"/>
<path d="M581.053 614.225C581.053 614.225 590.927 615.105 597.419 609.965" stroke="#1D1D1D" stroke-width="2" stroke-miterlimit="10" stroke-linecap="round" stroke-linejoin="round"/>
<path d="M598.567 572.904C602.49 572.498 603.234 580.208 602.693 582.305C602.422 583.319 601.814 584.401 600.529 584.604C599.041 584.807 597.891 583.657 597.282 582.575C596.133 580.479 593.901 574.865 597.282 573.242C597.756 573.039 598.162 572.904 598.567 572.904Z" fill="#1D1D1D"/>
<path d="M590.656 562.219C593.902 559.244 601.612 559.244 605.805 565.127" stroke="#1D1D1D" stroke-width="2" stroke-miterlimit="10" stroke-linecap="round" stroke-linejoin="round"/>
<path d="M626.365 611.386C629.544 617.067 639.485 620.313 646.045 608.072C651.253 598.334 650.441 587.919 642.19 584.402C629.476 580.142 626.365 594.614 626.365 594.614" fill="#FFD4B6"/>
<path d="M626.365 611.386C629.544 617.067 639.485 620.313 646.045 608.072C651.253 598.334 650.441 587.919 642.19 584.402C629.476 580.142 626.365 594.614 626.365 594.614" stroke="#1D1D1D" stroke-width="2" stroke-miterlimit="10" stroke-linecap="round" stroke-linejoin="round"/>
<path d="M637.523 608.343C636.712 609.831 634.615 610.237 633.06 609.493C630.355 608.208 629.408 604.015 630.287 601.445C632.722 594.479 639.688 599.078 638.132 601.377C636.915 603.203 633.872 602.053 632.722 598.604C631.91 596.17 631.437 590.692 635.968 588.731C638.335 587.716 642.393 588.392 643.813 593.532" stroke="#1D1D1D" stroke-width="2" stroke-miterlimit="10" stroke-linecap="round" stroke-linejoin="round"/>
<path d="M588.426 837.808C588.426 837.808 598.908 830.572 605.536 822.186" stroke="#1D1D1D" stroke-width="2" stroke-miterlimit="10" stroke-linecap="round" stroke-linejoin="round"/>
<path d="M582.271 353.042C582.271 353.65 582.271 354.327 582.136 354.8L582 355.814C581.73 357.302 581.257 358.587 580.513 359.94C576.252 368.326 564.417 374.277 550.621 374.277C536.689 374.277 524.854 368.258 520.729 359.94C520.12 358.587 519.444 357.167 519.241 355.814V355.544C519.105 354.8 519.105 353.921 519.105 353.177C519.105 341.342 533.308 331.806 550.756 331.806C568.069 331.671 582.271 341.274 582.271 353.042Z" fill="#FB781E" stroke="#1D1D1D" stroke-width="2" stroke-miterlimit="10" stroke-linecap="round" stroke-linejoin="round"/>
<path d="M536.014 411.203L578.349 271.617L580.852 272.091L538.854 411.677L536.014 411.203Z" fill="#1D1D1D" stroke="#1D1D1D" stroke-width="2" stroke-miterlimit="10" stroke-linecap="round" stroke-linejoin="round"/>
<path d="M633.671 319.093L628.058 341.748C628.058 341.748 598.166 317.199 565.975 312.465L572.332 291.5C602.765 296.843 622.174 309.557 633.671 319.093Z" fill="#FFC600" stroke="#1D1D1D" stroke-width="2" stroke-miterlimit="10" stroke-linecap="round" stroke-linejoin="round"/>
<path d="M638.607 298.804L633.67 319.093C622.173 309.557 602.763 296.775 572.33 291.5L578.349 271.617C578.687 271.82 616.086 271.955 638.607 298.804Z" fill="#69BAE5" stroke="#1D1D1D" stroke-width="2" stroke-miterlimit="10" stroke-linecap="round" stroke-linejoin="round"/>
<path d="M548.863 411.136L520.256 321.257L519.039 301.645L530.265 317.47L559.008 408.093C559.008 408.025 555.626 412.218 548.863 411.136Z" fill="#F0DFD6" stroke="#1D1D1D" stroke-width="2" stroke-miterlimit="10" stroke-linecap="round" stroke-linejoin="round"/>
<path d="M520.258 321.258C520.258 321.258 527.832 321.19 530.267 317.471" stroke="#1D1D1D" stroke-width="2" stroke-miterlimit="10" stroke-linecap="round" stroke-linejoin="round"/>
<path d="M538.922 408.702L577.403 326.127L588.967 312.736L586.465 330.388L548.66 413.301C548.66 413.368 543.656 413.098 538.922 408.702Z" fill="#91664E" stroke="#1D1D1D" stroke-width="2" stroke-miterlimit="10" stroke-linecap="round" stroke-linejoin="round"/>
<path d="M577.268 326.465C577.268 326.465 579.635 330.861 586.195 330.861" stroke="#1D1D1D" stroke-width="2" stroke-miterlimit="10" stroke-linecap="round" stroke-linejoin="round"/>
<path d="M582.002 355.815L574.968 399.774C574.36 408.431 563.674 415.464 550.622 415.464C537.569 415.464 526.884 408.566 526.275 399.774V399.639L519.039 355.545C519.31 357.033 519.783 358.318 520.527 359.67C524.788 368.056 536.623 374.008 550.419 374.008C564.215 374.008 576.186 367.989 580.446 359.67C581.122 358.723 581.731 357.303 582.002 355.815Z" fill="#FF9E5A" stroke="#1D1D1D" stroke-width="2" stroke-miterlimit="10" stroke-linecap="round" stroke-linejoin="round"/>
<path d="M696.089 216.025C694.804 220.083 696.089 226.373 696.089 226.373L646.246 272.225L549.334 231.445C549.334 231.445 550.957 227.59 549.334 221.841L696.089 216.025Z" fill="#FFC600" stroke="#1D1D1D" stroke-width="2" stroke-miterlimit="10" stroke-linecap="round" stroke-linejoin="round"/>
<path d="M696.09 216.026L646.315 262.081L549.268 221.774L599.11 175.719L696.09 216.026Z" fill="#FFF6EF" stroke="#1D1D1D" stroke-width="2" stroke-miterlimit="10" stroke-linecap="round" stroke-linejoin="round"/>
<path d="M695.549 219.812L646.315 265.327L549.943 225.29" stroke="#1D1D1D" stroke-width="2" stroke-miterlimit="10" stroke-linecap="round" stroke-linejoin="round"/>
<path d="M695.55 223.396L646.316 268.911L549.877 228.874" stroke="#1D1D1D" stroke-width="2" stroke-miterlimit="10" stroke-linecap="round" stroke-linejoin="round"/>
<path d="M603.844 184.916C604.927 184.916 605.805 184.311 605.805 183.564C605.805 182.817 604.927 182.211 603.844 182.211C602.761 182.211 601.883 182.817 601.883 183.564C601.883 184.311 602.761 184.916 603.844 184.916Z" fill="#1D1D1D" stroke="#1D1D1D" stroke-width="2" stroke-miterlimit="10" stroke-linecap="round" stroke-linejoin="round"/>
<path d="M614.799 189.447C615.882 189.447 616.76 188.842 616.76 188.095C616.76 187.348 615.882 186.742 614.799 186.742C613.716 186.742 612.838 187.348 612.838 188.095C612.838 188.842 613.716 189.447 614.799 189.447Z" fill="#1D1D1D" stroke="#1D1D1D" stroke-width="2" stroke-miterlimit="10" stroke-linecap="round" stroke-linejoin="round"/>
<path d="M625.825 193.979C626.908 193.979 627.786 193.373 627.786 192.626C627.786 191.879 626.908 191.273 625.825 191.273C624.741 191.273 623.863 191.879 623.863 192.626C623.863 193.373 624.741 193.979 625.825 193.979Z" fill="#1D1D1D" stroke="#1D1D1D" stroke-width="2" stroke-miterlimit="10" stroke-linecap="round" stroke-linejoin="round"/>
<path d="M636.78 198.576C637.863 198.576 638.741 197.971 638.741 197.224C638.741 196.477 637.863 195.871 636.78 195.871C635.696 195.871 634.818 196.477 634.818 197.224C634.818 197.971 635.696 198.576 636.78 198.576Z" fill="#1D1D1D" stroke="#1D1D1D" stroke-width="2" stroke-miterlimit="10" stroke-linecap="round" stroke-linejoin="round"/>
<path d="M647.737 203.108C648.82 203.108 649.698 202.502 649.698 201.755C649.698 201.008 648.82 200.402 647.737 200.402C646.653 200.402 645.775 201.008 645.775 201.755C645.775 202.502 646.653 203.108 647.737 203.108Z" fill="#1D1D1D" stroke="#1D1D1D" stroke-width="2" stroke-miterlimit="10" stroke-linecap="round" stroke-linejoin="round"/>
<path d="M658.758 207.639C659.841 207.639 660.719 207.033 660.719 206.286C660.719 205.539 659.841 204.934 658.758 204.934C657.675 204.934 656.797 205.539 656.797 206.286C656.797 207.033 657.675 207.639 658.758 207.639Z" fill="#1D1D1D" stroke="#1D1D1D" stroke-width="2" stroke-miterlimit="10" stroke-linecap="round" stroke-linejoin="round"/>
<path d="M669.715 212.17C670.798 212.17 671.676 211.564 671.676 210.817C671.676 210.07 670.798 209.465 669.715 209.465C668.632 209.465 667.754 210.07 667.754 210.817C667.754 211.564 668.632 212.17 669.715 212.17Z" fill="#1D1D1D" stroke="#1D1D1D" stroke-width="2" stroke-miterlimit="10" stroke-linecap="round" stroke-linejoin="round"/>
<path d="M680.739 216.701C681.822 216.701 682.7 216.096 682.7 215.349C682.7 214.602 681.822 213.996 680.739 213.996C679.655 213.996 678.777 214.602 678.777 215.349C678.777 216.096 679.655 216.701 680.739 216.701Z" fill="#1D1D1D" stroke="#1D1D1D" stroke-width="2" stroke-miterlimit="10" stroke-linecap="round" stroke-linejoin="round"/>
<path d="M603.844 184.375C603.1 182.211 604.047 178.424 606.414 177.004C607.699 176.26 609.931 176.868 609.322 179.709" stroke="#1D1D1D" stroke-width="2" stroke-miterlimit="10" stroke-linecap="round" stroke-linejoin="round"/>
<path d="M614.868 188.838C614.124 186.674 615.07 182.887 617.437 181.466C618.722 180.723 620.954 181.331 620.346 184.172" stroke="#1D1D1D" stroke-width="2" stroke-miterlimit="10" stroke-linecap="round" stroke-linejoin="round"/>
<path d="M625.891 193.303C625.147 191.139 626.094 187.352 628.461 185.931C629.746 185.187 631.978 185.796 631.369 188.636" stroke="#1D1D1D" stroke-width="2" stroke-miterlimit="10" stroke-linecap="round" stroke-linejoin="round"/>
<path d="M636.914 197.766C636.171 195.602 637.117 191.814 639.484 190.394C640.769 189.65 643.001 190.259 642.392 193.099" stroke="#1D1D1D" stroke-width="2" stroke-miterlimit="10" stroke-linecap="round" stroke-linejoin="round"/>
<path d="M647.938 202.229C647.194 200.065 648.141 196.277 650.508 194.857C651.793 194.113 654.025 194.722 653.416 197.562" stroke="#1D1D1D" stroke-width="2" stroke-miterlimit="10" stroke-linecap="round" stroke-linejoin="round"/>
<path d="M658.895 206.693C658.151 204.529 659.098 200.742 661.465 199.322C662.75 198.578 664.982 199.187 664.373 202.027" stroke="#1D1D1D" stroke-width="2" stroke-miterlimit="10" stroke-linecap="round" stroke-linejoin="round"/>
<path d="M669.918 211.156C669.174 208.992 670.121 205.205 672.488 203.785C673.773 203.041 676.005 203.65 675.396 206.49" stroke="#1D1D1D" stroke-width="2" stroke-miterlimit="10" stroke-linecap="round" stroke-linejoin="round"/>
<path d="M680.942 215.688C680.198 213.523 681.145 209.736 683.512 208.316C684.797 207.572 687.028 208.181 686.42 211.021" stroke="#1D1D1D" stroke-width="2" stroke-miterlimit="10" stroke-linecap="round" stroke-linejoin="round"/>
<path d="M592.619 230.904C590.928 226.576 592.484 223.533 596.677 222.248C599.382 221.436 602.898 221.571 605.13 223.6C607.768 225.967 603.981 226.441 602.831 224.344C601.478 221.842 601.343 218.46 602.628 215.958C604.386 212.306 608.579 210.007 612.637 210.413C611.893 206.558 614.193 202.365 617.844 200.877" stroke="#1D1D1D" stroke-width="2" stroke-miterlimit="10" stroke-linecap="round" stroke-linejoin="round"/>
<path d="M668.094 223.195C667.891 223.331 667.688 223.466 667.418 223.601C666.336 224.074 665.118 224.074 663.969 224.007C664.172 228.065 662.143 232.325 658.288 233.948C656.868 234.557 655.245 235.166 653.757 234.557C651.119 233.543 652.404 229.214 655.042 232.122C656.868 234.219 656.732 239.088 655.447 241.388C654.298 243.416 652.134 244.701 649.834 245.445C647.603 246.122 645.033 246.122 642.936 247.001C641.854 247.474 640.907 248.286 640.096 249.165" stroke="#1D1D1D" stroke-width="2" stroke-miterlimit="10" stroke-linecap="round" stroke-linejoin="round"/>
<path d="M627.853 245.444C626.162 240.98 628.124 235.435 632.249 233.068C633.331 232.459 634.548 232.053 635.766 232.256C636.983 232.459 638.133 233.406 638.2 234.623C638.2 234.894 638.2 235.232 637.997 235.435C637.659 235.84 636.915 235.773 636.51 235.435C636.104 235.097 635.901 234.488 635.766 233.947C634.886 230.363 635.225 226.305 637.524 223.397C639.823 220.489 644.219 219.204 647.398 221.097C648.75 219.136 650.171 217.242 651.523 215.281" stroke="#1D1D1D" stroke-width="2" stroke-miterlimit="10" stroke-linecap="round" stroke-linejoin="round"/>
<path d="M632.048 206.625C633.671 212.306 630.086 219.001 624.405 220.759C623.121 221.165 621.295 220.759 620.686 219.407C620.415 218.798 620.28 217.987 620.618 217.378C620.956 216.769 621.633 216.431 622.309 216.499C624.338 216.769 623.932 220.354 623.594 221.774C623.121 224.141 621.768 226.373 619.942 227.996C616.696 230.904 612.435 232.189 608.242 233.406" stroke="#1D1D1D" stroke-width="2" stroke-miterlimit="10" stroke-linecap="round" stroke-linejoin="round"/>
<path d="M229.384 646.89C214.979 649.46 204.834 657.441 203.82 667.044C202.062 683.072 227.22 694.772 241.827 698.086C256.435 701.399 286.327 700.114 287.95 682.599C289.912 660.484 253.663 642.63 229.384 646.89Z" fill="#B4B4B4" stroke="#1D1D1D" stroke-width="2" stroke-miterlimit="10" stroke-linecap="round" stroke-linejoin="round"/>
<path d="M238.514 655.074C240.61 651.76 242.436 649.731 245.547 646.891" stroke="#1D1D1D" stroke-width="2" stroke-miterlimit="10" stroke-linecap="round" stroke-linejoin="round"/>
<path d="M228.301 693.554C228.301 693.554 227.422 674.551 235.605 660.078" stroke="#1D1D1D" stroke-width="2" stroke-miterlimit="10" stroke-linecap="round" stroke-linejoin="round"/>
<path d="M231.209 655.547C230.6 655.952 230.262 656.426 230.465 657.17C230.871 658.522 233.17 659.199 234.32 659.672C236.011 660.281 237.837 660.754 239.663 661.092C240.069 661.16 240.474 661.228 240.88 661.295C241.692 661.363 242.571 661.363 243.315 660.957C245.005 659.943 243.991 658.049 242.841 657.17C240.812 655.547 238.107 654.668 235.537 654.668C234.658 654.532 232.359 654.735 231.209 655.547Z" fill="#1D1D1D" stroke="#1D1D1D" stroke-width="2" stroke-miterlimit="10" stroke-linecap="round" stroke-linejoin="round"/>
<path d="M230.736 655.818C213.761 653.654 205.24 661.973 205.24 661.973" stroke="#1D1D1D" stroke-width="2" stroke-miterlimit="10" stroke-linecap="round" stroke-linejoin="round"/>
<path d="M194.621 779.713L195.23 784.042L200.37 783.298L201.181 785.935L205.577 785.056C205.577 785.056 204.765 780.457 203.819 778.496L194.621 779.713Z" fill="#1D1D1D" stroke="#1D1D1D" stroke-width="2" stroke-miterlimit="10" stroke-linecap="round" stroke-linejoin="round"/>
<path d="M201.925 786.814C201.925 786.814 201.993 786.814 202.06 786.881C203.278 787.355 205.645 786.679 205.712 785.461C205.78 783.162 200.505 784.582 201.384 786.273C201.452 786.543 201.722 786.746 201.925 786.814Z" fill="#1D1D1D" stroke="#1D1D1D" stroke-width="2" stroke-miterlimit="10" stroke-linecap="round" stroke-linejoin="round"/>
<path d="M193.203 781.066C193 781.877 193.135 782.824 193.608 783.568C194.217 784.447 195.434 784.312 195.57 783.5C195.773 782.554 195.637 781.066 195.029 780.254C194.352 779.104 193.473 780.187 193.203 781.066Z" fill="#1D1D1D" stroke="#1D1D1D" stroke-width="2" stroke-miterlimit="10" stroke-linecap="round" stroke-linejoin="round"/>
<path d="M203.076 786.34L204.835 791.209C205.443 791.48 205.781 791.007 205.781 791.007L204.361 786.002L203.076 786.34Z" stroke="#1D1D1D" stroke-width="2" stroke-miterlimit="10" stroke-linecap="round" stroke-linejoin="round"/>
<path d="M122.462 646.891C130.983 666.638 149.378 658.252 153.774 667.585C157.899 676.309 117.186 704.443 99.1295 690.985C94.3955 687.468 97.3712 675.565 118.674 671.71C129.224 669.817 141.939 668.194 154.044 673.536C165.271 678.406 179.879 688.212 180.352 701.873C180.622 710.935 173.251 718.983 166.623 724.461C136.123 749.619 93.5839 749.281 97.2359 735.823C98.3856 731.697 106.636 727.302 117.051 729.398C142.547 734.605 147.62 763.551 166.623 777.144C174.739 782.96 184.68 783.704 194.284 782.081" stroke="#1D1D1D" stroke-width="2" stroke-miterlimit="10" stroke-linecap="round" stroke-linejoin="round"/>
<path d="M64.9791 681.313C50.1683 670.357 31.1646 642.088 55.4434 627.954C71.3362 618.756 104.745 624.978 118.677 640.127" stroke="#1D1D1D" stroke-width="2" stroke-miterlimit="10" stroke-linecap="round" stroke-linejoin="round"/>
<path d="M20.4121 634.244C30.4212 646.214 74.3801 667.923 90.4758 652.504C100.417 642.968 80.1962 635.123 75.0564 625.723C70.0518 616.525 82.9013 613.211 92.3017 617.878C107.924 625.723 114.416 633.635 118.677 640.128" stroke="#1D1D1D" stroke-width="2" stroke-miterlimit="10" stroke-linecap="round" stroke-linejoin="round"/>
<path d="M12.0249 629.576C14.0538 632.89 19.5994 638.842 22.7779 637.219C26.3623 635.325 20.4109 628.292 18.1115 625.383C16.4884 623.355 15.1359 621.258 12.2954 620.988C8.57584 620.649 2.48923 625.451 5.32965 629.441C7.89955 633.026 13.3099 629.035 14.1214 627.277C13.5128 628.494 12.0249 629.576 12.0249 629.576Z" fill="#1D1D1D" stroke="#1D1D1D" stroke-width="2" stroke-miterlimit="10" stroke-linecap="round" stroke-linejoin="round"/>
<path d="M62.8823 680.434C61.8002 684.492 71.5388 693.013 74.9202 693.892C79.4514 695.042 82.0889 690.579 80.7363 687.468C79.9248 685.642 75.9347 681.584 73.3648 685.236C71.8769 683.41 64.573 673.874 62.8823 680.434Z" fill="#1D1D1D" stroke="#1D1D1D" stroke-width="2" stroke-miterlimit="10" stroke-linecap="round" stroke-linejoin="round"/>
<path d="M121.653 647.634C123.817 649.325 124.764 647.093 124.02 645.199C123.411 643.576 122.058 641.006 120.909 639.789C120.03 638.842 117.663 641.141 117.189 641.615C116.986 641.75 120.097 646.417 121.653 647.634Z" fill="#1D1D1D" stroke="#1D1D1D" stroke-width="2" stroke-miterlimit="10" stroke-linecap="round" stroke-linejoin="round"/>
<path d="M292.819 273.441C284.027 270.465 267.255 272.359 265.159 279.866C263.603 285.479 276.656 294 283.081 296.164C289.505 298.328 315.61 304.415 318.653 296.029C321.832 287.305 301.611 276.417 292.819 273.441Z" fill="#1D1D1D" stroke="#1D1D1D" stroke-width="2" stroke-miterlimit="10" stroke-linecap="round" stroke-linejoin="round"/>
<path d="M307.361 272.157C296 266.341 274.493 264.988 274.493 264.988C274.493 264.988 272.059 271.143 265.161 279.867C260.494 285.75 254.07 291.566 252.717 298.194C251.905 302.319 251.905 307.392 249.403 311.044C244.804 317.807 242.437 321.323 246.022 322.879C252.582 325.719 259.345 317.333 262.117 308.406C264.552 300.629 269.827 300.291 269.827 300.291L292.483 318.415L298.637 299.276L307.361 272.157Z" fill="#FFD4B6" stroke="#1D1D1D" stroke-width="2" stroke-miterlimit="10" stroke-linecap="round" stroke-linejoin="round"/>
<path d="M295.053 310.164C295.053 310.164 298.232 318.55 298.367 323.081C298.502 327.612 295.933 337.148 300.328 338.365C304.927 339.65 308.512 326.395 307.362 318.956C306.28 311.517 302.966 299.343 302.966 299.343L307.362 272.224C307.362 272.224 285.923 264.176 274.494 265.055" fill="#FFD4B6"/>
<path d="M295.053 310.164C295.053 310.164 298.232 318.55 298.367 323.081C298.502 327.612 295.933 337.148 300.328 338.365C304.927 339.65 308.512 326.395 307.362 318.956C306.28 311.517 302.966 299.343 302.966 299.343L307.362 272.224C307.362 272.224 285.923 264.176 274.494 265.055" stroke="#1D1D1D" stroke-width="2" stroke-miterlimit="10" stroke-linecap="round" stroke-linejoin="round"/>
<path d="M284.705 310.503C284.705 310.503 285.178 324.706 284.705 326.937C284.232 329.237 277.333 345.265 282.406 346.888C289.642 349.187 293.429 333.7 294.511 327.14C295.593 320.648 294.985 308.475 294.985 308.475" fill="#FFD4B6"/>
<path d="M284.705 310.503C284.705 310.503 285.178 324.706 284.705 326.937C284.232 329.237 277.333 345.265 282.406 346.888C289.642 349.187 293.429 333.7 294.511 327.14C295.593 320.648 294.985 308.475 294.985 308.475" stroke="#1D1D1D" stroke-width="2" stroke-miterlimit="10" stroke-linecap="round" stroke-linejoin="round"/>
<path d="M263.876 294.746C263.876 294.746 264.417 298.736 263.605 300.427C262.861 301.982 257.383 310.571 255.625 317.131C254.678 320.716 250.35 339.449 256.166 341.004C263.605 342.966 264.687 323.015 266.175 320.107C267.595 317.199 274.696 306.987 274.696 306.987C274.696 306.987 275.035 322.271 274.696 324.976C273.952 330.86 268.001 347.7 275.305 348.173C281.595 348.579 283.623 332.821 284.638 326.938C285.72 320.986 285.517 309.557 285.517 309.557" fill="#FFD4B6"/>
<path d="M263.876 294.746C263.876 294.746 264.417 298.736 263.605 300.427C262.861 301.982 257.383 310.571 255.625 317.131C254.678 320.716 250.35 339.449 256.166 341.004C263.605 342.966 264.687 323.015 266.175 320.107C267.595 317.199 274.696 306.987 274.696 306.987C274.696 306.987 275.035 322.271 274.696 324.976C273.952 330.86 268.001 347.7 275.305 348.173C281.595 348.579 283.623 332.821 284.638 326.938C285.72 320.986 285.517 309.557 285.517 309.557" stroke="#1D1D1D" stroke-width="2" stroke-miterlimit="10" stroke-linecap="round" stroke-linejoin="round"/>
<path d="M334.006 226.034L310.403 252.071C287.071 244.767 231.886 180.588 231.886 180.588L219.307 279.191L159.185 309.691L81.276 305.566L90.0002 236.584L104.54 202.229L73.1606 276.418C73.1606 276.418 31.4335 284.398 11.3477 267.153C17.84 250.11 44.7564 190.664 55.1713 171.593C65.5861 152.522 77.6917 124.794 135.515 118.572L229.248 106.128C247.914 102.882 268.947 132.436 268.947 132.436C268.947 132.436 331.233 204.731 334.006 226.034Z" fill="#FF7272" stroke="#1D1D1D" stroke-width="2" stroke-miterlimit="10" stroke-linecap="round" stroke-linejoin="round"/>
<path d="M288.356 223.059C284.907 225.155 283.149 229.416 281.796 232.662C272.396 255.182 265.092 279.935 265.092 279.935C273.613 267.964 309.524 272.563 318.924 294.61C318.924 294.61 324.267 277.838 328.393 261.134C331.639 247.946 335.561 233.676 333.803 224.952" fill="#FF7272"/>
<path d="M288.356 223.059C284.907 225.155 283.149 229.416 281.796 232.662C272.396 255.182 265.092 279.935 265.092 279.935C273.613 267.964 309.524 272.563 318.924 294.61C318.924 294.61 324.267 277.838 328.393 261.134C331.639 247.946 335.561 233.676 333.803 224.952" stroke="#1D1D1D" stroke-width="2" stroke-miterlimit="10" stroke-linecap="round" stroke-linejoin="round"/>
<path d="M231.885 180.587C231.885 180.587 232.832 172.675 236.754 167.332" stroke="#1D1D1D" stroke-width="2" stroke-miterlimit="10" stroke-linecap="round" stroke-linejoin="round"/>
<path d="M232.429 272.564L139.844 319.431C126.589 319.769 112.59 314.562 102.107 308.746C102.107 263.976 135.11 226.509 177.311 231.649C177.311 231.649 226.883 242.199 231.414 257.686C232.09 260.053 232.564 268.169 232.429 272.564Z" fill="white" stroke="#1D1D1D" stroke-width="2" stroke-miterlimit="10" stroke-linecap="round" stroke-linejoin="round"/>
<path d="M182.247 256.4C177.31 253.627 174.2 245.715 174.064 240.237C173.929 234.759 176.228 229.213 180.151 225.291C179.339 216.77 177.649 202.162 180.286 200.133C182.315 198.577 193.744 206.287 200.034 211.562C205.444 208.992 210.043 208.519 215.994 208.857C218.699 205.07 230.805 192.558 234.051 194.182C237.162 195.737 233.916 212.239 233.375 216.837C239.867 221.977 248.321 243.348 231.549 257.55C231.549 257.55 232.901 267.086 232.496 272.428" fill="white"/>
<path d="M182.247 256.4C177.31 253.627 174.2 245.715 174.064 240.237C173.929 234.759 176.228 229.213 180.151 225.291C179.339 216.77 177.649 202.162 180.286 200.133C182.315 198.577 193.744 206.287 200.034 211.562C205.444 208.992 210.043 208.519 215.994 208.857C218.699 205.07 230.805 192.558 234.051 194.182C237.162 195.737 233.916 212.239 233.375 216.837C239.867 221.977 248.321 243.348 231.549 257.55C231.549 257.55 232.901 267.086 232.496 272.428" stroke="#1D1D1D" stroke-width="2" stroke-miterlimit="10" stroke-linecap="round" stroke-linejoin="round"/>
<path d="M158.713 244.633C159.186 244.633 174.403 243.551 174.403 243.551" stroke="#1D1D1D" stroke-width="2" stroke-miterlimit="10" stroke-linecap="round" stroke-linejoin="round"/>
<path d="M163.988 259.444L176.5 249.908" stroke="#1D1D1D" stroke-width="2" stroke-miterlimit="10" stroke-linecap="round" stroke-linejoin="round"/>
<path d="M240.342 244.227L251.433 247.676" stroke="#1D1D1D" stroke-width="2" stroke-miterlimit="10" stroke-linecap="round" stroke-linejoin="round"/>
<path d="M241.49 238.276L254.137 234.895" stroke="#1D1D1D" stroke-width="2" stroke-miterlimit="10" stroke-linecap="round" stroke-linejoin="round"/>
<path d="M216.333 247.135C213.289 250.178 210.516 253.627 206.256 251.26" stroke="#1D1D1D" stroke-width="2" stroke-miterlimit="10" stroke-linecap="round" stroke-linejoin="round"/>
<path d="M217.01 246.458C214.778 248.284 210.517 243.009 214.237 242.333C220.121 241.386 218.565 244.97 217.01 246.458C216.807 246.661 216.536 246.932 216.333 247.134Z" fill="#1D1D1D"/>
<path d="M217.01 246.458C214.778 248.284 210.517 243.009 214.237 242.333C220.121 241.386 218.565 244.97 217.01 246.458ZM217.01 246.458C216.807 246.661 216.536 246.932 216.333 247.134" stroke="#1D1D1D" stroke-width="2" stroke-miterlimit="10" stroke-linecap="round" stroke-linejoin="round"/>
<path d="M218.497 243.078C218.362 244.431 217.956 245.58 216.941 246.46" stroke="#1D1D1D" stroke-width="2" stroke-miterlimit="10" stroke-linecap="round" stroke-linejoin="round"/>
<path d="M214.168 232.053C215.521 235.299 218.699 241.791 218.496 243.076" stroke="#1D1D1D" stroke-width="2" stroke-miterlimit="10" stroke-linecap="round" stroke-linejoin="round"/>
<path d="M215.656 247.676C215.656 247.676 219.443 253.492 223.298 248.217" stroke="#1D1D1D" stroke-width="2" stroke-miterlimit="10" stroke-linecap="round" stroke-linejoin="round"/>
<path d="M187.861 233.271C187.861 233.271 204.228 223.059 208.894 237.802C202.672 245.444 191.378 241.927 187.861 233.271Z" fill="#FFC600" stroke="#1D1D1D" stroke-width="2" stroke-miterlimit="10" stroke-linecap="round" stroke-linejoin="round"/>
<path d="M220.119 236.246C220.119 236.246 222.621 220.962 236.485 227.725C232.157 244.294 220.119 236.246 220.119 236.246Z" fill="#FFC600" stroke="#1D1D1D" stroke-width="2" stroke-miterlimit="10" stroke-linecap="round" stroke-linejoin="round"/>
<path d="M197.938 241.793C193.88 240.779 189.62 237.6 187.861 233.272C187.861 233.272 193.677 229.62 199.358 229.823C200.981 232.257 201.861 238.276 197.938 241.793Z" fill="#1D1D1D" stroke="#1D1D1D" stroke-width="2" stroke-miterlimit="10" stroke-linecap="round" stroke-linejoin="round"/>
<path d="M229.385 237.599C225.057 238.952 220.188 236.246 220.188 236.246C220.188 236.246 221.608 227.996 227.086 226.508C228.776 228.266 231.076 231.918 229.385 237.599Z" fill="#1D1D1D" stroke="#1D1D1D" stroke-width="2" stroke-miterlimit="10" stroke-linecap="round" stroke-linejoin="round"/>
<path d="M246.967 92.6025C251.228 77.5212 253.866 48.7789 244.939 30.1133C237.905 32.2098 230.737 34.4415 224.109 37.5525C219.51 39.7166 217.008 42.4894 214.844 47.0205C209.298 58.6527 195.637 118.099 198.748 120.669C209.298 129.528 232.224 145.15 246.967 92.6025Z" fill="#1D1D1D" stroke="#1D1D1D" stroke-width="2" stroke-miterlimit="10" stroke-linecap="round" stroke-linejoin="round"/>
<path d="M203.954 107.007C203.954 107.007 194.892 136.019 187.182 142.512C174.401 153.332 147.214 143.797 145.117 118.504L161.957 67.6465L203.954 107.007Z" fill="#FFD4B6" stroke="#1D1D1D" stroke-width="2" stroke-miterlimit="10" stroke-linecap="round" stroke-linejoin="round"/>
<path d="M157.088 92.332C157.088 92.332 159.861 131.422 180.42 156.647C194.149 173.554 210.042 173.419 208.689 178.491C206.796 185.795 179.338 185.254 164.798 158.135C148.094 126.89 157.088 92.332 157.088 92.332Z" fill="#1D1D1D" stroke="#1D1D1D" stroke-width="2" stroke-miterlimit="10" stroke-linecap="round" stroke-linejoin="round"/>
<path d="M158.848 76.3033C160.606 52.2274 173.794 21.659 222.419 25.2434C248.186 27.137 240.882 73.9363 241.22 76.2357C240.341 81.2402 235.539 105.992 216.535 128.31C210.854 134.599 203.483 139.604 194.15 138.116C183.329 136.425 171.359 125.808 166.287 115.325" fill="#FFD4B6"/>
<path d="M158.848 76.3033C160.606 52.2274 173.794 21.659 222.419 25.2434C248.186 27.137 240.882 73.9363 241.22 76.2357C240.341 81.2402 235.539 105.992 216.535 128.31C210.854 134.599 203.483 139.604 194.15 138.116C183.329 136.425 171.359 125.808 166.287 115.325" stroke="#1D1D1D" stroke-width="2" stroke-miterlimit="10" stroke-linecap="round" stroke-linejoin="round"/>
<path d="M192.662 116.34C199.087 122.765 205.917 123.306 212.139 119.316" stroke="#1D1D1D" stroke-width="2" stroke-miterlimit="10" stroke-linecap="round" stroke-linejoin="round"/>
<path d="M210.787 109.713C210.584 104.235 211.261 96.2546 212.613 89.627" stroke="#1D1D1D" stroke-width="2" stroke-miterlimit="10" stroke-linecap="round" stroke-linejoin="round"/>
<path d="M198.342 85.5008C199.289 82.728 198.748 79.6847 195.84 79.2789C194.014 79.0084 191.85 80.361 190.768 81.7812C189.145 83.8101 188.198 88.2736 190.768 89.8967C194.082 91.9932 197.26 88.8822 198.342 85.5008Z" fill="#1D1D1D"/>
<path d="M230.602 92.2627C231.346 89.6251 230.264 85.5674 226.815 86.4466C225.462 86.7171 224.245 87.6639 223.433 88.6107C221.81 90.6396 220.931 94.9678 223.433 96.5233C226.544 98.5522 229.79 95.1707 230.602 92.2627Z" fill="#1D1D1D"/>
<path d="M185.561 71.9749C191.918 70.7576 199.56 70.4195 207.608 75.6945" stroke="#1D1D1D" stroke-width="2" stroke-miterlimit="10" stroke-linecap="round" stroke-linejoin="round"/>
<path d="M225.258 79.1439C232.562 77.2503 237.025 77.6561 240.271 81.308" stroke="#1D1D1D" stroke-width="2" stroke-miterlimit="10" stroke-linecap="round" stroke-linejoin="round"/>
<path d="M166.691 67.918C166.691 67.918 167.638 76.3716 167.638 81.038C167.571 85.6368 170.952 75.0866 173.184 70.2174L166.691 67.918Z" fill="#1D1D1D" stroke="#1D1D1D" stroke-width="2" stroke-miterlimit="10" stroke-linecap="round" stroke-linejoin="round"/>
<path d="M157.63 74.2748C148.635 146.908 193.744 162.531 190.024 212.847C185.899 269.452 121.11 285.074 109.478 269.452C95.8843 251.125 123.274 244.632 126.25 201.823C116.646 212.306 87.9041 216.701 85.3342 206.963C83.2377 199.118 99.0629 198.78 114.685 170.579C131.525 140.281 135.785 83.3371 135.785 83.3371C138.491 49.3197 145.997 19.0895 174.402 6.17239C191.512 -1.60495 215.791 -0.928657 230.872 10.3654C244.127 19.5629 256.233 44.7886 248.929 83.2018C241.693 82.3903 228.302 44.2475 226.273 40.9337C176.701 99.4328 159.388 58.7201 157.833 70.8257L157.63 74.2748Z" fill="#1D1D1D" stroke="#1D1D1D" stroke-width="2" stroke-miterlimit="10" stroke-linecap="round" stroke-linejoin="round"/>
<path d="M160.877 152.521C160.877 152.521 168.857 171.863 187.185 180.993" stroke="#FF7272" stroke-width="2" stroke-miterlimit="10" stroke-linecap="round" stroke-linejoin="round"/>
<path d="M124.287 206.76C125.166 201.012 126.654 189.244 127.669 169.564" stroke="#FF7272" stroke-width="2" stroke-miterlimit="10" stroke-linecap="round" stroke-linejoin="round"/>
<path d="M167.166 72.5173C166.693 67.5128 164.393 57.0303 153.572 58.3153C145.322 59.3297 141.332 69.8122 143.563 79.0774C145.592 87.3957 152.558 93.1442 161.35 90.6419" fill="#FFD4B6"/>
<path d="M167.166 72.5173C166.693 67.5128 164.393 57.0303 153.572 58.3153C145.322 59.3297 141.332 69.8122 143.563 79.0774C145.592 87.3957 152.558 93.1442 161.35 90.6419" stroke="#1D1D1D" stroke-width="2" stroke-miterlimit="10" stroke-linecap="round" stroke-linejoin="round"/>
<path d="M149.988 66.4316C151.95 63.5235 154.993 62.712 157.63 63.9969C162.229 66.2963 161.891 72.18 159.727 74.7499C158.239 76.5083 155.466 77.1846 154.046 76.373C151.07 74.7499 153.64 71.5714 156.954 72.6534C159.862 73.5326 161.891 76.1025 161.756 78.6048C161.553 84.5561 155.331 87.5318 151.341 82.7302" stroke="#1D1D1D" stroke-width="2" stroke-miterlimit="10" stroke-linecap="round" stroke-linejoin="round"/>
<path d="M120.436 360.075C120.436 360.075 133.623 363.119 152.424 341.545C169.196 319.43 166.491 308.001 160.81 306.648C142.347 311.382 128.213 324.638 122.87 332.28C114.417 348.173 117.325 358.723 120.436 360.075Z" fill="#1D1D1D" stroke="#1D1D1D" stroke-width="2" stroke-miterlimit="10" stroke-linecap="round" stroke-linejoin="round"/>
<path d="M153.168 341.613C141.333 340.328 122.465 334.309 122.465 334.309C122.465 334.309 126.523 327.546 135.247 319.768C149.178 307.325 160.405 306.716 160.405 306.716C176.568 303.673 191.649 300.088 203.079 294.205C207.204 292.108 213.426 290.147 217.348 294.272C219.174 296.166 220.121 297.654 223.773 303.267C226.952 308.069 229.927 314.087 225.193 315.711C220.459 317.334 214.778 308.271 211.668 304.349C207.88 306.243 202.199 308.677 198.074 309.556L209.436 313.749" fill="#FFD4B6"/>
<path d="M153.168 341.613C141.333 340.328 122.465 334.309 122.465 334.309C122.465 334.309 126.523 327.546 135.247 319.768C149.178 307.325 160.405 306.716 160.405 306.716C176.568 303.673 191.649 300.088 203.079 294.205C207.204 292.108 213.426 290.147 217.348 294.272C219.174 296.166 220.121 297.654 223.773 303.267C226.952 308.069 229.927 314.087 225.193 315.711C220.459 317.334 214.778 308.271 211.668 304.349C207.88 306.243 202.199 308.677 198.074 309.556L209.436 313.749" stroke="#1D1D1D" stroke-width="2" stroke-miterlimit="10" stroke-linecap="round" stroke-linejoin="round"/>
<path d="M193.746 306.445C200.441 308.001 208.963 310.233 214.305 314.628C217.822 317.536 235.541 339.989 226.749 342.83C223.368 343.912 220.257 340.395 216.064 335.864C212.682 332.212 210.248 325.517 206.257 322.541" fill="#FFD4B6"/>
<path d="M193.746 306.445C200.441 308.001 208.963 310.233 214.305 314.628C217.822 317.536 235.541 339.989 226.749 342.83C223.368 343.912 220.257 340.395 216.064 335.864C212.682 332.212 210.248 325.517 206.257 322.541" stroke="#1D1D1D" stroke-width="2" stroke-miterlimit="10" stroke-linecap="round" stroke-linejoin="round"/>
<path d="M187.592 314.088C195.302 314.697 202.944 316.996 206.934 318.957C211.938 321.392 214.914 329.981 215.455 336.879C215.658 339.516 215.996 345.535 213.223 346.753C209.774 348.308 206.257 343.845 204.905 338.299C202.132 326.87 201.32 328.493 187.592 325.247" fill="#FFD4B6"/>
<path d="M187.592 314.088C195.302 314.697 202.944 316.996 206.934 318.957C211.938 321.392 214.914 329.981 215.455 336.879C215.658 339.516 215.996 345.535 213.223 346.753C209.774 348.308 206.257 343.845 204.905 338.299C202.132 326.87 201.32 328.493 187.592 325.247" stroke="#1D1D1D" stroke-width="2" stroke-miterlimit="10" stroke-linecap="round" stroke-linejoin="round"/>
<path d="M149.855 341.139C159.188 342.762 171.091 341.747 177.38 339.515C180.83 338.298 183.061 337.419 186.578 336.81C185.834 339.245 184.684 344.114 186.578 345.737C188.201 347.09 190.839 346.481 192.326 344.926C193.814 343.37 194.423 341.206 194.829 339.11C195.64 335.39 196.722 330.183 193.611 327.139C190.771 324.367 184.482 325.178 179.342 326.531" fill="#FFD4B6"/>
<path d="M149.855 341.139C159.188 342.762 171.091 341.747 177.38 339.515C180.83 338.298 183.061 337.419 186.578 336.81C185.834 339.245 184.684 344.114 186.578 345.737C188.201 347.09 190.839 346.481 192.326 344.926C193.814 343.37 194.423 341.206 194.829 339.11C195.64 335.39 196.722 330.183 193.611 327.139C190.771 324.367 184.482 325.178 179.342 326.531" stroke="#1D1D1D" stroke-width="2" stroke-miterlimit="10" stroke-linecap="round" stroke-linejoin="round"/>
<path d="M13.4458 261.607C4.38351 281.964 2.89568 310.3 30.4883 326.396C59.2983 343.168 99.0641 354.192 120.435 360.008C111.643 348.375 134.096 310.841 161.215 306.445L73.0946 276.351L77.5581 265.8" fill="#FF7272"/>
<path d="M13.4458 261.607C4.38351 281.964 2.89568 310.3 30.4883 326.396C59.2983 343.168 99.0641 354.192 120.435 360.008C111.643 348.375 134.096 310.841 161.215 306.445L73.0946 276.351L77.5581 265.8" stroke="#1D1D1D" stroke-width="2" stroke-miterlimit="10" stroke-linecap="round" stroke-linejoin="round"/>
<path d="M49.7637 281.557C58.4878 277.77 64.5068 276.215 73.0957 276.35" stroke="#1D1D1D" stroke-width="2" stroke-miterlimit="10" stroke-linecap="round" stroke-linejoin="round"/>
</svg>