<?xml version="1.0" encoding="utf-8"?>
<svg xmlns="http://www.w3.org/2000/svg" width="58" height="58" viewBox="0 0 58 58" fill="none">
<g filter="url(#filter0_d_1983_24769)">
<path d="M29.1758 53.6602C42.7068 53.6602 53.6758 42.6911 53.6758 29.1602C53.6758 15.6292 42.7068 4.66016 29.1758 4.66016C15.6448 4.66016 4.67578 15.6292 4.67578 29.1602C4.67578 42.6911 15.6448 53.6602 29.1758 53.6602Z" fill="white"/>
</g>
<path d="M42.9596 36.7376C41.9569 36.9927 41.3369 36.749 40.781 35.9135C39.532 34.0418 38.1529 32.2564 36.8231 30.4384C36.6516 30.2027 36.473 29.9722 36.2514 29.6793C34.677 31.8034 33.1044 33.8263 31.6294 35.9311C31.1017 36.6831 30.5476 37.0102 29.5625 36.7446L35.4818 28.7998L29.9715 21.6254C30.9187 21.4407 31.574 21.5348 32.1545 22.3836C33.4368 24.257 34.8503 26.0407 36.2602 27.9273C37.678 26.0469 39.0747 24.2614 40.394 22.4056C40.9235 21.6536 41.4934 21.3677 42.445 21.6448C41.7238 22.6017 41.0184 23.5428 40.3078 24.4769C39.3491 25.7372 38.408 27.0126 37.4141 28.2457C37.0605 28.6855 37.1177 28.9713 37.4343 29.3873C39.2725 31.8034 41.0888 34.2441 42.9596 36.7376Z" fill="black"/>
<path d="M15.3977 28.6664C15.556 27.8731 15.6616 27.0639 15.8814 26.2856C17.2007 21.573 22.6099 19.6143 26.3259 22.5343C28.5028 24.2468 29.0437 26.6611 28.9355 29.3833H16.666C16.4813 34.2673 19.9976 37.2155 24.4789 35.7115C26.0506 35.1838 26.9768 33.9524 27.4403 32.4133C27.676 31.6419 28.0648 31.5205 28.7904 31.7404C28.4192 33.6666 27.5766 35.2761 25.8176 36.2832C23.179 37.7916 19.4127 37.3035 17.4312 35.2084C16.2614 33.9771 15.7645 32.4441 15.5446 30.7888C15.512 30.5249 15.4434 30.2654 15.3906 30.0033C15.395 29.5574 15.3977 29.1124 15.3977 28.6664ZM16.688 28.3392H27.7771C27.7041 24.8079 25.5053 22.2986 22.4999 22.2766C19.2017 22.2502 16.8313 24.6997 16.688 28.3392Z" fill="black"/>
<defs>
<filter id="filter0_d_1983_24769" x="0.675781" y="0.660156" width="57" height="57" filterUnits="userSpaceOnUse" color-interpolation-filters="sRGB">
<feFlood flood-opacity="0" result="BackgroundImageFix"/>
<feColorMatrix in="SourceAlpha" type="matrix" values="0 0 0 0 0 0 0 0 0 0 0 0 0 0 0 0 0 0 127 0" result="hardAlpha"/>
<feOffset/>
<feGaussianBlur stdDeviation="2"/>
<feComposite in2="hardAlpha" operator="out"/>
<feColorMatrix type="matrix" values="0 0 0 0 0.725 0 0 0 0 0.725 0 0 0 0 0.725 0 0 0 0.25 0"/>
<feBlend mode="normal" in2="BackgroundImageFix" result="effect1_dropShadow_1983_24769"/>
<feBlend mode="normal" in="SourceGraphic" in2="effect1_dropShadow_1983_24769" result="shape"/>
</filter>
</defs>
</svg>