<svg id="Layer_1" fill="#fff"  enable-background="new 0 0 512 512" height="512" viewBox="0 0 512 512" width="512" xmlns="http://www.w3.org/2000/svg"><path d="m498.444 333.058c2.925-4.506 6.564-10.114 5.309-17.236-.773-4.383-3.135-8.025-5.218-11.24-1.342-2.07-2.864-4.417-3.125-5.897-.262-1.483.366-4.211.92-6.617 1.056-4.586 2.252-9.785.324-15.101-1.973-5.438-6.494-8.855-10.126-11.602-1.915-1.448-4.085-3.089-4.766-4.269-.726-1.257-1.07-4.006-1.374-6.432-.559-4.47-1.255-10.033-4.921-14.396-3.689-4.39-9.081-6.043-13.413-7.372-2.318-.711-4.945-1.517-6.018-2.416-1.082-.906-2.338-3.36-3.447-5.526-2.061-4.024-4.625-9.034-9.572-11.895-4.935-2.854-10.55-2.575-15.06-2.353-2.438.122-5.2.258-6.54-.231-.61-.223-1.378-.758-2.202-1.428-1.166-53.369-22.555-103.368-60.488-141.136-38.802-38.635-90.327-59.911-145.083-59.911-113.393 0-205.644 92.251-205.644 205.644 0 113.392 92.251 205.643 205.643 205.643 28.568 0 56.161-5.747 82.09-17.06.396.178.794.347 1.191.506l-29.047 62.389c-1.258 2.702-.91 5.879.903 8.244 1.813 2.364 4.79 3.526 7.726 3.014l33.63-5.877 17.152 29.518c1.436 2.472 4.075 3.98 6.916 3.98.121 0 .243-.003.364-.008 2.977-.136 5.632-1.914 6.89-4.615l28.556-61.335c2.018-.613 3.934-1.418 5.749-2.183 2.265-.954 4.831-2.035 6.269-2.037h.003c1.336 0 3.826 1.052 6.023 1.98 3.677 1.555 8.139 3.443 13.033 3.212l20.647 47.937c1.179 2.736 3.781 4.592 6.753 4.812.199.016.398.022.596.022 2.752 0 5.33-1.42 6.796-3.782l18.001-29.007 33.444 6.849c2.921.604 5.93-.476 7.81-2.788 1.881-2.312 2.321-5.477 1.143-8.213l-23.719-55.07c1.038-.769 2.018-1.659 2.897-2.708 3.669-4.378 4.366-9.962 4.926-14.449.301-2.415.643-5.152 1.35-6.375.701-1.212 2.896-2.869 4.832-4.331 3.616-2.729 8.116-6.127 10.081-11.511 1.954-5.355.705-10.82-.299-15.211-.545-2.383-1.162-5.084-.91-6.517.24-1.356 1.709-3.618 3.005-5.615zm-474.444-119.414c0-104.571 85.074-189.644 189.644-189.644 99.273 0 181.251 77.036 189.028 174.465-5.356-.762-10.139 1.245-14.373 3.029-2.264.954-4.831 2.035-6.27 2.036-.001 0-.002 0-.003 0-1.337 0-3.827-1.052-6.022-1.98-4.201-1.775-9.428-3.987-15.149-2.977-5.721 1.009-9.877 4.874-13.217 7.979-1.748 1.625-3.729 3.467-4.984 3.923-1.353.489-4.134.353-6.587.229-4.744-.235-10.122-.503-15.028 2.329-4.985 2.88-7.555 7.914-9.62 11.959-1.098 2.15-2.342 4.587-3.402 5.479-1.091.918-3.734 1.734-6.066 2.455-1.766.545-3.708 1.149-5.638 1.967-13.389-13.878-29.9-24.037-47.972-29.76 16.486-11.163 27.342-30.04 27.342-51.405 0-34.208-27.831-62.039-62.039-62.039s-62.039 27.831-62.039 62.039c0 21.362 10.854 40.237 27.336 51.401-46.437 14.747-80.179 58.265-80.179 109.52 0 4.418 3.582 8 8 8h153.8c.945 3.887 3.065 7.187 4.967 10.122 1.342 2.07 2.864 4.417 3.125 5.898.262 1.483-.366 4.21-.919 6.616-1.055 4.586-2.25 9.784-.324 15.101 1.972 5.438 6.493 8.855 10.125 11.602 1.915 1.447 4.086 3.088 4.769 4.27.725 1.256 1.069 4.006 1.373 6.432.262 2.094.558 4.427 1.171 6.764-22.59 9.175-46.498 13.835-71.204 13.835-104.571-.003-189.645-85.076-189.645-189.645zm243.714 78.519c.545 2.384 1.162 5.085.91 6.515-.24 1.357-1.708 3.619-3.004 5.615-.489.752-.997 1.539-1.499 2.354h-149.039c4.085-50.798 46.73-90.882 98.562-90.882 27.172 0 52.986 11.135 71.628 30.722-.917 2.823-1.279 5.711-1.595 8.25-.301 2.415-.643 5.151-1.349 6.372-.699 1.209-2.892 2.865-4.827 4.325-3.617 2.731-8.119 6.13-10.085 11.517-1.954 5.352-.705 10.819.298 15.212zm-54.07-92.397c-25.386 0-46.039-20.653-46.039-46.039s20.653-46.039 46.039-46.039 46.039 20.653 46.039 46.039-20.653 46.039-46.039 46.039zm119.779 278.963-12.253-21.086c-1.683-2.896-4.996-4.433-8.294-3.861l-24.024 4.198 21.885-47.007c.25.476.497.957.737 1.425 2.061 4.025 4.625 9.035 9.574 11.896 4.936 2.853 10.549 2.577 15.059 2.352 2.437-.119 5.199-.258 6.538.232 1.301.475 3.303 2.339 5.069 3.983 1.68 1.564 3.568 3.321 5.756 4.806zm118.209-36.525c-3.282-.676-6.636.771-8.402 3.618l-12.859 20.723-14.982-34.785c.354-.325.701-.646 1.037-.959 1.748-1.625 3.729-3.467 4.986-3.923 1.353-.49 4.134-.352 6.588-.23 4.742.236 10.121.504 15.025-2.329 4.989-2.881 7.558-7.915 9.623-11.961 1.097-2.148 2.34-4.585 3.399-5.475.401-.337 1.013-.66 1.739-.97l17.738 41.184zm36.364-123.604c.162.918-1.877 4.06-2.972 5.747-2.126 3.276-4.536 6.988-5.34 11.547-.816 4.621.185 8.999 1.068 12.862.448 1.961 1.199 5.245.867 6.16-.345.946-3.066 3-4.691 4.228-3.149 2.377-6.719 5.072-9.042 9.092-2.33 4.031-2.885 8.479-3.375 12.402-.251 2.016-.672 5.389-1.311 6.15-.636.754-3.874 1.755-5.808 2.353-3.782 1.168-8.069 2.493-11.64 5.494-3.542 2.977-5.567 6.947-7.355 10.45-.929 1.819-2.482 4.864-3.371 5.377-.875.472-4.229.306-6.231.206-3.962-.197-8.455-.421-12.837 1.169-4.314 1.564-7.561 4.582-10.425 7.246-1.607 1.494-4.037 3.752-5.101 3.94-1.067.184-4.121-1.104-6.143-1.959-3.597-1.521-7.673-3.243-12.254-3.243-.006 0-.013 0-.019 0-4.663.006-8.807 1.752-12.464 3.293-1.849.779-4.948 2.073-5.923 1.938-1.013-.179-3.515-2.509-5.01-3.901-2.877-2.68-6.139-5.717-10.483-7.303-2.894-1.058-5.83-1.32-8.629-1.32-1.441 0-2.845.07-4.189.137-2.021.099-5.406.268-6.261-.224-.864-.499-2.414-3.526-3.339-5.335-1.801-3.519-3.843-7.506-7.411-10.497-3.559-2.983-7.834-4.294-11.606-5.45-1.947-.597-5.205-1.596-5.854-2.369-.625-.752-1.043-4.093-1.293-6.089-.492-3.932-1.049-8.389-3.395-12.449-2.303-3.986-5.847-6.666-8.974-9.029-1.636-1.237-4.375-3.307-4.731-4.29-.31-.915.432-4.137.874-6.061.895-3.891 1.91-8.3 1.084-12.982-.825-4.68-3.285-8.475-5.456-11.823-1.193-1.841-2.678-4.131-2.886-5.314-.163-.92 1.876-4.061 2.971-5.747 2.126-3.274 4.535-6.985 5.34-11.546.815-4.617-.185-8.996-1.067-12.859-.448-1.961-1.198-5.244-.867-6.164.346-.948 3.068-3.003 4.695-4.231 3.148-2.376 6.716-5.07 9.039-9.088 2.329-4.029 2.883-8.475 3.373-12.397.251-2.017.672-5.393 1.312-6.156.636-.754 3.874-1.754 5.807-2.352 3.783-1.168 8.07-2.493 11.64-5.495 3.54-2.977 5.567-6.947 7.355-10.45.929-1.82 2.483-4.865 3.369-5.377.875-.473 4.229-.306 6.233-.206 3.962.197 8.454.42 12.837-1.168 4.314-1.565 7.56-4.583 10.424-7.246 1.607-1.494 4.036-3.752 5.102-3.94 1.071-.173 4.12 1.104 6.141 1.958 3.597 1.521 7.672 3.243 12.251 3.243h.022c4.662-.005 8.807-1.751 12.463-3.292 1.849-.778 4.936-2.08 5.926-1.938 1.012.179 3.516 2.51 5.012 3.903 2.878 2.68 6.14 5.717 10.482 7.302 4.381 1.6 8.861 1.378 12.817 1.183 2.021-.101 5.405-.268 6.261.224.863.499 2.413 3.526 3.339 5.335 1.802 3.519 3.844 7.508 7.411 10.497 3.558 2.982 7.833 4.293 11.604 5.45 1.947.597 5.206 1.597 5.855 2.368.626.749 1.045 4.093 1.294 6.09.492 3.931 1.049 8.386 3.394 12.446 2.301 3.986 5.846 6.666 8.973 9.03 1.743 1.317 4.377 3.309 4.734 4.294.309.915-.432 4.134-.875 6.058-.896 3.891-1.911 8.3-1.085 12.984.826 4.68 3.286 8.474 5.456 11.822 1.194 1.837 2.679 4.128 2.888 5.312zm-105.964-85.591c-47.237 0-85.667 38.43-85.667 85.667 0 47.236 38.43 85.666 85.667 85.666s85.667-38.43 85.667-85.666c0-47.238-38.43-85.667-85.667-85.667zm0 155.333c-38.415 0-69.667-31.252-69.667-69.666s31.252-69.667 69.667-69.667c38.414 0 69.667 31.253 69.667 69.667s-31.253 69.666-69.667 69.666zm18.705-96.499-11.3-27.652c-1.229-3.008-4.156-4.974-7.405-4.974s-6.176 1.966-7.405 4.974l-11.3 27.652-29.791 2.202c-3.241.24-6.014 2.416-7.019 5.507-1.004 3.09-.039 6.48 2.442 8.579l22.807 19.293-7.112 29.013c-.773 3.156.439 6.466 3.068 8.376s6.153 2.041 8.915.329l25.396-15.729 25.396 15.729c1.294.802 2.754 1.199 4.212 1.199 1.654 0 3.305-.513 4.703-1.528 2.629-1.91 3.841-5.221 3.068-8.376l-7.112-29.013 22.808-19.292c2.481-2.099 3.446-5.49 2.442-8.58-1.004-3.091-3.778-5.267-7.019-5.507zm-2.555 26.564c-2.318 1.961-3.326 5.064-2.604 8.013l3.631 14.812-12.965-8.029c-2.581-1.6-5.844-1.6-8.425 0l-12.965 8.029 3.631-14.812c.723-2.948-.286-6.052-2.604-8.012l-11.644-9.85 15.209-1.124c3.027-.224 5.667-2.143 6.815-4.952l5.769-14.117 5.769 14.117c1.148 2.81 3.788 4.729 6.815 4.952l15.209 1.124z"/></svg>