<svg id="Layer_1" fill="#fff" enable-background="new 0 0 100 100" viewBox="0 0 100 100" xmlns="http://www.w3.org/2000/svg"><path d="m92.53 66.82c-.553 0-1-.447-1-1v-49.95c0-2.812-2.288-5.101-5.101-5.101h-72.859c-2.812 0-5.101 2.288-5.101 5.101v49.95c0 .553-.447 1-1 1s-1-.447-1-1v-49.95c0-3.915 3.186-7.101 7.101-7.101h72.86c3.915 0 7.101 3.186 7.101 7.101v49.95c-.001.553-.448 1-1.001 1z"/><path d="m53.51 57.262c-4.004 0-7.833-1.573-10.705-4.445l-4.027-4.027c-1.071-1.071-1.661-2.494-1.661-4.007-.001-1.211.377-2.364 1.076-3.324l-7.909-7.911c-.725-.725-1.126-1.689-1.13-2.718 0-1.031.401-1.998 1.13-2.727 1.5-1.5 3.943-1.5 5.443 0l3.555 3.555c.18-.613.511-1.175.976-1.64.944-.944 2.264-1.297 3.486-1.05.076-.914.466-1.758 1.114-2.407 1.028-1.026 2.495-1.349 3.799-.975.112-.803.469-1.545 1.032-2.134.697-.729 1.654-1.135 2.695-1.146 1.135-.017 2.141.417 2.898 1.175l9.347 9.347c2.688 2.688 4.262 6.262 4.43 10.06l.012.261c.013.28-.094.554-.292.752l-12.984 12.981c-.161.161-.371.262-.598.287-.564.062-1.128.093-1.687.093zm-20.505-28.286c-.474 0-.947.181-1.308.541-.351.351-.544.815-.544 1.309.002.493.195.959.544 1.308l8.567 8.568c.389.389.391 1.019.005 1.409l-.076.077c-.697.696-1.078 1.616-1.077 2.595 0 .979.382 1.899 1.075 2.593l4.027 4.027c2.76 2.76 6.537 4.145 10.415 3.812l12.418-12.416c-.187-3.231-1.545-6.264-3.837-8.557l-9.347-9.347c-.38-.381-.913-.593-1.463-.589-.499.006-.951.193-1.271.528-.33.345-.513.801-.515 1.282.002.489.195.955.544 1.304.195.195.293.451.293.707s-.098.512-.293.707c-.391.391-1.023.391-1.414 0l-.86-.86c-.721-.721-1.896-.721-2.616 0-.348.349-.541.815-.543 1.312.002.489.195.955.544 1.305.39.391.39 1.023-.001 1.413-.391.391-1.023.391-1.414 0l-.572-.572c-.721-.721-1.895-.721-2.615 0-.351.351-.544.815-.544 1.308.003.493.196.959.544 1.308.195.195.293.451.293.707s-.098.512-.293.707c-.391.391-1.023.391-1.414 0l-5.944-5.944c-.361-.362-.834-.542-1.308-.542z"/><path d="m46.592 41.383c-.256 0-.512-.098-.707-.293l-5.629-5.629c-.391-.391-.391-1.023 0-1.414s1.023-.391 1.414 0l5.629 5.629c.391.391.391 1.023 0 1.414-.195.195-.451.293-.707.293z"/><path d="m46.592 41.383c-.256 0-.512-.098-.707-.293l-5.629-5.629c-.391-.391-.391-1.023 0-1.414s1.023-.391 1.414 0l5.629 5.629c.391.391.391 1.023 0 1.414-.195.195-.451.293-.707.293z"/><path d="m50.622 37.353c-.256 0-.512-.098-.707-.293l-5.057-5.056c-.391-.391-.391-1.023 0-1.414s1.023-.391 1.414 0l5.057 5.056c.391.391.391 1.023 0 1.414-.195.195-.451.293-.707.293z"/><path d="m50.622 37.353c-.256 0-.512-.098-.707-.293l-5.057-5.056c-.391-.391-.391-1.023 0-1.414s1.023-.391 1.414 0l5.057 5.056c.391.391.391 1.023 0 1.414-.195.195-.451.293-.707.293z"/><path d="m54.651 33.323c-.256 0-.512-.098-.707-.293l-4.195-4.196c-.391-.391-.391-1.023 0-1.414s1.023-.391 1.414 0l4.195 4.196c.391.391.391 1.023 0 1.414-.195.196-.451.293-.707.293z"/><path d="m54.651 33.323c-.256 0-.512-.098-.707-.293l-4.195-4.196c-.391-.391-.391-1.023 0-1.414s1.023-.391 1.414 0l4.195 4.196c.391.391.391 1.023 0 1.414-.195.196-.451.293-.707.293z"/><path d="m45.585 48.436c-.256 0-.512-.098-.707-.293l-6.026-6.026c-.391-.391-.391-1.023 0-1.414s1.023-.391 1.414 0l6.026 6.026c.391.391.391 1.023 0 1.414-.195.195-.451.293-.707.293z"/><path d="m74.97 45.33-17.73 17.73c-.19.19-.44.29-.71.29-.26 0-.52-.1-.7-.29l-2.85-2.85c-.92-.92-.92-2.42 0-3.34l15.8-15.8c.92-.92 2.42-.92 3.34 0l2.85 2.85c.39.39.39 1.02 0 1.41z"/><path d="m54.194 65.693c-.256 0-.512-.098-.707-.293-.391-.391-.391-1.023 0-1.414l21.394-21.395c.391-.391 1.023-.391 1.414 0s.391 1.023 0 1.414l-21.394 21.395c-.195.196-.451.293-.707.293z"/><path d="m25.996 37.289c-.321 0-.637-.154-.83-.44-.309-.458-.188-1.08.27-1.389l2.188-1.478c.459-.309 1.079-.188 1.389.27.309.458.188 1.08-.27 1.389l-2.188 1.478c-.172.114-.367.17-.559.17z"/><path d="m27.066 31.501c-.039 0-.079-.002-.119-.007l-2.653-.316c-.549-.065-.94-.563-.875-1.111.065-.549.559-.944 1.111-.875l2.653.316c.549.065.94.563.875 1.111-.06.509-.492.882-.992.882z"/><path d="m28.969 27.789c-.256 0-.512-.098-.707-.293l-1.862-1.862c-.391-.391-.391-1.023 0-1.414s1.023-.391 1.414 0l1.862 1.862c.391.391.391 1.023 0 1.414-.196.195-.451.293-.707.293z"/><path d="m32.68 25.886c-.5 0-.932-.373-.992-.882l-.316-2.654c-.065-.548.326-1.046.875-1.111.55-.069 1.046.326 1.111.875l.316 2.654c.065.548-.326 1.046-.875 1.111-.04.005-.08.007-.119.007z"/><path d="m36.99 27.004c-.192 0-.387-.056-.559-.171-.458-.309-.578-.931-.27-1.389l1.479-2.189c.31-.456.931-.577 1.389-.268.457.309.577.931.268 1.389l-1.478 2.188c-.192.286-.507.44-.829.44z"/><path d="m90.395 91.226h-80.79c-5.021 0-9.105-4.082-9.105-9.1v-8.082c0-2.329 1.896-4.225 4.227-4.225h27.946c2.464 0 4.468 2.003 4.468 4.466 0 1.359 1.107 2.465 2.469 2.465h20.781c1.361 0 2.469-1.105 2.469-2.465 0-2.463 2.004-4.466 4.468-4.466h27.946c2.33 0 4.227 1.896 4.227 4.225v8.082c-.001 5.018-4.086 9.1-9.106 9.1zm-85.668-19.407c-1.228 0-2.227.998-2.227 2.225v8.082c0 3.915 3.187 7.1 7.105 7.1h80.789c3.918 0 7.105-3.185 7.105-7.1v-8.082c0-1.227-.999-2.225-2.227-2.225h-27.945c-1.36 0-2.468 1.106-2.468 2.466 0 2.462-2.005 4.465-4.469 4.465h-20.781c-2.464 0-4.469-2.003-4.469-4.465 0-1.359-1.107-2.466-2.468-2.466z"/><path d="m12.765 81.522h-2.127c-.553 0-1-.447-1-1s.447-1 1-1h2.127c.553 0 1 .447 1 1s-.448 1-1 1z"/><path d="m20.056 81.522h-2.127c-.553 0-1-.447-1-1s.447-1 1-1h2.127c.553 0 1 .447 1 1s-.448 1-1 1z"/><path d="m27.347 81.522h-2.127c-.553 0-1-.447-1-1s.447-1 1-1h2.127c.553 0 1 .447 1 1s-.448 1-1 1z"/><path d="m74.78 81.522h-2.127c-.553 0-1-.447-1-1s.447-1 1-1h2.127c.553 0 1 .447 1 1s-.447 1-1 1z"/><path d="m82.071 81.522h-2.127c-.553 0-1-.447-1-1s.447-1 1-1h2.127c.553 0 1 .447 1 1s-.447 1-1 1z"/><path d="m89.362 81.522h-2.127c-.553 0-1-.447-1-1s.447-1 1-1h2.127c.553 0 1 .447 1 1s-.447 1-1 1z"/></svg>