<svg version="1.2" xmlns="http://www.w3.org/2000/svg" viewBox="0 0 512 512" width="512" height="512">
	<title>features_icon02</title>
	<style>
		.s0 { fill: none;stroke: #000000;stroke-miterlimit:10;stroke-width: 15 } 
	</style>
	<g>
		<filter id="f0">
			<feFlood flood-color="#ffffff" flood-opacity="1" />
			<feBlend mode="normal" in2="SourceGraphic"/>
			<feComposite in2="SourceAlpha" operator="in" />
		</filter>
		<g filter="url(#f0)">
			<path class="s0" d="m178.9 451.4h154.2"/>
			<path class="s0" d="m345.7 135.2l-89.7 16-89.7-16v-97.7h179.4z"/>
			<path class="s0" d="m195.7 7.5h189.2v30h-257.8v-30h53.6"/>
			<path class="s0" d="m384.9 37.5v69.3"/>
			<path class="s0" d="m256 151.2v300.2"/>
			<path class="s0" d="m152.8 350.1l40.8-22h34.8"/>
			<path class="s0" d="m118.9 228.4l47.4 10 20.7-23.6h35.5"/>
			<path class="s0" d="m166.3 238.4l37.1 23.9"/>
			<path class="s0" d="m131.7 311l42.6-16.5"/>
			<path class="s0" d="m145.7 166.9l45.4 11.1"/>
			<path class="s0" d="m193.6 328.1l19.7 40.6"/>
			<path class="s0" d="m289.3 451.4v-133l23.2-36.2v-60.4"/>
			<path class="s0" d="m289.3 388.9l72-85.5v-31.6"/>
			<path class="s0" d="m312.3 221.8c-8.6 0-15.5-6.9-15.5-15.5 0-8.5 6.9-15.5 15.5-15.5 8.6 0 15.5 7 15.5 15.5 0 8.6-6.9 15.5-15.5 15.5z"/>
			<path class="s0" d="m361.3 271.8c-8.3 0-15-6.7-15-15 0-8.3 6.7-15 15-15 8.3 0 15 6.7 15 15 0 8.3-6.7 15-15 15z"/>
			<path class="s0" d="m451.5 256h60.5"/>
			<path class="s0" d="m0 256h60.5"/>
			<g>
				<path class="s0" d="m433.3 173.5l54.8-25.5"/>
				<path class="s0" d="m23.9 364l54.8-25.5"/>
			</g>
			<g>
				<path class="s0" d="m433.3 338.5l54.8 25.5"/>
				<path class="s0" d="m23.9 148l54.8 25.5"/>
			</g>
			<path fill-rule="evenodd" class="s0" d="m166.3 133.7c-10.9 7.6-18.7 19.5-20.6 33.2-30 2.1-45.7 38.1-26.9 61.6-34.6 20.4-26.5 73.5 12.9 82.5-2.2 16.5 7.3 32.5 21.6 39.1-3.1 13.3 0.2 28.5 8.1 39 13.5 18.5 20.3 39.3 20.3 62.3v53.1h107.8"/>
			<path fill-rule="evenodd" class="s0" d="m345.7 134.3c74.3 52.7 95 168.1 20.8 240.7-41.4 40.5-32.6 77.6-33.4 129.5h-28.6"/>
		</g>
		<filter id="f1">
			<feFlood flood-color="#ffffff" flood-opacity="1" />
			<feBlend mode="normal" in2="SourceGraphic"/>
			<feComposite in2="SourceAlpha" operator="in" />
		</filter>
		<g filter="url(#f1)">
			<path class="s0" d="m256 71.9v15"/>
			<path class="s0" d="m256 101.9v15"/>
		</g>
	</g>
	<g>
	</g>
	<g>
	</g>
	<g>
	</g>
	<g>
	</g>
	<g>
	</g>
	<g>
	</g>
	<g>
	</g>
	<g>
	</g>
	<g>
	</g>
	<g>
	</g>
	<g>
	</g>
	<g>
	</g>
	<g>
	</g>
	<g>
	</g>
	<filter id="f2">
		<feFlood flood-color="#ffffff" flood-opacity="1" />
		<feBlend mode="normal" in2="SourceGraphic"/>
		<feComposite in2="SourceAlpha" operator="in" />
	</filter>
	<g filter="url(#f2)">
	</g>
</svg>