<svg width="64" height="64" viewBox="0 0 64 64" fill="none" xmlns="http://www.w3.org/2000/svg">
<path d="M49.3896 47.0971C50.2993 47.0971 51.1722 47.4583 51.8154 48.1015C52.4587 48.7448 52.8203 49.6171 52.8203 50.5268C52.8203 51.4365 52.4587 52.3093 51.8154 52.9526C51.1722 53.5958 50.2993 53.957 49.3896 53.957H33.3896C31.0848 53.8515 28.8294 53.2587 26.7705 52.2172C25.0605 51.3572 24.2598 50.6769 24.2598 49.3369V28.5571C26.6023 26.0436 28.7205 23.3301 30.5898 20.4472C32.6398 16.9072 32.8405 9.59683 33.2705 7.04683C34.3625 6.89215 35.474 7.12336 36.4141 7.70015C37.3541 8.27695 38.0632 9.16339 38.4199 10.207C39.4786 12.9351 39.8228 15.8886 39.4199 18.7871L37.9902 26.5068H53.6299C54.5396 26.5068 55.4124 26.8684 56.0557 27.5117C56.6989 28.1549 57.0605 29.0273 57.0605 29.937C57.0605 30.8467 56.6989 31.719 56.0557 32.3623C55.4124 33.0055 54.5396 33.3671 53.6299 33.3671H52.2998C53.2095 33.3671 54.0823 33.7283 54.7256 34.3715C55.3688 35.0148 55.7305 35.8871 55.7305 36.7968C55.7305 37.7065 55.3688 38.5794 54.7256 39.2226C54.0823 39.8659 53.2095 40.227 52.2998 40.227H50.9697C51.8487 40.2745 52.6768 40.6569 53.2822 41.2959C53.8877 41.9348 54.2246 42.7818 54.2246 43.6621C54.2246 44.5423 53.8877 45.3888 53.2822 46.0278C52.6768 46.6668 51.8487 47.0497 50.9697 47.0971" fill="#BDEA09"/>
<path d="M9.13965 28.5587H24.2402V54.8883C24.2402 55.1667 24.1856 55.4426 24.0791 55.6998C23.9726 55.957 23.816 56.1904 23.6191 56.3873C23.4223 56.5842 23.1889 56.7407 22.9316 56.8473C22.6744 56.9538 22.3985 57.0084 22.1201 57.0084H9.12012C8.55786 57.0084 8.01867 56.7849 7.62109 56.3873C7.22352 55.9897 7 55.4505 7 54.8883V30.6783C6.99999 30.3982 7.0553 30.1209 7.16309 29.8624C7.27087 29.6039 7.42895 29.3696 7.62793 29.1725C7.82691 28.9753 8.06274 28.8193 8.32227 28.714C8.58179 28.6086 8.85957 28.556 9.13965 28.5587V28.5587Z" fill="#3F7DFF"/>
<path d="M52.25 33.3672H44.54" stroke="#0B0B0B" stroke-linecap="round" stroke-linejoin="round"/>
<path d="M50.9805 40.2266H44.54" stroke="#0B0B0B" stroke-linecap="round" stroke-linejoin="round"/>
<path d="M49.5 47.0859H44.54" stroke="#0B0B0B" stroke-linecap="round" stroke-linejoin="round"/>
<path d="M12.4697 53.9453C13.5301 53.9453 14.3896 53.0858 14.3896 52.0254C14.3896 50.965 13.5301 50.1055 12.4697 50.1055C11.4093 50.1055 10.5498 50.965 10.5498 52.0254C10.5498 53.0858 11.4093 53.9453 12.4697 53.9453Z" stroke="white" stroke-linecap="round" stroke-linejoin="round"/>
</svg>
