<svg width="151" height="26" viewBox="0 0 151 26" fill="none" xmlns="http://www.w3.org/2000/svg">
<path d="M8.5801 0.00878906C12.3186 0.00878906 13.8507 1.49775 13.8507 4.84138V7.17495C13.8507 10.5186 12.3186 12.0075 8.5801 12.0075H0.516557C0.175104 12.0075 0 11.8334 0 11.4938V0.522523C0 0.182936 0.175104 0.00878906 0.516557 0.00878906H8.5801ZM2.63532 9.40403C2.63532 9.56077 2.70536 9.63042 2.86295 9.63042H8.51006C10.5413 9.63042 11.2154 8.97737 11.2154 6.95726V5.07647C11.2154 3.05637 10.5413 2.40331 8.51006 2.40331H2.86295C2.70536 2.40331 2.63532 2.47297 2.63532 2.64712V9.40403Z" fill="#FF5601"/>
<path d="M19.4187 0.00870789C20.4518 0.00870789 20.7932 0.235099 21.266 1.31481L24.8469 9.54327C24.8994 9.66517 24.9695 9.7 25.0921 9.7H25.3022C25.4247 9.7 25.4948 9.66517 25.5473 9.54327L29.1282 1.31481C29.5922 0.235099 29.9337 0.00870789 30.958 0.00870789H32.8054C34.0136 0.00870789 34.32 0.487613 34.32 1.79372V11.633C34.32 11.8943 34.18 12.0075 33.9261 12.0075H32.1663C31.9036 12.0075 31.7898 11.8856 31.7898 11.633V2.68187C31.7898 2.55996 31.7548 2.50772 31.6497 2.50772H31.4921C31.3695 2.50772 31.2995 2.54255 31.2645 2.64704L27.7887 10.3269C27.2196 11.5634 26.738 12.0075 25.5823 12.0075H24.7594C23.6037 12.0075 23.1221 11.5634 22.553 10.3269L19.0597 2.64704C19.0247 2.54255 18.9547 2.50772 18.8321 2.50772H18.6745C18.5694 2.50772 18.5344 2.55996 18.5344 2.68187V11.6243C18.5344 11.8855 18.4118 11.9987 18.1579 11.9987H16.3981C16.1355 11.9987 16.0042 11.8768 16.0042 11.6243V1.78501C16.0042 0.478905 16.3106 0 17.5363 0H19.4187V0.00870789Z" fill="#FF5601"/>
<path d="M38.8038 0.00878906C39.0664 0.00878906 39.1802 0.130692 39.1802 0.383205V7.21849C39.1802 9.03832 39.6968 9.56947 41.4741 9.56947H48.452C48.7147 9.56947 48.8285 9.69138 48.8285 9.94389V11.6244C48.8285 11.8856 48.7059 11.9988 48.452 11.9988H41.369C37.8932 11.9988 36.5449 10.7624 36.5449 7.47971V0.383205C36.5449 0.121984 36.685 0.00878906 36.9389 0.00878906H38.8038Z" fill="black"/>
<path d="M62.6432 0.00878906C62.9058 0.00878906 63.0372 0.130692 63.0372 0.383205V2.01148C63.0372 2.2727 62.8971 2.3859 62.6432 2.3859H55.1137C53.3189 2.3859 52.8198 2.91705 52.8198 4.71947V4.89362H62.5556C62.8183 4.89362 62.9321 5.01552 62.9321 5.26804V6.61768C62.9321 6.8789 62.8095 6.99209 62.5556 6.99209H52.8198V7.27944C52.8198 9.08186 53.3189 9.61301 55.1137 9.61301H62.6432C62.9058 9.61301 63.0372 9.73491 63.0372 9.98743V11.6157C63.0372 11.8769 62.8971 11.9901 62.6432 11.9901H55.0612C51.5854 11.9901 50.2371 10.7537 50.2371 7.471V4.52791C50.2371 1.23653 51.5766 0.00878906 55.0612 0.00878906H62.6432Z" fill="black"/>
<path d="M72.6683 0.00878906C73.5438 0.00878906 74.0779 0.278717 74.647 1.31489L80.3466 11.6157C80.4692 11.8421 80.4166 12.0075 80.1365 12.0075H77.9477C77.72 12.0075 77.6412 11.9553 77.5537 11.7811L76.328 9.56947H68.2294L67.0387 11.7811C66.9511 11.9553 66.8461 12.0075 66.6447 12.0075H64.4034C64.1145 12.0075 64.0619 11.8334 64.1757 11.6157L69.8228 1.31489C70.3919 0.287425 70.9085 0.00878906 71.6352 0.00878906H72.6683ZM69.3326 7.58419H75.2598L72.5194 2.56005C72.4669 2.47297 72.4144 2.43814 72.3268 2.43814H72.2218C72.1342 2.43814 72.0817 2.47297 72.0292 2.56005L69.3326 7.58419Z" fill="black"/>
<path d="M91.5882 0.00878906C94.2235 0.00878906 95.2916 1.22782 95.2916 3.53527V4.5105C95.2916 6.46094 94.5299 7.61032 92.7263 7.9412L95.6681 11.5722C95.7731 11.6941 95.7556 11.9988 95.4405 11.9988H93.2166C92.9277 11.9988 92.8402 11.9292 92.7351 11.7724L90.0122 8.21112H84.4439V11.6244C84.4439 11.8856 84.3213 11.9988 84.0674 11.9988H82.2026C81.9399 11.9988 81.8086 11.8769 81.8086 11.6244V0.522523C81.8086 0.182936 81.9837 0.00878906 82.3252 0.00878906H91.5882ZM84.4527 6.13007H91.0541C92.2273 6.13007 92.6563 5.63375 92.6563 4.60628V3.88357C92.6563 2.8561 92.2273 2.35978 91.0541 2.35978H84.6803C84.5227 2.35978 84.4527 2.42944 84.4527 2.56875V6.13007Z" fill="black"/>
<path d="M100.475 0.00878906C101.578 0.00878906 101.815 0.148107 102.471 1.01884L108.88 9.37791C108.932 9.46499 109.003 9.49982 109.108 9.49982H109.265C109.353 9.49982 109.405 9.44757 109.405 9.32567V0.391913C109.405 0.130692 109.528 0.0174963 109.782 0.0174963H111.594C111.857 0.0174963 111.971 0.139399 111.971 0.391913V10.2312C111.971 11.6157 111.472 12.0162 110.421 12.0162H108.941C107.891 12.0162 107.628 11.9118 106.945 11.0062L100.519 2.64712C100.449 2.56005 100.396 2.52522 100.291 2.52522H100.134C100.028 2.52522 99.9934 2.57746 99.9934 2.69936V11.6418C99.9934 11.903 99.8709 12.0162 99.617 12.0162H97.8046C97.542 12.0162 97.4106 11.8943 97.4106 11.6418V1.80251C97.4106 0.418035 97.9097 0.0174963 98.9603 0.0174963H100.475V0.00878906Z" fill="black"/>
<path d="M116.514 0.00878906C116.777 0.00878906 116.891 0.130692 116.891 0.383205V11.6244C116.891 11.8856 116.768 11.9988 116.514 11.9988H114.649C114.387 11.9988 114.255 11.8769 114.255 11.6244V0.391913C114.255 0.130692 114.395 0.0174963 114.649 0.0174963H116.514V0.00878906Z" fill="black"/>
<path d="M122.258 0.00878906C123.361 0.00878906 123.597 0.148107 124.254 1.01884L130.663 9.37791C130.715 9.46499 130.785 9.49982 130.89 9.49982H131.048C131.135 9.49982 131.188 9.44757 131.188 9.32567V0.391913C131.188 0.130692 131.311 0.0174963 131.564 0.0174963H133.377C133.639 0.0174963 133.753 0.139399 133.753 0.391913V10.2312C133.753 11.6157 133.254 12.0162 132.204 12.0162H130.724C129.673 12.0162 129.411 11.9118 128.728 11.0062L122.301 2.64712C122.231 2.56005 122.179 2.52522 122.074 2.52522H121.916C121.811 2.52522 121.776 2.57746 121.776 2.69936V11.6418C121.776 11.903 121.654 12.0162 121.4 12.0162H119.587C119.325 12.0162 119.193 11.8943 119.193 11.6418V1.80251C119.193 0.418035 119.692 0.0174963 120.743 0.0174963H122.258V0.00878906Z" fill="black"/>
<path d="M149.461 0.00878906C149.724 0.00878906 149.838 0.130692 149.838 0.383205V2.07243C149.838 2.33365 149.715 2.46426 149.461 2.46426H140.829C139.051 2.46426 138.535 2.978 138.535 4.79784V7.26202C138.535 9.08186 139.051 9.61301 140.829 9.61301H146.511C147.115 9.61301 147.369 9.34308 147.369 8.56813V7.18365C147.369 7.02692 147.316 6.95726 147.159 6.95726H142.107C141.862 6.95726 141.73 6.81795 141.73 6.56543V5.27674C141.73 5.01552 141.87 4.88491 142.107 4.88491H149.295C149.636 4.88491 149.811 5.05906 149.811 5.39865V9.38662C149.811 11.3022 149.05 12.0075 147.675 12.0075H140.715C137.239 12.0075 135.891 10.7711 135.891 7.48841V4.54532C135.891 1.25394 137.23 0.0262035 140.715 0.0262035H149.461V0.00878906Z" fill="black"/>
<path d="M44.9172 18.3284H45.6901C45.7974 18.3284 45.8475 18.3785 45.8475 18.4859V23.1804C45.8475 23.2878 45.7974 23.3379 45.6901 23.3379H44.9172C44.8098 23.3379 44.7526 23.2878 44.7526 23.1804V18.4859C44.7526 18.3785 44.8098 18.3284 44.9172 18.3284ZM48.4606 19.409H50.5144C51.8026 19.409 52.2177 19.8241 52.2177 20.8618V23.1804C52.2177 23.2878 52.1676 23.3379 52.0602 23.3379H51.3589C51.2516 23.3379 51.2015 23.2878 51.2015 23.1804V21.1051C51.2015 20.504 51.0798 20.3179 50.4644 20.3179H48.5607C47.9453 20.3179 47.7807 20.504 47.7807 21.1051V23.1804C47.7807 23.2878 47.7306 23.3379 47.6233 23.3379H46.9219C46.8146 23.3379 46.7573 23.2878 46.7573 23.1804V20.8618C46.7573 19.8241 47.1724 19.409 48.4606 19.409ZM53.2681 19.409H53.9695C54.0768 19.409 54.1269 19.4663 54.1269 19.5736V23.1804C54.1269 23.2878 54.0768 23.3379 53.9695 23.3379H53.2681C53.1608 23.3379 53.1107 23.2878 53.1107 23.1804V19.5736C53.1107 19.4663 53.1608 19.409 53.2681 19.409ZM53.2681 17.9563H53.9695C54.0768 17.9563 54.1269 18.0064 54.1269 18.1137V18.7936C54.1269 18.9009 54.0768 18.9582 53.9695 18.9582H53.2681C53.1608 18.9582 53.1036 18.9009 53.1036 18.7936V18.1137C53.1036 18.0064 53.1608 17.9563 53.2681 17.9563ZM54.832 19.409H55.5119V18.4644C55.5119 18.357 55.5692 18.3069 55.6693 18.3069H56.3778C56.478 18.3069 56.5353 18.357 56.5353 18.4644V19.409H57.7876C57.8807 19.409 57.9165 19.452 57.9165 19.5378V20.1247C57.9165 20.2105 57.8807 20.2535 57.7876 20.2535H56.5353V21.9138C56.5353 22.3074 56.6641 22.4934 57.1364 22.4934H57.8306C57.9236 22.4934 57.9594 22.5364 57.9594 22.6223V23.2091C57.9594 23.295 57.9236 23.3379 57.8306 23.3379H56.9646C55.8196 23.3379 55.5119 22.93 55.5119 21.9138V20.2535H54.832C54.7462 20.2535 54.7032 20.2105 54.7032 20.1247V19.5378C54.7032 19.452 54.7462 19.409 54.832 19.409ZM58.7053 19.409H59.4067C59.514 19.409 59.5641 19.4663 59.5641 19.5736V23.1804C59.5641 23.2878 59.514 23.3379 59.4067 23.3379H58.7053C58.598 23.3379 58.5479 23.2878 58.5479 23.1804V19.5736C58.5479 19.4663 58.598 19.409 58.7053 19.409ZM58.7053 17.9563H59.4067C59.514 17.9563 59.5641 18.0064 59.5641 18.1137V18.7936C59.5641 18.9009 59.514 18.9582 59.4067 18.9582H58.7053C58.598 18.9582 58.5407 18.9009 58.5407 18.7936V18.1137C58.5407 18.0064 58.598 17.9563 58.7053 17.9563ZM60.5555 19.409H63.647C64.9352 19.409 65.3503 19.8241 65.3503 20.8618V22.7654C65.3503 23.2305 65.2358 23.3379 64.8207 23.3379H61.4143C60.5698 23.3379 60.3122 23.0302 60.3122 22.3217V21.9782C60.3122 21.377 60.5698 21.0407 61.4143 21.0407H64.3269V20.9047C64.3269 20.4467 64.1695 20.2678 63.5469 20.2678H60.5555C60.4696 20.2678 60.4267 20.232 60.4267 20.139V19.5378C60.4267 19.452 60.4696 19.409 60.5555 19.409ZM64.1194 22.5507C64.2697 22.5507 64.3269 22.4863 64.3269 22.3074V21.6776H61.7077C61.4143 21.6776 61.3069 21.7993 61.3069 22.0283V22.1786C61.3069 22.4362 61.4143 22.5507 61.7077 22.5507H64.1194ZM65.9161 19.409H66.5959V18.4644C66.5959 18.357 66.6532 18.3069 66.7534 18.3069H67.4619C67.562 18.3069 67.6193 18.357 67.6193 18.4644V19.409H68.8717C68.9647 19.409 69.0005 19.452 69.0005 19.5378V20.1247C69.0005 20.2105 68.9647 20.2535 68.8717 20.2535H67.6193V21.9138C67.6193 22.3074 67.7481 22.4934 68.2204 22.4934H68.9146C69.0076 22.4934 69.0434 22.5364 69.0434 22.6223V23.2091C69.0434 23.295 69.0076 23.3379 68.9146 23.3379H68.0487C66.9037 23.3379 66.5959 22.93 66.5959 21.9138V20.2535H65.9161C65.8302 20.2535 65.7873 20.2105 65.7873 20.1247V19.5378C65.7873 19.452 65.8302 19.409 65.9161 19.409ZM69.7894 19.409H70.4907C70.598 19.409 70.6481 19.4663 70.6481 19.5736V23.1804C70.6481 23.2878 70.598 23.3379 70.4907 23.3379H69.7894C69.682 23.3379 69.6319 23.2878 69.6319 23.1804V19.5736C69.6319 19.4663 69.682 19.409 69.7894 19.409ZM69.7894 17.9563H70.4907C70.598 17.9563 70.6481 18.0064 70.6481 18.1137V18.7936C70.6481 18.9009 70.598 18.9582 70.4907 18.9582H69.7894C69.682 18.9582 69.6248 18.9009 69.6248 18.7936V18.1137C69.6248 18.0064 69.682 17.9563 69.7894 17.9563ZM71.3175 19.409H72.1405C72.2263 19.409 72.2764 19.4377 72.3122 19.5092L73.994 22.4648C74.0154 22.5006 74.0369 22.5077 74.0727 22.5077H74.1013C74.1371 22.5077 74.1586 22.5006 74.18 22.4648L75.8689 19.5092C75.9047 19.4448 75.9477 19.409 76.0407 19.409H76.8351C76.9352 19.409 76.9782 19.4949 76.9281 19.5879L74.9672 23.0159C74.8313 23.252 74.6881 23.3379 74.3661 23.3379H73.7793C73.4644 23.3379 73.3213 23.252 73.1853 23.0159L71.2244 19.5879C71.1743 19.4949 71.2173 19.409 71.3175 19.409ZM78.6484 19.409H80.7452C81.7257 19.409 81.9833 19.7168 81.9833 20.5827V21.2625C81.9833 21.5703 81.8545 21.6705 81.5754 21.6705H77.9614V21.8422C77.9614 22.2931 78.126 22.4791 78.7486 22.4791H81.7328C81.8187 22.4791 81.8616 22.5221 81.8616 22.6079V23.2091C81.8616 23.295 81.8187 23.3379 81.7328 23.3379H78.6484C77.3603 23.3379 76.9452 22.93 76.9452 21.8923V20.8618C76.9452 19.8241 77.3603 19.409 78.6484 19.409ZM77.9614 20.8403V21.0335H80.8597C80.9456 21.0335 80.9814 21.0049 80.9814 20.9119V20.6113C80.9814 20.3179 80.8741 20.2034 80.5449 20.2034H78.7486C78.126 20.2034 77.9614 20.3823 77.9614 20.8403ZM85.2897 17.9706H85.991C86.0984 17.9706 86.1485 18.0207 86.1485 18.128V19.409H88.8321C90.1203 19.409 90.5354 19.8241 90.5354 20.8618V21.8923C90.5354 22.93 90.1203 23.3379 88.8321 23.3379H86.8283C85.5402 23.3379 85.1251 22.93 85.1251 21.8923V18.128C85.1251 18.0207 85.1824 17.9706 85.2897 17.9706ZM88.7319 20.2678H86.1485V21.6919C86.1485 22.2931 86.3131 22.4791 86.9285 22.4791H88.7319C89.3546 22.4791 89.5192 22.2931 89.5192 21.6919V21.055C89.5192 20.4539 89.3546 20.2678 88.7319 20.2678ZM95.5504 19.409H96.3519C96.4521 19.409 96.495 19.4949 96.4449 19.5879L93.6969 24.4328C93.5108 24.762 93.1816 24.9195 92.5662 24.9195H92.0652C91.9793 24.9195 91.9364 24.8765 91.9364 24.7906V24.2038C91.9364 24.1179 91.9793 24.075 92.0652 24.075H92.4874C92.6807 24.075 92.788 24.0249 92.8524 23.9104L93.2389 23.2305C93.0027 23.2091 92.8953 23.1232 92.7808 22.9228L90.8486 19.5879C90.7985 19.4949 90.8415 19.409 90.9417 19.409H91.7646C91.8505 19.409 91.9006 19.4377 91.9364 19.5092L93.5251 22.2644C93.6038 22.3932 93.6325 22.429 93.6969 22.429L95.3786 19.5092C95.4144 19.4377 95.4645 19.409 95.5504 19.409ZM99.5907 18.3284H102.94C104.493 18.3284 105.13 18.951 105.13 20.3465V21.3198C105.13 22.7153 104.493 23.3379 102.94 23.3379H99.5907C99.4476 23.3379 99.376 23.2663 99.376 23.1232V18.5431C99.376 18.4 99.4476 18.3284 99.5907 18.3284ZM100.471 19.4233V22.2501C100.471 22.3145 100.5 22.3432 100.564 22.3432H102.911C103.756 22.3432 104.035 22.0712 104.035 21.2268V20.4396C104.035 19.5951 103.756 19.3232 102.911 19.3232H100.564C100.5 19.3232 100.471 19.3518 100.471 19.4233ZM106.165 19.409H106.867C106.974 19.409 107.024 19.4663 107.024 19.5736V23.1804C107.024 23.2878 106.974 23.3379 106.867 23.3379H106.165C106.058 23.3379 106.008 23.2878 106.008 23.1804V19.5736C106.008 19.4663 106.058 19.409 106.165 19.409ZM106.165 17.9563H106.867C106.974 17.9563 107.024 18.0064 107.024 18.1137V18.7936C107.024 18.9009 106.974 18.9582 106.867 18.9582H106.165C106.058 18.9582 106.001 18.9009 106.001 18.7936V18.1137C106.001 18.0064 106.058 17.9563 106.165 17.9563ZM109.568 19.409H111.572C112.868 19.409 113.275 19.8241 113.275 20.8546V23.4595C113.275 24.5044 112.868 24.9195 111.572 24.9195H108.202C108.116 24.9195 108.073 24.8765 108.073 24.7906V24.1895C108.073 24.1036 108.116 24.0607 108.202 24.0607H111.472C112.095 24.0607 112.259 23.8746 112.259 23.2663V23.0803H109.568C108.28 23.0803 107.865 22.6652 107.865 21.6204V20.8689C107.865 19.8241 108.28 19.409 109.568 19.409ZM108.889 21.6132C108.889 22.0998 109.053 22.2859 109.669 22.2859H112.259V20.9477C112.259 20.4396 112.095 20.2535 111.472 20.2535H109.669C109.053 20.2535 108.889 20.4396 108.889 20.9262V21.6132ZM114.328 19.409H115.029C115.137 19.409 115.187 19.4663 115.187 19.5736V23.1804C115.187 23.2878 115.137 23.3379 115.029 23.3379H114.328C114.221 23.3379 114.171 23.2878 114.171 23.1804V19.5736C114.171 19.4663 114.221 19.409 114.328 19.409ZM114.328 17.9563H115.029C115.137 17.9563 115.187 18.0064 115.187 18.1137V18.7936C115.187 18.9009 115.137 18.9582 115.029 18.9582H114.328C114.221 18.9582 114.164 18.9009 114.164 18.7936V18.1137C114.164 18.0064 114.221 17.9563 114.328 17.9563ZM116.751 18.3284H117.531C117.96 18.3284 118.103 18.4214 118.297 18.8723L119.785 22.3074C119.807 22.3575 119.835 22.3718 119.885 22.3718H119.971C120.021 22.3718 120.05 22.3575 120.071 22.3074L121.56 18.8723C121.753 18.4214 121.896 18.3284 122.318 18.3284H123.084C123.585 18.3284 123.714 18.5288 123.714 19.0727V23.1804C123.714 23.2878 123.657 23.3379 123.549 23.3379H122.819C122.712 23.3379 122.662 23.2878 122.662 23.1804V19.4448C122.662 19.3947 122.648 19.3732 122.605 19.3732H122.54C122.49 19.3732 122.462 19.3876 122.447 19.4305L121.002 22.6366C120.766 23.1518 120.565 23.3379 120.086 23.3379H119.742C119.263 23.3379 119.062 23.1518 118.826 22.6366L117.381 19.4305C117.366 19.3876 117.338 19.3732 117.288 19.3732H117.223C117.18 19.3732 117.166 19.3947 117.166 19.4448V23.1804C117.166 23.2878 117.116 23.3379 117.008 23.3379H116.278C116.171 23.3379 116.114 23.2878 116.114 23.1804V19.0727C116.114 18.5288 116.243 18.3284 116.751 18.3284ZM124.725 19.409H127.817C129.105 19.409 129.52 19.8241 129.52 20.8618V22.7654C129.52 23.2305 129.406 23.3379 128.991 23.3379H125.584C124.74 23.3379 124.482 23.0302 124.482 22.3217V21.9782C124.482 21.377 124.74 21.0407 125.584 21.0407H128.497V20.9047C128.497 20.4467 128.339 20.2678 127.717 20.2678H124.725C124.64 20.2678 124.597 20.232 124.597 20.139V19.5378C124.597 19.452 124.64 19.409 124.725 19.409ZM128.289 22.5507C128.44 22.5507 128.497 22.4863 128.497 22.3074V21.6776H125.878C125.584 21.6776 125.477 21.7993 125.477 22.0283V22.1786C125.477 22.4362 125.584 22.5507 125.878 22.5507H128.289ZM131.968 19.409H134.022C135.31 19.409 135.725 19.8241 135.725 20.8618V23.1804C135.725 23.2878 135.675 23.3379 135.568 23.3379H134.866C134.759 23.3379 134.709 23.2878 134.709 23.1804V21.1051C134.709 20.504 134.587 20.3179 133.972 20.3179H132.068C131.453 20.3179 131.288 20.504 131.288 21.1051V23.1804C131.288 23.2878 131.238 23.3379 131.131 23.3379H130.43C130.322 23.3379 130.265 23.2878 130.265 23.1804V20.8618C130.265 19.8241 130.68 19.409 131.968 19.409ZM136.411 19.409H137.091V18.4644C137.091 18.357 137.148 18.3069 137.248 18.3069H137.957C138.057 18.3069 138.114 18.357 138.114 18.4644V19.409H139.366C139.459 19.409 139.495 19.452 139.495 19.5378V20.1247C139.495 20.2105 139.459 20.2535 139.366 20.2535H138.114V21.9138C138.114 22.3074 138.243 22.4934 138.715 22.4934H139.409C139.502 22.4934 139.538 22.5364 139.538 22.6223V23.2091C139.538 23.295 139.502 23.3379 139.409 23.3379H138.543C137.398 23.3379 137.091 22.93 137.091 21.9138V20.2535H136.411C136.325 20.2535 136.282 20.2105 136.282 20.1247V19.5378C136.282 19.452 136.325 19.409 136.411 19.409ZM141.801 19.409H143.805C143.891 19.409 143.934 19.452 143.934 19.5378V20.139C143.934 20.232 143.891 20.2678 143.805 20.2678H141.901C141.286 20.2678 141.121 20.4539 141.121 21.055V23.1804C141.121 23.2878 141.071 23.3379 140.964 23.3379H140.263C140.155 23.3379 140.098 23.2878 140.098 23.1804V20.8618C140.098 19.8241 140.513 19.409 141.801 19.409ZM144.594 19.409H147.686C148.974 19.409 149.389 19.8241 149.389 20.8618V22.7654C149.389 23.2305 149.275 23.3379 148.859 23.3379H145.453C144.609 23.3379 144.351 23.0302 144.351 22.3217V21.9782C144.351 21.377 144.609 21.0407 145.453 21.0407H148.366V20.9047C148.366 20.4467 148.208 20.2678 147.586 20.2678H144.594C144.508 20.2678 144.465 20.232 144.465 20.139V19.5378C144.465 19.452 144.508 19.409 144.594 19.409ZM148.158 22.5507C148.308 22.5507 148.366 22.4863 148.366 22.3074V21.6776H145.746C145.453 21.6776 145.346 21.7993 145.346 22.0283V22.1786C145.346 22.4362 145.453 22.5507 145.746 22.5507H148.158Z" fill="black"/>
</svg>
