<svg width="100%" height="100%" viewBox="0 0 85 36" fill="#686672" xmlns="http://www.w3.org/2000/svg" aria-labelledby="ibmLogoTitle" role="img"><title id="ibmLogoTitle">IBM Logo</title><g clip-path="url(#clip0_1901_19186)"><path d="M84.5635 3.29288H70.499L71.4006 0.858643H84.5635V3.29288Z" fill="var(--color-navy-500)"></path><path d="M47.0576 0.858643H60.1303L60.9418 3.29288H47.0576V0.858643Z" fill="var(--color-navy-500)"></path><path d="M36.6889 0.858643C38.8527 1.03896 40.746 1.85037 42.2787 3.29288H18.5674V0.858643H36.6889Z" fill="var(--color-navy-500)"></path><path d="M16.4936 0.858643H0.0849609V3.29288H16.4936V0.858643Z" fill="var(--color-navy-500)"></path><path d="M84.5613 7.80069H68.874L69.6855 5.36646H84.4712V7.80069H84.5613Z" fill="var(--color-navy-500)"></path><path d="M62.6548 7.80038H47.0576V5.4563H61.7532L62.6548 7.80038Z" fill="var(--color-navy-500)"></path><path d="M44.1716 5.45642C44.4421 6.26784 44.8928 6.89894 44.8928 7.89066H18.6572V5.45642H44.1716Z" fill="var(--color-navy-500)"></path><path d="M16.4936 5.45642H0.0849609V7.89066H16.4936V5.45642Z" fill="var(--color-navy-500)"></path><path d="M67.3428 12.3984L68.1542 9.96411H79.9648V12.3984H67.3428Z" fill="var(--color-navy-500)"></path><path d="M63.3754 9.96411L64.277 12.3984H51.7451V9.96411H63.3754Z" fill="var(--color-navy-500)"></path><path d="M45.0722 9.96411C45.0722 10.7755 44.982 11.6771 44.7116 12.3984H37.499V9.96411H45.0722Z" fill="var(--color-navy-500)"></path><path d="M11.7148 9.96411H4.68262V12.3984H11.7148V9.96411Z" fill="var(--color-navy-500)"></path><path d="M30.4687 9.96411H23.4365V12.3984H30.4687V9.96411Z" fill="var(--color-navy-500)"></path><path d="M58.6872 15.0131V16.8162H51.7451V14.382H64.9982L65.8096 16.6359L66.6211 14.382H79.9643V16.8162H73.0222V15.0131L72.3911 16.8162H59.3183L58.6872 15.0131Z" fill="var(--color-navy-500)"></path><path d="M23.4365 14.4719H43.7218C43.2711 15.2833 42.4596 16.275 41.7383 16.9062H23.5267C23.4365 16.8159 23.4365 14.4719 23.4365 14.4719Z" fill="var(--color-navy-500)"></path><path d="M11.7148 14.4719H4.68262V16.9062H11.7148V14.4719Z" fill="var(--color-navy-500)"></path><path d="M79.9646 18.9797H73.0225V21.4139H79.9646V18.9797Z" fill="var(--color-navy-500)"></path><path d="M58.6872 18.9797H51.7451V21.4139H58.6872V18.9797Z" fill="var(--color-navy-500)"></path><path d="M71.67 18.9797L70.8586 21.4139H61.0315L60.1299 18.9797H71.67Z" fill="var(--color-navy-500)"></path><path d="M23.4365 18.9797H41.6482C42.4596 19.7009 43.271 20.5124 43.812 21.4139H23.4365V18.9797Z" fill="var(--color-navy-500)"></path><path d="M11.7148 21.4139V18.9797H4.68262V21.4139H11.7148Z" fill="var(--color-navy-500)"></path><path d="M79.9646 23.5774H73.0225V26.0116H79.9646V23.5774Z" fill="var(--color-navy-500)"></path><path d="M58.6872 23.5774H51.7451V26.0116H58.6872V23.5774Z" fill="var(--color-navy-500)"></path><path d="M69.1461 26.0116C69.1461 26.0116 69.9575 23.5774 70.0477 23.5774H61.6631L62.5647 26.0116H69.1461Z" fill="var(--color-navy-500)"></path><path d="M23.4365 25.9218V23.4875H30.5589V25.9218H23.4365Z" fill="var(--color-navy-500)"></path><path d="M44.8031 23.5774C45.1637 24.2986 45.1637 25.2002 45.2539 26.0116H37.6807V23.5774H44.8031Z" fill="var(--color-navy-500)"></path><path d="M11.7148 23.5774H4.68262V26.0116H11.7148V23.5774Z" fill="var(--color-navy-500)"></path><path d="M84.5626 27.9954H73.0225V30.4296H84.5626V27.9954Z" fill="var(--color-navy-500)"></path><path d="M58.5977 27.9954H47.0576V30.4296H58.5977V27.9954Z" fill="var(--color-navy-500)"></path><path d="M67.612 30.4296H64.0959L63.1943 27.9954H68.4235L67.612 30.4296Z" fill="var(--color-navy-500)"></path><path d="M0.0849609 27.9954V30.4296H16.4936V27.9954H0.0849609Z" fill="var(--color-navy-500)"></path><path d="M44.9831 27.9954C44.8027 28.8068 44.6224 29.7985 44.0815 30.4296H43.9011H18.6572V27.9954H44.9831Z" fill="var(--color-navy-500)"></path><path d="M65.9894 34.937H65.719L64.8174 32.593H66.891L65.9894 34.937Z" fill="var(--color-navy-500)"></path><path d="M84.5626 32.593H73.0225V35.0273H84.5626V32.593Z" fill="var(--color-navy-500)"></path><path d="M18.6572 34.9374V32.5032C18.6572 32.5032 42.3685 32.5032 42.4586 32.5032C40.8358 34.0358 38.6721 34.8473 36.328 34.9374H18.6572Z" fill="var(--color-navy-500)"></path><path d="M58.5977 32.593H47.0576V35.0273H58.5977V32.593Z" fill="var(--color-navy-500)"></path><path d="M16.4936 32.593V35.0273H0.0849609V32.593H16.4936Z" fill="var(--color-navy-500)"></path></g><defs><clipPath id="clip0_1901_19186"><rect width="84.4771" height="34.3478" fill="white" transform="translate(0.0849609 0.858643)"></rect></clipPath></defs></svg>
