<svg width="100%" height="100%" viewBox="-16 0 67 36" fill="#686672" xmlns="http://www.w3.org/2000/svg" aria-labelledby="instagramLogoTitle" role="img"><title id="instagramLogoTitle">Instagram Logo</title><g clip-path="url(#clip0_1901_19290)"><mask id="mask0_1901_19290" style="mask-type:alpha" maskUnits="userSpaceOnUse" x="0" y="0" width="35" height="36"><path d="M0.637207 0.84082H34.9742V35.1737H0.637207V0.84082Z" fill="white"></path></mask><g mask="url(#mask0_1901_19290)"><path fill-rule="evenodd" clip-rule="evenodd" d="M17.8057 0.84082C13.143 0.84082 12.5584 0.860584 10.7272 0.944136C8.89977 1.02748 7.65173 1.31774 6.55969 1.74218C5.43071 2.18086 4.47326 2.76791 3.51874 3.72236C2.5643 4.67687 1.97725 5.63432 1.53856 6.7633C1.11412 7.85534 0.823871 9.10338 0.740523 10.9308C0.656971 12.762 0.637207 13.3466 0.637207 18.0093C0.637207 22.672 0.656971 23.2567 0.740523 25.0879C0.823871 26.9153 1.11412 28.1633 1.53856 29.2553C1.97725 30.3843 2.5643 31.3418 3.51874 32.2963C4.47326 33.2507 5.43071 33.8378 6.55969 34.2765C7.65173 34.7009 8.89977 34.9911 10.7272 35.0745C12.5584 35.158 13.143 35.1778 17.8057 35.1778C22.4684 35.1778 23.053 35.158 24.8842 35.0745C26.7116 34.9911 27.9597 34.7009 29.0517 34.2765C30.1807 33.8378 31.1381 33.2507 32.0927 32.2963C33.0471 31.3418 33.6342 30.3843 34.0729 29.2553C34.4973 28.1633 34.7875 26.9153 34.8709 25.0879C34.9544 23.2567 34.9742 22.672 34.9742 18.0093C34.9742 13.3466 34.9544 12.762 34.8709 10.9308C34.7875 9.10338 34.4973 7.85534 34.0729 6.7633C33.6342 5.63432 33.0471 4.67687 32.0927 3.72236C31.1381 2.76791 30.1807 2.18086 29.0517 1.74218C27.9597 1.31774 26.7116 1.02748 24.8842 0.944136C23.053 0.860584 22.4684 0.84082 17.8057 0.84082ZM17.8057 3.93424C22.3899 3.93424 22.9329 3.95175 24.7432 4.03435C26.4172 4.11068 27.3262 4.39037 27.9312 4.62549C28.7326 4.93693 29.3045 5.30897 29.9052 5.90978C30.506 6.51053 30.8781 7.08245 31.1895 7.88383C31.4246 8.4888 31.7043 9.39786 31.7807 11.0718C31.8633 12.8821 31.8808 13.4251 31.8808 18.0093C31.8808 22.5935 31.8633 23.1365 31.7807 24.9469C31.7043 26.6208 31.4246 27.5298 31.1895 28.1348C30.8781 28.9362 30.506 29.5081 29.9052 30.1088C29.3045 30.7097 28.7326 31.0817 27.9312 31.3931C27.3262 31.6283 26.4172 31.908 24.7432 31.9843C22.9332 32.0669 22.3902 32.0844 17.8057 32.0844C13.2212 32.0844 12.6783 32.0669 10.8682 31.9843C9.19425 31.908 8.28519 31.6283 7.68021 31.3931C6.87883 31.0817 6.30691 30.7097 5.70617 30.1088C5.10542 29.5081 4.73332 28.9362 4.42187 28.1348C4.18675 27.5298 3.90707 26.6208 3.83074 24.9469C3.74814 23.1365 3.73062 22.5935 3.73062 18.0093C3.73062 13.4251 3.74814 12.8821 3.83074 11.0718C3.90707 9.39786 4.18675 8.4888 4.42187 7.88383C4.73332 7.08245 5.10535 6.51053 5.70617 5.90978C6.30691 5.30897 6.87883 4.93693 7.68021 4.62549C8.28519 4.39037 9.19425 4.11068 10.8682 4.03435C12.6785 3.95175 13.2215 3.93424 17.8057 3.93424Z" fill="var(--color-navy-500)"></path></g><path fill-rule="evenodd" clip-rule="evenodd" d="M17.807 23.7315C14.6463 23.7315 12.0841 21.1693 12.0841 18.0087C12.0841 14.848 14.6463 12.2858 17.807 12.2858C20.9676 12.2858 23.5298 14.848 23.5298 18.0087C23.5298 21.1693 20.9676 23.7315 17.807 23.7315ZM17.807 9.19238C12.9379 9.19238 8.99072 13.1395 8.99072 18.0087C8.99072 22.8777 12.9379 26.8249 17.807 26.8249C22.6761 26.8249 26.6232 22.8777 26.6232 18.0087C26.6232 13.1395 22.6761 9.19238 17.807 9.19238Z" fill="var(--color-navy-500)"></path><path fill-rule="evenodd" clip-rule="evenodd" d="M29.0291 8.84444C29.0291 9.98228 28.1067 10.9046 26.9689 10.9046C25.8311 10.9046 24.9087 9.98228 24.9087 8.84444C24.9087 7.7066 25.8311 6.78418 26.9689 6.78418C28.1067 6.78418 29.0291 7.7066 29.0291 8.84444Z" fill="var(--color-navy-500)"></path></g><defs><clipPath id="clip0_1901_19290"><rect width="34.3478" height="34.3478" fill="white" transform="translate(0.637207 0.829102)"></rect></clipPath></defs></svg>
