<svg width="24" height="24" viewBox="0 0 24 24" fill="none" xmlns="http://www.w3.org/2000/svg">
<g clip-path="url(#clip0_10882_9698)">
<path d="M22.4134 16.3513L21.0975 15.6934L14.7505 18.8669C13.9961 19.2441 13.0355 19.452 12.0456 19.4522C11.0559 19.4522 10.0954 19.2443 9.34096 18.8671L2.9936 15.6934L1.67761 16.3513C0.968812 16.7058 0.5625 17.256 0.5625 17.861C0.5625 18.4658 0.968995 19.016 1.67761 19.3703L9.96993 23.5166C10.552 23.8075 11.2987 23.9531 12.0456 23.9531C12.7925 23.9529 13.5394 23.8075 14.1213 23.5166L22.4134 19.3705C23.1222 19.016 23.5287 18.4659 23.5287 17.861C23.5287 17.256 23.1222 16.7058 22.4134 16.3513Z" fill="#48BF84"/>
<path d="M22.4134 10.4442L21.0975 9.78613L14.7503 12.9599C13.9946 13.3378 13.034 13.5458 12.0456 13.5458C11.0572 13.5458 10.0966 13.3378 9.34096 12.9599L2.99378 9.78613L1.67761 10.4442C0.968995 10.7985 0.5625 11.3488 0.5625 11.9537C0.5625 12.5585 0.968995 13.1088 1.67761 13.4631L9.96993 17.6093C10.552 17.9003 11.2987 18.0459 12.0456 18.0459C12.7925 18.0457 13.5394 17.9003 14.1213 17.6093L22.4134 13.4633C23.1222 13.1088 23.5287 12.5587 23.5287 11.9537C23.5287 11.3488 23.1221 10.7985 22.4134 10.4442Z" fill="#48BF84"/>
<path fill-rule="evenodd" clip-rule="evenodd" d="M9.96993 11.7019L1.67761 7.55568C0.968995 7.20137 0.5625 6.65132 0.5625 6.04634C0.5625 5.44136 0.968812 4.89112 1.67761 4.53663L9.96993 0.390748C10.5341 0.108582 11.2713 -0.046875 12.0456 -0.046875C12.82 -0.046875 13.5572 0.108582 14.1215 0.390748L22.4134 4.53663C23.1222 4.89112 23.5287 5.44136 23.5287 6.04634C23.5287 6.65132 23.1221 7.20137 22.4133 7.55586L14.1213 11.7019C13.5572 11.9841 12.82 12.1396 12.0456 12.1396C11.2713 12.1396 10.5341 11.9841 9.96993 11.7019ZM10.8001 9C10.5796 9 10.4001 8.82443 10.4001 8.6087C10.4001 8.55678 10.4105 8.50604 10.4308 8.45804L12.8309 3.24039C12.8936 3.0943 13.0385 3 13.2001 3C13.4206 3 13.6001 3.17557 13.6001 3.3913C13.6001 3.44322 13.5897 3.49396 13.5694 3.54196L11.1693 8.75961C11.1066 8.9057 10.9617 9 10.8001 9ZM9.58374 7.71435C9.65908 7.78831 9.75961 7.82914 9.86668 7.82914C10.0872 7.82914 10.2667 7.65357 10.2667 7.43783C10.2667 7.33309 10.2251 7.23475 10.1495 7.16118L8.96561 6.00305L10.1493 4.84505C10.2249 4.77135 10.2667 4.67301 10.2667 4.56827C10.2667 4.35253 10.0872 4.17696 9.86668 4.17696C9.75961 4.17696 9.65908 4.21779 9.58388 4.29161L8.11733 5.72627C8.04173 5.79996 8 5.89831 8 6.00305C8 6.10779 8.04173 6.20614 8.1172 6.2797L9.58374 7.71435ZM13.7334 7.56393C13.7334 7.77967 13.9129 7.95524 14.1334 7.95524C14.2405 7.95524 14.341 7.91454 14.4162 7.84059L15.8827 6.40594C15.9583 6.33224 16.0001 6.23389 16.0001 6.12915C16.0001 6.02467 15.9585 5.92633 15.8829 5.8525L14.4163 4.41785C14.341 4.34389 14.2405 4.30307 14.1334 4.30307C13.9129 4.30307 13.7334 4.47863 13.7334 4.69437C13.7334 4.79885 13.7751 4.8972 13.8506 4.97102L15.0345 6.12915L13.8507 7.28715C13.7751 7.36085 13.7334 7.4592 13.7334 7.56393Z" fill="#48BF84"/>
</g>
<defs>
<clipPath id="clip0_10882_9698">
<rect width="24" height="24" fill="white"/>
</clipPath>
</defs>
</svg>
