<svg width="100%" height="100%" viewBox="20 20 101 22" fill="#686672" xmlns="http://www.w3.org/2000/svg" aria-labelledby="metaLogoTitle" role="img"><title id="metaLogoTitle">Meta Logo</title><g clip-path="url(#clip0_1926_174038)"><path d="M56.9834 21.589H60.7652L67.1958 33.225L73.6262 21.589H77.3262V40.7092H74.2407V26.055L68.602 36.2023H65.7076L60.0689 26.055V40.7092H56.9834V21.589Z" fill="var(--color-navy-500)"></path><path d="M87.279 41.0507C85.8499 41.0507 84.5939 40.7343 83.5108 40.1015C82.4276 39.4687 81.5834 38.5923 80.9782 37.4724C80.3728 36.3525 80.0702 35.0687 80.0703 33.6211C80.0703 32.1553 80.3661 30.8578 80.9577 29.7288C81.5494 28.5999 82.3708 27.7167 83.4221 27.0792C84.4734 26.442 85.6817 26.1233 87.0469 26.1232C88.4031 26.1232 89.5704 26.4441 90.5489 27.086C91.5272 27.728 92.2804 28.6271 92.8084 29.7834C93.3362 30.9398 93.6002 32.2964 93.6003 33.8532V34.6999H83.1286C83.3197 35.8655 83.7908 36.7828 84.5417 37.4519C85.2926 38.1211 86.2414 38.4557 87.3882 38.4556C88.3075 38.4556 89.0994 38.3191 89.7639 38.0459C90.4282 37.7728 91.0517 37.3585 91.6343 36.8032L93.2727 38.8108C91.6432 40.3041 89.6454 41.0508 87.279 41.0507ZM89.5318 29.7082C88.8854 29.0482 88.0389 28.7181 86.9924 28.718C85.9728 28.718 85.1195 29.0549 84.4324 29.7288C83.7451 30.4025 83.3105 31.3085 83.1286 32.4466H90.6377C90.5466 31.2811 90.1779 30.3683 89.5318 29.7082Z" fill="var(--color-navy-500)"></path><path d="M97.3413 28.9914H94.5015V26.4647H97.3413V22.2856H100.318V26.4647H104.632V28.9914H100.318V35.3966C100.318 36.4617 100.5 37.222 100.864 37.6773C101.228 38.1327 101.851 38.3603 102.734 38.3601C103.125 38.3601 103.458 38.3442 103.731 38.3123C104.004 38.2806 104.304 38.2373 104.632 38.1826V40.6818C104.258 40.79 103.877 40.8722 103.492 40.9277C103.051 40.9926 102.606 41.0246 102.161 41.0233C98.9476 41.0233 97.3412 39.2661 97.3413 35.7517V28.9914Z" fill="var(--color-navy-500)"></path><path d="M120.142 40.7091H117.22V38.7152C116.701 39.4619 116.042 40.0377 115.241 40.4428C114.44 40.8478 113.529 41.0504 112.51 41.0507C111.254 41.0507 110.141 40.7297 109.172 40.0877C108.203 39.4458 107.44 38.5627 106.885 37.4383C106.33 36.3138 106.052 35.0277 106.052 33.5801C106.052 32.1234 106.334 30.835 106.899 29.715C107.463 28.5952 108.243 27.7166 109.24 27.0792C110.237 26.442 111.381 26.1233 112.674 26.1232C113.648 26.1232 114.522 26.3121 115.295 26.69C116.058 27.0593 116.719 27.6103 117.22 28.2947V26.4647H120.142V40.7091ZM117.166 31.4496C116.847 30.6392 116.344 29.9996 115.657 29.5306C114.97 29.0618 114.176 28.8273 113.275 28.8274C112 28.8274 110.985 29.2553 110.23 30.1111C109.474 30.9669 109.097 32.1233 109.097 33.5801C109.097 35.0461 109.461 36.207 110.189 37.0627C110.917 37.9186 111.905 38.3465 113.152 38.3465C114.071 38.3465 114.89 38.1097 115.609 37.6362C116.328 37.163 116.847 36.5257 117.166 35.7242V31.4496Z" fill="var(--color-navy-500)"></path><path d="M42.0747 20.9426C39.5935 20.9426 37.6539 22.812 35.8982 25.1867C33.4854 22.1136 31.4676 20.9426 29.0529 20.9426C24.1299 20.9426 20.3579 27.3515 20.3579 34.135C20.3579 38.3799 22.4109 41.0572 25.8495 41.0572C28.3244 41.0572 30.1044 39.89 33.2687 34.357C33.2687 34.357 34.5877 32.0269 35.4952 30.4218C35.8132 30.9353 36.148 31.4887 36.4999 32.0819L37.9837 34.5789C40.8742 39.4174 42.4847 41.0572 45.4029 41.0572C48.7528 41.0572 50.6171 38.3433 50.6171 34.0101C50.6171 26.9076 46.7601 20.9426 42.0747 20.9426ZM30.8557 32.8588C28.2902 36.8817 27.4027 37.7834 25.9743 37.7834C24.5043 37.7834 23.6307 36.4924 23.6307 34.1905C23.6307 29.2659 26.0853 24.2303 29.0113 24.2303C30.5959 24.2303 31.92 25.1457 33.9483 28.0503C32.0224 31.0054 30.8557 32.8588 30.8557 32.8588ZM40.5384 32.3523L38.7642 29.3925C38.2841 28.6114 37.8227 27.8924 37.38 27.2356C38.979 24.7669 40.298 23.5367 41.8667 23.5367C45.1256 23.5367 47.7327 28.3365 47.7327 34.2321C47.7327 36.4794 46.9968 37.7834 45.4722 37.7834C44.011 37.7834 43.3129 36.818 40.5384 32.3523Z" fill="var(--color-navy-500)"></path></g><defs><clipPath id="clip0_1926_174038"><rect width="140" height="60.3436" fill="white" transform="translate(0.25 0.828125)"></rect></clipPath></defs></svg>
