<svg width="100%" height="100%" viewBox="0 0 89 20" fill="#686672" xmlns="http://www.w3.org/2000/svg" aria-labelledby="microsoftLogoTitle" role="img"><title id="microsoftLogoTitle">Microsoft Logo</title><g clip-path="url(#clip0_1901_19227)"><path d="M0.536621 0.462158H9.4924C9.4924 3.44594 9.4924 6.42971 9.4924 9.41351C6.50715 9.41351 3.52189 9.41351 0.536621 9.41351V0.462158Z" fill="var(--color-navy-500)"></path><path d="M10.4077 0.462158H19.3635C19.3635 3.44594 19.3635 6.42971 19.3635 9.41351C16.3782 9.41351 13.393 9.41351 10.4077 9.41351C10.4077 6.42971 10.4077 3.44594 10.4077 0.462158Z" fill="var(--color-navy-500)"></path><path d="M81.2938 3.87055C82.122 3.33293 83.1871 3.28454 84.1176 3.53722C84.1229 4.09097 84.1176 4.6447 84.1229 5.19846C83.6817 5.00493 83.16 4.8759 82.6975 5.06943C82.3265 5.2146 82.1113 5.59629 82.0521 5.97262C81.9823 6.45113 82.0308 6.94035 82.0143 7.4242C82.9612 7.4242 83.9023 7.4242 84.8492 7.4242C84.8545 6.81132 84.8438 6.19844 84.8599 5.58556C85.4999 5.40275 86.1399 5.19846 86.7746 5.00493C86.7803 5.81134 86.7692 6.61779 86.7803 7.42958C87.4203 7.41882 88.0603 7.42958 88.695 7.4242V8.99405C88.055 8.96718 87.415 8.98867 86.7692 8.98329C86.7746 9.88648 86.7692 10.7897 86.7692 11.6929C86.7803 12.1929 86.7425 12.6982 86.8017 13.1928C86.8395 13.4885 86.9414 13.8111 87.2211 13.967C87.6837 14.2251 88.2702 14.1122 88.695 13.8272V15.4132C88.1409 15.6551 87.5226 15.725 86.9253 15.682C86.3552 15.639 85.7689 15.4347 85.3976 14.9831C84.9675 14.4724 84.8599 13.7842 84.8492 13.1337C84.8438 11.7466 84.8492 10.3596 84.8492 8.97252C83.9023 8.97252 82.9612 8.97252 82.0143 8.97252C82.0143 11.1499 82.0143 13.3273 82.0143 15.5046C81.369 15.5046 80.7236 15.5046 80.0783 15.5046C80.0783 13.3273 80.0726 11.1499 80.0783 8.9779C79.6318 8.96718 79.1799 8.97791 78.728 8.97252C78.728 8.45643 78.7334 7.9403 78.728 7.41882C79.1745 7.40806 79.6211 7.41344 80.0726 7.41344C80.105 6.7253 80.0027 6.02102 80.2073 5.34898C80.3794 4.75763 80.7668 4.21462 81.2938 3.87055Z" fill="var(--color-navy-500)"></path><path d="M39.8283 3.9836C40.221 3.92446 40.6408 4.05887 40.8988 4.36529C41.1999 4.69862 41.2591 5.23086 41.0331 5.62334C40.7858 6.06417 40.2264 6.26847 39.7424 6.16096C39.2421 6.06955 38.8227 5.60181 38.844 5.08034C38.828 4.53733 39.2906 4.04811 39.8283 3.9836Z" fill="var(--color-navy-500)"></path><path d="M24.9819 4.22544C25.9232 4.22544 26.8592 4.22544 27.8004 4.22544C28.6772 6.45116 29.5594 8.67155 30.4361 10.8973C30.662 11.4564 30.8718 12.0155 31.1031 12.5693C32.2326 9.78977 33.373 7.01568 34.4971 4.23081C35.4008 4.21468 36.3044 4.22544 37.2081 4.22544C37.2081 7.98876 37.2081 11.7521 37.2081 15.5154C36.5572 15.5154 35.9064 15.5208 35.2555 15.5101C35.2609 12.7359 35.2555 9.95643 35.2609 7.17696C35.2609 7.05331 35.2556 6.92966 35.2502 6.80063C35.2125 6.85978 35.1802 6.9189 35.148 6.98343C34.0292 9.82743 32.8888 12.6607 31.7754 15.5047C31.3128 15.5208 30.8503 15.5047 30.3823 15.5154C29.2258 12.6714 28.0855 9.82205 26.9398 6.97805C26.9076 6.9189 26.8753 6.85978 26.843 6.80601C26.8215 8.021 26.8376 9.24142 26.8322 10.4564C26.8322 12.1392 26.8322 13.8273 26.8322 15.5101C26.2191 15.5101 25.6005 15.5101 24.9873 15.5101C24.9819 11.7521 24.9819 7.98876 24.9819 4.22544Z" fill="var(--color-navy-500)"></path><path d="M45.1603 7.41431C46.0961 7.14552 47.1017 7.15628 48.0379 7.42507C48.2313 7.47885 48.4142 7.55411 48.592 7.65623C48.5809 8.27449 48.592 8.89276 48.5863 9.50567C47.9627 9.02717 47.1719 8.72613 46.3758 8.82826C45.7465 8.88741 45.1439 9.20998 44.7676 9.72069C44.2833 10.3497 44.1703 11.1884 44.2565 11.9626C44.321 12.5647 44.5683 13.1722 45.0362 13.5701C45.5259 14.0055 46.209 14.1561 46.849 14.1077C47.4784 14.0324 48.0753 13.769 48.5863 13.3926C48.592 13.9786 48.5863 14.5593 48.592 15.1453C47.8012 15.6184 46.849 15.7366 45.9453 15.6936C45.0202 15.6453 44.0951 15.2958 43.4226 14.6399C42.691 13.9356 42.2987 12.9356 42.2502 11.9303C42.2018 10.8873 42.417 9.79599 43.0139 8.92504C43.5142 8.18851 44.2997 7.66161 45.1603 7.41431Z" fill="var(--color-navy-500)"></path><path d="M66.3148 7.29516C67.2079 7.13926 68.149 7.25215 68.9936 7.57472C68.9936 8.16611 68.9936 8.76288 68.9936 9.35424C68.4017 8.94565 67.6758 8.7306 66.9602 8.75212C66.5999 8.76823 66.2019 8.91879 66.0351 9.26284C65.9061 9.60154 65.992 10.0478 66.3148 10.2521C66.8636 10.6177 67.5197 10.7736 68.0899 11.1069C68.5364 11.3596 68.9718 11.6875 69.1978 12.1606C69.6229 13.0477 69.4455 14.2251 68.6921 14.8863C67.9769 15.553 66.9442 15.7411 65.9973 15.7035C65.3252 15.6605 64.6475 15.5261 64.0288 15.2519C64.0342 14.6283 64.0235 14.0046 64.0341 13.381C64.5559 13.7573 65.1531 14.0315 65.7931 14.139C66.2343 14.2089 66.7182 14.2143 67.1323 14.0154C67.525 13.8219 67.6002 13.2574 67.3636 12.9133C67.143 12.6498 66.8205 12.5047 66.519 12.3595C65.9492 12.1015 65.3466 11.8864 64.8463 11.5047C64.4914 11.2305 64.2276 10.8434 64.1204 10.408C63.9643 9.76283 64.0128 9.03706 64.3891 8.47791C64.8142 7.82202 65.5565 7.42958 66.3148 7.29516Z" fill="var(--color-navy-500)"></path><path d="M52.9159 7.54922C53.4483 7.22666 54.1314 7.19979 54.7123 7.3987C54.707 8.04383 54.7123 8.68896 54.7123 9.33412C54.3307 9.08682 53.8517 8.97927 53.4052 9.02766C52.8568 9.0922 52.4209 9.51155 52.195 9.9954C51.9477 10.5061 51.9046 11.0867 51.921 11.6459C51.921 12.9361 51.921 14.2264 51.921 15.5167C51.2859 15.5167 50.6459 15.5167 50.0112 15.5167C50.0112 12.8233 50.0112 10.1244 50.0112 7.43095C50.6459 7.42019 51.2859 7.42557 51.921 7.43095C51.9152 7.89331 51.921 8.35567 51.921 8.81799C52.1251 8.31266 52.4316 7.82339 52.9159 7.54922Z" fill="var(--color-navy-500)"></path><path d="M39.021 7.42466C39.661 7.42466 40.3067 7.41389 40.9468 7.43004C40.9414 10.1235 40.9468 12.8223 40.9414 15.5158C40.3014 15.5158 39.661 15.5158 39.021 15.5158C39.021 12.817 39.021 10.1235 39.021 7.42466Z" fill="var(--color-navy-500)"></path><path d="M62.7439 9.3111C62.4103 8.56381 61.8024 7.94016 61.0494 7.60146C60.1888 7.20901 59.2045 7.15524 58.2794 7.27351C57.3001 7.39716 56.3536 7.85414 55.735 8.63368C55.1702 9.32721 54.8958 10.2197 54.8423 11.1067C54.7668 12.1497 54.9389 13.2572 55.5522 14.1282C56.0739 14.8808 56.8967 15.3969 57.7898 15.5851C58.5321 15.741 59.3121 15.741 60.0598 15.5851C60.9311 15.4077 61.7432 14.9238 62.2813 14.2142C62.8084 13.5421 63.0717 12.6981 63.1309 11.8594C63.19 10.9992 63.1041 10.1067 62.7439 9.3111ZM60.8773 13.026C60.6945 13.44 60.3555 13.7948 59.9251 13.9615C59.4251 14.155 58.8603 14.1658 58.3439 14.0314C57.8169 13.8916 57.3703 13.5153 57.128 13.0314C56.8162 12.4078 56.7677 11.6874 56.8322 11.0046C56.8914 10.3863 57.1066 9.74655 57.5799 9.31648C57.9241 8.99388 58.3924 8.83798 58.8549 8.81111C59.4358 8.77348 60.0544 8.94014 60.4739 9.35949C60.9204 9.80033 61.0925 10.4347 61.141 11.0476C61.1837 11.7142 61.157 12.4078 60.8773 13.026Z" fill="var(--color-navy-500)"></path><path d="M78.2544 9.54805C77.9586 8.74698 77.3617 8.04808 76.5923 7.6664C75.7103 7.22014 74.683 7.15565 73.7201 7.27392C72.9404 7.37608 72.1763 7.67174 71.5794 8.19325C70.8532 8.8169 70.4284 9.7362 70.299 10.6771C70.1807 11.6179 70.2185 12.6071 70.6059 13.4888C70.9715 14.3543 71.6978 15.0532 72.5744 15.3973C73.435 15.736 74.3925 15.7737 75.3016 15.6285C76.2267 15.478 77.1087 14.9887 77.6846 14.2361C78.2975 13.4619 78.5612 12.4565 78.5612 11.4781C78.5719 10.8276 78.4914 10.1609 78.2544 9.54805ZM76.5065 12.2899C76.4313 12.7146 76.2859 13.1393 76.0061 13.478C75.7264 13.8167 75.307 14.0211 74.8765 14.0855C74.4139 14.1554 73.9246 14.1232 73.4888 13.935C73.0209 13.7361 72.6606 13.3329 72.4668 12.8652C72.2355 12.3114 72.1927 11.6931 72.2355 11.1018C72.2786 10.5265 72.44 9.93515 72.8221 9.48889C73.1663 9.06958 73.6987 8.84376 74.2364 8.81152C74.7852 8.77389 75.3661 8.89754 75.7855 9.26849C76.1729 9.59106 76.3881 10.0695 76.4851 10.5588C76.6034 11.1287 76.6034 11.72 76.5065 12.2899Z" fill="var(--color-navy-500)"></path><path d="M0.536621 10.3274C3.52189 10.3274 6.50715 10.3274 9.4924 10.3274C9.4924 13.3112 9.4924 16.295 9.4924 19.2787H0.536621V10.3274Z" fill="var(--color-navy-500)"></path><path d="M10.4077 10.3274C13.393 10.3274 16.3782 10.3274 19.3635 10.3274C19.3635 13.3112 19.3635 16.295 19.3635 19.2787H10.4077C10.4077 16.295 10.4077 13.3112 10.4077 10.3274Z" fill="var(--color-navy-500)"></path></g><defs><clipPath id="clip0_1901_19227"><rect width="88.1594" height="19.0821" fill="white" transform="translate(0.536621 0.462158)"></rect></clipPath></defs></svg>
