<?xml version="1.0" encoding="utf-8"?>
<svg xmlns="http://www.w3.org/2000/svg" width="64" height="64" viewBox="0 0 64 64" fill="none">
<g filter="url(#filter0_d_357_19130)">
<circle cx="32" cy="32" r="28" fill="white"/>
</g>
<path d="M31.8846 16C23.7611 16 24.2683 19.5415 24.2683 19.5415L24.2774 23.2105H32.0295V24.312H21.1983C21.1983 24.312 16 23.7194 16 31.9595C16 40.1996 20.5372 39.9074 20.5372 39.9074H23.245V36.0837C23.245 36.0837 23.099 31.5225 27.7097 31.5225H35.3985C35.3985 31.5225 39.7183 31.5927 39.7183 27.3255V20.2698C39.7183 20.2698 40.3742 16 31.8846 16ZM27.6101 18.4672C28.3814 18.4672 29.0048 19.0939 29.0048 19.8692C29.0048 20.6446 28.3814 21.2713 27.6101 21.2713C26.8388 21.2713 26.2154 20.6446 26.2154 19.8692C26.2154 19.0939 26.8388 18.4672 27.6101 18.4672Z" fill="url(#paint0_linear_357_19130)"/>
<path d="M32.1188 48.0024C40.2424 48.0024 39.7351 44.4609 39.7351 44.4609L39.7261 40.792H31.9739V39.6904H42.8052C42.8052 39.6904 48.0035 40.283 48.0035 32.0429C48.0035 23.8028 43.4663 24.095 43.4663 24.095H40.7585V27.9188C40.7585 27.9188 40.9044 32.4799 36.2938 32.4799H28.605C28.605 32.4799 24.2852 32.4097 24.2852 36.6769V43.7326C24.2852 43.7326 23.6293 48.0024 32.1188 48.0024ZM36.3934 45.5352C35.6221 45.5352 34.9987 44.9085 34.9987 44.1332C34.9987 43.3578 35.6221 42.7311 36.3934 42.7311C37.1647 42.7311 37.788 43.3578 37.788 44.1332C37.788 44.9085 37.1647 45.5352 36.3934 45.5352Z" fill="url(#paint1_linear_357_19130)"/>
<defs>
<filter id="filter0_d_357_19130" x="0" y="0" width="64" height="64" filterUnits="userSpaceOnUse" color-interpolation-filters="sRGB">
<feFlood flood-opacity="0" result="BackgroundImageFix"/>
<feColorMatrix in="SourceAlpha" type="matrix" values="0 0 0 0 0 0 0 0 0 0 0 0 0 0 0 0 0 0 127 0" result="hardAlpha"/>
<feOffset/>
<feGaussianBlur stdDeviation="2"/>
<feColorMatrix type="matrix" values="0 0 0 0 0 0 0 0 0 0 0 0 0 0 0 0 0 0 0.08 0"/>
<feBlend mode="normal" in2="BackgroundImageFix" result="effect1_dropShadow_357_19130"/>
<feBlend mode="normal" in="SourceGraphic" in2="effect1_dropShadow_357_19130" result="shape"/>
</filter>
<linearGradient id="paint0_linear_357_19130" x1="19.0753" y1="18.8785" x2="35.0161" y2="34.5772" gradientUnits="userSpaceOnUse">
<stop stop-color="#387EB8"/>
<stop offset="1" stop-color="#366994"/>
</linearGradient>
<linearGradient id="paint1_linear_357_19130" x1="28.8124" y1="29.014" x2="45.9269" y2="45.1078" gradientUnits="userSpaceOnUse">
<stop stop-color="#FFE052"/>
<stop offset="1" stop-color="#FFC331"/>
</linearGradient>
</defs>
</svg>