<?xml version="1.0" encoding="utf-8"?>
<svg xmlns="http://www.w3.org/2000/svg" width="64" height="64" viewBox="0 0 64 64" fill="none">
<g filter="url(#filter0_d_357_19157)">
<circle cx="32" cy="32" r="28" fill="white"/>
</g>
<mask id="mask0_357_19157" style="mask-type:luminance" maskUnits="userSpaceOnUse" x="16" y="16" width="32" height="32">
<path d="M48 16H16V48H48V16Z" fill="white"/>
</mask>
<g mask="url(#mask0_357_19157)">
<path d="M31.6753 33.8506C33.2523 33.8506 34.5303 32.5726 34.5303 30.9956C34.5303 29.4186 33.2523 28.1406 31.6753 28.1406C30.0993 28.1406 28.8203 29.4186 28.8203 30.9956C28.8203 32.5726 30.0993 33.8506 31.6753 33.8506Z" fill="#61DAFB"/>
<path d="M42.522 26.292C41.971 26.091 41.395 25.891 40.794 25.716C40.945 25.114 41.07 24.513 41.17 23.937C41.696 20.631 41.12 18.302 39.517 17.401C39.041 17.125 38.515 17 37.914 17C36.161 17 33.932 18.302 31.678 20.481C29.424 18.302 27.195 17 25.442 17C24.841 17 24.315 17.125 23.839 17.401C22.236 18.327 21.66 20.657 22.186 23.937C22.286 24.513 22.411 25.114 22.562 25.716C21.961 25.891 21.385 26.066 20.834 26.292C17.703 27.494 16 29.147 16 31C16 32.853 17.728 34.506 20.834 35.708C21.385 35.909 21.961 36.109 22.562 36.284C22.411 36.886 22.286 37.487 22.186 38.063C21.66 41.369 22.236 43.698 23.839 44.599C24.315 44.875 24.841 45 25.442 45C27.22 45 29.449 43.698 31.678 41.519C33.932 43.698 36.161 45 37.914 45C38.515 45 39.041 44.875 39.517 44.599C41.12 43.673 41.696 41.343 41.17 38.063C41.07 37.487 40.945 36.886 40.794 36.284C41.395 36.109 41.971 35.934 42.522 35.708C45.653 34.506 47.356 32.853 47.356 31C47.356 29.147 45.653 27.494 42.522 26.292ZM38.816 18.653C39.843 19.254 40.193 21.107 39.767 23.737C39.692 24.263 39.567 24.814 39.417 25.39C38.114 25.089 36.737 24.889 35.284 24.764C34.433 23.562 33.556 22.485 32.68 21.508C34.533 19.68 36.411 18.428 37.939 18.428C38.265 18.428 38.565 18.503 38.816 18.653ZM36.011 33.504C35.56 34.306 35.034 35.107 34.483 35.909C33.556 35.984 32.63 36.009 31.678 36.009C30.701 36.009 29.775 35.984 28.873 35.909C28.322 35.107 27.821 34.306 27.37 33.504C26.894 32.678 26.444 31.826 26.043 31C26.444 30.174 26.894 29.322 27.37 28.496C27.821 27.694 28.347 26.893 28.898 26.091C29.825 26.016 30.751 25.991 31.703 25.991C32.68 25.991 33.606 26.016 34.508 26.091C35.059 26.893 35.56 27.694 36.011 28.496C36.487 29.322 36.937 30.174 37.338 31C36.912 31.826 36.487 32.653 36.011 33.504ZM38.089 32.678C38.465 33.555 38.766 34.406 39.041 35.258C38.19 35.458 37.288 35.608 36.336 35.733C36.637 35.258 36.962 34.757 37.238 34.231C37.538 33.705 37.814 33.179 38.089 32.678ZM31.678 39.465C31.077 38.814 30.501 38.113 29.95 37.386C30.526 37.411 31.102 37.436 31.678 37.436C32.254 37.436 32.83 37.411 33.406 37.386C32.855 38.113 32.279 38.814 31.678 39.465ZM27.02 35.708C26.068 35.583 25.166 35.433 24.315 35.233C24.59 34.406 24.891 33.53 25.267 32.653C25.542 33.154 25.818 33.68 26.118 34.181C26.419 34.732 26.719 35.208 27.02 35.708ZM25.267 29.322C24.891 28.445 24.59 27.594 24.315 26.742C25.166 26.542 26.068 26.392 27.02 26.267C26.719 26.742 26.394 27.243 26.118 27.769C25.818 28.295 25.542 28.821 25.267 29.322ZM31.678 22.535C32.279 23.186 32.855 23.887 33.406 24.614C32.83 24.589 32.254 24.564 31.678 24.564C31.102 24.564 30.526 24.589 29.95 24.614C30.501 23.887 31.077 23.186 31.678 22.535ZM37.238 27.794L36.336 26.292C37.288 26.417 38.19 26.567 39.041 26.767C38.766 27.594 38.465 28.47 38.089 29.347C37.814 28.821 37.538 28.295 37.238 27.794ZM23.589 23.737C23.163 21.107 23.513 19.254 24.54 18.653C24.791 18.503 25.091 18.428 25.417 18.428C26.919 18.428 28.798 19.655 30.676 21.508C29.8 22.46 28.923 23.562 28.072 24.764C26.619 24.889 25.242 25.114 23.939 25.39C23.789 24.814 23.689 24.263 23.589 23.737ZM17.403 31C17.403 29.823 18.83 28.571 21.335 27.644C21.835 27.444 22.386 27.268 22.937 27.118C23.338 28.37 23.839 29.698 24.44 31.025C23.839 32.352 23.313 33.655 22.937 34.907C19.481 33.905 17.403 32.403 17.403 31ZM24.54 43.347C23.513 42.746 23.163 40.893 23.589 38.263C23.664 37.737 23.789 37.186 23.939 36.61C25.242 36.911 26.619 37.111 28.072 37.236C28.923 38.438 29.8 39.515 30.676 40.492C28.823 42.32 26.945 43.572 25.417 43.572C25.091 43.572 24.791 43.497 24.54 43.347ZM39.767 38.263C40.193 40.893 39.843 42.746 38.816 43.347C38.565 43.497 38.265 43.572 37.939 43.572C36.436 43.572 34.558 42.345 32.68 40.492C33.556 39.54 34.433 38.438 35.284 37.236C36.737 37.111 38.114 36.886 39.417 36.61C39.567 37.186 39.667 37.737 39.767 38.263ZM42.021 34.356C41.521 34.556 40.97 34.732 40.419 34.882C40.018 33.63 39.517 32.302 38.916 30.975C39.517 29.648 40.043 28.345 40.419 27.093C43.875 28.095 45.953 29.597 45.953 31C45.953 32.177 44.501 33.429 42.021 34.356Z" fill="#61DAFB"/>
</g>
<defs>
<filter id="filter0_d_357_19157" x="0" y="0" width="64" height="64" filterUnits="userSpaceOnUse" color-interpolation-filters="sRGB">
<feFlood flood-opacity="0" result="BackgroundImageFix"/>
<feColorMatrix in="SourceAlpha" type="matrix" values="0 0 0 0 0 0 0 0 0 0 0 0 0 0 0 0 0 0 127 0" result="hardAlpha"/>
<feOffset/>
<feGaussianBlur stdDeviation="2"/>
<feColorMatrix type="matrix" values="0 0 0 0 0 0 0 0 0 0 0 0 0 0 0 0 0 0 0.08 0"/>
<feBlend mode="normal" in2="BackgroundImageFix" result="effect1_dropShadow_357_19157"/>
<feBlend mode="normal" in="SourceGraphic" in2="effect1_dropShadow_357_19157" result="shape"/>
</filter>
</defs>
</svg>