<svg width="100%" height="100%" viewBox="0 0 106 36" fill="#686672" xmlns="http://www.w3.org/2000/svg" aria-labelledby="redditLogoTitle" role="img"><title id="redditLogoTitle">Reddit Logo</title><g clip-path="url(#clip0_1901_19242)"><path d="M17.6136 34.7517C26.9509 34.7517 34.5202 27.1578 34.5202 17.7904C34.5202 8.42296 26.9509 0.829102 17.6136 0.829102C8.27639 0.829102 0.707031 8.42296 0.707031 17.7904C0.707031 27.1578 8.27639 34.7517 17.6136 34.7517Z" fill="var(--color-navy-500)"></path><path d="M28.8877 17.7893C28.8373 16.4234 27.6942 15.3567 26.3284 15.4031C25.7233 15.4241 25.1475 15.6729 24.7105 16.0903C22.7858 14.7748 20.5248 14.0539 18.2008 14.0033L19.2977 8.71211L22.9161 9.47525C23.0169 10.407 23.849 11.0815 24.7777 10.9804C25.7065 10.8792 26.3789 10.0444 26.278 9.11269C26.1772 8.1809 25.3451 7.50633 24.4163 7.60752C23.8826 7.66231 23.4035 7.97431 23.1388 8.43806L18.9951 7.60752C18.7135 7.54429 18.432 7.72137 18.3689 8.00804C18.3689 8.01226 18.3689 8.01226 18.3689 8.01648L17.1208 13.9021C14.7674 13.9401 12.4771 14.6653 10.5271 15.9891C9.53533 15.0531 7.97199 15.0995 7.03903 16.0987C6.10608 17.0937 6.15231 18.6621 7.14832 19.5981C7.34162 19.7794 7.56432 19.9353 7.8123 20.045C7.79547 20.2937 7.79547 20.5425 7.8123 20.7912C7.8123 24.5899 12.2249 27.6803 17.6671 27.6803C23.1094 27.6803 27.5219 24.5941 27.5219 20.7912C27.5388 20.5425 27.5388 20.2937 27.5219 20.045C28.3708 19.6191 28.9046 18.7422 28.8877 17.7893ZM11.9812 19.4884C11.9812 18.5525 12.7418 17.7893 13.6747 17.7893C14.6077 17.7893 15.3684 18.5525 15.3684 19.4884C15.3684 20.4244 14.6077 21.1875 13.6747 21.1875C12.7376 21.1791 11.9812 20.4244 11.9812 19.4884ZM21.8023 24.1514C20.6005 25.0579 19.1296 25.5217 17.6251 25.4584C16.1206 25.5217 14.6497 25.0579 13.4478 24.1514C13.2881 23.9575 13.3175 23.6666 13.5109 23.5063C13.679 23.3673 13.9185 23.3673 14.0908 23.5063C15.1078 24.2526 16.3476 24.632 17.6083 24.573C18.869 24.6405 20.113 24.2779 21.1426 23.5401C21.3275 23.3588 21.63 23.363 21.8108 23.5485C21.9915 23.734 21.9873 24.0376 21.8023 24.2189V24.1514ZM21.4998 21.2465C20.5668 21.2465 19.8062 20.4835 19.8062 19.5474C19.8062 18.6115 20.5668 17.8484 21.4998 17.8484C22.4328 17.8484 23.1934 18.6115 23.1934 19.5474C23.2312 20.4835 22.5042 21.2718 21.5713 21.3098C21.5418 21.3098 21.5166 21.3098 21.4872 21.3098L21.4998 21.2465Z" fill="var(--color-beige)"></path><path d="M95.0315 12.6159C96.3035 12.6159 97.3345 11.5815 97.3345 10.3055C97.3345 9.02949 96.3035 7.99512 95.0315 7.99512C93.7595 7.99512 92.7285 9.02949 92.7285 10.3055C92.7285 11.5815 93.7595 12.6159 95.0315 12.6159Z" fill="var(--color-navy-500)"></path><path d="M62.3957 20.1392C63.2865 20.2024 64.0602 19.5279 64.1272 18.6299C64.1311 18.5793 64.1311 18.5203 64.1311 18.4655C64.1187 18.1535 64.081 17.8372 64.0179 17.5295C63.4718 14.6035 60.9796 12.4491 58.0166 12.3311C54.6421 12.3311 51.8223 15.4425 51.8223 19.2623C51.8223 23.082 54.5959 26.1977 58.0127 26.1977C59.8236 26.2694 61.5804 25.5358 62.7989 24.1909C63.2995 23.6428 63.2572 22.7954 62.711 22.2937C62.6688 22.2557 62.6311 22.222 62.5888 22.1925C62.0427 21.851 61.3326 21.9227 60.8703 22.3695C60.1096 23.1284 59.0882 23.5627 58.0127 23.5964C56.155 23.4489 54.6673 21.9901 54.4824 20.1224H62.345L62.3957 20.1392ZM57.9998 14.9408C59.6349 15.0504 61.0088 16.2225 61.3743 17.8288H54.6337C54.9952 16.2183 56.361 15.0462 57.9998 14.9408Z" fill="var(--color-navy-500)"></path><path d="M51.9548 13.6756C51.9548 13.0263 51.4758 12.474 50.8328 12.3939C49.0971 12.103 47.3321 12.748 46.1932 14.0972V13.9286C46.1932 13.2076 45.6133 12.6258 44.8947 12.6258C44.1761 12.6258 43.5961 13.2076 43.5961 13.9286V24.5952C43.5793 25.2951 44.113 25.8896 44.8106 25.9486C45.5209 25.9992 46.1428 25.4595 46.1891 24.747C46.1932 24.6964 46.1932 24.6458 46.1891 24.5952V19.1228C46.0755 16.9389 47.744 15.0796 49.9208 14.9615C50.1142 14.9488 50.3117 14.9531 50.505 14.9742H50.7655C51.4379 14.9151 51.9548 14.3544 51.9548 13.6756Z" fill="var(--color-navy-500)"></path><path d="M96.326 15.075C96.326 14.354 95.746 13.7722 95.027 13.7722C94.3085 13.7722 93.7285 14.354 93.7285 15.075V24.5907C93.7285 25.3116 94.3085 25.8935 95.027 25.8935C95.746 25.8935 96.326 25.3116 96.326 24.5907V15.075Z" fill="var(--color-navy-500)"></path><path d="M77.1633 7.84447C77.1633 7.12773 76.5834 6.5459 75.8694 6.5459C75.1548 6.5459 74.5749 7.12773 74.5749 7.84447V13.6627C73.701 12.7773 72.4988 12.2966 71.2589 12.3304C67.8844 12.3304 65.0645 15.4418 65.0645 19.2616C65.0645 23.0814 67.8427 26.1971 71.2589 26.1971C72.5196 26.235 73.7387 25.7502 74.6334 24.8521C74.8356 25.5393 75.5541 25.9314 76.2388 25.729C76.7557 25.5773 77.1256 25.1219 77.1594 24.5781L77.1633 7.84447ZM71.2504 23.6294C69.2628 23.6294 67.645 21.6901 67.645 19.2911C67.645 16.8921 69.2504 14.9528 71.2504 14.9528C73.2511 14.9528 74.8564 16.8921 74.8564 19.2911C74.8564 21.6901 73.2511 23.6084 71.2589 23.6084L71.2504 23.6294Z" fill="var(--color-navy-500)"></path><path d="M90.703 7.84472C90.703 7.12797 90.123 6.54614 89.4084 6.54614C88.6939 6.54614 88.1139 7.12797 88.1139 7.84472V13.6629C87.24 12.7775 86.0378 12.2969 84.7979 12.3306C81.4234 12.3306 78.6035 15.4421 78.6035 19.2618C78.6035 23.0816 81.3817 26.1973 84.7979 26.1973C86.0587 26.2353 87.2777 25.7504 88.173 24.8524C88.3746 25.5396 89.0931 25.9317 89.7784 25.7293C90.2953 25.5775 90.6647 25.1222 90.6985 24.5783L90.703 7.84472ZM84.794 23.6297C82.8063 23.6297 81.188 21.6903 81.188 19.2914C81.188 16.8924 82.7934 14.953 84.794 14.953C86.7946 14.953 88.4 16.8924 88.4 19.2914C88.4 21.6903 86.7946 23.6086 84.8025 23.6086L84.794 23.6297Z" fill="var(--color-navy-500)"></path><path d="M103.053 24.5876V14.9412H104.176C104.798 14.9791 105.327 14.5027 105.365 13.8829C105.365 13.8618 105.369 13.8365 105.369 13.8113C105.424 13.1915 104.966 12.6434 104.352 12.5886C104.319 12.5844 104.281 12.5844 104.247 12.5844H103.058V10.7925C103.066 10.0969 102.537 9.51086 101.843 9.44763C101.133 9.397 100.515 9.93666 100.465 10.6492C100.46 10.6787 100.46 10.7124 100.46 10.742V12.6139H99.3343C98.7127 12.5759 98.1828 13.0523 98.1451 13.6721C98.1451 13.6932 98.1411 13.7185 98.1411 13.7438C98.0865 14.3636 98.5443 14.9116 99.1581 14.9665C99.1913 14.9707 99.2296 14.9707 99.2628 14.9707H100.385V24.5918C100.385 25.3085 100.965 25.8903 101.68 25.8903C102.394 25.9367 103.003 25.3886 103.049 24.6719C103.053 24.6466 103.053 24.6171 103.053 24.5876Z" fill="var(--color-navy-500)"></path></g><defs><clipPath id="clip0_1901_19242"><rect width="104.733" height="34.3478" fill="white" transform="translate(0.707031 0.829102)"></rect></clipPath></defs></svg>
