<svg width="100%" height="100%" viewBox="0 0 96 36" fill="#686672" xmlns="http://www.w3.org/2000/svg" aria-labelledby="uberLogoTitle" role="img"><title id="uberLogoTitle">Uber Logo</title><g clip-path="url(#clip0_1901_19268)"><path d="M5.60599 24.9347C6.00461 26.0039 6.55654 26.9189 7.27201 27.6797C7.97725 28.4404 8.81538 29.0162 9.78636 29.4171C10.7574 29.8181 11.8101 30.0237 12.9549 30.0237C14.0588 30.0237 15.1013 29.8181 16.0723 29.3965C17.0433 28.975 17.8916 28.389 18.6173 27.6282C19.343 26.8675 19.9051 25.9627 20.3038 24.9141C20.7024 23.8655 20.9068 22.6833 20.9068 21.3879V1.30969H25.7618V33.8378H20.9579V30.8153C19.8847 31.9564 18.6071 32.8406 17.1455 33.4677C15.6839 34.0845 14.0996 34.3929 12.4131 34.3929C10.6858 34.3929 9.08113 34.0948 7.58886 33.4883C6.0966 32.8817 4.79853 32.0284 3.70489 30.9078C2.61124 29.7871 1.73223 28.4507 1.10876 26.888C0.475054 25.3254 0.158203 23.5776 0.158203 21.6552V1.30969H5.01318V21.3776C5.01318 22.6833 5.20737 23.8655 5.60599 24.9347Z" fill="var(--color-navy-500)"></path><path d="M34.112 1.30969V13.153C35.1851 12.0736 36.4321 11.21 37.8528 10.5726C39.2735 9.93519 40.8067 9.61648 42.4727 9.61648C44.2 9.61648 45.8149 9.94546 47.3276 10.5931C48.8404 11.2408 50.1487 12.1249 51.2526 13.2456C52.3564 14.3662 53.2354 15.6821 53.8896 17.1934C54.5334 18.7149 54.8606 20.3187 54.8606 22.0253C54.8606 23.7319 54.5334 25.3357 53.8896 26.8367C53.2457 28.3376 52.3666 29.6433 51.2526 30.7638C50.1487 31.8742 48.8301 32.7583 47.3276 33.4162C45.8149 34.0639 44.2 34.3929 42.4727 34.3929C40.8067 34.3929 39.2633 34.0742 37.8324 33.4368C36.4014 32.7994 35.1443 31.9461 34.071 30.8564V33.8275H29.4512V1.30969H34.112ZM34.6434 25.2328C35.0625 26.2198 35.6349 27.0936 36.3708 27.8339C37.1067 28.574 37.9755 29.1704 38.9567 29.6021C39.9379 30.0339 41.0009 30.2498 42.1457 30.2498C43.2495 30.2498 44.3022 30.0339 45.2835 29.6021C46.2647 29.1704 47.1232 28.5843 47.849 27.8339C48.5746 27.0936 49.147 26.2198 49.5763 25.2328C50.0056 24.2459 50.2202 23.1767 50.2202 22.0253C50.2202 20.8738 50.0056 19.8046 49.5763 18.7971C49.147 17.7896 48.5644 16.9158 47.849 16.1756C47.1232 15.4353 46.2749 14.8494 45.2835 14.4381C44.292 14.0269 43.2495 13.811 42.1457 13.811C41.0418 13.811 39.989 14.0166 39.0078 14.4381C38.0266 14.8597 37.1578 15.4353 36.4219 16.1756C35.6859 16.9158 35.0931 17.7896 34.6639 18.7971C34.2346 19.8046 34.02 20.8841 34.02 22.0253C34.02 23.1767 34.2244 24.2459 34.6434 25.2328Z" fill="var(--color-navy-500)"></path><path d="M57.4774 17.244C58.0907 15.7533 58.939 14.4476 60.0225 13.3167C61.1059 12.1859 62.3733 11.2914 63.8553 10.6437C65.3374 9.99609 66.9319 9.66711 68.6592 9.66711C70.3559 9.66711 71.9197 9.97553 73.3711 10.5924C74.8225 11.2092 76.0694 12.0728 77.1119 13.1729C78.1545 14.2728 78.9722 15.5785 79.565 17.0795C80.1476 18.5805 80.444 20.2151 80.444 21.9834V23.5152H61.2694C61.4228 24.4713 61.7294 25.3657 62.1893 26.1882C62.6493 27.0107 63.2319 27.72 63.9167 28.3266C64.6117 28.9331 65.3987 29.406 66.2675 29.7453C67.1465 30.0845 68.0766 30.2593 69.0578 30.2593C71.8584 30.2593 74.1275 29.0976 75.8446 26.7741L79.2174 29.2826C78.0523 30.8659 76.6009 32.0995 74.8736 33.0043C73.1462 33.8987 71.2042 34.351 69.0578 34.351C67.2998 34.351 65.6644 34.0426 64.1415 33.4257C62.6186 32.809 61.2898 31.935 60.1655 30.8248C59.0412 29.7144 58.152 28.3985 57.5081 26.8975C56.8642 25.3966 56.5371 23.7619 56.5371 21.9937C56.5575 20.3076 56.8642 18.7347 57.4774 17.244ZM63.9677 15.414C62.6595 16.5141 61.7907 17.9739 61.3614 19.8038H75.7322C75.3335 17.9739 74.4749 16.5141 73.1667 15.414C71.8584 14.3139 70.3253 13.7691 68.5672 13.7691C66.8092 13.7588 65.276 14.3139 63.9677 15.414Z" fill="var(--color-navy-500)"></path><path d="M89.1721 15.9493C88.1908 17.0288 87.69 18.5092 87.69 20.3597V33.8377H83.0293V10.1408H87.6492V13.0707C88.2317 12.1146 88.9983 11.3539 89.9387 10.7987C90.879 10.2435 91.9931 9.96594 93.2911 9.96594H94.9064V14.3353H92.9641C91.4207 14.3147 90.1533 14.8596 89.1721 15.9493Z" fill="var(--color-navy-500)"></path></g><defs><clipPath id="clip0_1901_19268"><rect width="95.5299" height="34.3478" fill="white" transform="translate(0.158203 0.829224)"></rect></clipPath></defs></svg>
