<?xml version="1.0" encoding="UTF-8"?>
<svg id="Layer_1" xmlns="http://www.w3.org/2000/svg" version="1.1" xmlns:xlink="http://www.w3.org/1999/xlink" viewBox="0 0 1622.78 585.78">
  <!-- Generator: Adobe Illustrator 30.0.0, SVG Export Plug-In . SVG Version: 2.1.1 Build 123)  -->
  <defs>
    <style>
      .st0 {
        fill: #2e27f2;
      }

      .st1 {
        fill: #fff;
      }

      .st2 {
        fill: url(#linear-gradient1);
      }

      .st3 {
        fill: url(#linear-gradient);
      }
    </style>
    <linearGradient id="linear-gradient" x1="491.79" y1="314.45" x2="557.15" y2="393.86" gradientTransform="translate(0 588) scale(1 -1)" gradientUnits="userSpaceOnUse">
      <stop offset="0" stop-color="#2e275c"/>
      <stop offset="1" stop-color="#2e27f2"/>
    </linearGradient>
    <linearGradient id="linear-gradient1" x1="363.26" y1="247.63" x2="411.41" y2="199.9" gradientTransform="translate(0 588) scale(1 -1)" gradientUnits="userSpaceOnUse">
      <stop offset="0" stop-color="#2e275c"/>
      <stop offset="1" stop-color="#2e27f2"/>
    </linearGradient>
  </defs>
  <path class="st1" d="M743.11,229.1v86.03c0,50.92-41.29,92.2-92.2,92.2s-92.19-41.28-92.19-92.2v-86.03h33.44v86.03c0,32.41,26.35,58.76,58.75,58.76s58.76-26.35,58.76-58.76v-86.03h33.44Z"/>
  <path class="st1" d="M917.78,380.27c-15.98,16.68-38.49,27.06-63.4,27.06-48.48,0-87.77-39.29-87.77-87.77s39.29-87.76,87.77-87.76c24.82,0,47.24,10.3,63.2,26.87l-23.01,22.04c-10.17-10.52-24.43-17.08-40.19-17.08-30.85,0-55.93,25.1-55.93,55.93s25.09,55.95,55.93,55.95c15.65,0,29.81-6.47,39.96-16.86l23.43,21.63h.01Z"/>
  <path class="st1" d="M1069.56,233.19v19.66c-15.01-12.29-34.2-19.66-55.11-19.66-48.09,0-87.08,38.97-87.08,87.08s38.99,87.06,87.08,87.06c20.91,0,40.1-7.38,55.11-19.66v18.75h31.97v-173.23h-31.97ZM1069.56,326.71c-3.2,27.57-26.68,49.05-55.11,49.05-30.59,0-55.48-24.91-55.48-55.48s24.89-55.5,55.48-55.5c28.43,0,51.91,21.48,55.11,49.05v12.88h0Z"/>
  <path class="st1" d="M1235.63,373.89v33.44c-48.73,0-88.65-37.82-91.96-85.72h-.23v-60.17h-14.54v-33.84h14.54v-49.18h33.85v49.18h28.55v33.84h-28.55v60.17h-.05c3.23,29.36,28.19,52.28,58.39,52.28h0Z"/>
  <path class="st1" d="M1421.53,345.4c-11.98,36.62-45.23,60.32-81.57,61.87-10.91.48-22.11-1.05-33.1-4.83-45.28-15.57-70.56-64.7-56.88-110.59,14.5-48.65,66.13-75.48,114.07-59.8,14.3,4.68,26.63,12.58,36.41,22.67,7.2,7.37,13.03,15.9,17.29,25.18.34.71.66,1.44.96,2.16l.06.11-20.55,14.11-14.26,9.86-41.14,28.46c-9.46,6.54-22.42,4.17-28.96-5.29l-6.58-9.5,58.87-40.71,7.29-5.05c-.16-.13-.33-.28-.5-.43-6.51-5.49-14.37-9.61-23.3-11.8-27.28-6.69-55.8,7.79-66.48,33.78-12.78,31.1,3.76,66.04,35.14,76.3,11.08,3.62,22.49,3.67,32.96.78,17.91-4.94,33.09-18.47,39.28-37.4l30.97,10.13h.02Z"/>
  <g>
    <path class="st1" d="M1449.18,224.51c1.09-.38,1.96-1.05,2.66-2,.68-.95,1.02-2,1.02-3.16,0-1.52-.54-2.82-1.63-3.91-1.07-1.07-2.39-1.61-3.91-1.61h-7.13v17.82h2.38v-6.81h4.2l3.99,6.81h2.63l-4.2-7.13h-.01ZM1442.57,222.69v-6.65h4.75c.89,0,1.64.32,2.25.97.62.64.93,1.43.93,2.34s-.3,1.72-.93,2.36c-.61.66-1.36.98-2.25.98h-4.75Z"/>
    <path class="st1" d="M1446.13,202.41c-11.12,0-20.16,9.02-20.16,20.14s9.04,20.12,20.16,20.12,20.12-9.02,20.12-20.12-9.02-20.14-20.12-20.14ZM1446.13,239.81c-9.52,0-17.26-7.76-17.26-17.26s7.74-17.26,17.26-17.26,17.26,7.72,17.26,17.26-7.76,17.26-17.26,17.26Z"/>
  </g>
  <polygon class="st3" points="494.82 283.02 535.54 311.86 535.54 178.42 494.82 178.42 494.82 283.02"/>
  <path class="st0" d="M494.82,233.64c-15.51-10.88-34.38-17.26-54.75-17.26-16.21,0-31.49,4.04-44.85,11.2-1.86.97-3.68,2.02-5.45,3.11l-29.54,16.99,16.8,29.07,30.54-17.57,3.52-2.02c8.65-4.61,18.51-7.22,28.98-7.22,23.73,0,44.37,13.42,54.75,33.06,4.56,8.61,7.15,18.44,7.15,28.84,0,34.13-27.77,61.9-61.9,61.9-.73,0-1.45-.02-2.16-.03-21.39-.75-40.05-12.37-50.59-29.52l33.11-19.03,25.98-14.94-16.74-29.09-51.48,29.56-32.02,18.41-.3.16-61.49,35.33c-1.05.66-2.13,1.29-3.25,1.88l-.07.04c-8.67,4.65-18.55,7.25-29.06,7.25-34.13,0-61.9-27.77-61.9-61.9s27.77-61.9,61.9-61.9c22.3,0,41.89,11.87,52.79,29.61l-58.17,33.43,16.73,29.11,50.54-29.06,32.04-18.42.27-.14,4.54-2.61-16.78-29.07h-.03c-16.67-27.81-47.11-46.43-81.92-46.43-52.73,0-95.46,42.74-95.46,95.48s42.73,95.48,95.46,95.48c16.62,0,32.22-4.23,45.82-11.7l.02.04,1.68-.98,29.06-16.71,29.63-17.03c9.29,15.49,22.86,28.13,39.06,36.26,12.88,6.49,27.41,10.13,42.82,10.13,52.73,0,95.48-42.74,95.48-95.48,0-32.36-16.1-60.95-40.73-78.22h-.03Z"/>
  <path class="st2" d="M437.9,373.72l-40.65,23.48c-16.21-8.13-29.77-20.76-39.06-36.26l-29.63,17.03-.09-.14,91.78-52.98.18.32-33.11,19.03c10.54,17.16,29.2,28.77,50.59,29.52h-.01Z"/>
</svg>