<svg width="100%" height="100%" viewBox="0 0 149 36" fill="#686672" xmlns="http://www.w3.org/2000/svg" aria-labelledby="youtubeLogoTitle" role="img"><title id="youtubeLogoTitle">YouTube Logo</title><g clip-path="url(#clip0_1901_19279)"><path d="M46.6504 6.56218C46.1088 4.55062 44.5227 2.96459 42.5112 2.42301C38.8362 1.41724 24.1363 1.41724 24.1363 1.41724C24.1363 1.41724 9.43651 1.41724 5.76154 2.38433C3.78867 2.9259 2.16394 4.55062 1.62237 6.56218C0.655273 10.2372 0.655273 17.8579 0.655273 17.8579C0.655273 17.8579 0.655273 25.5173 1.62237 29.1536C2.16394 31.1651 3.74998 32.7511 5.76154 33.2927C9.47518 34.2985 24.1363 34.2985 24.1363 34.2985C24.1363 34.2985 38.8362 34.2985 42.5112 33.3314C44.5227 32.7898 46.1088 31.2038 46.6504 29.1922C47.6175 25.5173 47.6175 17.8965 47.6175 17.8965C47.6175 17.8965 47.6561 10.2372 46.6504 6.56218Z" fill="var(--color-navy-500)"></path><path d="M19.4541 24.8982L31.6781 17.8578L19.4541 10.8174V24.8982Z" fill="var(--color-beige)"></path><path d="M68.8549 31.3581C67.9265 30.7391 67.2689 29.7721 66.8821 28.4182C66.4952 27.1029 66.3018 25.3234 66.3018 23.1571V20.1785C66.3018 17.9735 66.5339 16.194 66.9594 14.8401C67.4236 13.4862 68.1199 12.5191 69.0484 11.9001C70.0155 11.2812 71.2533 10.9717 72.8007 10.9717C74.3094 10.9717 75.5472 11.2812 76.4757 11.9001C77.404 12.5191 78.0617 13.5249 78.4872 14.8401C78.9127 16.1554 79.1448 17.9348 79.1448 20.1785V23.1571C79.1448 25.3621 78.9514 27.1029 78.5259 28.4568C78.1003 29.7721 77.4428 30.7779 76.5143 31.3967C75.5859 32.0157 74.3094 32.3252 72.7233 32.3252C71.0986 32.2865 69.7833 31.977 68.8549 31.3581ZM74.0772 28.1087C74.348 27.4511 74.4641 26.3292 74.4641 24.8205V18.399C74.4641 16.929 74.348 15.8459 74.0772 15.1496C73.8065 14.4532 73.3809 14.1438 72.7233 14.1438C72.1043 14.1438 71.6402 14.492 71.408 15.1496C71.1373 15.8459 71.0212 16.929 71.0212 18.399V24.8205C71.0212 26.3292 71.1373 27.4511 71.408 28.1087C71.6402 28.7663 72.1043 29.1145 72.762 29.1145C73.3809 29.1145 73.8065 28.805 74.0772 28.1087Z" fill="var(--color-navy-500)"></path><path d="M140.266 23.195V24.2394C140.266 25.5547 140.304 26.5605 140.382 27.2181C140.459 27.8757 140.613 28.3786 140.885 28.6494C141.116 28.9588 141.504 29.1136 142.045 29.1136C142.741 29.1136 143.205 28.8428 143.477 28.3012C143.747 27.7597 143.863 26.87 143.902 25.5934L147.886 25.8254C147.925 26.0189 147.925 26.251 147.925 26.5605C147.925 28.4559 147.422 29.8873 146.378 30.8156C145.333 31.7441 143.863 32.2083 141.968 32.2083C139.685 32.2083 138.099 31.4733 137.171 30.042C136.242 28.6107 135.778 26.4057 135.778 23.3884V19.7908C135.778 16.696 136.242 14.4524 137.209 13.0211C138.177 11.5898 139.801 10.8936 142.084 10.8936C143.67 10.8936 144.908 11.2029 145.759 11.7833C146.61 12.3635 147.19 13.2919 147.538 14.4911C147.886 15.729 148.041 17.4311 148.041 19.5974V23.1176H140.266V23.195ZM140.846 14.5298C140.613 14.8392 140.459 15.3035 140.382 15.9611C140.304 16.6187 140.266 17.6245 140.266 18.9784V20.4484H143.67V18.9784C143.67 17.6632 143.632 16.6574 143.554 15.9611C143.477 15.2648 143.283 14.8006 143.051 14.5298C142.819 14.259 142.432 14.1043 141.968 14.1043C141.426 14.1043 141.078 14.2204 140.846 14.5298Z" fill="var(--color-navy-500)"></path><path d="M57.5589 22.8084L52.2979 3.7373H56.9013L58.7581 12.3638C59.2223 14.4914 59.5704 16.3096 59.8025 17.8182H59.9186C60.0733 16.735 60.4215 14.9556 60.963 12.4025L62.8972 3.7373H67.5006L62.1622 22.8084V31.9378H57.5975V22.8084H57.5589Z" fill="var(--color-navy-500)"></path><path d="M94.1163 11.3584V31.9769H90.4798L90.0932 29.4624H89.9769C89.0099 31.358 87.5012 32.325 85.5283 32.325C84.1744 32.325 83.1686 31.8609 82.511 30.9711C81.8533 30.0814 81.5439 28.6888 81.5439 26.7546V11.3584H86.1859V26.4838C86.1859 27.4122 86.302 28.0698 86.4954 28.4567C86.6888 28.8436 87.037 29.037 87.5012 29.037C87.8881 29.037 88.2749 28.9209 88.6617 28.6501C89.0487 28.418 89.3191 28.1085 89.4741 27.7217V11.3584H94.1163Z" fill="var(--color-navy-500)"></path><path d="M117.906 11.3584V31.9769H114.27L113.882 29.4624H113.767C112.8 31.358 111.291 32.325 109.318 32.325C107.964 32.325 106.958 31.8609 106.301 30.9711C105.643 30.0814 105.333 28.6888 105.333 26.7546V11.3584H109.975V26.4838C109.975 27.4122 110.091 28.0698 110.285 28.4567C110.478 28.8436 110.827 29.037 111.291 29.037C111.678 29.037 112.064 28.9209 112.451 28.6501C112.838 28.418 113.109 28.1085 113.264 27.7217V11.3584H117.906Z" fill="var(--color-navy-500)"></path><path d="M106.726 7.48964H102.123V31.9378H97.5967V7.48964H92.9932V3.7373H106.726V7.48964Z" fill="var(--color-navy-500)"></path><path d="M133.265 14.6477C132.994 13.3324 132.529 12.404 131.911 11.8237C131.292 11.2434 130.402 10.934 129.319 10.934C128.468 10.934 127.655 11.1661 126.921 11.669C126.185 12.1332 125.605 12.7909 125.218 13.5645H125.18V2.69434H120.692V31.9393H124.522L124.986 30.0051H125.102C125.451 30.7014 125.992 31.243 126.727 31.6685C127.462 32.0554 128.236 32.2875 129.125 32.2875C130.711 32.2875 131.833 31.5525 132.568 30.1212C133.303 28.6898 133.69 26.4076 133.69 23.3515V20.1021C133.651 17.7423 133.535 15.9242 133.265 14.6477ZM129.009 23.042C129.009 24.5507 128.932 25.7112 128.816 26.5623C128.7 27.4133 128.468 28.0322 128.197 28.3804C127.888 28.7286 127.5 28.922 127.036 28.922C126.65 28.922 126.302 28.8446 125.992 28.6512C125.683 28.4578 125.412 28.187 125.218 27.8388V16.1563C125.373 15.6148 125.644 15.1505 126.03 14.7637C126.418 14.4155 126.843 14.2221 127.269 14.2221C127.733 14.2221 128.119 14.4155 128.352 14.7637C128.622 15.1505 128.777 15.7695 128.894 16.6205C129.009 17.5102 129.048 18.7481 129.048 20.3342V23.042H129.009Z" fill="var(--color-navy-500)"></path></g><defs><clipPath id="clip0_1901_19279"><rect width="147.96" height="34.3478" fill="white" transform="translate(0.655273 0.829102)"></rect></clipPath></defs></svg>
