<svg width="252" height="252" viewBox="0 0 252 252" fill="none" xmlns="http://www.w3.org/2000/svg">
<path d="M220.5 84H187.083M220.5 126H189M220.5 168H187.083M64.917 84H31.5M84 64.917V31.5M84 220.5V187.083M126 63V31.5M126 220.5V189M168 64.917V31.5M168 220.5V187.083M63 126H31.5M64.917 168H31.5M113.4 189H138.6C156.242 189 165.062 189 171.801 185.567C177.728 182.547 182.547 177.728 185.567 171.801C189 165.062 189 156.242 189 138.6V113.4C189 95.7583 189 86.9375 185.567 80.1993C182.547 74.2722 177.728 69.4533 171.801 66.4333C165.062 63 156.242 63 138.6 63H113.4C95.7583 63 86.9375 63 80.1993 66.4333C74.2722 69.4533 69.4533 74.2722 66.4333 80.1993C63 86.9375 63 95.7583 63 113.4V138.6C63 156.242 63 165.062 66.4333 171.801C69.4533 177.728 74.2722 182.547 80.1993 185.567C86.9375 189 95.7583 189 113.4 189ZM105 105H147V126V147H105V105Z" stroke="#CAB59A" stroke-width="21" stroke-linecap="round" stroke-linejoin="round"/>
</svg>
