<svg xmlns="http://www.w3.org/2000/svg" width="16" height="16" viewBox="0 0 16 16" fill="none">
<g clip-path="url(#clip0_3798_12824)">
<path d="M13.088 11.8921C13.002 11.8921 12.9169 11.8752 12.8375 11.8423C12.7581 11.8095 12.6859 11.7613 12.6251 11.7005C12.5644 11.6397 12.5162 11.5676 12.4833 11.4881C12.4504 11.4087 12.4335 11.3236 12.4336 11.2377L12.4341 4.49185L3.37595 13.55C3.25329 13.6727 3.08693 13.7416 2.91347 13.7416C2.74001 13.7416 2.57365 13.6727 2.45099 13.55C2.32834 13.4274 2.25943 13.261 2.25943 13.0876C2.25943 12.9141 2.32834 12.7477 2.45099 12.6251L11.5092 3.56689L4.76338 3.56747C4.58982 3.56747 4.42337 3.49853 4.30065 3.3758C4.17792 3.25308 4.10897 3.08663 4.10897 2.91307C4.10897 2.73951 4.17792 2.57306 4.30065 2.45033C4.42337 2.32761 4.58982 2.25866 4.76338 2.25866L13.088 2.25866C13.1739 2.25861 13.259 2.27551 13.3385 2.30838C13.4179 2.34125 13.49 2.38945 13.5508 2.45023C13.6116 2.511 13.6598 2.58316 13.6927 2.66258C13.7255 2.742 13.7424 2.82712 13.7424 2.91307L13.7424 11.2377C13.7424 11.3236 13.7255 11.4087 13.6927 11.4881C13.6598 11.5676 13.6116 11.6397 13.5508 11.7005C13.49 11.7613 13.4179 11.8095 13.3385 11.8423C13.259 11.8752 13.1739 11.8921 13.088 11.8921Z" fill="white"/>
</g>
<defs>
<clipPath id="clip0_3798_12824">
<rect width="16" height="16" fill="white" transform="translate(16) rotate(90)"/>
</clipPath>
</defs>
</svg>
