<svg width="397" height="81" viewBox="0 0 397 81" fill="none" xmlns="http://www.w3.org/2000/svg">
<path d="M0 98.3984C1.72089 90.506 3.75813 82.5688 6.03727 74.7994C11.3222 57.1476 17.5501 39.4845 27.2929 24.095C32.1636 16.6865 38.4286 9.08922 46.4594 7.42719C54.506 5.80313 61.8744 12.0505 67.3493 18.9827C78.4814 32.9651 87.5048 48.4155 93.8861 65.0013C97.1259 73.2442 99.6409 81.8347 102.536 90.514C105.292 98.624 109.72 110.513 121.29 112.56C123.285 112.976 125.247 113.13 127.26 113.131C140.723 112.902 147.554 101.2 152.954 92.8675C158.435 83.9182 163.219 74.9058 169.177 66.8037C180.555 50.2325 199.02 39.4983 219.33 39.7672C249.052 38.9716 274.882 61.1696 289.045 87.0654C292.783 94.1463 296.471 101.712 296.94 109.815C296.917 101.665 293.593 93.8277 290.165 86.4879C277.186 59.7322 251.523 35.1822 219.33 34.9926C197.875 33.9015 176.392 45.7279 164.258 63.1425C151.261 78.6988 144.81 104.723 127.26 106.498C125.608 106.497 124.087 106.365 122.652 106.065C115.098 104.884 111.618 96.7418 108.734 88.3835C105.881 80.011 103.194 71.1371 99.7511 62.6798C92.9456 45.5975 83.2511 29.6881 71.4796 15.6233C65.4801 8.44645 56.5462 0.557218 45.5219 2.95825C35.044 5.6679 29.0879 14.3342 24.2062 22.1725C14.6936 38.5195 9.26874 56.496 4.81918 74.4741C2.91681 82.3757 1.28632 90.4232 0 98.3984Z" fill="#FC8B20"/>
<path d="M103.74 105.811C105.913 106.223 108.087 106.634 110.26 107.046C111.72 99.1609 113.451 91.1806 115.384 83.3241C120.134 64.3605 125.807 45.3775 134.59 28.1715C139.047 19.7739 144.466 11.1005 152.121 7.0905C159.805 2.8296 168.334 8.44915 174.203 15.8452C186.112 30.2813 195.675 46.4614 202.313 63.9002C205.742 72.6427 208.222 81.6055 211.628 90.7056C213.399 95.1806 215.431 99.9197 219.401 103.651C223.382 107.451 229.044 108.734 234.061 108.66C246.691 108.462 253.384 97.2498 258.748 88.9202C264.19 80.0409 269.006 71.0068 275.041 62.8625C286.552 46.1791 305.563 35.3504 325.988 35.8705C354.393 34.9443 377.77 57.6949 387.9 83.2799C390.878 90.6736 393.468 98.6775 393.569 106.39C394.398 106.416 395.227 106.441 396.057 106.467C395.996 97.9199 393.386 89.9425 390.396 82.2623C380.319 56.0346 356.092 31.7515 325.988 32.4559C304.728 31.6207 283.856 43.2801 271.883 60.5093C258.924 75.8683 253.122 101.976 234.061 104.197C224.74 104.796 218.947 97.8582 216.022 89.0284C212.842 80.3288 210.358 71.1038 206.932 62.141C200.281 44.1942 190.518 27.3449 178.409 12.4212C172.535 4.60334 160.77 -3.96727 149.627 1.99296C139.565 7.32771 134.217 16.6368 129.346 25.4117C120.009 43.3535 114.15 62.5305 109.148 81.7609C107.119 89.7216 105.295 97.798 103.74 105.811Z" fill="#0E0E0E"/>
</svg>
