<svg width="56" height="55" viewBox="0 0 56 55" fill="none" xmlns="http://www.w3.org/2000/svg">
<rect width="56" height="55" rx="27.5" fill="#FC8B20"/>
<path d="M31.7246 24.1445H36.7708V25.4868H31.7246V24.1445Z" fill="white"/>
<path d="M31.7246 21.46H39.1729V22.8022H31.7246V21.46Z" fill="white"/>
<path d="M45.3793 14.7487H42.8966V12.7353C42.8966 12.5573 42.8312 12.3866 42.7148 12.2608C42.5984 12.1349 42.4405 12.0642 42.2759 12.0642H34.6538C32.3202 12.0886 30.0307 12.7537 28 13.997C25.9681 12.7569 23.6793 12.0921 21.3462 12.0642H13.7241C13.5595 12.0642 13.4016 12.1349 13.2852 12.2608C13.1688 12.3866 13.1034 12.5573 13.1034 12.7353V14.7487H10.6207C10.4561 14.7487 10.2982 14.8194 10.1818 14.9453C10.0654 15.0711 10 15.2418 10 15.4198V42.2648C10 42.4428 10.0654 42.6135 10.1818 42.7394C10.2982 42.8653 10.4561 42.936 10.6207 42.936H45.3793C45.5439 42.936 45.7018 42.8653 45.8182 42.7394C45.9346 42.6135 46 42.4428 46 42.2648V15.4198C46 15.2418 45.9346 15.0711 45.8182 14.9453C45.7018 14.8194 45.5439 14.7487 45.3793 14.7487ZM34.6538 13.4065H41.6552V36.8958H34.6538C32.5566 36.9251 30.4932 37.4714 28.6207 38.4931V15.1648C30.4615 14.0357 32.5375 13.4306 34.6538 13.4065ZM20.5517 13.4065V26.2451L19.6517 25.574C19.5504 25.5018 19.4317 25.4633 19.3103 25.4633C19.189 25.4633 19.0703 25.5018 18.969 25.574L18.069 26.2451V13.4065H20.5517ZM14.3448 13.4065H16.8276V27.5001C16.8282 27.6209 16.8589 27.7394 16.9166 27.8429C16.9743 27.9465 17.0567 28.0312 17.1553 28.0883C17.2538 28.1453 17.3648 28.1725 17.4764 28.1671C17.5881 28.1616 17.6963 28.1236 17.7897 28.0571L19.3103 26.9632L20.831 28.0571C20.9244 28.1236 21.0326 28.1616 21.1443 28.1671C21.2559 28.1725 21.3669 28.1453 21.4654 28.0883C21.564 28.0312 21.6464 27.9465 21.7041 27.8429C21.7618 27.7394 21.7925 27.6209 21.7931 27.5001V13.4065C23.7558 13.5072 25.6692 14.1049 27.3793 15.1514V38.4931C25.5145 37.449 23.4462 36.9014 21.3462 36.8958H14.3448V13.4065ZM44.7586 41.5937H11.2414V16.091H13.1034V37.567C13.1034 37.745 13.1688 37.9157 13.2852 38.0415C13.4016 38.1674 13.5595 38.2381 13.7241 38.2381H21.3462C23.1774 38.2366 24.9837 38.6961 26.6221 39.5803C27.6152 40.0501 27.8634 40.4058 28.2793 40.1709L29.3779 39.5803C31.0163 38.6961 32.8226 38.2366 34.6538 38.2381H42.2759C42.4405 38.2381 42.5984 38.1674 42.7148 38.0415C42.8312 37.9157 42.8966 37.745 42.8966 37.567V16.091H44.7586V41.5937Z" fill="white"/>
</svg>
