<svg width="17" height="17" viewBox="0 0 17 17" fill="none" xmlns="http://www.w3.org/2000/svg">
<path d="M16.6081 13.985C16.4968 14.4632 16.2344 14.8927 15.8598 15.21C15.4415 15.6354 14.9423 15.9727 14.3915 16.202C13.8408 16.4313 13.2497 16.5479 12.6531 16.545H12.3548C11.1165 16.4805 9.90285 16.1742 8.78227 15.6433C8.5106 15.5158 8.24643 15.3967 7.93227 15.2517C6.61898 14.51 5.41358 13.5917 4.34977 12.5225C2.96689 11.2255 1.83369 9.68589 1.00643 7.98C0.551001 7.04937 0.244224 6.05312 0.0972675 5.0275C-0.108044 3.95875 0.0133398 2.85293 0.445601 1.85417C0.714486 1.40074 1.04359 0.98585 1.42393 0.620833C1.59766 0.431315 1.80774 0.278685 2.04167 0.172029C2.2756 0.0653718 2.5286 0.00686816 2.7856 0C3.06584 0.0296224 3.33735 0.114907 3.5842 0.250851C3.83104 0.386795 4.04826 0.570662 4.2231 0.791667C4.61477 1.225 5.0731 1.64167 5.48977 2.08333L6.02643 2.61167C6.3431 2.88917 6.53893 3.28 6.5706 3.7C6.57143 4.08667 6.42893 4.45917 6.1706 4.74667C6.00793 4.94827 5.83492 5.1413 5.65227 5.325L5.4731 5.5125C5.36876 5.60946 5.28734 5.72845 5.23477 5.86083C5.19143 5.98917 5.17643 6.12583 5.1931 6.26083C5.32977 6.63083 5.54393 6.9675 5.82227 7.2475C6.2556 7.83417 6.67227 8.345 7.1406 8.94917C7.94833 9.88109 8.90593 10.6717 9.97393 11.2883C10.0764 11.3717 10.1989 11.4275 10.3306 11.45C10.4473 11.4675 10.5648 11.45 10.6706 11.3983C10.9951 11.2246 11.2838 10.9911 11.5214 10.71C11.8214 10.34 12.2564 10.105 12.7298 10.0542C12.957 10.055 13.1817 10.1014 13.3907 10.1906C13.5996 10.2797 13.7886 10.4099 13.9464 10.5733C14.1409 10.7411 14.325 10.9197 14.4989 11.1092L14.7539 11.3817L15.0181 11.6367C15.1789 11.7983 15.3323 11.9433 15.4848 12.1133C15.7625 12.3522 16.0209 12.6103 16.2598 12.8875C16.5039 13.1992 16.6273 13.5892 16.6081 13.985Z" fill="white"/>
</svg>
