<svg width="76" height="76" viewBox="0 0 76 76" fill="none" xmlns="http://www.w3.org/2000/svg">
<rect width="75.7088" height="76" rx="37.8544" fill="#FC8B20"/>
<g clip-path="url(#clip0_3771_11185)">
<path d="M37.7969 43.6996C37.7969 45.2112 38.3973 46.6608 39.4661 47.7296C40.5349 48.7984 41.9845 49.3988 43.496 49.3988C45.0075 49.3988 46.4571 48.7984 47.5259 47.7296C48.5947 46.6608 49.1952 45.2112 49.1952 43.6996C49.1952 42.1881 48.5947 40.7385 47.5259 39.6697C46.4571 38.6009 45.0075 38.0005 43.496 38.0005C41.9845 38.0005 40.5349 38.6009 39.4661 39.6697C38.3973 40.7385 37.7969 42.1881 37.7969 43.6996Z" stroke="white" stroke-width="2" stroke-linecap="round" stroke-linejoin="round"/>
<path d="M39.6973 48.4497V56.9984L43.4967 54.1489L47.2961 56.9984V48.4497" stroke="white" stroke-width="2" stroke-linecap="round" stroke-linejoin="round"/>
<path d="M33.9972 51.2987H24.4987C23.491 51.2987 22.5246 50.8984 21.812 50.1859C21.0995 49.4733 20.6992 48.5069 20.6992 47.4993V28.5021C20.6992 26.4124 22.409 24.7026 24.4987 24.7026H51.0947C52.1024 24.7026 53.0688 25.1029 53.7813 25.8155C54.4939 26.528 54.8942 27.4944 54.8942 28.5021V47.4993C54.8935 48.1655 54.7176 48.8199 54.3841 49.3968C54.0507 49.9736 53.5714 50.4526 52.9944 50.7858M26.3984 32.3015H49.195M26.3984 38.0007H32.0975M26.3984 43.6998H30.1978" stroke="white" stroke-width="2" stroke-linecap="round" stroke-linejoin="round"/>
</g>
<defs>
<clipPath id="clip0_3771_11185">
<rect width="45.5932" height="45.5932" fill="white" transform="translate(15 15.2036)"/>
</clipPath>
</defs>
</svg>
