<svg width="64" height="64" viewBox="0 0 64 64" fill="none" xmlns="http://www.w3.org/2000/svg">
<path d="M37.8604 27.1099C37.8604 25.3536 36.4369 23.9297 34.6807 23.9297C32.9244 23.9297 31.5 25.3536 31.5 27.1099V40.3096C31.5 42.0658 32.9244 43.4897 34.6807 43.4897C36.4369 43.4897 37.8604 42.0658 37.8604 40.3096V27.1099Z" fill="#9E62FF"/>
<path d="M19.8506 34.3086C19.8506 32.5523 18.4262 31.1289 16.6699 31.1289C14.9137 31.1289 13.4902 32.5523 13.4902 34.3086V40.3086C13.4902 42.0649 14.9137 43.4888 16.6699 43.4888C18.4262 43.4888 19.8506 42.0649 19.8506 40.3086V34.3086Z" fill="#9E62FF"/>
<path d="M28.8604 20.5C28.8604 18.7437 27.4369 17.3203 25.6807 17.3203C23.9244 17.3203 22.5 18.7437 22.5 20.5V40.3101C22.5 42.0663 23.9244 43.4902 25.6807 43.4902C27.4369 43.4902 28.8604 42.0663 28.8604 40.3101V20.5Z" fill="#9E62FF"/>
<path d="M46.8701 10.1802C46.8701 8.42391 45.4467 7 43.6904 7C41.9342 7 40.5098 8.42391 40.5098 10.1802V40.3101C40.5098 42.0663 41.9342 43.4902 43.6904 43.4902C45.4467 43.4902 46.8701 42.0663 46.8701 40.3101V10.1802Z" fill="#9E62FF"/>
<path d="M49.1602 49.1274H7V7.20703" stroke="#0B0B0B" stroke-linecap="round" stroke-linejoin="round"/>
<path d="M47 57C52.5228 57 57 52.5228 57 47C57 41.4772 52.5228 37 47 37C41.4772 37 37 41.4772 37 47C37 52.5228 41.4772 57 47 57Z" fill="#BDEA09"/>
<path d="M50.29 43.8789C49.69 44.1289 44.7306 49.5291 43.8906 50.3291" stroke="#0B0B0B" stroke-linecap="round" stroke-linejoin="round"/>
<path d="M50.2803 49.3491V43.8594H44.7705" stroke="#0B0B0B" stroke-linecap="round" stroke-linejoin="round"/>
</svg>
