<svg width="1440" height="1138" viewBox="0 0 1440 1138" fill="none" xmlns="http://www.w3.org/2000/svg">
<g clip-path="url(#clip0_8940_55021)">
<rect width="1440" height="3492" fill="#15181A"/>
<g style="mix-blend-mode:overlay" opacity="0.3">
<line x1="31.5" y1="1" x2="31.5" y2="1043" stroke="url(#paint0_linear_8940_55021)"/>
<line x1="62.5" y1="1" x2="62.5" y2="1043" stroke="url(#paint1_linear_8940_55021)"/>
<line x1="93.5" y1="1" x2="93.5" y2="1043" stroke="url(#paint2_linear_8940_55021)"/>
<line x1="124.5" y1="1" x2="124.5" y2="1043" stroke="url(#paint3_linear_8940_55021)"/>
<line x1="155.5" y1="1" x2="155.5" y2="1043" stroke="url(#paint4_linear_8940_55021)"/>
<line x1="186.5" y1="1" x2="186.5" y2="1043" stroke="url(#paint5_linear_8940_55021)"/>
<line x1="217.5" y1="1" x2="217.5" y2="1043" stroke="url(#paint6_linear_8940_55021)"/>
<line x1="248.5" y1="1" x2="248.5" y2="1043" stroke="url(#paint7_linear_8940_55021)"/>
<line x1="279.5" y1="1" x2="279.5" y2="1043" stroke="url(#paint8_linear_8940_55021)"/>
<line x1="311.5" y1="1" x2="311.5" y2="1043" stroke="url(#paint9_linear_8940_55021)"/>
<line x1="341.5" y1="1" x2="341.5" y2="1043" stroke="url(#paint10_linear_8940_55021)"/>
<line x1="373.5" y1="1" x2="373.5" y2="1043" stroke="url(#paint11_linear_8940_55021)"/>
<line x1="403.5" y1="1" x2="403.5" y2="1043" stroke="url(#paint12_linear_8940_55021)"/>
<line x1="435.5" y1="1" x2="435.5" y2="1043" stroke="url(#paint13_linear_8940_55021)"/>
<line x1="465.5" y1="1" x2="465.5" y2="1043" stroke="url(#paint14_linear_8940_55021)"/>
<line x1="497.5" y1="1" x2="497.5" y2="1043" stroke="url(#paint15_linear_8940_55021)"/>
<line x1="527.5" y1="1" x2="527.5" y2="1043" stroke="url(#paint16_linear_8940_55021)"/>
<line x1="559.5" y1="1" x2="559.5" y2="1043" stroke="url(#paint17_linear_8940_55021)"/>
<line x1="590.5" y1="1" x2="590.5" y2="1043" stroke="url(#paint18_linear_8940_55021)"/>
<line x1="621.5" y1="1" x2="621.5" y2="1043" stroke="url(#paint19_linear_8940_55021)"/>
<line x1="652.5" y1="1" x2="652.5" y2="1043" stroke="url(#paint20_linear_8940_55021)"/>
<line x1="683.5" y1="1" x2="683.5" y2="1043" stroke="url(#paint21_linear_8940_55021)"/>
<line x1="714.5" y1="1" x2="714.5" y2="1043" stroke="url(#paint22_linear_8940_55021)"/>
<line x1="745.5" y1="1" x2="745.5" y2="1043" stroke="url(#paint23_linear_8940_55021)"/>
<line x1="776.5" y1="1" x2="776.5" y2="1043" stroke="url(#paint24_linear_8940_55021)"/>
<line x1="807.5" y1="1" x2="807.5" y2="1043" stroke="url(#paint25_linear_8940_55021)"/>
<line x1="838.5" y1="1" x2="838.5" y2="1043" stroke="url(#paint26_linear_8940_55021)"/>
<line x1="869.5" y1="1" x2="869.5" y2="1043" stroke="url(#paint27_linear_8940_55021)"/>
<line x1="900.5" y1="1" x2="900.5" y2="1043" stroke="url(#paint28_linear_8940_55021)"/>
<line x1="932.5" y1="1" x2="932.5" y2="1043" stroke="url(#paint29_linear_8940_55021)"/>
<line x1="963.5" y1="1" x2="963.5" y2="1043" stroke="url(#paint30_linear_8940_55021)"/>
<line x1="995.5" y1="1" x2="995.5" y2="1043" stroke="url(#paint31_linear_8940_55021)"/>
<line x1="1026.5" y1="1" x2="1026.5" y2="1043" stroke="url(#paint32_linear_8940_55021)"/>
<line x1="1058.5" y1="1" x2="1058.5" y2="1043" stroke="url(#paint33_linear_8940_55021)"/>
<line x1="1089.5" y1="1" x2="1089.5" y2="1043" stroke="url(#paint34_linear_8940_55021)"/>
<line x1="1121.5" y1="1" x2="1121.5" y2="1043" stroke="url(#paint35_linear_8940_55021)"/>
<line x1="1152.5" y1="1" x2="1152.5" y2="1043" stroke="url(#paint36_linear_8940_55021)"/>
<line x1="1184.5" y1="1" x2="1184.5" y2="1043" stroke="url(#paint37_linear_8940_55021)"/>
<line x1="1215.5" y1="1" x2="1215.5" y2="1043" stroke="url(#paint38_linear_8940_55021)"/>
<line x1="1247.5" y1="1" x2="1247.5" y2="1043" stroke="url(#paint39_linear_8940_55021)"/>
<line x1="1278.5" y1="1" x2="1278.5" y2="1043" stroke="url(#paint40_linear_8940_55021)"/>
<line x1="1310.5" y1="1" x2="1310.5" y2="1043" stroke="url(#paint41_linear_8940_55021)"/>
<line x1="1341.5" y1="1" x2="1341.5" y2="1043" stroke="url(#paint42_linear_8940_55021)"/>
<line x1="1373.5" y1="1" x2="1373.5" y2="1043" stroke="url(#paint43_linear_8940_55021)"/>
<line x1="1404.5" y1="1" x2="1404.5" y2="1043" stroke="url(#paint44_linear_8940_55021)"/>
<line x1="1436.5" y1="1" x2="1436.5" y2="1043" stroke="url(#paint45_linear_8940_55021)"/>
<line x1="1440" y1="30.3301" x2="-7.47893e-08" y2="30.33" stroke="url(#paint46_linear_8940_55021)"/>
<line x1="1440" y1="60.0078" x2="-7.47893e-08" y2="60.0077" stroke="url(#paint47_linear_8940_55021)"/>
<line x1="1440" y1="88.8379" x2="-7.47893e-08" y2="88.8378" stroke="url(#paint48_linear_8940_55021)"/>
<line x1="1440" y1="118.516" x2="-7.47893e-08" y2="118.516" stroke="url(#paint49_linear_8940_55021)"/>
<line x1="1440" y1="147.344" x2="-7.47893e-08" y2="147.344" stroke="url(#paint50_linear_8940_55021)"/>
<line x1="1440" y1="177.023" x2="-7.47893e-08" y2="177.023" stroke="url(#paint51_linear_8940_55021)"/>
<line x1="1440" y1="205.852" x2="-7.47893e-08" y2="205.851" stroke="url(#paint52_linear_8940_55021)"/>
<line x1="1440" y1="235.529" x2="-7.47893e-08" y2="235.529" stroke="url(#paint53_linear_8940_55021)"/>
<line x1="1440" y1="264.359" x2="-7.47893e-08" y2="264.359" stroke="url(#paint54_linear_8940_55021)"/>
<line x1="1440" y1="294.037" x2="-7.47893e-08" y2="294.037" stroke="url(#paint55_linear_8940_55021)"/>
<line x1="1440" y1="322.867" x2="-7.47893e-08" y2="322.867" stroke="url(#paint56_linear_8940_55021)"/>
<line x1="1440" y1="352.545" x2="-7.47893e-08" y2="352.545" stroke="url(#paint57_linear_8940_55021)"/>
<line x1="1440" y1="381.375" x2="-7.47893e-08" y2="381.375" stroke="url(#paint58_linear_8940_55021)"/>
<line x1="1440" y1="411.053" x2="-7.47893e-08" y2="411.053" stroke="url(#paint59_linear_8940_55021)"/>
<line x1="1440" y1="439.883" x2="-7.47893e-08" y2="439.883" stroke="url(#paint60_linear_8940_55021)"/>
<line x1="1440" y1="469.559" x2="-7.47893e-08" y2="469.559" stroke="url(#paint61_linear_8940_55021)"/>
<line x1="1440" y1="498.389" x2="-7.47893e-08" y2="498.389" stroke="url(#paint62_linear_8940_55021)"/>
<line x1="1440" y1="528.066" x2="-7.47893e-08" y2="528.066" stroke="url(#paint63_linear_8940_55021)"/>
<line x1="1440" y1="556.896" x2="-7.47893e-08" y2="556.896" stroke="url(#paint64_linear_8940_55021)"/>
<line x1="1440" y1="586.574" x2="-7.47893e-08" y2="586.574" stroke="url(#paint65_linear_8940_55021)"/>
<line x1="1440" y1="615.404" x2="-7.47893e-08" y2="615.404" stroke="url(#paint66_linear_8940_55021)"/>
<line x1="1440" y1="645.082" x2="-7.47893e-08" y2="645.082" stroke="url(#paint67_linear_8940_55021)"/>
<line x1="1440" y1="673.912" x2="-7.47893e-08" y2="673.912" stroke="url(#paint68_linear_8940_55021)"/>
<line x1="1440" y1="703.59" x2="-7.47893e-08" y2="703.59" stroke="url(#paint69_linear_8940_55021)"/>
<line x1="1440" y1="732.418" x2="-7.47893e-08" y2="732.418" stroke="url(#paint70_linear_8940_55021)"/>
<line x1="1440" y1="762.098" x2="-7.47893e-08" y2="762.098" stroke="url(#paint71_linear_8940_55021)"/>
<line x1="1440" y1="790.926" x2="-7.47893e-08" y2="790.926" stroke="url(#paint72_linear_8940_55021)"/>
<line x1="1440" y1="820.604" x2="-7.47893e-08" y2="820.603" stroke="url(#paint73_linear_8940_55021)"/>
<line x1="1440" y1="849.434" x2="-7.47893e-08" y2="849.434" stroke="url(#paint74_linear_8940_55021)"/>
<line x1="1440" y1="879.111" x2="-7.47893e-08" y2="879.111" stroke="url(#paint75_linear_8940_55021)"/>
<line x1="1440" y1="908.789" x2="-7.47893e-08" y2="908.789" stroke="url(#paint76_linear_8940_55021)"/>
<line x1="1440" y1="938.467" x2="-7.47893e-08" y2="938.467" stroke="url(#paint77_linear_8940_55021)"/>
<line x1="1440" y1="968.145" x2="-7.47893e-08" y2="968.144" stroke="url(#paint78_linear_8940_55021)"/>
<line x1="1440" y1="997.822" x2="-7.47893e-08" y2="997.822" stroke="url(#paint79_linear_8940_55021)"/>
<line x1="1440" y1="1027.5" x2="-7.47893e-08" y2="1027.5" stroke="url(#paint80_linear_8940_55021)"/>
</g>
<rect width="1440" height="1042" transform="matrix(1 0 0 -1 0 1043)" fill="url(#paint81_linear_8940_55021)"/>
<g style="mix-blend-mode:overlay" opacity="0.3">
<line x1="31.5" y1="1043" x2="31.5" y2="2085" stroke="url(#paint82_linear_8940_55021)"/>
<line x1="62.5" y1="1043" x2="62.5" y2="2085" stroke="url(#paint83_linear_8940_55021)"/>
<line x1="93.5" y1="1043" x2="93.5" y2="2085" stroke="url(#paint84_linear_8940_55021)"/>
<line x1="124.5" y1="1043" x2="124.5" y2="2085" stroke="url(#paint85_linear_8940_55021)"/>
<line x1="155.5" y1="1043" x2="155.5" y2="2085" stroke="url(#paint86_linear_8940_55021)"/>
<line x1="186.5" y1="1043" x2="186.5" y2="2085" stroke="url(#paint87_linear_8940_55021)"/>
<line x1="217.5" y1="1043" x2="217.5" y2="2085" stroke="url(#paint88_linear_8940_55021)"/>
<line x1="248.5" y1="1043" x2="248.5" y2="2085" stroke="url(#paint89_linear_8940_55021)"/>
<line x1="279.5" y1="1043" x2="279.5" y2="2085" stroke="url(#paint90_linear_8940_55021)"/>
<line x1="311.5" y1="1043" x2="311.5" y2="2085" stroke="url(#paint91_linear_8940_55021)"/>
<line x1="341.5" y1="1043" x2="341.5" y2="2085" stroke="url(#paint92_linear_8940_55021)"/>
<line x1="373.5" y1="1043" x2="373.5" y2="2085" stroke="url(#paint93_linear_8940_55021)"/>
<line x1="403.5" y1="1043" x2="403.5" y2="2085" stroke="url(#paint94_linear_8940_55021)"/>
<line x1="435.5" y1="1043" x2="435.5" y2="2085" stroke="url(#paint95_linear_8940_55021)"/>
<line x1="465.5" y1="1043" x2="465.5" y2="2085" stroke="url(#paint96_linear_8940_55021)"/>
<line x1="497.5" y1="1043" x2="497.5" y2="2085" stroke="url(#paint97_linear_8940_55021)"/>
<line x1="527.5" y1="1043" x2="527.5" y2="2085" stroke="url(#paint98_linear_8940_55021)"/>
<line x1="559.5" y1="1043" x2="559.5" y2="2085" stroke="url(#paint99_linear_8940_55021)"/>
<line x1="590.5" y1="1043" x2="590.5" y2="2085" stroke="url(#paint100_linear_8940_55021)"/>
<line x1="621.5" y1="1043" x2="621.5" y2="2085" stroke="url(#paint101_linear_8940_55021)"/>
<line x1="652.5" y1="1043" x2="652.5" y2="2085" stroke="url(#paint102_linear_8940_55021)"/>
<line x1="683.5" y1="1043" x2="683.5" y2="2085" stroke="url(#paint103_linear_8940_55021)"/>
<line x1="714.5" y1="1043" x2="714.5" y2="2085" stroke="url(#paint104_linear_8940_55021)"/>
<line x1="745.5" y1="1043" x2="745.5" y2="2085" stroke="url(#paint105_linear_8940_55021)"/>
<line x1="776.5" y1="1043" x2="776.5" y2="2085" stroke="url(#paint106_linear_8940_55021)"/>
<line x1="807.5" y1="1043" x2="807.5" y2="2085" stroke="url(#paint107_linear_8940_55021)"/>
<line x1="838.5" y1="1043" x2="838.5" y2="2085" stroke="url(#paint108_linear_8940_55021)"/>
<line x1="869.5" y1="1043" x2="869.5" y2="2085" stroke="url(#paint109_linear_8940_55021)"/>
<line x1="900.5" y1="1043" x2="900.5" y2="2085" stroke="url(#paint110_linear_8940_55021)"/>
<line x1="932.5" y1="1043" x2="932.5" y2="2085" stroke="url(#paint111_linear_8940_55021)"/>
<line x1="963.5" y1="1043" x2="963.5" y2="2085" stroke="url(#paint112_linear_8940_55021)"/>
<line x1="995.5" y1="1043" x2="995.5" y2="2085" stroke="url(#paint113_linear_8940_55021)"/>
<line x1="1026.5" y1="1043" x2="1026.5" y2="2085" stroke="url(#paint114_linear_8940_55021)"/>
<line x1="1058.5" y1="1043" x2="1058.5" y2="2085" stroke="url(#paint115_linear_8940_55021)"/>
<line x1="1089.5" y1="1043" x2="1089.5" y2="2085" stroke="url(#paint116_linear_8940_55021)"/>
<line x1="1121.5" y1="1043" x2="1121.5" y2="2085" stroke="url(#paint117_linear_8940_55021)"/>
<line x1="1152.5" y1="1043" x2="1152.5" y2="2085" stroke="url(#paint118_linear_8940_55021)"/>
<line x1="1184.5" y1="1043" x2="1184.5" y2="2085" stroke="url(#paint119_linear_8940_55021)"/>
<line x1="1215.5" y1="1043" x2="1215.5" y2="2085" stroke="url(#paint120_linear_8940_55021)"/>
<line x1="1247.5" y1="1043" x2="1247.5" y2="2085" stroke="url(#paint121_linear_8940_55021)"/>
<line x1="1278.5" y1="1043" x2="1278.5" y2="2085" stroke="url(#paint122_linear_8940_55021)"/>
<line x1="1310.5" y1="1043" x2="1310.5" y2="2085" stroke="url(#paint123_linear_8940_55021)"/>
<line x1="1341.5" y1="1043" x2="1341.5" y2="2085" stroke="url(#paint124_linear_8940_55021)"/>
<line x1="1373.5" y1="1043" x2="1373.5" y2="2085" stroke="url(#paint125_linear_8940_55021)"/>
<line x1="1404.5" y1="1043" x2="1404.5" y2="2085" stroke="url(#paint126_linear_8940_55021)"/>
<line x1="1436.5" y1="1043" x2="1436.5" y2="2085" stroke="url(#paint127_linear_8940_55021)"/>
<line x1="1440" y1="1072.33" x2="-7.47893e-08" y2="1072.33" stroke="url(#paint128_linear_8940_55021)"/>
<line x1="1440" y1="1102.01" x2="-7.47893e-08" y2="1102.01" stroke="url(#paint129_linear_8940_55021)"/>
<line x1="1440" y1="1130.84" x2="-7.47893e-08" y2="1130.84" stroke="url(#paint130_linear_8940_55021)"/>
</g>
<rect width="1440" height="1042" transform="matrix(1 0 0 -1 0 2085)" fill="url(#paint131_linear_8940_55021)"/>
</g>
<defs>
<linearGradient id="paint0_linear_8940_55021" x1="31" y1="522" x2="30" y2="522" gradientUnits="userSpaceOnUse">
<stop stop-color="white"/>
<stop offset="1" stop-color="white" stop-opacity="0"/>
</linearGradient>
<linearGradient id="paint1_linear_8940_55021" x1="62" y1="522" x2="61" y2="522" gradientUnits="userSpaceOnUse">
<stop stop-color="white"/>
<stop offset="1" stop-color="white" stop-opacity="0"/>
</linearGradient>
<linearGradient id="paint2_linear_8940_55021" x1="93" y1="522" x2="92" y2="522" gradientUnits="userSpaceOnUse">
<stop stop-color="white"/>
<stop offset="1" stop-color="white" stop-opacity="0"/>
</linearGradient>
<linearGradient id="paint3_linear_8940_55021" x1="124" y1="522" x2="123" y2="522" gradientUnits="userSpaceOnUse">
<stop stop-color="white"/>
<stop offset="1" stop-color="white" stop-opacity="0"/>
</linearGradient>
<linearGradient id="paint4_linear_8940_55021" x1="155" y1="522" x2="154" y2="522" gradientUnits="userSpaceOnUse">
<stop stop-color="white"/>
<stop offset="1" stop-color="white" stop-opacity="0"/>
</linearGradient>
<linearGradient id="paint5_linear_8940_55021" x1="186" y1="522" x2="185" y2="522" gradientUnits="userSpaceOnUse">
<stop stop-color="white"/>
<stop offset="1" stop-color="white" stop-opacity="0"/>
</linearGradient>
<linearGradient id="paint6_linear_8940_55021" x1="217" y1="522" x2="216" y2="522" gradientUnits="userSpaceOnUse">
<stop stop-color="white"/>
<stop offset="1" stop-color="white" stop-opacity="0"/>
</linearGradient>
<linearGradient id="paint7_linear_8940_55021" x1="248" y1="522" x2="247" y2="522" gradientUnits="userSpaceOnUse">
<stop stop-color="white"/>
<stop offset="1" stop-color="white" stop-opacity="0"/>
</linearGradient>
<linearGradient id="paint8_linear_8940_55021" x1="279" y1="522" x2="278" y2="522" gradientUnits="userSpaceOnUse">
<stop stop-color="white"/>
<stop offset="1" stop-color="white" stop-opacity="0"/>
</linearGradient>
<linearGradient id="paint9_linear_8940_55021" x1="311" y1="522" x2="310" y2="522" gradientUnits="userSpaceOnUse">
<stop stop-color="white"/>
<stop offset="1" stop-color="white" stop-opacity="0"/>
</linearGradient>
<linearGradient id="paint10_linear_8940_55021" x1="341" y1="522" x2="340" y2="522" gradientUnits="userSpaceOnUse">
<stop stop-color="white"/>
<stop offset="1" stop-color="white" stop-opacity="0"/>
</linearGradient>
<linearGradient id="paint11_linear_8940_55021" x1="373" y1="522" x2="372" y2="522" gradientUnits="userSpaceOnUse">
<stop stop-color="white"/>
<stop offset="1" stop-color="white" stop-opacity="0"/>
</linearGradient>
<linearGradient id="paint12_linear_8940_55021" x1="403" y1="522" x2="402" y2="522" gradientUnits="userSpaceOnUse">
<stop stop-color="white"/>
<stop offset="1" stop-color="white" stop-opacity="0"/>
</linearGradient>
<linearGradient id="paint13_linear_8940_55021" x1="435" y1="522" x2="434" y2="522" gradientUnits="userSpaceOnUse">
<stop stop-color="white"/>
<stop offset="1" stop-color="white" stop-opacity="0"/>
</linearGradient>
<linearGradient id="paint14_linear_8940_55021" x1="465" y1="522" x2="464" y2="522" gradientUnits="userSpaceOnUse">
<stop stop-color="white"/>
<stop offset="1" stop-color="white" stop-opacity="0"/>
</linearGradient>
<linearGradient id="paint15_linear_8940_55021" x1="497" y1="522" x2="496" y2="522" gradientUnits="userSpaceOnUse">
<stop stop-color="white"/>
<stop offset="1" stop-color="white" stop-opacity="0"/>
</linearGradient>
<linearGradient id="paint16_linear_8940_55021" x1="527" y1="522" x2="526" y2="522" gradientUnits="userSpaceOnUse">
<stop stop-color="white"/>
<stop offset="1" stop-color="white" stop-opacity="0"/>
</linearGradient>
<linearGradient id="paint17_linear_8940_55021" x1="559" y1="522" x2="558" y2="522" gradientUnits="userSpaceOnUse">
<stop stop-color="white"/>
<stop offset="1" stop-color="white" stop-opacity="0"/>
</linearGradient>
<linearGradient id="paint18_linear_8940_55021" x1="590" y1="522" x2="589" y2="522" gradientUnits="userSpaceOnUse">
<stop stop-color="white"/>
<stop offset="1" stop-color="white" stop-opacity="0"/>
</linearGradient>
<linearGradient id="paint19_linear_8940_55021" x1="621" y1="522" x2="620" y2="522" gradientUnits="userSpaceOnUse">
<stop stop-color="white"/>
<stop offset="1" stop-color="white" stop-opacity="0"/>
</linearGradient>
<linearGradient id="paint20_linear_8940_55021" x1="652" y1="522" x2="651" y2="522" gradientUnits="userSpaceOnUse">
<stop stop-color="white"/>
<stop offset="1" stop-color="white" stop-opacity="0"/>
</linearGradient>
<linearGradient id="paint21_linear_8940_55021" x1="683" y1="522" x2="682" y2="522" gradientUnits="userSpaceOnUse">
<stop stop-color="white"/>
<stop offset="1" stop-color="white" stop-opacity="0"/>
</linearGradient>
<linearGradient id="paint22_linear_8940_55021" x1="714" y1="522" x2="713" y2="522" gradientUnits="userSpaceOnUse">
<stop stop-color="white"/>
<stop offset="1" stop-color="white" stop-opacity="0"/>
</linearGradient>
<linearGradient id="paint23_linear_8940_55021" x1="745" y1="522" x2="744" y2="522" gradientUnits="userSpaceOnUse">
<stop stop-color="white"/>
<stop offset="1" stop-color="white" stop-opacity="0"/>
</linearGradient>
<linearGradient id="paint24_linear_8940_55021" x1="776" y1="522" x2="775" y2="522" gradientUnits="userSpaceOnUse">
<stop stop-color="white"/>
<stop offset="1" stop-color="white" stop-opacity="0"/>
</linearGradient>
<linearGradient id="paint25_linear_8940_55021" x1="807" y1="522" x2="806" y2="522" gradientUnits="userSpaceOnUse">
<stop stop-color="white"/>
<stop offset="1" stop-color="white" stop-opacity="0"/>
</linearGradient>
<linearGradient id="paint26_linear_8940_55021" x1="838" y1="522" x2="837" y2="522" gradientUnits="userSpaceOnUse">
<stop stop-color="white"/>
<stop offset="1" stop-color="white" stop-opacity="0"/>
</linearGradient>
<linearGradient id="paint27_linear_8940_55021" x1="869" y1="522" x2="868" y2="522" gradientUnits="userSpaceOnUse">
<stop stop-color="white"/>
<stop offset="1" stop-color="white" stop-opacity="0"/>
</linearGradient>
<linearGradient id="paint28_linear_8940_55021" x1="900" y1="522" x2="899" y2="522" gradientUnits="userSpaceOnUse">
<stop stop-color="white"/>
<stop offset="1" stop-color="white" stop-opacity="0"/>
</linearGradient>
<linearGradient id="paint29_linear_8940_55021" x1="932" y1="522" x2="931" y2="522" gradientUnits="userSpaceOnUse">
<stop stop-color="white"/>
<stop offset="1" stop-color="white" stop-opacity="0"/>
</linearGradient>
<linearGradient id="paint30_linear_8940_55021" x1="963" y1="522" x2="962" y2="522" gradientUnits="userSpaceOnUse">
<stop stop-color="white"/>
<stop offset="1" stop-color="white" stop-opacity="0"/>
</linearGradient>
<linearGradient id="paint31_linear_8940_55021" x1="995" y1="522" x2="994" y2="522" gradientUnits="userSpaceOnUse">
<stop stop-color="white"/>
<stop offset="1" stop-color="white" stop-opacity="0"/>
</linearGradient>
<linearGradient id="paint32_linear_8940_55021" x1="1026" y1="522" x2="1025" y2="522" gradientUnits="userSpaceOnUse">
<stop stop-color="white"/>
<stop offset="1" stop-color="white" stop-opacity="0"/>
</linearGradient>
<linearGradient id="paint33_linear_8940_55021" x1="1058" y1="522" x2="1057" y2="522" gradientUnits="userSpaceOnUse">
<stop stop-color="white"/>
<stop offset="1" stop-color="white" stop-opacity="0"/>
</linearGradient>
<linearGradient id="paint34_linear_8940_55021" x1="1089" y1="522" x2="1088" y2="522" gradientUnits="userSpaceOnUse">
<stop stop-color="white"/>
<stop offset="1" stop-color="white" stop-opacity="0"/>
</linearGradient>
<linearGradient id="paint35_linear_8940_55021" x1="1121" y1="522" x2="1120" y2="522" gradientUnits="userSpaceOnUse">
<stop stop-color="white"/>
<stop offset="1" stop-color="white" stop-opacity="0"/>
</linearGradient>
<linearGradient id="paint36_linear_8940_55021" x1="1152" y1="522" x2="1151" y2="522" gradientUnits="userSpaceOnUse">
<stop stop-color="white"/>
<stop offset="1" stop-color="white" stop-opacity="0"/>
</linearGradient>
<linearGradient id="paint37_linear_8940_55021" x1="1184" y1="522" x2="1183" y2="522" gradientUnits="userSpaceOnUse">
<stop stop-color="white"/>
<stop offset="1" stop-color="white" stop-opacity="0"/>
</linearGradient>
<linearGradient id="paint38_linear_8940_55021" x1="1215" y1="522" x2="1214" y2="522" gradientUnits="userSpaceOnUse">
<stop stop-color="white"/>
<stop offset="1" stop-color="white" stop-opacity="0"/>
</linearGradient>
<linearGradient id="paint39_linear_8940_55021" x1="1247" y1="522" x2="1246" y2="522" gradientUnits="userSpaceOnUse">
<stop stop-color="white"/>
<stop offset="1" stop-color="white" stop-opacity="0"/>
</linearGradient>
<linearGradient id="paint40_linear_8940_55021" x1="1278" y1="522" x2="1277" y2="522" gradientUnits="userSpaceOnUse">
<stop stop-color="white"/>
<stop offset="1" stop-color="white" stop-opacity="0"/>
</linearGradient>
<linearGradient id="paint41_linear_8940_55021" x1="1310" y1="522" x2="1309" y2="522" gradientUnits="userSpaceOnUse">
<stop stop-color="white"/>
<stop offset="1" stop-color="white" stop-opacity="0"/>
</linearGradient>
<linearGradient id="paint42_linear_8940_55021" x1="1341" y1="522" x2="1340" y2="522" gradientUnits="userSpaceOnUse">
<stop stop-color="white"/>
<stop offset="1" stop-color="white" stop-opacity="0"/>
</linearGradient>
<linearGradient id="paint43_linear_8940_55021" x1="1373" y1="522" x2="1372" y2="522" gradientUnits="userSpaceOnUse">
<stop stop-color="white"/>
<stop offset="1" stop-color="white" stop-opacity="0"/>
</linearGradient>
<linearGradient id="paint44_linear_8940_55021" x1="1404" y1="522" x2="1403" y2="522" gradientUnits="userSpaceOnUse">
<stop stop-color="white"/>
<stop offset="1" stop-color="white" stop-opacity="0"/>
</linearGradient>
<linearGradient id="paint45_linear_8940_55021" x1="1436" y1="522" x2="1435" y2="522" gradientUnits="userSpaceOnUse">
<stop stop-color="white"/>
<stop offset="1" stop-color="white" stop-opacity="0"/>
</linearGradient>
<linearGradient id="paint46_linear_8940_55021" x1="720" y1="29.83" x2="720" y2="28.83" gradientUnits="userSpaceOnUse">
<stop stop-color="white"/>
<stop offset="1" stop-color="white" stop-opacity="0"/>
</linearGradient>
<linearGradient id="paint47_linear_8940_55021" x1="720" y1="59.5078" x2="720" y2="58.5078" gradientUnits="userSpaceOnUse">
<stop stop-color="white"/>
<stop offset="1" stop-color="white" stop-opacity="0"/>
</linearGradient>
<linearGradient id="paint48_linear_8940_55021" x1="720" y1="88.3379" x2="720" y2="87.3379" gradientUnits="userSpaceOnUse">
<stop stop-color="white"/>
<stop offset="1" stop-color="white" stop-opacity="0"/>
</linearGradient>
<linearGradient id="paint49_linear_8940_55021" x1="720" y1="118.016" x2="720" y2="117.016" gradientUnits="userSpaceOnUse">
<stop stop-color="white"/>
<stop offset="1" stop-color="white" stop-opacity="0"/>
</linearGradient>
<linearGradient id="paint50_linear_8940_55021" x1="720" y1="146.844" x2="720" y2="145.844" gradientUnits="userSpaceOnUse">
<stop stop-color="white"/>
<stop offset="1" stop-color="white" stop-opacity="0"/>
</linearGradient>
<linearGradient id="paint51_linear_8940_55021" x1="720" y1="176.523" x2="720" y2="175.523" gradientUnits="userSpaceOnUse">
<stop stop-color="white"/>
<stop offset="1" stop-color="white" stop-opacity="0"/>
</linearGradient>
<linearGradient id="paint52_linear_8940_55021" x1="720" y1="205.352" x2="720" y2="204.352" gradientUnits="userSpaceOnUse">
<stop stop-color="white"/>
<stop offset="1" stop-color="white" stop-opacity="0"/>
</linearGradient>
<linearGradient id="paint53_linear_8940_55021" x1="720" y1="235.029" x2="720" y2="234.029" gradientUnits="userSpaceOnUse">
<stop stop-color="white"/>
<stop offset="1" stop-color="white" stop-opacity="0"/>
</linearGradient>
<linearGradient id="paint54_linear_8940_55021" x1="720" y1="263.859" x2="720" y2="262.859" gradientUnits="userSpaceOnUse">
<stop stop-color="white"/>
<stop offset="1" stop-color="white" stop-opacity="0"/>
</linearGradient>
<linearGradient id="paint55_linear_8940_55021" x1="720" y1="293.537" x2="720" y2="292.537" gradientUnits="userSpaceOnUse">
<stop stop-color="white"/>
<stop offset="1" stop-color="white" stop-opacity="0"/>
</linearGradient>
<linearGradient id="paint56_linear_8940_55021" x1="720" y1="322.367" x2="720" y2="321.367" gradientUnits="userSpaceOnUse">
<stop stop-color="white"/>
<stop offset="1" stop-color="white" stop-opacity="0"/>
</linearGradient>
<linearGradient id="paint57_linear_8940_55021" x1="720" y1="352.045" x2="720" y2="351.045" gradientUnits="userSpaceOnUse">
<stop stop-color="white"/>
<stop offset="1" stop-color="white" stop-opacity="0"/>
</linearGradient>
<linearGradient id="paint58_linear_8940_55021" x1="720" y1="380.875" x2="720" y2="379.875" gradientUnits="userSpaceOnUse">
<stop stop-color="white"/>
<stop offset="1" stop-color="white" stop-opacity="0"/>
</linearGradient>
<linearGradient id="paint59_linear_8940_55021" x1="720" y1="410.553" x2="720" y2="409.553" gradientUnits="userSpaceOnUse">
<stop stop-color="white"/>
<stop offset="1" stop-color="white" stop-opacity="0"/>
</linearGradient>
<linearGradient id="paint60_linear_8940_55021" x1="720" y1="439.383" x2="720" y2="438.383" gradientUnits="userSpaceOnUse">
<stop stop-color="white"/>
<stop offset="1" stop-color="white" stop-opacity="0"/>
</linearGradient>
<linearGradient id="paint61_linear_8940_55021" x1="720" y1="469.059" x2="720" y2="468.059" gradientUnits="userSpaceOnUse">
<stop stop-color="white"/>
<stop offset="1" stop-color="white" stop-opacity="0"/>
</linearGradient>
<linearGradient id="paint62_linear_8940_55021" x1="720" y1="497.889" x2="720" y2="496.889" gradientUnits="userSpaceOnUse">
<stop stop-color="white"/>
<stop offset="1" stop-color="white" stop-opacity="0"/>
</linearGradient>
<linearGradient id="paint63_linear_8940_55021" x1="720" y1="527.566" x2="720" y2="526.566" gradientUnits="userSpaceOnUse">
<stop stop-color="white"/>
<stop offset="1" stop-color="white" stop-opacity="0"/>
</linearGradient>
<linearGradient id="paint64_linear_8940_55021" x1="720" y1="556.396" x2="720" y2="555.396" gradientUnits="userSpaceOnUse">
<stop stop-color="white"/>
<stop offset="1" stop-color="white" stop-opacity="0"/>
</linearGradient>
<linearGradient id="paint65_linear_8940_55021" x1="720" y1="586.074" x2="720" y2="585.074" gradientUnits="userSpaceOnUse">
<stop stop-color="white"/>
<stop offset="1" stop-color="white" stop-opacity="0"/>
</linearGradient>
<linearGradient id="paint66_linear_8940_55021" x1="720" y1="614.904" x2="720" y2="613.904" gradientUnits="userSpaceOnUse">
<stop stop-color="white"/>
<stop offset="1" stop-color="white" stop-opacity="0"/>
</linearGradient>
<linearGradient id="paint67_linear_8940_55021" x1="720" y1="644.582" x2="720" y2="643.582" gradientUnits="userSpaceOnUse">
<stop stop-color="white"/>
<stop offset="1" stop-color="white" stop-opacity="0"/>
</linearGradient>
<linearGradient id="paint68_linear_8940_55021" x1="720" y1="673.412" x2="720" y2="672.412" gradientUnits="userSpaceOnUse">
<stop stop-color="white"/>
<stop offset="1" stop-color="white" stop-opacity="0"/>
</linearGradient>
<linearGradient id="paint69_linear_8940_55021" x1="720" y1="703.09" x2="720" y2="702.09" gradientUnits="userSpaceOnUse">
<stop stop-color="white"/>
<stop offset="1" stop-color="white" stop-opacity="0"/>
</linearGradient>
<linearGradient id="paint70_linear_8940_55021" x1="720" y1="731.918" x2="720" y2="730.918" gradientUnits="userSpaceOnUse">
<stop stop-color="white"/>
<stop offset="1" stop-color="white" stop-opacity="0"/>
</linearGradient>
<linearGradient id="paint71_linear_8940_55021" x1="720" y1="761.598" x2="720" y2="760.598" gradientUnits="userSpaceOnUse">
<stop stop-color="white"/>
<stop offset="1" stop-color="white" stop-opacity="0"/>
</linearGradient>
<linearGradient id="paint72_linear_8940_55021" x1="720" y1="790.426" x2="720" y2="789.426" gradientUnits="userSpaceOnUse">
<stop stop-color="white"/>
<stop offset="1" stop-color="white" stop-opacity="0"/>
</linearGradient>
<linearGradient id="paint73_linear_8940_55021" x1="720" y1="820.103" x2="720" y2="819.103" gradientUnits="userSpaceOnUse">
<stop stop-color="white"/>
<stop offset="1" stop-color="white" stop-opacity="0"/>
</linearGradient>
<linearGradient id="paint74_linear_8940_55021" x1="720" y1="848.934" x2="720" y2="847.934" gradientUnits="userSpaceOnUse">
<stop stop-color="white"/>
<stop offset="1" stop-color="white" stop-opacity="0"/>
</linearGradient>
<linearGradient id="paint75_linear_8940_55021" x1="720" y1="878.611" x2="720" y2="877.611" gradientUnits="userSpaceOnUse">
<stop stop-color="white"/>
<stop offset="1" stop-color="white" stop-opacity="0"/>
</linearGradient>
<linearGradient id="paint76_linear_8940_55021" x1="720" y1="908.289" x2="720" y2="907.289" gradientUnits="userSpaceOnUse">
<stop stop-color="white"/>
<stop offset="1" stop-color="white" stop-opacity="0"/>
</linearGradient>
<linearGradient id="paint77_linear_8940_55021" x1="720" y1="937.967" x2="720" y2="936.967" gradientUnits="userSpaceOnUse">
<stop stop-color="white"/>
<stop offset="1" stop-color="white" stop-opacity="0"/>
</linearGradient>
<linearGradient id="paint78_linear_8940_55021" x1="720" y1="967.644" x2="720" y2="966.644" gradientUnits="userSpaceOnUse">
<stop stop-color="white"/>
<stop offset="1" stop-color="white" stop-opacity="0"/>
</linearGradient>
<linearGradient id="paint79_linear_8940_55021" x1="720" y1="997.322" x2="720" y2="996.322" gradientUnits="userSpaceOnUse">
<stop stop-color="white"/>
<stop offset="1" stop-color="white" stop-opacity="0"/>
</linearGradient>
<linearGradient id="paint80_linear_8940_55021" x1="720" y1="1027" x2="720" y2="1026" gradientUnits="userSpaceOnUse">
<stop stop-color="white"/>
<stop offset="1" stop-color="white" stop-opacity="0"/>
</linearGradient>
<linearGradient id="paint81_linear_8940_55021" x1="720" y1="1063.5" x2="720" y2="4.33649e-06" gradientUnits="userSpaceOnUse">
<stop stop-color="#15181A"/>
<stop offset="1" stop-color="#151819" stop-opacity="0.3"/>
</linearGradient>
<linearGradient id="paint82_linear_8940_55021" x1="31" y1="1564" x2="30" y2="1564" gradientUnits="userSpaceOnUse">
<stop stop-color="white"/>
<stop offset="1" stop-color="white" stop-opacity="0"/>
</linearGradient>
<linearGradient id="paint83_linear_8940_55021" x1="62" y1="1564" x2="61" y2="1564" gradientUnits="userSpaceOnUse">
<stop stop-color="white"/>
<stop offset="1" stop-color="white" stop-opacity="0"/>
</linearGradient>
<linearGradient id="paint84_linear_8940_55021" x1="93" y1="1564" x2="92" y2="1564" gradientUnits="userSpaceOnUse">
<stop stop-color="white"/>
<stop offset="1" stop-color="white" stop-opacity="0"/>
</linearGradient>
<linearGradient id="paint85_linear_8940_55021" x1="124" y1="1564" x2="123" y2="1564" gradientUnits="userSpaceOnUse">
<stop stop-color="white"/>
<stop offset="1" stop-color="white" stop-opacity="0"/>
</linearGradient>
<linearGradient id="paint86_linear_8940_55021" x1="155" y1="1564" x2="154" y2="1564" gradientUnits="userSpaceOnUse">
<stop stop-color="white"/>
<stop offset="1" stop-color="white" stop-opacity="0"/>
</linearGradient>
<linearGradient id="paint87_linear_8940_55021" x1="186" y1="1564" x2="185" y2="1564" gradientUnits="userSpaceOnUse">
<stop stop-color="white"/>
<stop offset="1" stop-color="white" stop-opacity="0"/>
</linearGradient>
<linearGradient id="paint88_linear_8940_55021" x1="217" y1="1564" x2="216" y2="1564" gradientUnits="userSpaceOnUse">
<stop stop-color="white"/>
<stop offset="1" stop-color="white" stop-opacity="0"/>
</linearGradient>
<linearGradient id="paint89_linear_8940_55021" x1="248" y1="1564" x2="247" y2="1564" gradientUnits="userSpaceOnUse">
<stop stop-color="white"/>
<stop offset="1" stop-color="white" stop-opacity="0"/>
</linearGradient>
<linearGradient id="paint90_linear_8940_55021" x1="279" y1="1564" x2="278" y2="1564" gradientUnits="userSpaceOnUse">
<stop stop-color="white"/>
<stop offset="1" stop-color="white" stop-opacity="0"/>
</linearGradient>
<linearGradient id="paint91_linear_8940_55021" x1="311" y1="1564" x2="310" y2="1564" gradientUnits="userSpaceOnUse">
<stop stop-color="white"/>
<stop offset="1" stop-color="white" stop-opacity="0"/>
</linearGradient>
<linearGradient id="paint92_linear_8940_55021" x1="341" y1="1564" x2="340" y2="1564" gradientUnits="userSpaceOnUse">
<stop stop-color="white"/>
<stop offset="1" stop-color="white" stop-opacity="0"/>
</linearGradient>
<linearGradient id="paint93_linear_8940_55021" x1="373" y1="1564" x2="372" y2="1564" gradientUnits="userSpaceOnUse">
<stop stop-color="white"/>
<stop offset="1" stop-color="white" stop-opacity="0"/>
</linearGradient>
<linearGradient id="paint94_linear_8940_55021" x1="403" y1="1564" x2="402" y2="1564" gradientUnits="userSpaceOnUse">
<stop stop-color="white"/>
<stop offset="1" stop-color="white" stop-opacity="0"/>
</linearGradient>
<linearGradient id="paint95_linear_8940_55021" x1="435" y1="1564" x2="434" y2="1564" gradientUnits="userSpaceOnUse">
<stop stop-color="white"/>
<stop offset="1" stop-color="white" stop-opacity="0"/>
</linearGradient>
<linearGradient id="paint96_linear_8940_55021" x1="465" y1="1564" x2="464" y2="1564" gradientUnits="userSpaceOnUse">
<stop stop-color="white"/>
<stop offset="1" stop-color="white" stop-opacity="0"/>
</linearGradient>
<linearGradient id="paint97_linear_8940_55021" x1="497" y1="1564" x2="496" y2="1564" gradientUnits="userSpaceOnUse">
<stop stop-color="white"/>
<stop offset="1" stop-color="white" stop-opacity="0"/>
</linearGradient>
<linearGradient id="paint98_linear_8940_55021" x1="527" y1="1564" x2="526" y2="1564" gradientUnits="userSpaceOnUse">
<stop stop-color="white"/>
<stop offset="1" stop-color="white" stop-opacity="0"/>
</linearGradient>
<linearGradient id="paint99_linear_8940_55021" x1="559" y1="1564" x2="558" y2="1564" gradientUnits="userSpaceOnUse">
<stop stop-color="white"/>
<stop offset="1" stop-color="white" stop-opacity="0"/>
</linearGradient>
<linearGradient id="paint100_linear_8940_55021" x1="590" y1="1564" x2="589" y2="1564" gradientUnits="userSpaceOnUse">
<stop stop-color="white"/>
<stop offset="1" stop-color="white" stop-opacity="0"/>
</linearGradient>
<linearGradient id="paint101_linear_8940_55021" x1="621" y1="1564" x2="620" y2="1564" gradientUnits="userSpaceOnUse">
<stop stop-color="white"/>
<stop offset="1" stop-color="white" stop-opacity="0"/>
</linearGradient>
<linearGradient id="paint102_linear_8940_55021" x1="652" y1="1564" x2="651" y2="1564" gradientUnits="userSpaceOnUse">
<stop stop-color="white"/>
<stop offset="1" stop-color="white" stop-opacity="0"/>
</linearGradient>
<linearGradient id="paint103_linear_8940_55021" x1="683" y1="1564" x2="682" y2="1564" gradientUnits="userSpaceOnUse">
<stop stop-color="white"/>
<stop offset="1" stop-color="white" stop-opacity="0"/>
</linearGradient>
<linearGradient id="paint104_linear_8940_55021" x1="714" y1="1564" x2="713" y2="1564" gradientUnits="userSpaceOnUse">
<stop stop-color="white"/>
<stop offset="1" stop-color="white" stop-opacity="0"/>
</linearGradient>
<linearGradient id="paint105_linear_8940_55021" x1="745" y1="1564" x2="744" y2="1564" gradientUnits="userSpaceOnUse">
<stop stop-color="white"/>
<stop offset="1" stop-color="white" stop-opacity="0"/>
</linearGradient>
<linearGradient id="paint106_linear_8940_55021" x1="776" y1="1564" x2="775" y2="1564" gradientUnits="userSpaceOnUse">
<stop stop-color="white"/>
<stop offset="1" stop-color="white" stop-opacity="0"/>
</linearGradient>
<linearGradient id="paint107_linear_8940_55021" x1="807" y1="1564" x2="806" y2="1564" gradientUnits="userSpaceOnUse">
<stop stop-color="white"/>
<stop offset="1" stop-color="white" stop-opacity="0"/>
</linearGradient>
<linearGradient id="paint108_linear_8940_55021" x1="838" y1="1564" x2="837" y2="1564" gradientUnits="userSpaceOnUse">
<stop stop-color="white"/>
<stop offset="1" stop-color="white" stop-opacity="0"/>
</linearGradient>
<linearGradient id="paint109_linear_8940_55021" x1="869" y1="1564" x2="868" y2="1564" gradientUnits="userSpaceOnUse">
<stop stop-color="white"/>
<stop offset="1" stop-color="white" stop-opacity="0"/>
</linearGradient>
<linearGradient id="paint110_linear_8940_55021" x1="900" y1="1564" x2="899" y2="1564" gradientUnits="userSpaceOnUse">
<stop stop-color="white"/>
<stop offset="1" stop-color="white" stop-opacity="0"/>
</linearGradient>
<linearGradient id="paint111_linear_8940_55021" x1="932" y1="1564" x2="931" y2="1564" gradientUnits="userSpaceOnUse">
<stop stop-color="white"/>
<stop offset="1" stop-color="white" stop-opacity="0"/>
</linearGradient>
<linearGradient id="paint112_linear_8940_55021" x1="963" y1="1564" x2="962" y2="1564" gradientUnits="userSpaceOnUse">
<stop stop-color="white"/>
<stop offset="1" stop-color="white" stop-opacity="0"/>
</linearGradient>
<linearGradient id="paint113_linear_8940_55021" x1="995" y1="1564" x2="994" y2="1564" gradientUnits="userSpaceOnUse">
<stop stop-color="white"/>
<stop offset="1" stop-color="white" stop-opacity="0"/>
</linearGradient>
<linearGradient id="paint114_linear_8940_55021" x1="1026" y1="1564" x2="1025" y2="1564" gradientUnits="userSpaceOnUse">
<stop stop-color="white"/>
<stop offset="1" stop-color="white" stop-opacity="0"/>
</linearGradient>
<linearGradient id="paint115_linear_8940_55021" x1="1058" y1="1564" x2="1057" y2="1564" gradientUnits="userSpaceOnUse">
<stop stop-color="white"/>
<stop offset="1" stop-color="white" stop-opacity="0"/>
</linearGradient>
<linearGradient id="paint116_linear_8940_55021" x1="1089" y1="1564" x2="1088" y2="1564" gradientUnits="userSpaceOnUse">
<stop stop-color="white"/>
<stop offset="1" stop-color="white" stop-opacity="0"/>
</linearGradient>
<linearGradient id="paint117_linear_8940_55021" x1="1121" y1="1564" x2="1120" y2="1564" gradientUnits="userSpaceOnUse">
<stop stop-color="white"/>
<stop offset="1" stop-color="white" stop-opacity="0"/>
</linearGradient>
<linearGradient id="paint118_linear_8940_55021" x1="1152" y1="1564" x2="1151" y2="1564" gradientUnits="userSpaceOnUse">
<stop stop-color="white"/>
<stop offset="1" stop-color="white" stop-opacity="0"/>
</linearGradient>
<linearGradient id="paint119_linear_8940_55021" x1="1184" y1="1564" x2="1183" y2="1564" gradientUnits="userSpaceOnUse">
<stop stop-color="white"/>
<stop offset="1" stop-color="white" stop-opacity="0"/>
</linearGradient>
<linearGradient id="paint120_linear_8940_55021" x1="1215" y1="1564" x2="1214" y2="1564" gradientUnits="userSpaceOnUse">
<stop stop-color="white"/>
<stop offset="1" stop-color="white" stop-opacity="0"/>
</linearGradient>
<linearGradient id="paint121_linear_8940_55021" x1="1247" y1="1564" x2="1246" y2="1564" gradientUnits="userSpaceOnUse">
<stop stop-color="white"/>
<stop offset="1" stop-color="white" stop-opacity="0"/>
</linearGradient>
<linearGradient id="paint122_linear_8940_55021" x1="1278" y1="1564" x2="1277" y2="1564" gradientUnits="userSpaceOnUse">
<stop stop-color="white"/>
<stop offset="1" stop-color="white" stop-opacity="0"/>
</linearGradient>
<linearGradient id="paint123_linear_8940_55021" x1="1310" y1="1564" x2="1309" y2="1564" gradientUnits="userSpaceOnUse">
<stop stop-color="white"/>
<stop offset="1" stop-color="white" stop-opacity="0"/>
</linearGradient>
<linearGradient id="paint124_linear_8940_55021" x1="1341" y1="1564" x2="1340" y2="1564" gradientUnits="userSpaceOnUse">
<stop stop-color="white"/>
<stop offset="1" stop-color="white" stop-opacity="0"/>
</linearGradient>
<linearGradient id="paint125_linear_8940_55021" x1="1373" y1="1564" x2="1372" y2="1564" gradientUnits="userSpaceOnUse">
<stop stop-color="white"/>
<stop offset="1" stop-color="white" stop-opacity="0"/>
</linearGradient>
<linearGradient id="paint126_linear_8940_55021" x1="1404" y1="1564" x2="1403" y2="1564" gradientUnits="userSpaceOnUse">
<stop stop-color="white"/>
<stop offset="1" stop-color="white" stop-opacity="0"/>
</linearGradient>
<linearGradient id="paint127_linear_8940_55021" x1="1436" y1="1564" x2="1435" y2="1564" gradientUnits="userSpaceOnUse">
<stop stop-color="white"/>
<stop offset="1" stop-color="white" stop-opacity="0"/>
</linearGradient>
<linearGradient id="paint128_linear_8940_55021" x1="720" y1="1071.83" x2="720" y2="1070.83" gradientUnits="userSpaceOnUse">
<stop stop-color="white"/>
<stop offset="1" stop-color="white" stop-opacity="0"/>
</linearGradient>
<linearGradient id="paint129_linear_8940_55021" x1="720" y1="1101.51" x2="720" y2="1100.51" gradientUnits="userSpaceOnUse">
<stop stop-color="white"/>
<stop offset="1" stop-color="white" stop-opacity="0"/>
</linearGradient>
<linearGradient id="paint130_linear_8940_55021" x1="720" y1="1130.34" x2="720" y2="1129.34" gradientUnits="userSpaceOnUse">
<stop stop-color="white"/>
<stop offset="1" stop-color="white" stop-opacity="0"/>
</linearGradient>
<linearGradient id="paint131_linear_8940_55021" x1="720" y1="1063.5" x2="720" y2="4.33649e-06" gradientUnits="userSpaceOnUse">
<stop stop-color="#15181A" stop-opacity="0.3"/>
<stop offset="1" stop-color="#151819"/>
</linearGradient>
<clipPath id="clip0_8940_55021">
<rect width="1440" height="1138" fill="white"/>
</clipPath>
</defs>
</svg>
