<svg id="Layer_1_1_" fill="#fff" enable-background="new 0 0 64 64" height="512" viewBox="0 0 64 64" width="512" xmlns="http://www.w3.org/2000/svg"><path d="m50 34c-2.757 0-5 2.243-5 5s2.243 5 5 5 5-2.243 5-5-2.243-5-5-5zm0 8c-1.654 0-3-1.346-3-3s1.346-3 3-3 3 1.346 3 3-1.346 3-3 3z"/><path d="m60 42c1.103 0 2-.897 2-2v-2c0-1.103-.897-2-2-2h-1.522c-.105-.298-.226-.589-.361-.873l1.076-1.077c.78-.78.78-2.049 0-2.829l-1.414-1.414c-.778-.779-2.048-.78-2.829 0l-1.077 1.076c-.284-.135-.575-.256-.873-.361v-1.522c0-1.103-.897-2-2-2h-2c-1.103 0-2 .897-2 2v1.522c-.298.105-.589.226-.873.361l-1.077-1.076c-.78-.781-2.05-.78-2.829 0l-1.414 1.414c-.78.78-.78 2.049 0 2.829l1.076 1.077c-.135.284-.256.575-.361.873h-1.522c-1.103 0-2 .897-2 2v2c0 1.103.897 2 2 2h1.522c.105.298.226.589.361.873l-1.076 1.077c-.78.78-.78 2.049 0 2.829l1.414 1.414c.779.78 2.049.781 2.829 0l1.077-1.076c.284.135.575.256.873.361v1.522c0 1.103.897 2 2 2h2c1.103 0 2-.897 2-2v-1.522c.298-.105.589-.226.873-.361l1.077 1.076c.779.78 2.049.779 2.829 0l1.414-1.414c.78-.78.78-2.049 0-2.829l-1.076-1.077c.135-.284.256-.575.361-.873zm-3.821 1.765 1.599 1.6-1.415 1.414-1.599-1.599c-.322-.322-.822-.386-1.215-.154-.56.331-1.165.581-1.799.745-.441.112-.75.511-.75.967v2.262h-2v-2.262c0-.456-.309-.854-.75-.968-.635-.164-1.24-.414-1.799-.745-.158-.093-.333-.139-.508-.139-.259 0-.515.1-.708.293l-1.6 1.599-1.414-1.415 1.599-1.599c.323-.322.386-.823.154-1.215-.331-.56-.581-1.165-.745-1.799-.112-.441-.511-.75-.967-.75h-2.262v-2h2.262c.456 0 .854-.309.968-.75.164-.635.414-1.24.745-1.799.232-.393.168-.893-.154-1.215l-1.599-1.6 1.415-1.414 1.599 1.599c.323.323.823.387 1.215.154.56-.331 1.165-.581 1.799-.745.441-.114.75-.512.75-.968v-2.262h2v2.262c0 .456.309.854.75.968.635.164 1.24.414 1.799.745.392.231.893.167 1.215-.154l1.6-1.599 1.414 1.415-1.599 1.599c-.323.322-.386.823-.154 1.215.331.56.581 1.165.745 1.799.114.441.512.75.968.75h2.262v2h-2.262c-.456 0-.854.309-.968.75-.164.635-.414 1.24-.745 1.799-.232.393-.169.893.154 1.216z"/><path d="m21 22c-2.757 0-5 2.243-5 5s2.243 5 5 5 5-2.243 5-5-2.243-5-5-5zm0 8c-1.654 0-3-1.346-3-3s1.346-3 3-3 3 1.346 3 3-1.346 3-3 3z"/><path d="m31 30c1.103 0 2-.897 2-2v-2c0-1.103-.897-2-2-2h-1.522c-.105-.298-.226-.589-.361-.873l1.076-1.077c.78-.78.78-2.049 0-2.829l-1.414-1.414c-.778-.78-2.048-.78-2.829 0l-1.077 1.076c-.284-.135-.575-.256-.873-.361v-1.522c0-1.103-.897-2-2-2h-2c-1.103 0-2 .897-2 2v1.522c-.298.105-.589.226-.873.361l-1.077-1.076c-.78-.781-2.05-.781-2.829 0l-1.414 1.414c-.78.78-.78 2.049 0 2.829l1.076 1.077c-.135.284-.256.575-.361.873h-1.522c-1.103 0-2 .897-2 2v2c0 1.103.897 2 2 2h1.522c.105.298.226.589.361.873l-1.076 1.077c-.78.78-.78 2.049 0 2.829l1.414 1.414c.78.78 2.05.781 2.829 0l1.077-1.076c.284.135.575.256.873.361v1.522c0 1.103.897 2 2 2h2c1.103 0 2-.897 2-2v-1.522c.298-.105.589-.226.873-.361l1.077 1.076c.779.78 2.049.779 2.829 0l1.414-1.414c.78-.78.78-2.049 0-2.829l-1.076-1.077c.135-.284.256-.575.361-.873zm-3.821 1.765 1.599 1.6-1.415 1.414-1.599-1.599c-.322-.323-.822-.386-1.215-.154-.56.331-1.165.581-1.799.745-.441.112-.75.511-.75.967v2.262h-2v-2.262c0-.456-.309-.854-.75-.968-.635-.164-1.24-.414-1.799-.745-.158-.093-.333-.139-.508-.139-.259 0-.515.1-.708.293l-1.6 1.599-1.414-1.415 1.599-1.599c.323-.322.386-.823.154-1.215-.331-.56-.581-1.165-.745-1.799-.112-.441-.511-.75-.967-.75h-2.262v-2h2.262c.456 0 .854-.309.968-.75.164-.635.414-1.24.745-1.799.232-.393.168-.893-.154-1.215l-1.599-1.6 1.415-1.414 1.599 1.599c.323.323.823.387 1.215.154.56-.331 1.165-.581 1.799-.745.441-.114.75-.512.75-.968v-2.262h2v2.262c0 .456.309.854.75.968.635.164 1.24.414 1.799.745.392.231.893.168 1.215-.154l1.6-1.599 1.414 1.415-1.599 1.599c-.323.322-.386.823-.154 1.215.331.56.581 1.165.745 1.799.114.441.512.75.968.75h2.262v2h-2.262c-.456 0-.854.309-.968.75-.164.635-.414 1.24-.745 1.799-.232.393-.169.893.154 1.216z"/><path d="m42 62v-6c0-2.757-2.243-5-5-5h-.54c.954-1.063 1.54-2.462 1.54-4 0-3.309-2.691-6-6-6s-6 2.691-6 6c0 1.538.586 2.937 1.54 4h-.54c-2.757 0-5 2.243-5 5v6h2v-6c0-1.654 1.346-3 3-3h10c1.654 0 3 1.346 3 3v6zm-14-15c0-2.206 1.794-4 4-4s4 1.794 4 4-1.794 4-4 4-4-1.794-4-4z"/><path d="m26 56h2v6h-2z"/><path d="m36 56h2v6h-2z"/><path d="m48.052 7.266c-.119.355-.029.748.232 1.016l2.647 2.713-.626 3.844c-.062.378.098.758.411.979s.724.243 1.06.058l3.224-1.783 3.224 1.782c.151.083.318.125.484.125.202 0 .404-.062.576-.183.313-.22.473-.601.411-.979l-.626-3.844 2.647-2.713c.262-.268.352-.66.232-1.016s-.427-.615-.797-.671l-3.618-.552-1.627-3.467c-.165-.351-.518-.575-.906-.575s-.741.224-.905.575l-1.627 3.467-3.618.552c-.371.057-.679.317-.798.672zm5.245.673c.33-.051.613-.262.754-.564l.949-2.021.949 2.021c.142.302.425.513.754.564l2.222.339-1.641 1.682c-.222.227-.322.546-.271.859l.376 2.309-1.906-1.053c-.15-.083-.317-.125-.484-.125s-.333.042-.484.125l-1.906 1.053.376-2.309c.051-.313-.049-.632-.271-.859l-1.641-1.682z"/><path d="m23 50v-2h-3c-1.654 0-3-1.346-3-3v-5h-2v5c0 2.757 2.243 5 5 5z"/><path d="m49 56c0 1.654-1.346 3-3 3h-2v2h2c2.757 0 5-2.243 5-5v-3h-2z"/><path d="m20 59h-11c-1.654 0-3-1.346-3-3v-43c0-1.654 1.346-3 3-3h26v2c0 .36.194.693.507.87.153.087.323.13.493.13.178 0 .356-.047.515-.143l5-3c.301-.18.485-.506.485-.857s-.184-.677-.485-.857l-5-3c-.309-.186-.694-.191-1.007-.013-.314.177-.508.51-.508.87v2h-26c-2.757 0-5 2.243-5 5v43c0 2.757 2.243 5 5 5h11zm17-51.234 2.056 1.234-2.056 1.234z"/><path d="m33 21h13c1.654 0 3 1.346 3 3v1h2v-1c0-2.757-2.243-5-5-5h-13z"/></svg>