<svg id="Layer_1" fill="#fff" enable-background="new 0 0 500 500" viewBox="0 0 500 500" xmlns="http://www.w3.org/2000/svg"><path d="m459.677 390.405c-.07-25.662-.63-53.74-.887-79.305-.226-5.889.138-15.306-.123-21.077-.274-5.159 1.482-13.517-5.91-13.954-29.831.675-63.045.392-92.912.741-8.513.23-19.584.215-28.06.375-6.137.795-15.4-1.606-20.444 1.698-4.869 4.965 3.695 10.076 6.521 13.379 10.829 10.603 22.874 22.323 34.429 31.974-6.636 7.766-13.13 15.578-19.761 23.341-7.346.124-14.648.12-21.977.3 5.704-17.189-15.086-31.192-30.639-30.012-15.979-.734-40.251 14.59-30.587 32.598-6.678.523-13.248 1.289-19.928 1.775 3.36-9.19 1.929-18.938-.44-28.266 11.461-6.658 20.456-15.781 30.448-24.35 18.83-16.965 37.629-33.732 55.66-51.622 31.708-30.968 64.149-63.151 95.684-94.395 7.871 7.816 15.743 15.633 23.615 23.451.034.011 12.702 12.678 12.735 12.694 4.3 4.555 12.807 1.178 12.546-5.258-.065-37.456-.742-74.897-.722-112.354.03-6.416-.285-18.463-.168-25.01-.048-6.67-7.131-6.816-12.107-6.45-41.674.176-89.772.816-131.752.679-4.944-.139-7.793 6.514-4.02 9.936 9.482 9.419 28.227 28.196 37.69 37.413-57.403 58.063-115.582 116.181-169.438 177.576-4.244-1.955-8.537-3.788-13.067-5.036 15.443-11.167 21.473-32.177 15.524-50.048-5.582-17.254-23.515-29.9-41.456-25.642.298.265.81.123 1.029.484-.216.448-.959.706-.156.968-.787.189-1.632.048-2.332.514 2.559 2.046 5.998 1.534 8.893 2.684 1.129 1.021 2.57 1.238 4.069 1.65 2.758.893 5.027 2.963 7.299 4.703 11.526 9.451 16.839 26.72 10.536 40.7-7.72 17.963-32.483 25.931-48.746 14.587-20.144-12.605-18.497-41.568-1.544-55.967 3.399-2.193 6.667-4.721 10.716-5.556 1.615-1.347 3.711-1.722 5.521-2.627.416-.548 1.247-.327 1.734-.622.352-.489.931-.617 1.523-.853-1.807-.655-3.055-2.674-5.077-2.918 15.57-8.408 28.054-21.316 41.36-32.924 7.758 8.626 15.813 17.059 23.986 25.416 0 0 13.188 13.602 13.188 13.602 3.956 4.352 12.005 1.322 11.843-4.73.038-12.545.125-25.068.269-37.618.307-32.704.37-67.235.177-99.899-.017-8.165-9.091-7.639-14.904-7.357-12.096.095-24.191.16-36.285.273-29.674.471-59.95.492-89.649.691-6.788-1.256-13.922 4.356-8.356 10.864 5.499 5.565 11.127 11.018 16.785 16.432 6.82 6.829 14.127 13.76 20.928 20.632-22.641 22.649-47.776 48.007-70.105 70.83-2.062 1.637-1.498 5.464-1.537 7.787.114 12.413.14 24.783.322 37.176.038 10.879.273 30.636.351 41.565.132 8.654.471 17.228.885 25.845.59 5.974 6.606 3.868 8.83-.022l.054.022c0-.027.001-.055.001-.082 13.398-14.737 26.465-29.695 39.766-44.506.38 13.296 7.411 26.192 17.955 34.194-33.689 10.239-60.201 39.793-67.117 74.26-4.22 20.861-1.112 42.374-1.612 63.496.11 10.943.035 36.298.104 47.009-.501 12.118 1.362 12.773 13.117 12.163 47.645-.602 95.73-.009 143.198-4.805.68 6.958 8.223 6.643 13.572 6.574 0 .001 14.964.109 14.964.109 20.335.139 45.832-.164 66.241-.374 19.74-.518 39.864-.492 59.622-.71 11.909.25 5.385-19.074 6.691-26.633 18.7-13.244 35.87-28.717 52.37-44.633 7.332 7.392 15.006 15.31 22.272 22.81 0 0 11.175 11.329 11.175 11.329 2.18 2.213 4.667 5.382 8.207 5.185 8.188-.105 7.775-8.702 7.547-14.64.003 0-.134-22.229-.134-22.229zm-354.992-197.292c-7.694 7.451-12.168 17.977-13.097 28.565-13.624 12.253-26.342 25.571-39.736 38.099 1.246-30.888.681-62.913 1.083-93.856 24.136-24.047 49.001-48.307 73.326-72.207 7.865-7.407-8.24-17.165-11.898-22.277 0 .001-16.004-16.289-16.004-16.289s-.645-.639-.645-.639c36.69-.294 75.488.153 112.239-.261.151 35.888-.157 79.266.243 114.903-9.384-8.9-19.097-17.61-28.239-26.806-7.017-9.244-11.264-1.373-16.696 4.375-11.306 11.676-22.482 23.354-32.105 36.495-10.209-1.362-21.293 2.475-28.471 9.898zm149.51 156.095c.02-.111.039-.218.274-.3.742-.392-.253-1.34.168-1.96.765-1.223 1.126-2.572 1.821-3.772.709-.217.782-.301.897-.92 4.731-8.952 16.058-11.385 25.317-10.268 6.857 1.048 11.495 4.598 15.667 9.868.132.713 1.178.793 1.305 1.421.565.193.243.731.833.922.792 1.049 1.032 2.545 1.624 3.76-15.638.076-32.565.59-48.065 2.11.045-.287.107-.575.159-.861zm-58.832-93.759c45.624-43.817 91.389-88.34 136.303-133.047 41.897-43.629 40.728-24.132-.287-68.271 36.712.237 76.975.826 113.614.406.116 36.267-.178 76.38.107 112.764-3.574-3.484-25.278-25.306-29.359-29.315-2.752-2.758-7.222-2.758-9.974 0-12.326 12.417-27.337 27.372-39.553 39.582-26.389 26.143-51.905 52.98-77.357 80.043-20.581 21.224-41.572 41.926-60.346 64.739-6.751-23.708-23.95-43.63-46.016-54.481 4.454-3.797 8.815-8.136 12.868-12.42zm-14.425 11.644c-.04-.019-.08-.041-.12-.06.189-.167.374-.293.58-.449-.156.172-.305.338-.46.509zm.026-1.454c-.188.415-.27.856-.538 1.217-.232-.108-.467-.206-.699-.311.441-.394.867-.743 1.237-.906zm-37.025 10.101c4.404 36.494 11.31 73.235 17.247 109.752-7.129 9.93-15.853 21.451-22.706 31.563-6.794-10.102-14.904-21.649-22.082-31.508 6.977-37.531 13.943-75.852 16.782-113.759 3.298-.187 6.685-.314 9.985-.147.187 1.381.376 2.756.774 4.099zm51.75 173.056c-47.19-1.766-95.102-2.355-142.495-2.424.641-32.081.674-65.884 1.156-97.982 3.124-38.194 35.229-71.598 73.343-76.042-10.744 26.715-14.912 55.516-20.678 83.594-1.181 5.067-3.052 17.267-4.054 22.526-.28 3.529-2.916 9.775-.118 12.958 7.846 11.04 17.451 23.718 25.137 34.753 4.007 5.223 8.859 15.345 16.013 7.411 6.655-9.489 12.85-19.314 19.401-28.87 0 0 9.825-14.193 9.825-14.193 1.29-1.642 1.16-4 .646-5.986-7.538-37.667-13.499-75.986-25.998-112.417 22.059 2.379 42.794 13.445 57.911 29.498 12.534 14.321 18.89 32.554 23.396 50.633-2.831.415-6.459.127-8.809 1.221.607.249 1.603.081 2.082.432-.579.614-1.822.689-.192.975-1.578.229-3.281.123-4.765.634 6.193 2.081 13.028 1.157 19.468 1.517 4.712 1.143 9.756-.063 14.588.336 17.677.757 36.005 1.574 53.756 1.518 10.78.163 24.126.162 34.808.397 8.183 1.184 5.074 8.929 5.515 14.672l-1.055.357c-.396.239-.955-.372-1.327.001-3.071 2.227-7.004 2.505-10.333 4.206-5.423 1.265-11.054 4.347-16.332 6.456-12.484 4.864-24.534 11.884-37.764 14.379-.541-.347-1.507-.167-2.218-.223-.704-.036-1.39-.198-2.127.046-6.706-2.071-13.378-5.602-19.865-8.361-10.146-4.444-20.768-10.309-31.493-12.651-4.788-1.409-9.398-3.968-14.37-4.216.421-9.909-3.268-15.965 8.75-19.732-15.743-5.134-17.197 10.636-17.706 22.239-2.646 24.014-2.286 48.195-2.654 72.332-.473.03-.96.026-1.442.006zm145.495-3.313c-42.41.033-87.331.353-129.838.288.19-21.495-1.892-42.829-2.153-64.311 9.461 9.494 22.448 14.146 34.153 20.262 9.596 3.938 19.579 9.54 29.894 11.255-.069.266.66.367.657.589-.053.073.043.144.056.216.957.193 1.43.359 2.186.513 2.777.091 6.497-.205 8.759-1.946 3.945-.637 7.455-2.794 11.005-4.478 6.47-3.084 14.017-6.475 20.257-9.881 10.157-5.192 20.939-9.694 29.398-17.625-.341 20.985-.842 44.019-.875 65.042-1.167.03-2.332.06-3.499.076zm98.09-48.7c-5.486-5.321-10.732-10.896-16.354-16.081-4.858-4.307-11.591-13.736-17.819-6.006-15.304 17.466-32.223 33.627-46.947 51.606-.226-13.6-.118-36.199-.196-49.771.677-15.441-.687-28.206-19.309-29.007 2.332-2.249 5.086-5.616 7.83-7.357 3.681-2.552 6.301-6.886 9.812-9.723 7.258-5.337 5.865-8.153-.057-13.768-9.006-9.221-17.414-18.99-26.591-28.065 38.109.179 76.984.802 115.131 1.314.411 37.159.188 75.598.43 112.816-1.951-2.01-3.916-4.004-5.93-5.958z"/></svg>