<svg width="100%" height="100%" viewBox="0 -4 104 39" fill="#686672" xmlns="http://www.w3.org/2000/svg" aria-labelledby="googleLogoTitle" role="img"><title id="googleLogoTitle">Google Logo</title><g clip-path="url(#clip0_1901_19145)"><path d="M25.9025 12.2729H13.9124V15.806H22.4517C22.0397 20.7504 17.9194 22.8621 14.0361 22.8621C9.06078 22.8621 4.72416 18.9478 4.72416 13.4678C4.72416 8.12171 8.85476 4.01169 14.0464 4.01169C18.043 4.01169 20.4019 6.56627 20.4019 6.56627L22.874 4.01169C22.874 4.01169 19.7014 0.478528 13.9227 0.478528C6.54739 0.468228 0.851074 6.67958 0.851074 13.3957C0.851074 19.9779 6.20746 26.3849 14.0978 26.3849C21.0405 26.3849 26.1188 21.626 26.1188 14.6008C26.1188 13.1278 25.9025 12.2625 25.9025 12.2729Z" fill="var(--color-navy-500)"></path><path d="M36.0596 9.70703C31.177 9.70703 27.6851 13.5183 27.6851 17.9682C27.6851 22.4799 31.074 26.3736 36.1214 26.3736C40.6846 26.3736 44.4238 22.8816 44.4238 18.0712C44.4238 12.55 40.0665 9.70703 36.0596 9.70703ZM36.1111 12.9827C38.5111 12.9827 40.7876 14.9192 40.7876 18.0506C40.7876 21.1099 38.5214 23.1083 36.1008 23.1083C33.4432 23.1083 31.3418 20.9761 31.3418 18.03C31.3418 15.1355 33.4123 12.9827 36.1111 12.9827Z" fill="var(--color-navy-500)"></path><path d="M54.1787 9.70703C49.2962 9.70703 45.8042 13.5183 45.8042 17.9682C45.8042 22.4799 49.1931 26.3736 54.2405 26.3736C58.8037 26.3736 62.5429 22.8816 62.5429 18.0712C62.5326 12.55 58.1857 9.70703 54.1787 9.70703ZM54.2199 12.9827C56.62 12.9827 58.8964 14.9192 58.8964 18.0506C58.8964 21.1099 56.6303 23.1083 54.2096 23.1083C51.552 23.1083 49.4506 20.9761 49.4506 18.03C49.4506 15.1355 51.5211 12.9827 54.2199 12.9827Z" fill="var(--color-navy-500)"></path><path d="M72.0384 9.71875C67.5575 9.71875 64.0347 13.6433 64.0347 18.0417C64.0347 23.0582 68.1138 26.3853 71.9559 26.3853C74.3357 26.3853 75.5922 25.4377 76.5296 24.3561V26.0042C76.5296 28.8781 74.7886 30.5984 72.1516 30.5984C69.6074 30.5984 68.3301 28.703 67.8871 27.6317L64.6836 28.9708C65.8167 31.3709 68.1035 33.874 72.1825 33.874C76.6327 33.874 80.0317 31.0722 80.0317 25.1904V10.0174H76.5396V11.6346C75.4584 10.481 73.985 9.71875 72.0384 9.71875ZM72.368 12.9841C74.5618 12.9841 76.818 14.8588 76.818 18.0623C76.818 21.3174 74.5725 23.1097 72.3165 23.1097C69.9267 23.1097 67.712 21.1732 67.712 18.0933C67.7017 14.9 70.0091 12.9841 72.368 12.9841Z" fill="var(--color-navy-500)"></path><path d="M95.2462 9.69727C91.0235 9.69727 87.48 13.0553 87.48 18.0203C87.48 23.2634 91.435 26.3845 95.6583 26.3845C99.1811 26.3845 101.344 24.4582 102.642 22.7278L99.7579 20.8118C99.0065 21.9758 97.76 23.1089 95.6791 23.1089C93.3406 23.1089 92.2593 21.8213 91.5896 20.5852L102.766 15.9499L102.189 14.5901C101.097 11.9222 98.5836 9.69727 95.2462 9.69727ZM95.3907 12.9111C96.9149 12.9111 98.0069 13.7249 98.4706 14.6932L91.0128 17.8143C90.6937 15.3936 92.9806 12.9111 95.3907 12.9111Z" fill="var(--color-navy-500)"></path><path d="M85.7813 1.33203H82.3608V25.889H85.7813V1.33203Z" fill="var(--color-navy-500)"></path></g><defs><clipPath id="clip0_1901_19145"><rect width="102.328" height="34.3478" fill="white" transform="translate(0.851074)"></rect></clipPath></defs></svg>