<?xml version="1.0" encoding="iso-8859-1"?>
<!-- Generator: Adobe Illustrator 19.0.0, SVG Export Plug-In . SVG Version: 6.00 Build 0)  -->
<svg fill="white" version="1.1" id="Capa_1" xmlns="http://www.w3.org/2000/svg" xmlns:xlink="http://www.w3.org/1999/xlink" x="0px" y="0px"
	 viewBox="0 0 499.104 499.104" style="enable-background:new 0 0 499.104 499.104;" xml:space="preserve">
<g>
	<g>
		<g>
			<path d="M419.104,129.552v-128h-416v416h26.408c-3.752,5.944-6.944,12.304-9.232,19.168L0,497.552h342.2l-20.28-60.832
				c-2.288-6.856-5.48-13.224-9.232-19.168h106.416v-64h80v-224H419.104z M19.104,17.552h384v48h-384V17.552z M76.864,481.552
				l6.088-30.432l-15.688-3.136l-6.72,33.568H22.208l13.248-39.776c8.464-25.368,30.104-43.856,56.472-48.256l17.328-2.888
				L97.72,419.48l16.232,16.232l-8,24l21.84,21.84H76.864z M150.416,481.552l-26.16-26.168l8-24l-15.76-15.76l11.224-28.064
				l4.472-0.744c0.512,2.152,1.208,4.232,2.056,6.24l18.96,88.496H150.416z M92.816,337.552H67.104v-192h160v68.168
				c-15.224-12.592-34.744-20.168-56-20.168c-48.52,0-88,39.48-88,88v16C83.104,311.96,86.656,325.536,92.816,337.552z
				 M99.104,281.552c0-39.696,32.296-72,72-72s72,32.304,72,72v16c0,39.704-32.296,72-72,72s-72-32.296-72-72V281.552z
				 M172.64,481.552h-3.072l-14.456-67.488c4.912,2.168,10.28,3.488,15.992,3.488c5.712,0,11.08-1.32,15.992-3.488L172.64,481.552z
				 M171.104,401.552c-9.568,0-17.776-5.664-21.632-13.784l-1.136-5.312c7.28,1.952,14.88,3.096,22.768,3.096
				s15.488-1.144,22.768-3.096l-1.136,5.312C188.88,395.888,180.672,401.552,171.104,401.552z M189,481.552l18.96-88.496
				c0.848-2.008,1.544-4.088,2.056-6.24l4.472,0.744l11.224,28.064l-15.768,15.768l8,24l-26.152,26.16H189z M320,481.552h-38.336
				l-6.712-33.568l-15.688,3.144l6.08,30.424h-50.928l21.84-21.832l-8-24l16.232-16.232l-11.536-28.848l17.328,2.888
				c26.368,4.4,48.008,22.888,56.472,48.256L320,481.552z M403.104,401.552H299.648c-12.608-12.256-28.696-20.8-46.744-23.816
				l-34.96-5.824c24.688-15.6,41.16-43.064,41.16-74.36v-16c0-18.768-5.952-36.136-16-50.44v-101.56h-192v224h52.168
				c5.952,7.192,13.064,13.352,20.984,18.36l-34.96,5.824c-18.04,3.016-34.136,11.56-46.736,23.816H19.104v-320h384v16h-96v16h96v16
				h-128v224h128V401.552z M483.104,337.552h-192v-192h192V337.552z"/>
			<path d="M339.104,170.184V312.92l101.952-71.368L339.104,170.184z M355.104,200.912l58.048,40.64l-58.048,40.632V200.912z"/>
			<rect x="35.104" y="33.552" width="16" height="16"/>
			<rect x="67.104" y="33.552" width="16" height="16"/>
			<rect x="99.104" y="33.552" width="16" height="16"/>
			<rect x="275.104" y="97.552" width="16" height="16"/>
		</g>
	</g>
</g>
<g>
</g>
<g>
</g>
<g>
</g>
<g>
</g>
<g>
</g>
<g>
</g>
<g>
</g>
<g>
</g>
<g>
</g>
<g>
</g>
<g>
</g>
<g>
</g>
<g>
</g>
<g>
</g>
<g>
</g>
</svg>
