<svg version="1.2" xmlns="http://www.w3.org/2000/svg" viewBox="0 0 512 512" width="512" height="512">
	<title>Empowered learning experience-svg</title>
	<style>
		.s0 { fill: none;stroke: #000000;stroke-linecap: round;stroke-linejoin: round;stroke-width: 15 } 
	</style>
	<g>
		<filter id="f0">
			<feFlood flood-color="#fffafa" flood-opacity="1" />
			<feBlend mode="normal" in2="SourceGraphic"/>
			<feComposite in2="SourceAlpha" operator="in" />
		</filter>
		<g filter="url(#f0)">
			<path fill-rule="evenodd" class="s0" d="m69.2 61.9l3.3-6.7c9.2-18.6 35.7-18.6 44.9 0l7.6 15.4c3.7 7.4 10.7 12.5 18.9 13.7l8.9 1.3"/>
			<path fill-rule="evenodd" class="s0" d="m177.3 126.7q-1.1 1.5-2.5 2.8l-12.3 12c-5.9 5.8-8.6 14.1-7.2 22.2l2.9 17c3.5 20.4-18 36-36.4 26.4l-15.2-8c-7.3-3.9-16-3.9-23.3 0l-15.2 8c-18.4 9.6-39.9-6-36.4-26.4l2.9-17c1.4-8.1-1.3-16.4-7.2-22.2l-12.3-12c-14.9-14.5-6.7-39.7 13.9-42.7l14.5-2.1"/>
			<path fill-rule="evenodd" class="s0" d="m359 85.6l9.1-1.3c8.2-1.2 15.2-6.3 18.9-13.7l7.6-15.4c9.2-18.6 35.7-18.6 44.9 0l7.6 15.4c3.7 7.4 10.7 12.5 18.9 13.7l17 2.5c20.6 3 28.8 28.2 13.9 42.7l-12.3 12c-5.9 5.8-8.6 14.1-7.2 22.2l2.9 17c3.5 20.4-18 36-36.4 26.4l-15.2-8c-7.3-3.9-16-3.9-23.3 0l-15.2 8c-18.4 9.6-39.9-6-36.4-26.4l2.9-17c1.4-8.1-1.3-16.4-7.2-22.2l-12.3-12q-1.5-1.4-2.7-3"/>
			<path fill-rule="evenodd" class="s0" d="m402 277.3h19c19.7 0 36.2-13.5 40.7-31.8 0.6-2.2-1.1-4.3-3.3-4.3h-404.8c-2.2 0-3.9 2.1-3.3 4.3 4.5 18.3 21 31.8 40.7 31.8h116.8c9.3 0 17.7 5.3 21.7 13.7l18.9 39.1c3 6.4 12.2 6.4 15.3 0l18.8-39.1c4-8.4 12.4-13.7 21.7-13.7h62.9"/>
			<path fill-rule="evenodd" class="s0" d="m282 23.7l8.8 17.8c4.2 8.5 12.4 14.4 21.8 15.8l19.7 2.9c23.7 3.4 33.2 32.6 16 49.4l-14.2 13.9c-6.8 6.6-10 16.2-8.3 25.6l3.3 19.6c4.1 23.7-20.8 41.7-42 30.5l-17.6-9.2c-8.5-4.4-18.5-4.4-27 0l-17.6 9.2c-21.2 11.2-46.1-6.8-42-30.5l3.3-19.6c1.7-9.4-1.5-19-8.3-25.6l-14.2-13.9c-17.2-16.8-7.7-46 16-49.4l19.7-2.9c9.4-1.4 17.6-7.3 21.8-15.8l8.8-17.8c10.6-21.6 41.4-21.6 52 0z"/>
			<g>
				<path fill-rule="evenodd" class="s0" d="m237.4 309.9c-13.7-5.7-34.7-9.1-62.1 1.4-46.1 17.8-52.5 59.9-53.4 73.2-0.1 2.6-1.2 5-3 6.9-10.7 11-44.7 51.7-10.6 93.4 40.5 49.5 83.3-9.6 127.4-12.2 11.2 0 20.3-9.1 20.3-20.2v-114.4"/>
				<g>
					<path fill-rule="evenodd" class="s0" d="m124.2 382.7c12.5 10.9 28.4 17.9 44.9 19.7"/>
					<path fill-rule="evenodd" class="s0" d="m253.6 373.2c-9.2 3.1-19.6 2.8-28.7-0.9-9-3.8-18.9-11.1-20.8-25.3"/>
					<path fill-rule="evenodd" class="s0" d="m253.2 424.6c-12.4-1.3-25.2 1.5-36.1 7.6"/>
					<path fill-rule="evenodd" class="s0" d="m173.1 494.8c-0.8-9.6-5.1-18.9-11.9-25.8-6.9-6.8-16.2-11.2-25.8-12.1"/>
					<path fill-rule="evenodd" class="s0" d="m182.5 379c-9.1 12.5-13 28.6-10.8 43.9"/>
					<path fill-rule="evenodd" class="s0" d="m185.4 344.5c11.5 3.8 24.8 1.7 34.5-5.6"/>
					<path fill-rule="evenodd" class="s0" d="m216 447.2c-0.5-9.8-5.1-19.2-12.4-25.8"/>
				</g>
				<path fill-rule="evenodd" class="s0" d="m274.6 309.9c13.7-5.7 34.7-9.1 62.1 1.4 46.1 17.8 52.5 59.9 53.4 73.2 0.1 2.6 1.2 5 3 6.9 10.7 11 44.7 51.7 10.6 93.4-40.5 49.5-83.3-9.6-127.4-12.2-11.2 0-20.3-9.1-20.3-20.2v-113.5"/>
				<g>
					<path fill-rule="evenodd" class="s0" d="m387.8 382.7c-12.5 10.9-28.4 17.9-44.9 19.7"/>
					<path fill-rule="evenodd" class="s0" d="m258.4 373.2c9.2 3.1 19.6 2.8 28.7-0.9 9-3.8 18.9-11.1 20.8-25.3"/>
					<path fill-rule="evenodd" class="s0" d="m258.8 424.6c12.4-1.3 25.2 1.5 36.1 7.6"/>
					<path fill-rule="evenodd" class="s0" d="m338.9 494.8c0.8-9.6 5.1-18.9 11.9-25.8 6.9-6.8 16.2-11.2 25.8-12.1"/>
					<path fill-rule="evenodd" class="s0" d="m329.5 379c9.1 12.5 13 28.6 10.8 43.9"/>
					<path fill-rule="evenodd" class="s0" d="m326.6 344.5c-11.5 3.8-24.8 1.7-34.5-5.6"/>
					<path fill-rule="evenodd" class="s0" d="m296 447.2c0.5-9.8 5.1-19.2 12.4-25.8"/>
				</g>
			</g>
		</g>
	</g>
</svg>