<svg width="24" height="24" viewBox="0 0 24 24" fill="none" xmlns="http://www.w3.org/2000/svg">
<path fill-rule="evenodd" clip-rule="evenodd" d="M23.2006 14.5993C22.2424 14.0817 21.5974 13.1115 21.5973 12C21.5973 10.8881 22.2429 9.91771 23.2016 9.40024C23.8919 9.0277 24.1803 8.2483 23.8845 7.5548C23.6594 7.02688 23.3914 6.50756 23.0794 6.0007C22.7673 5.49384 22.4217 5.01655 22.0469 4.56967C21.5544 3.98272 20.6904 3.82729 20.0014 4.20168C19.0442 4.72169 17.8254 4.76076 16.7986 4.20483C15.7723 3.64904 15.199 2.64003 15.2002 1.603C15.201 0.857313 14.6275 0.234393 13.8408 0.126538C12.6304 -0.039397 11.3909 -0.0437993 10.1612 0.123186C9.37331 0.230191 8.79836 0.854261 8.7998 1.60094C8.80178 2.63868 8.22838 3.64869 7.20133 4.20483C6.17428 4.76096 4.95494 4.72164 3.99765 4.20118C3.30883 3.82669 2.44516 3.98161 1.95235 4.56812C1.18336 5.48334 0.567715 6.49235 0.115716 7.5585C-0.178024 8.25135 0.110435 9.02865 0.799368 9.40079C1.75761 9.91836 2.4027 10.8885 2.4027 12C2.4027 13.1119 1.75713 14.0824 0.798408 14.5998C0.108142 14.9724 -0.180318 15.7517 0.115449 16.4453C0.340648 16.9732 0.608626 17.4925 0.920608 17.9994C1.23264 18.5062 1.57823 18.9835 1.95315 19.4303C2.44558 20.0173 3.30952 20.1727 3.99861 19.7983C4.95574 19.2784 6.1746 19.2392 7.20133 19.7952C8.22769 20.351 8.80098 21.36 8.7998 22.397C8.79895 23.1426 9.37246 23.7656 10.1592 23.8735C11.3696 24.0394 12.6091 24.0438 13.8387 23.8768C14.6267 23.7698 15.2016 23.1457 15.2002 22.3991C15.1982 21.3613 15.7716 20.3513 16.7986 19.7952C17.8256 19.239 19.045 19.2784 20.0023 19.7988C20.6911 20.1733 21.5548 20.0184 22.0476 19.4318C22.8165 18.5166 23.4321 17.5077 23.8843 16.4416C24.178 15.7487 23.8895 14.9714 23.2006 14.5993ZM14.1773 15.5368C12.0946 16.6646 9.4314 15.9953 8.22896 14.042C7.02653 12.0887 7.74006 9.59099 9.8228 8.46326C11.9055 7.33553 14.5687 8.00478 15.7711 9.95808C16.9735 11.9114 16.26 14.4091 14.1773 15.5368Z" fill="#FC8B20"/>
</svg>
