<svg width="60" height="60" viewBox="0 0 60 60" fill="none" xmlns="http://www.w3.org/2000/svg">
<rect x="0.5" y="0.5" width="59" height="59" rx="29.5" fill="url(#paint0_linear_3798_12835)"/>
<rect x="0.5" y="0.5" width="59" height="59" rx="29.5" stroke="url(#paint1_linear_3798_12835)"/>
<path d="M29.8015 17.4117C27.9532 18.7116 25.8584 20.185 24.736 22.6226C22.7864 26.8753 28.7252 31.5142 28.979 31.7096C29.0382 31.7551 29.1111 31.7791 29.1857 31.7776C29.2603 31.776 29.3322 31.7491 29.3894 31.7011C29.4466 31.6532 29.4858 31.5872 29.5005 31.514C29.5151 31.4409 29.5043 31.3649 29.47 31.2986C29.4485 31.2572 27.3168 27.1166 27.396 24.1461C27.424 23.1115 28.8719 21.9378 30.4047 20.6952C31.8087 19.5571 33.4001 18.2672 34.3312 16.7582C36.3752 13.4366 34.1034 10.1705 34.0802 10.1378C34.0364 10.0764 33.9728 10.0319 33.9001 10.0118C33.8274 9.99176 33.75 9.99736 33.6809 10.0277C33.6119 10.0581 33.5555 10.1114 33.5211 10.1785C33.4868 10.2457 33.4766 10.3227 33.4923 10.3964C33.4969 10.4181 33.9387 12.5779 32.7094 14.8032C32.203 15.7227 31.0901 16.5054 29.8015 17.4117Z" fill="#DB380E"/>
<path d="M37.5884 18.8767C37.6514 18.8292 37.6951 18.7605 37.7115 18.6834C37.728 18.6062 37.7161 18.5257 37.6779 18.4566C37.6398 18.3875 37.578 18.3345 37.504 18.3072C37.4299 18.28 37.3485 18.2804 37.2747 18.3084C36.9607 18.4278 29.5859 21.2705 29.5859 24.7053C29.5859 27.073 30.5973 28.3238 31.3359 29.2372C31.6255 29.5955 31.8756 29.9049 31.958 30.169C32.1901 30.9302 31.6404 32.306 31.4092 32.7719C31.3768 32.8371 31.3669 32.9112 31.3813 32.9826C31.3956 33.054 31.4333 33.1186 31.4885 33.1662C31.5436 33.2138 31.613 33.2416 31.6857 33.2454C31.7584 33.2492 31.8303 33.2286 31.8901 33.187C32.0169 33.0988 34.9891 30.9974 34.456 28.4656C34.2574 27.5033 33.7845 26.8002 33.3673 26.1797C32.7209 25.2184 32.254 24.524 32.9623 23.2415C33.7921 21.7456 37.5503 18.9052 37.5884 18.8767Z" fill="#DB380E"/>
<path d="M18.3928 33.3002C18.2664 33.6788 18.3261 34.0542 18.5652 34.3864C19.3647 35.4963 22.1965 36.1074 26.5393 36.1074H26.5398C27.1283 36.1074 27.7495 36.0959 28.3859 36.0731C35.3293 35.8246 37.9046 33.6614 38.0108 33.5695C38.0669 33.5208 38.1047 33.4545 38.1182 33.3815C38.1317 33.3085 38.12 33.2331 38.0851 33.1676C38.0501 33.1021 37.994 33.0504 37.9259 33.021C37.8577 32.9915 37.7816 32.9861 37.71 33.0055C35.2646 33.6731 30.6984 33.9102 27.5312 33.9102C23.9872 33.9102 22.1823 33.6549 21.7405 33.4663C21.9672 33.155 23.3656 32.5991 25.0985 32.2582C25.1783 32.2424 25.2494 32.1975 25.298 32.1321C25.3465 32.0668 25.369 31.9858 25.3611 31.9048C25.3533 31.8238 25.3155 31.7486 25.2553 31.6939C25.1951 31.6392 25.1166 31.6088 25.0352 31.6087C24.0194 31.6087 18.9253 31.6902 18.3928 33.3002ZM41.6268 31.0723C40.1947 31.0723 38.8366 31.7901 38.7794 31.8205C38.7151 31.855 38.6642 31.91 38.6346 31.9768C38.6051 32.0436 38.5987 32.1183 38.6164 32.1891C38.6342 32.2599 38.675 32.3228 38.7325 32.3678C38.79 32.4128 38.8609 32.4373 38.9339 32.4375C38.9643 32.4375 41.9887 32.4623 42.2626 34.1903C42.5053 35.6811 39.401 38.0966 38.1843 38.9016C38.1207 38.9438 38.0738 39.0068 38.0517 39.0798C38.0295 39.1529 38.0336 39.2314 38.0631 39.3018C38.0926 39.3721 38.1458 39.43 38.2134 39.4654C38.2811 39.5008 38.3589 39.5115 38.4336 39.4957C38.7223 39.4339 45.4966 37.941 44.7803 33.9969C44.3434 31.5797 42.8241 31.0723 41.6268 31.0723ZM36.9811 38.4189C36.9926 38.3571 36.9861 38.2932 36.9623 38.2349C36.9385 38.1766 36.8984 38.1264 36.8469 38.0903L35.2226 36.9525C35.1835 36.9252 35.1388 36.9067 35.0918 36.8984C35.0448 36.89 34.9965 36.892 34.9504 36.9042C34.9334 36.9085 33.2348 37.3551 30.7687 37.6289C29.7899 37.7387 28.6937 37.7967 27.5982 37.7967C25.1327 37.7967 23.5207 37.507 23.2859 37.2945C23.2548 37.2348 23.2647 37.2077 23.2702 37.1926C23.3129 37.074 23.5415 36.9331 23.6888 36.8773C23.7676 36.8485 23.8323 36.7907 23.8697 36.7156C23.9071 36.6406 23.9143 36.5541 23.8899 36.4739C23.8655 36.3937 23.8113 36.3259 23.7384 36.2844C23.6655 36.243 23.5795 36.231 23.4981 36.251C21.8687 36.6442 21.072 37.1941 21.13 37.8853C21.233 39.1107 24.0714 39.7397 26.471 39.906C26.8161 39.9296 27.1893 39.9415 27.58 39.9415H27.5806C31.5708 39.9415 36.6861 38.6896 36.7372 38.6768C36.7984 38.6619 36.8539 38.6296 36.8972 38.5838C36.9404 38.5381 36.9696 38.4808 36.9811 38.4189ZM24.7353 41.0489C24.7952 41.01 24.8406 40.9525 24.8648 40.8854C24.889 40.8182 24.8905 40.7449 24.8692 40.6768C24.8257 40.5367 24.6947 40.4446 24.5475 40.4466C24.3291 40.4524 22.4108 40.5389 22.2766 41.7603C22.2359 42.1253 22.3405 42.4588 22.5874 42.7514C23.2762 43.5676 25.1354 44.0528 28.2703 44.2345C28.6412 44.2568 29.0179 44.2679 29.3902 44.2679C33.3757 44.2679 36.06 43.02 36.1724 42.9669C36.2259 42.9416 36.2715 42.9024 36.3045 42.8533C36.3375 42.8041 36.3566 42.747 36.3597 42.6879C36.3629 42.6289 36.35 42.57 36.3224 42.5177C36.2949 42.4653 36.2537 42.4214 36.2032 42.3906L34.1504 41.1375C34.0792 41.0942 33.9943 41.0795 33.9127 41.0963C33.8997 41.099 32.5964 41.3693 30.6294 41.6364C30.2572 41.687 29.7911 41.7127 29.2442 41.7127C27.2794 41.7127 25.0939 41.3917 24.6748 41.1814C24.6687 41.1422 24.6764 41.0924 24.7353 41.0489Z" fill="#73A1FB"/>
<path d="M27.5325 48.0358C36.6618 48.0281 41.5616 46.4045 42.5055 45.3829C42.8396 45.0215 42.8757 44.6793 42.8474 44.4558C42.7772 43.9058 42.2762 43.5691 42.2194 43.5325C42.0824 43.4444 41.8985 43.4674 41.7916 43.5907C41.6849 43.714 41.6824 43.8941 41.7895 44.0173C41.847 44.0914 41.8803 44.2154 41.712 44.3839C41.3346 44.7363 37.5287 45.8061 31.1919 46.1275C30.3239 46.1726 29.4134 46.1955 28.486 46.1957C22.8123 46.1957 18.66 45.4185 18.1149 44.9657C18.325 44.6638 19.7938 44.1816 21.3557 43.9087C21.4416 43.8954 21.5188 43.8486 21.5702 43.7784C21.6215 43.7082 21.6429 43.6205 21.6296 43.5346C21.6163 43.4487 21.5694 43.3715 21.4993 43.3202C21.4291 43.2688 21.3414 43.2474 21.2555 43.2607C21.2114 43.2667 21.0619 43.2756 20.8888 43.2862C18.3116 43.4436 15.3333 43.7943 15.178 45.1222C15.1308 45.5268 15.251 45.8941 15.5355 46.2138C16.2315 46.9959 18.232 48.0356 27.5322 48.0356L27.5325 48.0358Z" fill="#73A1FB"/>
<path d="M44.2974 45.67C44.2346 45.6409 44.1643 45.6325 44.0964 45.6458C44.0285 45.6592 43.9666 45.6937 43.9196 45.7444C43.9062 45.7588 42.5337 47.1941 38.4068 48.0369C36.8268 48.3535 33.8612 48.514 29.5922 48.514C25.3152 48.514 21.2454 48.3457 21.2049 48.344C21.0349 48.3357 20.8895 48.4593 20.8664 48.6267C20.8552 48.7074 20.8745 48.7894 20.9205 48.8567C20.9665 48.9239 21.0359 48.9717 21.1151 48.9906C21.1575 49.0006 25.4226 49.9998 31.2542 49.9998C34.0511 49.9998 36.7728 49.7727 39.3439 49.3244C44.1377 48.484 44.4733 46.107 44.4853 46.0062C44.4934 45.9375 44.4797 45.868 44.4459 45.8076C44.4122 45.7472 44.3602 45.6991 44.2974 45.67Z" fill="#73A1FB"/>
<defs>
<linearGradient id="paint0_linear_3798_12835" x1="30" y1="0" x2="30" y2="65.9224" gradientUnits="userSpaceOnUse">
<stop offset="0.490274" stop-color="white"/>
<stop offset="1" stop-color="white" stop-opacity="0"/>
</linearGradient>
<linearGradient id="paint1_linear_3798_12835" x1="30" y1="0" x2="30" y2="49.9512" gradientUnits="userSpaceOnUse">
<stop stop-color="#FC8B20"/>
<stop offset="1" stop-color="#FC8B20" stop-opacity="0"/>
</linearGradient>
</defs>
</svg>
