<svg width="76" height="76" viewBox="0 0 76 76" fill="none" xmlns="http://www.w3.org/2000/svg">
<rect width="75.7088" height="76" rx="37.8544" fill="#FC8B20"/>
<g clip-path="url(#clip0_3771_11200)">
<path d="M55.0491 25.3084H50.5035V22.581C50.5035 22.079 50.0967 21.6719 49.5944 21.6719H44.1399C43.6379 21.6719 43.2308 22.0787 43.2308 22.581V25.3084H32.3217V22.581C32.3217 22.079 31.9149 21.6719 31.4126 21.6719H25.9581C25.4561 21.6719 25.049 22.0787 25.049 22.581V25.3084H20.5037C18.998 25.3099 17.7779 26.53 17.7764 28.0354V51.6719C17.7779 53.1774 18.998 54.3975 20.5037 54.3993H55.0491C56.5545 54.3975 57.7746 53.1774 57.7765 51.6719V28.0354C57.7746 26.53 56.5548 25.3099 55.0491 25.3084ZM45.0491 23.4901H48.6856V28.9445H45.0491V23.4901ZM26.8673 23.4901H30.5037V28.9445H26.8673V23.4901ZM55.9582 51.6719C55.9573 52.1736 55.5508 52.5801 55.0491 52.5811H20.5037C20.0017 52.5804 19.5952 52.1736 19.5946 51.6719V28.0354C19.5949 27.5334 20.0017 27.1266 20.5037 27.1263H25.049V29.8537C25.049 30.3557 25.4561 30.7628 25.9581 30.7628H31.4129C31.9149 30.7628 32.322 30.3557 32.322 29.8537V27.1263H43.2311V29.8537C43.2311 30.3557 43.6379 30.7628 44.1403 30.7628H49.5947C50.0967 30.7628 50.5038 30.3557 50.5038 29.8537V27.1263H55.0494C55.5511 27.1269 55.9576 27.5337 55.9585 28.0354V51.6719H55.9582Z" fill="white"/>
<path d="M32.1932 41.7991C32.8594 40.9965 33.2262 39.9876 33.2305 38.9445C33.2305 36.4341 31.1956 34.3989 28.6852 34.3989C26.1748 34.3989 24.1396 36.4341 24.1396 38.9445C24.1442 39.9876 24.5107 40.9965 25.1769 41.7991C24.0255 42.1413 23.2344 43.1978 23.2305 44.3993V48.0354C23.2305 48.5374 23.6376 48.9445 24.1396 48.9445H33.2305C33.7325 48.9445 34.1396 48.5377 34.1396 48.0354V44.3993C34.1356 43.1978 33.3446 42.1413 32.1932 41.7991ZM28.6852 36.2172C30.1915 36.2172 31.4126 37.4382 31.4126 38.9445C31.4126 40.4509 30.1915 41.6719 28.6852 41.6719C27.1788 41.6719 25.9578 40.4509 25.9578 38.9445C25.9597 37.4391 27.1795 36.219 28.6852 36.2172ZM32.3214 47.1263H25.0487V44.3993C25.0493 43.8972 25.4561 43.4907 25.9578 43.4901H31.4126C31.9143 43.4907 32.3208 43.8972 32.3217 44.3993V47.1263H32.3214Z" fill="white"/>
<path d="M51.4129 40.7627H38.6855C38.1835 40.7627 37.7764 41.1695 37.7764 41.6718C37.7764 42.1738 38.1835 42.5809 38.6855 42.5809H51.4129C51.9149 42.5809 52.322 42.1738 52.322 41.6718C52.322 41.1695 51.9149 40.7627 51.4129 40.7627Z" fill="white"/>
<path d="M51.4129 36.2173H38.6855C38.1835 36.2173 37.7764 36.6244 37.7764 37.1264C37.7764 37.6287 38.1835 38.0355 38.6855 38.0355H51.4129C51.9149 38.0355 52.322 37.6287 52.322 37.1264C52.322 36.6244 51.9149 36.2173 51.4129 36.2173Z" fill="white"/>
<path d="M51.4129 45.3086H38.6855C38.1835 45.3086 37.7764 45.7154 37.7764 46.2177C37.7764 46.7197 38.1835 47.1265 38.6855 47.1265H51.4129C51.9149 47.1265 52.322 46.7197 52.322 46.2177C52.3217 45.7154 51.9149 45.3086 51.4129 45.3086Z" fill="white"/>
</g>
<defs>
<clipPath id="clip0_3771_11200">
<rect width="40" height="40" fill="white" transform="translate(17.8545 18)"/>
</clipPath>
</defs>
</svg>
