<svg width="20" height="20" viewBox="0 0 20 20" fill="none" xmlns="http://www.w3.org/2000/svg">
<path d="M5.41797 7.91797H1.66797V18.3346H5.41797V7.91797Z" fill="white"/>
<path d="M5.41797 3.54297C5.41797 4.5785 4.5785 5.41797 3.54297 5.41797C2.50744 5.41797 1.66797 4.5785 1.66797 3.54297C1.66797 2.50744 2.50744 1.66797 3.54297 1.66797C4.5785 1.66797 5.41797 2.50744 5.41797 3.54297Z" fill="white"/>
<path d="M11.6681 7.91797H7.91797V18.3346H11.6681V13.1265C11.6681 12.3211 12.3209 11.6681 13.1263 11.6681C13.9317 11.6681 14.5846 12.3211 14.5846 13.1265V18.3346H18.3336L18.3347 11.6681C18.3347 9.59714 16.365 7.91817 14.4153 7.91817C13.3054 7.91817 12.3152 8.46222 11.6681 9.31297V7.91797Z" fill="white"/>
</svg>
