<svg width="74" height="74" viewBox="0 0 74 74" fill="none" xmlns="http://www.w3.org/2000/svg">
<g clip-path="url(#clip0_3937_3401)">
<path d="M37.124 25.8168C38.1425 25.8168 38.9674 24.9914 38.9674 23.9735C38.9674 22.9555 38.1425 22.1301 37.124 22.1301C28.9801 22.1301 22.3779 28.7323 22.3779 36.8768C22.3779 45.0208 28.9801 51.6229 37.124 51.6229C45.2686 51.6229 51.8707 45.0208 51.8707 36.8768C51.8707 35.8583 51.0453 35.0335 50.0274 35.0335C49.0095 35.0335 48.1841 35.8583 48.1841 36.8768C48.1841 42.9849 43.2327 47.9368 37.124 47.9368C31.0159 47.9368 26.064 42.9849 26.064 36.8768C26.064 30.7681 31.0159 25.8168 37.124 25.8168Z" fill="#FC8B20"/>
<path d="M72.2943 25.9281C71.9742 24.961 70.9309 24.4365 69.9632 24.7566C69.0181 25.0694 68.4919 26.0755 68.7736 27.0302C74.2861 44.5845 64.5246 63.2837 46.9703 68.7962C29.4166 74.3088 10.7173 64.5473 5.20479 46.993C-0.308276 29.4386 9.45378 10.7394 27.0075 5.22686C33.5058 3.18649 40.4726 3.18649 46.9703 5.22686C47.9459 5.521 48.9751 4.96885 49.2693 3.99327C49.5589 3.03236 49.0276 2.01669 48.0729 1.70617C28.581 -4.4093 7.8216 6.43449 1.70613 25.927C-4.40935 45.4189 6.435 66.1783 25.9269 72.2938C45.4194 78.4093 66.1783 67.5655 72.2937 48.073C74.5554 40.8645 74.5554 33.1366 72.2943 25.9281Z" fill="#FC8B20"/>
<path d="M40.634 13.1692C40.6436 12.1196 39.8374 11.2423 38.7907 11.1638C38.2402 11.1169 37.6892 11.0701 37.1241 11.0701C22.8714 11.0701 11.3174 22.6241 11.3174 36.8768C11.3174 51.1289 22.8714 62.6829 37.1241 62.6829C51.3762 62.6829 62.9302 51.1289 62.9302 36.8768C62.9302 36.21 62.8896 35.5438 62.8077 34.8821C62.6603 33.8704 61.7209 33.1698 60.7092 33.3171C59.6975 33.4639 58.9968 34.4039 59.1436 35.4156C59.1493 35.454 59.156 35.4919 59.1639 35.5303C59.204 35.9768 59.2435 36.4195 59.2435 36.8756C59.2441 49.0925 49.3409 58.9957 37.1246 58.9968C24.9078 58.9974 15.0046 49.0936 15.0041 36.8773C15.0035 24.6611 24.9061 14.7573 37.123 14.7567H37.1235C37.5808 14.7567 38.024 14.7963 38.4695 14.8358L38.815 14.8646C39.7781 14.9058 40.5923 14.1583 40.6329 13.1951C40.6335 13.1861 40.6335 13.1776 40.634 13.1692Z" fill="#FC8B20"/>
<path d="M48.1836 16.6003V23.2103L35.8205 35.5734C35.0883 36.2808 35.068 37.4478 35.7754 38.18C36.4828 38.9123 37.6498 38.9326 38.382 38.2252C38.3973 38.2105 38.4125 38.1953 38.4272 38.18L50.7902 25.817H57.4003C57.8892 25.817 58.3578 25.6228 58.7039 25.2767L69.7633 14.2167C70.4832 13.4968 70.4832 12.3299 69.7633 11.61C69.4178 11.2645 68.9492 11.0703 68.4603 11.0703H62.9303V5.54028C62.9303 4.52235 62.1049 3.69695 61.0864 3.69751C60.598 3.69751 60.1294 3.89172 59.7839 4.23724L48.7239 15.2973C48.3778 15.6428 48.1836 16.1114 48.1836 16.6003ZM51.8703 17.3636L59.2436 9.99026V12.9136C59.2436 13.9316 60.069 14.757 61.087 14.757H64.0103L56.637 22.1303H51.8703V17.3636Z" fill="#FC8B20"/>
</g>
<defs>
<clipPath id="clip0_3937_3401">
<rect width="74" height="74" fill="white"/>
</clipPath>
</defs>
</svg>
