<svg id="Layer_1" enable-background="new 0 0 512 512" height="512" fill="#2E2E2E" viewBox="0 0 512 512" width="512" xmlns="http://www.w3.org/2000/svg"><g id="Layer_2_00000137843987331469612250000003026467428492102033_"><g id="menu"><path d="m121.2 244.3c-55.4.4-116.2 7.5-120.8-66 .2-21.5 0-42.7 0-64.1 1.3-32-7.4-71.1 18.6-95.4 12.1-12 28.4-18.6 45.4-18.5 26.7-.1 52.8-.1 77.6-.1h39.4c33.9.1 62 28.2 62.6 62.8.7 41.3.7 79.7 0 117.2-.7 35.9-28.4 63.3-64.5 63.7-19.6.3-39.2.4-58.3.4zm-.6-192.2c-18.7 0-36.1 0-53 .1-10.7 0-15.2 4.7-15.2 15.4-.1 35-.1 71.9 0 109.4 0 9.6 4.5 14.1 14 14.1 37.4.1 74.8.1 112.2 0 8.4 0 12.7-4.4 12.8-12.9.1-24.3 0-48.3 0-72.4.1-70.2 6.9-50.7-70.8-53.7z"/><path d="m389.7 244.3c-19.2 0-38.4-.1-57-.4-35.6.2-64.6-28.6-64.8-64.2 0-.3 0-.5 0-.8-.5-40.7-.5-78.2 0-114.5-.1-35.3 28.5-64.1 63.8-64.2h.8c38.3-.3 76.5-.3 116.5 0 33.1-.5 62.9 29.6 62.5 62.7.2 22.3 0 44.2 0 66.3-1.1 32 6.9 71.7-18.7 95.9-26 27.4-69.3 17.1-103.1 19.2zm33.6-53c12-1.6 36.1 6.2 36.3-13.1.2-33.8.2-70.7 0-112.8 0-8-5.3-13.2-13.3-13.2-37.5-.2-74.9-.2-112.1 0-9 0-13.6 4.8-13.6 14v111.5c0 9.4 4.2 13.6 13.6 13.6 31.6-.1 57.8-.1 89.1 0z"/><path d="m179.2 511.8c-30-.7-62.4.1-92.8-.1-23.8 1.1-50.4-.2-67.4-18.7-16.5-15.3-20.1-39.4-18.7-61.4-.1-32.9-.1-66.9.2-100.4.1-28.6 19.4-53.5 47-60.8 25.8-5.2 49.9-1.6 78.9-2.7 16.7 0 33.3 0 50 .1 69.2 3.6 70.1 56.7 67.8 111.8 0 21.2-.1 43.2.1 64.8.9 36.2-28.9 68-65.1 67.4zm-56.2-191.2c-18.9 0-37.8 0-56.7 0-6.3 0-13.9 2.3-14 12.9-.3 37-.3 74.9 0 112.8.1 8.3 5.2 13.3 13.8 13.4 36.8.1 73.8.1 110.7 0 9.9 0 14.3-4.5 14.4-14.6 0-12.8 0-25.8 0-38.3-.1-24.2.1-48.8 0-73.1 0-8.6-4.4-13-12.9-13-18.4-.1-36.8-.1-55.3-.1z"/><path d="m389.9 511.8c-106.8.6-163.2-132.6-86.2-207.9 45.5-47.5 126.9-48.1 172.4-.2 76.3 75.4 21.2 208.8-86.2 208.1zm0-191.2c-92 2.6-91 136-.5 139 92.2-2.9 93.3-136.2.5-139z"/></g></g></svg>