<svg width="64" height="64" viewBox="0 0 64 64" fill="none" xmlns="http://www.w3.org/2000/svg">
<path d="M40.7404 38.8403C49.5327 38.8403 56.6604 31.7128 56.6604 22.9204C56.6604 14.128 49.5327 7 40.7404 7C31.948 7 24.8203 14.128 24.8203 22.9204C24.8203 31.7128 31.948 38.8403 40.7404 38.8403Z" fill="#00C5A1"/>
<path d="M26.73 57C37.6266 57 46.46 48.1666 46.46 37.27C46.46 26.3734 37.6266 17.54 26.73 17.54C15.8334 17.54 7 26.3734 7 37.27C7 48.1666 15.8334 57 26.73 57Z" fill="#BDEA09"/>
<path d="M23.4103 43.1504C23.7557 43.7406 24.2502 44.2297 24.8443 44.5684C25.4383 44.9071 26.1111 45.0839 26.7949 45.0806C27.4788 45.0773 28.1497 44.8938 28.7405 44.5494C29.3313 44.2049 29.8212 43.7112 30.1609 43.1177C30.5006 42.5242 30.6782 41.8519 30.676 41.168C30.6739 40.4842 30.4919 39.8131 30.1485 39.2217C29.805 38.6304 29.3121 38.1396 28.7191 37.7989C28.1262 37.4582 27.4541 37.2793 26.7703 37.2803H26.7002C26.0164 37.2813 25.3443 37.1025 24.7514 36.7618C24.1584 36.4211 23.6655 35.9307 23.322 35.3394C22.9786 34.7481 22.7966 34.0765 22.7945 33.3926C22.7923 32.7088 22.9699 32.0364 23.3096 31.4429C23.6493 30.8494 24.1392 30.3557 24.73 30.0113C25.3208 29.6668 25.9917 29.4838 26.6756 29.4805C27.3594 29.4772 28.0322 29.654 28.6262 29.9927C29.2203 30.3315 29.7148 30.8205 30.0602 31.4107" stroke="#0B0B0B" stroke-miterlimit="10" stroke-linecap="round"/>
<path d="M26.7305 45.0703V47.1904" stroke="#0B0B0B" stroke-miterlimit="10" stroke-linecap="round"/>
<path d="M26.7305 27.3604V29.4805" stroke="#0B0B0B" stroke-miterlimit="10" stroke-linecap="round"/>
<path d="M26.7302 53.2407C35.5502 53.2407 42.7002 46.0905 42.7002 37.2705C42.7002 28.4505 35.5502 21.3008 26.7302 21.3008C17.9102 21.3008 10.7603 28.4505 10.7603 37.2705C10.7603 46.0905 17.9102 53.2407 26.7302 53.2407Z" stroke="#0B0B0B" stroke-miterlimit="10" stroke-linecap="round"/>
</svg>
