<?xml version="1.0" encoding="utf-8"?>
<svg xmlns="http://www.w3.org/2000/svg" width="56" height="57" viewBox="0 0 56 57" fill="none">
<g clip-path="url(#clip0_1983_24724)">
<g filter="url(#filter0_d_1983_24724)">
<path d="M28 52.6602C41.531 52.6602 52.5 41.6911 52.5 28.1602C52.5 14.6292 41.531 3.66016 28 3.66016C14.469 3.66016 3.5 14.6292 3.5 28.1602C3.5 41.6911 14.469 52.6602 28 52.6602Z" fill="white"/>
</g>
<path fill-rule="evenodd" clip-rule="evenodd" d="M34.1393 23.1602C34.5494 24.3457 34.8442 25.556 34.9415 26.8101C35.0618 28.3664 35.007 29.9119 34.6788 31.4424L34.6367 31.5648C34.5337 31.5651 34.4288 31.5521 34.3282 31.5678C33.4782 31.7015 32.6292 31.8398 31.7799 31.9776C30.9018 32.1199 30.0231 32.2566 29.1467 32.4084C28.8362 32.4619 28.4518 32.398 28.3265 32.8272L28.2663 32.8476L28.3087 30.2813L28.2656 24.089L28.6747 24.0188C29.3436 23.9095 30.0124 23.7982 30.6822 23.6916C31.4811 23.5649 32.2806 23.4413 33.0801 23.3176C33.4331 23.2634 33.7864 23.213 34.1393 23.1602Z" fill="#439934"/>
<path fill-rule="evenodd" clip-rule="evenodd" d="M27.418 40.3332C26.9865 39.9621 26.5399 39.6075 26.1265 39.2171C23.9011 37.118 22.2729 34.647 21.4711 31.6678C21.2502 30.8483 21.1031 30.015 21.0556 29.168C21.0222 28.5751 20.9744 27.9771 21.0165 27.3872C21.1278 25.8185 21.3548 24.265 21.8147 22.7538L21.8401 22.7188C21.8849 22.7782 21.9491 22.8311 21.9718 22.8982C22.421 24.2205 22.8666 25.5441 23.3101 26.8687C24.7036 31.0304 26.0954 35.1931 27.4912 39.3541C27.5186 39.4354 27.5891 39.5019 27.6399 39.5751L27.418 40.3332Z" fill="#45A538"/>
<path fill-rule="evenodd" clip-rule="evenodd" d="M34.1371 23.1602C33.7838 23.2127 33.4305 23.2635 33.0779 23.3176C32.2784 23.4413 31.4788 23.565 30.68 23.6916C30.0105 23.7979 29.3417 23.9092 28.6725 24.0189L28.2634 24.0891L28.2601 23.8223C28.2464 23.6031 28.2236 23.3838 28.2206 23.1645L28.1748 18.9684C28.1641 18.093 28.1481 17.2176 28.1304 16.3426C28.1193 15.7988 28.1076 15.2546 28.0832 14.7115C28.0699 14.4197 28.0227 14.1292 28.004 13.8374C27.993 13.6696 28.0077 13.5005 28.0114 13.332C28.22 13.7361 28.4242 14.1432 28.6384 14.5443C28.977 15.1784 29.5168 15.6457 30.0032 16.1554C31.9237 18.1712 33.2871 20.5136 34.1371 23.1602Z" fill="#46A037"/>
<path fill-rule="evenodd" clip-rule="evenodd" d="M28.262 32.8481L28.3221 32.8278C28.4475 32.3986 28.8319 32.4624 29.1424 32.4089C30.0188 32.2572 30.8975 32.1205 31.7755 31.9781C32.6249 31.8407 33.4738 31.7023 34.3238 31.5683C34.4244 31.5526 34.5294 31.5656 34.6323 31.5653C34.4736 32.1322 34.3486 32.7114 34.147 33.2626C33.9181 33.8876 33.6413 34.498 33.3475 35.0963C32.9083 35.9904 32.3611 36.8247 31.7254 37.5891C31.2354 38.178 30.6893 38.7232 30.1421 39.261C29.8393 39.5581 29.483 39.8004 29.1507 40.0678L29.0645 40.009L28.7546 39.7443L28.4341 39.041C28.2132 38.2181 28.0975 37.3805 28.0781 36.5289L28.0841 36.3858L28.1279 35.7661C28.1423 35.5545 28.1617 35.3433 28.1707 35.1317C28.2028 34.371 28.2315 33.6096 28.262 32.8481Z" fill="#409433"/>
<path fill-rule="evenodd" clip-rule="evenodd" d="M28.2588 32.8509C28.2287 33.6123 28.2 34.374 28.1675 35.1354C28.1585 35.3474 28.1395 35.5586 28.1248 35.7698L27.9296 35.8437C27.4957 34.5666 27.0615 33.3028 26.637 32.036C25.9348 29.9399 25.2412 27.8409 24.54 25.7441C23.9741 24.0522 23.4032 22.3612 22.8293 20.6716C22.8022 20.5927 22.7254 20.5306 22.6719 20.4607L23.922 18.1621C23.9651 18.2366 24.0216 18.3065 24.0486 18.3867C24.6269 20.0981 25.2041 21.8097 25.7764 23.5231C26.5211 25.7525 27.2607 27.9829 28.0048 30.2127C28.0345 30.3016 28.0833 30.3838 28.1301 30.4837L28.3012 30.2845C28.2869 31.1402 28.2728 31.9952 28.2588 32.8509Z" fill="#4FAA41"/>
<path fill-rule="evenodd" clip-rule="evenodd" d="M22.6794 20.4609C22.7332 20.5308 22.8101 20.593 22.8368 20.6718C23.4107 22.3615 23.9816 24.0521 24.5475 25.7444C25.2487 27.8411 25.9423 29.9401 26.6445 32.0362C27.069 33.303 27.5032 34.5664 27.937 35.8439L28.1322 35.7701L28.0885 36.3897L28.0487 36.5325C27.9808 37.2106 27.9237 37.8902 27.8408 38.567C27.7993 38.9063 27.7108 39.2392 27.6436 39.5748C27.5931 39.5016 27.5222 39.4351 27.4948 39.3538C26.0987 35.1928 24.7072 31.0301 23.3138 26.8684C22.8702 25.5438 22.4243 24.2202 21.9754 22.8979C21.9527 22.8307 21.8885 22.7779 21.8438 22.7184L22.6794 20.4609Z" fill="#4AA73C"/>
<path fill-rule="evenodd" clip-rule="evenodd" d="M28.3012 30.2849L28.13 30.4841C28.0832 30.3841 28.0344 30.3019 28.0047 30.213C27.2607 27.9833 26.521 25.7528 25.7763 23.5234C25.204 21.8101 24.6268 20.0984 24.0486 18.3871C24.0215 18.3069 23.965 18.237 23.9219 18.1625L25.4678 16.1289C25.5166 16.1937 25.5861 16.2516 25.6112 16.3248C26.0403 17.5815 26.4655 18.8393 26.8886 20.0981C27.2837 21.2739 27.6728 22.4512 28.0725 23.625C28.0993 23.7036 28.1925 23.7591 28.2547 23.8259L28.258 24.0926L28.3012 30.2849Z" fill="#57AE47"/>
<path fill-rule="evenodd" clip-rule="evenodd" d="M28.2557 23.8242C28.1932 23.7577 28.1003 23.7022 28.0735 23.6233C27.6741 22.4495 27.2847 21.2722 26.8896 20.0964C26.4665 18.8376 26.0413 17.5798 25.6121 16.3231C25.5871 16.2499 25.5175 16.192 25.4688 16.1272C25.9715 15.6349 26.4585 15.1248 26.9815 14.6552C27.4465 14.238 27.8202 13.7908 27.8375 13.1314L27.8743 13L28.0067 13.3336C28.0033 13.502 27.9883 13.6712 27.9993 13.839C28.0184 14.1308 28.0655 14.4212 28.0785 14.713C28.1029 15.2562 28.1146 15.8003 28.1257 16.3441C28.1434 17.2192 28.1594 18.0946 28.1701 18.97L28.2159 23.1661C28.2193 23.3857 28.2423 23.6049 28.2557 23.8242Z" fill="#60B24F"/>
<path fill-rule="evenodd" clip-rule="evenodd" d="M27.6441 39.5743C27.7113 39.2387 27.7999 38.9058 27.8414 38.5665C27.9242 37.89 27.9814 37.2102 28.0493 36.532L28.0663 36.5293L28.083 36.5323C28.1024 37.384 28.218 38.2216 28.439 39.0445C28.3939 39.104 28.3307 39.1565 28.3066 39.2233C28.1211 39.7467 27.946 40.2745 27.7595 40.7976C27.7341 40.8691 27.6625 40.925 27.6127 40.9875L27.4219 40.3323L27.6441 39.5743Z" fill="#A9AA88"/>
<path fill-rule="evenodd" clip-rule="evenodd" d="M27.6094 40.9859C27.6592 40.9231 27.7307 40.8676 27.7561 40.7961C27.9426 40.273 28.1178 39.7452 28.3033 39.2218C28.327 39.1549 28.3905 39.1025 28.4356 39.043L28.7562 39.7462C28.693 39.8358 28.6054 39.917 28.5703 40.017L27.9567 41.8192C27.9313 41.8917 27.8454 41.9425 27.7872 42.0037L27.6094 40.9859Z" fill="#B6B598"/>
<path fill-rule="evenodd" clip-rule="evenodd" d="M27.7812 42.0036C27.8391 41.9424 27.9253 41.8916 27.9507 41.8191L28.5644 40.0168C28.5991 39.9169 28.6871 39.8357 28.7502 39.7461L29.0604 40.0105C28.9107 40.1586 28.8274 40.3297 28.8776 40.5459L28.7833 40.8544C28.7405 40.9073 28.6784 40.9534 28.6573 41.0139C28.4431 41.6276 28.2388 42.2446 28.0229 42.8579C27.9955 42.9355 27.9196 42.9966 27.8665 43.0655L27.7812 42.0036Z" fill="#C2C1A7"/>
<path fill-rule="evenodd" clip-rule="evenodd" d="M27.8634 43.0665C27.9169 42.9977 27.9928 42.9365 28.0198 42.8589C28.2358 42.2456 28.4403 41.6286 28.6542 41.0149C28.6753 40.9544 28.7375 40.9086 28.7803 40.8555L28.6502 42.2713C28.6155 42.3114 28.5653 42.3465 28.5486 42.393L28.1161 43.6324C28.0857 43.7169 28.0275 43.7925 27.9821 43.8717C27.9416 43.8189 27.8694 43.7678 27.8661 43.7129C27.8534 43.4984 27.8624 43.2821 27.8634 43.0665Z" fill="#CECDB7"/>
<path fill-rule="evenodd" clip-rule="evenodd" d="M27.9922 43.8738C28.0376 43.7946 28.0958 43.7191 28.1262 43.6345L28.5587 42.3951C28.5754 42.3483 28.6259 42.3135 28.6603 42.2734L28.6637 43.2026L28.3525 44.0005L27.9922 43.8738Z" fill="#DBDAC7"/>
<path fill-rule="evenodd" clip-rule="evenodd" d="M28.8817 40.5491C28.8319 40.3332 28.9148 40.1621 29.0645 40.0137L29.1507 40.0725L28.8817 40.5491Z" fill="#CECDB7"/>
<path fill-rule="evenodd" clip-rule="evenodd" d="M28.0806 36.5337L28.0639 36.5307L28.0469 36.5333L28.0867 36.3906L28.0806 36.5337Z" fill="#4FAA41"/>
</g>
<defs>
<filter id="filter0_d_1983_24724" x="0" y="0.160156" width="56" height="56" filterUnits="userSpaceOnUse" color-interpolation-filters="sRGB">
<feFlood flood-opacity="0" result="BackgroundImageFix"/>
<feColorMatrix in="SourceAlpha" type="matrix" values="0 0 0 0 0 0 0 0 0 0 0 0 0 0 0 0 0 0 127 0" result="hardAlpha"/>
<feOffset/>
<feGaussianBlur stdDeviation="1.75"/>
<feColorMatrix type="matrix" values="0 0 0 0 0 0 0 0 0 0 0 0 0 0 0 0 0 0 0.08 0"/>
<feBlend mode="normal" in2="BackgroundImageFix" result="effect1_dropShadow_1983_24724"/>
<feBlend mode="normal" in="SourceGraphic" in2="effect1_dropShadow_1983_24724" result="shape"/>
</filter>
<clipPath id="clip0_1983_24724">
<rect width="56" height="56" fill="white" transform="translate(0 0.160156)"/>
</clipPath>
</defs>
</svg>