<?xml version="1.0" encoding="utf-8"?>
<svg xmlns="http://www.w3.org/2000/svg" width="57" height="58" viewBox="0 0 57 58" fill="none">
<g filter="url(#filter0_d_1983_24715)">
<path d="M28.5 53C42.031 53 53 42.031 53 28.5C53 14.969 42.031 4 28.5 4C14.969 4 4 14.969 4 28.5C4 42.031 14.969 53 28.5 53Z" fill="white"/>
</g>
<path d="M40.175 20.8421L29.2794 14.5147C28.5915 14.1233 27.697 14.1233 27.0042 14.5147L15.992 20.8421C15.2833 21.2493 14.7812 22.0163 14.7812 22.8366V35.4727C14.7812 36.2931 15.2962 37.06 16.0058 37.4702L18.9145 39.1227C20.3052 39.8077 20.7973 39.8076 21.4299 39.8076C23.4886 39.8076 24.6648 38.5623 24.6648 36.3909V23.9159C24.6648 23.739 24.5728 23.4771 24.3999 23.4771H23.0103C22.8343 23.4771 22.441 23.739 22.441 23.9149V36.3909C22.441 37.3535 21.5702 38.3112 19.9424 37.4978L16.9369 35.7653C16.8321 35.7079 16.758 35.5933 16.758 35.4727V22.8366C16.758 22.717 16.8953 22.5975 17.0011 22.5372L27.9767 16.2206C28.0795 16.1633 28.2307 16.1633 28.3325 16.2206L39.1758 22.5352C39.2795 22.5975 39.243 22.7141 39.243 22.8366V35.4727C39.243 35.5933 39.2874 35.7109 39.1856 35.7692L28.292 42.0887C28.1991 42.1451 28.0825 42.1451 27.9807 42.0887L25.1866 40.4214C25.1026 40.372 25.0028 40.3542 24.9217 40.3997C24.1449 40.8405 24.0006 40.8988 23.2722 41.1518C23.0923 41.2141 22.8274 41.3228 23.373 41.6282L27.0299 43.7917C27.3798 43.9943 27.7781 44.099 28.1784 44.099C28.5836 44.099 28.9809 43.9943 29.3308 43.7917L40.174 37.4702C40.8836 37.0571 41.2197 36.2931 41.2197 35.4727V22.8366C41.2197 22.0163 40.8836 21.2513 40.175 20.8421ZM31.5615 33.4703C28.6637 33.4703 28.0252 32.6717 27.8127 31.2307C27.788 31.0755 27.6565 30.8897 27.4984 30.8897H26.0821C25.9071 30.8897 25.7668 31.1023 25.7668 31.2772C25.7668 33.1215 26.769 35.3571 31.5615 35.3571C35.0306 35.3571 37.0192 34.009 37.0192 31.6231C37.0192 29.258 35.421 28.6373 32.0567 28.1925C28.6567 27.7428 28.3108 27.5155 28.3108 26.7189C28.3108 26.0627 28.6034 25.1869 31.1217 25.1869C33.3712 25.1869 34.2004 25.6693 34.5413 27.1854C34.571 27.3287 34.7005 27.4305 34.8477 27.4305H36.27C36.357 27.4305 36.441 27.3949 36.5022 27.3327C36.5615 27.2655 36.5922 27.1814 36.5843 27.0905C36.3649 24.4793 34.6293 23.2626 31.1207 23.2626C28.0004 23.2626 26.1384 24.5811 26.1384 26.79C26.1384 29.1858 27.9906 29.848 30.9863 30.1445C34.571 30.4963 34.8497 31.0202 34.8497 31.7249C34.8497 32.9494 33.8664 33.4703 31.5615 33.4703Z" fill="#83CD29"/>
<defs>
<filter id="filter0_d_1983_24715" x="0" y="0" width="57" height="57" filterUnits="userSpaceOnUse" color-interpolation-filters="sRGB">
<feFlood flood-opacity="0" result="BackgroundImageFix"/>
<feColorMatrix in="SourceAlpha" type="matrix" values="0 0 0 0 0 0 0 0 0 0 0 0 0 0 0 0 0 0 127 0" result="hardAlpha"/>
<feOffset/>
<feGaussianBlur stdDeviation="2"/>
<feComposite in2="hardAlpha" operator="out"/>
<feColorMatrix type="matrix" values="0 0 0 0 0.725 0 0 0 0 0.725 0 0 0 0 0.725 0 0 0 0.25 0"/>
<feBlend mode="normal" in2="BackgroundImageFix" result="effect1_dropShadow_1983_24715"/>
<feBlend mode="normal" in="SourceGraphic" in2="effect1_dropShadow_1983_24715" result="shape"/>
</filter>
</defs>
</svg>