<svg width="56" height="54" viewBox="0 0 56 54" fill="none" xmlns="http://www.w3.org/2000/svg">
<rect width="56" height="54" rx="27" fill="#FC8B20"/>
<path d="M38.65 23.4504C39.5032 22.6148 40 21.4734 40 20.25C40 17.7688 37.9814 15.75 35.5 15.75C34.6802 15.75 33.8736 15.9754 33.1665 16.4019C32.9302 16.5447 32.854 16.8518 32.9966 17.0884C33.1391 17.325 33.4468 17.4004 33.6831 17.2583C34.2344 16.9258 34.8623 16.75 35.5 16.75C37.4297 16.75 39 18.3201 39 20.25C39 21.4385 38.4048 22.5339 37.4058 23.1819C36.5669 23.7322 35.5034 23.8908 34.5322 23.6142C34.2695 23.5385 33.9902 23.6919 33.914 23.9575C33.8383 24.2231 33.9921 24.4997 34.2578 24.5756C34.6621 24.6913 35.0801 24.7499 35.5 24.7499C36.2862 24.7499 37.0462 24.5355 37.7209 24.1482C40.2876 25.0782 42 27.5016 42 30.25V32.75H37.4407C37.0865 29.4104 34.9855 26.4879 31.9209 25.1003C32.8961 24.1073 33.5 22.7484 33.5 21.25C33.5 18.2173 31.0327 15.75 28 15.75C24.9673 15.75 22.5 18.2173 22.5 21.25C22.5 22.7489 23.1042 24.1082 24.08 25.1013C23.0486 25.5698 22.0921 26.2254 21.2808 27.0321C19.7255 28.5918 18.7791 30.5936 18.5545 32.7501H14V30.2501C14 28.5186 14.6763 26.8861 15.9024 25.6549C16.5773 24.9842 17.399 24.4726 18.2838 24.151C18.9586 24.5367 19.7163 24.75 20.5 24.75C20.9199 24.75 21.3379 24.6914 21.7422 24.5757C22.0078 24.4997 22.1616 24.2231 22.086 23.9575C22.0098 23.6919 21.7305 23.5388 21.4678 23.6143C20.4971 23.8914 19.4341 23.7329 18.5918 23.1807C17.5953 22.5339 17 21.4385 17 20.25C17 18.3201 18.5703 16.75 20.5 16.75C21.1377 16.75 21.7656 16.9258 22.3169 17.2583C22.5542 17.4004 22.8603 17.3242 23.0034 17.0884C23.146 16.8519 23.0698 16.5447 22.8335 16.4019C22.1264 15.9754 21.3198 15.75 20.5 15.75C18.0186 15.75 16 17.7688 16 20.25C16 21.4724 16.496 22.613 17.3467 23.4479C16.5538 23.8165 15.8214 24.3254 15.1953 24.9473C13.7798 26.3691 13 28.2522 13 30.25V33.25C13 33.5262 13.2237 33.75 13.5 33.75H18.5V37.75C18.5 38.0262 18.7236 38.25 18.9999 38.25H36.9999C37.2763 38.25 37.4999 38.0261 37.4999 37.75V33.75H42.4999C42.7763 33.75 42.9999 33.5261 42.9999 33.25V30.25C43 27.2937 41.2819 24.6638 38.65 23.4504ZM23.5 21.25C23.5 18.7688 25.5186 16.75 28 16.75C30.4814 16.75 32.5 18.7688 32.5 21.25C32.5 23.7312 30.4814 25.75 28 25.75C25.5186 25.75 23.5 23.7312 23.5 21.25ZM36.5 37.25H19.5V33.75C19.5 31.4829 20.3837 29.3479 21.9873 27.7395C22.832 26.8993 23.8561 26.2475 24.9541 25.8259C25.8269 26.4087 26.8741 26.75 28 26.75C29.1278 26.75 30.1768 26.4077 31.0504 25.8231C34.3186 27.0789 36.5 30.2297 36.5 33.75V37.25Z" fill="white"/>
</svg>
