<svg width="76" height="76" viewBox="0 0 76 76" fill="none" xmlns="http://www.w3.org/2000/svg">
<rect width="75.7088" height="76" rx="37.8544" fill="#FC8B20"/>
<path d="M52.7648 54.5292V25.5292C52.7648 24.2351 51.7059 23.2351 50.4706 23.2351H45.8824V21.941C45.8824 21.588 45.6471 21.3527 45.2942 21.3527H42.4706C42.2354 20.1174 41.1177 19.1763 39.8236 19.1763C38.5295 19.1763 37.4118 20.1174 37.1177 21.3527H34.2942C33.9412 21.3527 33.7059 21.588 33.7059 21.941V23.2351H29.1177C27.8236 23.2351 26.8236 24.2939 26.8236 25.5292V36.4704C26.7059 36.4116 26.5883 36.3527 26.4706 36.3527H24.4118C24.1765 36.3527 23.9412 36.5292 23.8236 36.7645L23.2354 38.6469C23.0589 38.7057 22.9412 38.7645 22.7648 38.8233L21.0589 37.941C20.8236 37.8233 20.5295 37.8822 20.353 38.0586L18.8824 39.5292C18.7059 39.7057 18.6471 39.9998 18.7648 40.2351L19.7059 41.941C19.6471 42.1174 19.5883 42.2351 19.5295 42.4116L17.6471 42.9998C17.4118 43.0586 17.2354 43.2939 17.2354 43.588V45.6469C17.2354 45.8822 17.4118 46.1174 17.6471 46.2351L19.5295 46.8233C19.5883 46.9998 19.6471 47.1174 19.7059 47.2939L18.8236 48.9998C18.7059 49.2351 18.7648 49.5292 18.9412 49.7057L20.4118 51.1763C20.5883 51.3527 20.8824 51.4116 21.1177 51.2939L22.8236 50.4116C23.0001 50.4704 23.1177 50.5292 23.2942 50.588L23.8824 52.4704C23.9412 52.7057 24.1765 52.8822 24.4706 52.8822H26.5883C26.7059 52.8822 26.8236 52.8233 26.9412 52.7645V54.588C26.9412 55.8822 28.0001 56.8822 29.2354 56.8822H50.4706C51.7059 56.8233 52.7648 55.7645 52.7648 54.5292ZM34.9412 23.8233V22.5292H37.6471C38.0001 22.5292 38.2354 22.2939 38.2354 21.941C38.2354 21.0586 38.9412 20.3527 39.8236 20.3527C40.7059 20.3527 41.4118 21.0586 41.4118 21.941C41.4118 22.2939 41.6471 22.5292 42.0001 22.5292H44.7648V25.1763H34.9412V23.8233ZM27.0001 49.5292C26.8236 49.588 26.7059 49.7057 26.6471 49.941L26.1177 51.6469H24.8824L24.353 49.941C24.2942 49.7645 24.1765 49.588 23.9412 49.5292C23.6471 49.4116 23.353 49.2939 23.1177 49.1763C22.9412 49.0586 22.7648 49.0586 22.5883 49.1763L21.0001 49.9998L20.0589 49.1763L20.8824 47.588C21.0001 47.4116 21.0001 47.2351 20.8824 47.0586C20.7648 46.8233 20.6471 46.5292 20.5295 46.2351C20.4706 46.0586 20.353 45.8822 20.1177 45.8233L18.353 45.2939V44.0586L20.1177 43.5292C20.2942 43.4704 20.4706 43.3527 20.5295 43.1174C20.6471 42.8233 20.7648 42.5292 20.8824 42.2939C21.0001 42.1174 21.0001 41.941 20.8824 41.7645L20.0589 40.1763L20.9412 39.2939L22.5295 40.1174C22.7059 40.2351 22.8824 40.2351 23.0589 40.1174C23.353 39.9998 23.5883 39.8822 23.8824 39.7645C24.0589 39.7057 24.2354 39.588 24.2942 39.3527L24.8236 37.588H26.0589L26.5883 39.3527C26.6471 39.5292 26.7648 39.7057 27.0001 39.7645C27.2942 39.8822 27.5883 39.941 27.8236 40.1174C28.0001 40.2351 28.1765 40.2351 28.353 40.1174L29.9412 39.2351L30.8236 40.1174L29.9412 41.7057C29.8236 41.8822 29.8236 42.0586 29.9412 42.2351C30.0589 42.5292 30.1765 42.7645 30.2942 43.0586C30.353 43.2351 30.4706 43.4116 30.7059 43.4704L32.4706 43.9998V45.2351L30.7059 45.7645C30.5295 45.8233 30.353 45.941 30.2942 46.1763C30.1765 46.4704 30.0589 46.7645 29.9412 46.9998C29.8236 47.1763 29.8236 47.3527 29.9412 47.5292L30.8824 49.1763L30.0001 50.0586L28.4118 49.1763C28.2354 49.0586 28.0589 49.0586 27.8824 49.1763C27.5883 49.3527 27.0589 49.5292 27.0001 49.5292ZM28.0589 54.5292V50.4116C28.0589 50.4116 28.1177 50.4116 28.1177 50.3527L29.8236 51.2351C30.0589 51.3527 30.353 51.2939 30.5295 51.1174L32.0001 49.6469C32.1765 49.4704 32.2354 49.1763 32.1177 48.941L31.2354 47.2351C31.2942 47.0586 31.353 46.941 31.4118 46.7645L33.2942 46.1763C33.5295 46.1174 33.7059 45.8822 33.7059 45.588V43.4704C33.7059 43.2351 33.5295 42.9998 33.2942 42.8822L31.4118 42.2939C31.353 42.1174 31.2942 41.9998 31.2354 41.8233L32.1765 40.1174C32.2942 39.8822 32.2354 39.588 32.0589 39.4116L30.5883 37.941C30.4118 37.7645 30.1177 37.7057 29.8824 37.8233L28.1765 38.7645C28.1765 38.7645 28.1177 38.7645 28.1177 38.7057V25.5292C28.1177 24.8822 28.6471 24.4116 29.2354 24.4116H33.8236V25.7645C33.8236 26.1174 34.0589 26.3527 34.4118 26.3527H45.353C45.7059 26.3527 45.9412 26.1174 45.9412 25.7645V24.4116H50.5295C51.1765 24.4116 51.6471 24.941 51.6471 25.5292V54.5292C51.6471 55.1763 51.1177 55.6469 50.5295 55.6469H29.1765C28.5883 55.6469 28.0589 55.1174 28.0589 54.5292Z" fill="white"/>
<path d="M49.4179 28H30.5841C30.2342 28 30.001 28.2 30.001 28.5C30.001 28.8 30.2342 29 30.5841 29H49.4179C49.7677 29 50.001 28.8 50.001 28.5C50.001 28.2 49.7677 28 49.4179 28Z" fill="white"/>
<path d="M37.7677 30H30.2342C30.0943 30 30.001 30.2 30.001 30.5C30.001 30.8 30.0943 31 30.2342 31H37.7677C37.9077 31 38.001 30.8 38.001 30.5C38.001 30.2 37.9077 30 37.7677 30Z" fill="white"/>
<path d="M25.4708 41.8823C23.9413 41.8823 22.7061 43.1176 22.7061 44.647C22.7061 46.1764 23.9413 47.4117 25.4708 47.4117C27.0002 47.4117 28.2355 46.1764 28.2355 44.647C28.2355 43.1176 27.0002 41.8823 25.4708 41.8823ZM25.4708 46.1764C24.5884 46.1764 23.8825 45.4706 23.8825 44.5882C23.8825 43.7059 24.5884 43 25.4708 43C26.3531 43 27.059 43.7059 27.059 44.5882C27.059 45.4706 26.3531 46.1764 25.4708 46.1764Z" fill="white"/>
<path d="M37.0589 50.2349H34.0589C33.706 50.2349 33.4707 50.4702 33.4707 50.8231V53.3525C33.4707 53.7055 33.706 53.9407 34.0589 53.9407H37.0589C37.4119 53.9407 37.6472 53.7055 37.6472 53.3525V50.8231C37.6472 50.529 37.3531 50.2349 37.0589 50.2349ZM36.4707 52.8231H34.6472V51.4702H36.4707V52.8231Z" fill="white"/>
<path d="M43.1761 46.8823H40.1761C39.8232 46.8823 39.5879 47.1176 39.5879 47.4706V53.3529C39.5879 53.7059 39.8232 53.9411 40.1761 53.9411H43.1761C43.5291 53.9411 43.7644 53.7059 43.7644 53.3529V47.4706C43.7644 47.1764 43.4702 46.8823 43.1761 46.8823ZM42.5879 52.8235H40.7644V48.1176H42.5879V52.8235Z" fill="white"/>
<path d="M49.2943 43.5293H46.2943C45.9413 43.5293 45.7061 43.7646 45.7061 44.1175V53.3528C45.7061 53.7058 45.9413 53.9411 46.2943 53.9411H49.2943C49.6472 53.9411 49.8825 53.7058 49.8825 53.3528V44.1175C49.8825 43.8234 49.6472 43.5293 49.2943 43.5293ZM48.7061 52.8234H46.8825V44.7058H48.7061V52.8234Z" fill="white"/>
<path d="M33.8825 47.9999C34.059 48.2352 34.4707 48.2941 34.706 48.1176L48.0001 37.9999L47.706 39.9411C47.6472 40.2352 47.8825 40.5882 48.1766 40.5882C48.4707 40.647 48.8237 40.4117 48.8237 40.1176L49.2943 36.7058C49.3531 36.3529 49.1178 36.0588 48.8237 36.0588L45.4119 35.5882C45.1178 35.5294 44.7648 35.7646 44.7648 36.0588C44.706 36.3529 44.9413 36.7058 45.2354 36.7058L47.2354 36.9999L34.0001 47.1764C33.706 47.4117 33.6472 47.7646 33.8825 47.9999Z" fill="white"/>
</svg>
