<svg width="60" height="60" viewBox="0 0 60 60" fill="none" xmlns="http://www.w3.org/2000/svg">
<rect x="0.5" y="0.5" width="59" height="59" rx="29.5" fill="url(#paint0_linear_3798_12843)"/>
<rect x="0.5" y="0.5" width="59" height="59" rx="29.5" stroke="url(#paint1_linear_3798_12843)"/>
<path d="M29.7906 12.0003C28.3223 12.0071 26.9202 12.1323 25.6865 12.3507C22.0521 12.9928 21.3923 14.3366 21.3923 16.8151V20.0883H29.9807V21.1794H18.1691C15.6731 21.1794 13.4874 22.6796 12.8038 25.5337C12.0153 28.805 11.9803 30.8465 12.8038 34.2623C13.4143 36.8049 14.8723 38.6166 17.3683 38.6166H20.3212V34.6927C20.3212 31.8579 22.7739 29.3574 25.6865 29.3574H34.265C36.653 29.3574 38.5592 27.3913 38.5592 24.9931V16.8151C38.5592 14.4876 36.5956 12.7391 34.265 12.3507C32.7896 12.1051 31.2588 11.9935 29.7906 12.0003ZM25.146 14.6329C26.0331 14.6329 26.7575 15.3692 26.7575 16.2745C26.7575 17.1766 26.0331 17.9061 25.146 17.9061C24.2557 17.9061 23.5344 17.1766 23.5344 16.2745C23.5344 15.3692 24.2557 14.6329 25.146 14.6329Z" fill="url(#paint2_linear_3798_12843)"/>
<path d="M39.6286 21.1798V24.9936C39.6286 27.9504 37.1218 30.4389 34.2634 30.4389H25.6849C23.3351 30.4389 21.3906 32.45 21.3906 34.8032V42.9813C21.3906 45.3087 23.4146 46.6778 25.6849 47.3456C28.4035 48.1449 31.0106 48.2894 34.2634 47.3456C36.4255 46.7196 38.5576 45.4597 38.5576 42.9813V39.708H29.9791V38.6169H42.8518C45.3478 38.6169 46.278 36.8759 47.1461 34.2627C48.0428 31.5724 48.0046 28.9852 47.1461 25.534C46.5292 23.0492 45.3511 21.1797 42.8518 21.1797H39.6286V21.1798ZM34.8039 41.8902C35.6942 41.8902 36.4155 42.6197 36.4155 43.5218C36.4155 44.4272 35.6942 45.1635 34.8039 45.1635C33.9168 45.1635 33.1924 44.4272 33.1924 43.5218C33.1923 42.6197 33.9167 41.8902 34.8039 41.8902Z" fill="url(#paint3_linear_3798_12843)"/>
<defs>
<linearGradient id="paint0_linear_3798_12843" x1="30" y1="0" x2="30" y2="65.9224" gradientUnits="userSpaceOnUse">
<stop offset="0.490274" stop-color="white"/>
<stop offset="1" stop-color="white" stop-opacity="0"/>
</linearGradient>
<linearGradient id="paint1_linear_3798_12843" x1="30" y1="0" x2="30" y2="49.9512" gradientUnits="userSpaceOnUse">
<stop stop-color="#FC8B20"/>
<stop offset="1" stop-color="#FC8B20" stop-opacity="0"/>
</linearGradient>
<linearGradient id="paint2_linear_3798_12843" x1="11.3575" y1="13.0238" x2="31.166" y2="29.9163" gradientUnits="userSpaceOnUse">
<stop stop-color="#5A9FD4"/>
<stop offset="1" stop-color="#306998"/>
</linearGradient>
<linearGradient id="paint3_linear_3798_12843" x1="38.6174" y1="40.4174" x2="31.5138" y2="30.4556" gradientUnits="userSpaceOnUse">
<stop stop-color="#FFD43B"/>
<stop offset="1" stop-color="#FFE873"/>
</linearGradient>
</defs>
</svg>
