<svg width="60" height="60" viewBox="0 0 60 60" fill="none" xmlns="http://www.w3.org/2000/svg">
<rect x="0.5" y="0.5" width="59" height="59" rx="29.5" fill="url(#paint0_linear_3798_12829)"/>
<rect x="0.5" y="0.5" width="59" height="59" rx="29.5" stroke="url(#paint1_linear_3798_12829)"/>
<path d="M30.0234 33.6904C32.0945 33.6904 33.7734 32.0115 33.7734 29.9404C33.7734 27.8694 32.0945 26.1904 30.0234 26.1904C27.9524 26.1904 26.2734 27.8694 26.2734 29.9404C26.2734 32.0115 27.9524 33.6904 30.0234 33.6904Z" fill="#30A2FF"/>
<path fill-rule="evenodd" clip-rule="evenodd" d="M23.1742 18.0804C22.1266 17.8934 21.0647 17.798 20.0005 17.7954C16.9942 17.8117 14.7955 18.8142 13.7842 20.5654C12.773 22.3179 13.0042 24.7229 14.493 27.3342C14.9755 28.1804 15.5917 29.0567 16.3267 29.9404C15.6409 30.7547 15.0273 31.6271 14.493 32.5479C13.0042 35.1579 12.773 37.5642 13.7842 39.3154C14.7955 41.0679 16.9942 42.0704 20.0005 42.0867C20.9742 42.0917 22.0405 41.9967 23.1742 41.8017C23.573 42.8804 24.023 43.8517 24.5155 44.6929C26.0317 47.2879 27.9992 48.6904 30.0217 48.6904C32.0455 48.6904 34.013 47.2879 35.5292 44.6929C36.0217 43.8517 36.4717 42.8804 36.8705 41.8017C38.0042 41.9967 39.0705 42.0917 40.0442 42.0867C43.0505 42.0704 45.2492 41.0679 46.2605 39.3154C47.2717 37.5642 47.0405 35.1579 45.5517 32.5479C45.0174 31.6271 44.4039 30.7547 43.718 29.9404C44.4038 29.1266 45.0174 28.2546 45.5517 27.3342C47.0405 24.7229 47.2717 22.3179 46.2605 20.5654C45.2492 18.8142 43.0505 17.8117 40.0442 17.7954C38.9801 17.798 37.9181 17.8934 36.8705 18.0804C36.5083 17.0791 36.0595 16.1113 35.5292 15.1879C34.013 12.5942 32.0455 11.1904 30.0217 11.1904C27.9992 11.1904 26.0317 12.5942 24.5155 15.1879C23.9852 16.1113 23.5364 17.0791 23.1742 18.0804ZM30.0217 39.7104C28.5956 40.3234 27.1293 40.8383 25.633 41.2517C25.9467 42.0542 26.2955 42.7854 26.673 43.4317C27.6405 45.0867 28.7317 46.1904 30.0217 46.1904C31.3117 46.1904 32.4042 45.0867 33.3717 43.4317C33.7492 42.7854 34.0967 42.0542 34.4117 41.2517C32.9151 40.8382 31.4484 40.3232 30.0217 39.7104ZM42.0117 31.7954C40.9055 32.8842 39.7265 33.8965 38.483 34.8254C38.3003 36.3669 38.013 37.8942 37.623 39.3967C38.4198 39.5224 39.2251 39.5859 40.0317 39.5867C41.948 39.5767 43.4505 39.1829 44.0955 38.0654C44.7405 36.9492 44.3292 35.4504 43.3805 33.7854C42.9766 33.0876 42.519 32.4222 42.0117 31.7954ZM18.033 31.7954C17.5258 32.4222 17.0681 33.0876 16.6642 33.7854C15.7155 35.4504 15.3042 36.9492 15.9492 38.0654C16.5942 39.1829 18.0967 39.5767 20.013 39.5867C20.8196 39.5859 21.625 39.5224 22.4217 39.3967C22.0312 37.8943 21.7438 36.367 21.5617 34.8254C20.3182 33.8965 19.1392 32.8842 18.033 31.7954ZM24.3805 36.7567C24.5192 37.4942 24.6805 38.2029 24.8617 38.8792C25.5624 38.6905 26.2558 38.4758 26.9405 38.2354C26.0694 37.7739 25.2155 37.2807 24.3805 36.7567ZM35.6642 36.7567C35.2505 37.0167 34.828 37.2704 34.3967 37.5192C33.9667 37.7667 33.5355 38.0054 33.1042 38.2354C33.813 38.4829 34.5067 38.6979 35.183 38.8792C35.3702 38.178 35.5307 37.47 35.6642 36.7567ZM30.0217 22.9029C31.0555 23.3829 32.1017 23.9242 33.1467 24.5279C34.193 25.1317 35.1855 25.7667 36.1167 26.4217C36.2192 27.5567 36.2717 28.7342 36.2717 29.9404C36.2717 31.1479 36.2192 32.3254 36.1167 33.4592C35.1561 34.1353 34.165 34.7672 33.1467 35.3529C32.1017 35.9567 31.0555 36.4992 30.0217 36.9779C27.89 35.9883 25.8507 34.8108 23.928 33.4592C23.8231 32.2892 23.771 31.1151 23.7717 29.9404C23.7717 28.7342 23.8255 27.5567 23.928 26.4217C25.8508 25.0703 27.8901 23.8927 30.0217 22.9029ZM38.7467 28.4629C38.7795 29.4477 38.7795 30.4332 38.7467 31.4179C39.2975 30.946 39.83 30.4531 40.343 29.9404C39.83 29.4277 39.2975 28.9349 38.7467 28.4629ZM21.298 28.4629C20.7471 28.9352 20.2142 29.428 19.7005 29.9404C20.1955 30.4354 20.7292 30.9304 21.298 31.4179C21.2626 30.4332 21.2626 29.4476 21.298 28.4629ZM22.4217 20.4842C21.6249 20.3595 20.8196 20.2964 20.013 20.2954C18.0967 20.3054 16.5942 20.6992 15.9492 21.8154C15.3042 22.9329 15.7155 24.4304 16.6642 26.0954C17.0681 26.7937 17.5257 27.4595 18.033 28.0867C19.1386 26.9972 20.3176 25.9849 21.5617 25.0567C21.758 23.4304 22.0505 21.8954 22.4217 20.4842ZM42.0117 28.0867C42.519 27.4595 42.9766 26.7937 43.3805 26.0954C44.3292 24.4304 44.7405 22.9329 44.0955 21.8154C43.4505 20.6992 41.948 20.3054 40.0317 20.2954C39.2252 20.2964 38.4199 20.3595 37.623 20.4842C37.9942 21.8954 38.2855 23.4304 38.483 25.0567C39.7268 25.9852 40.9058 26.9975 42.0117 28.0867ZM24.8617 21.0029C24.6747 21.7037 24.5142 22.4113 24.3805 23.1242C25.2166 22.6025 26.0705 22.1097 26.9405 21.6467C26.2561 21.4054 25.5627 21.1906 24.8617 21.0029ZM35.183 21.0029C34.5067 21.1829 33.8117 21.3979 33.1042 21.6467C33.9754 22.1076 34.8293 22.6005 35.6642 23.1242C35.5307 22.4113 35.3702 21.7037 35.183 21.0029ZM34.4117 18.6304C34.1215 17.8782 33.7738 17.1494 33.3717 16.4504C32.4042 14.7954 31.3117 13.6904 30.0217 13.6904C28.7317 13.6904 27.6405 14.7954 26.673 16.4504C26.2705 17.1491 25.9227 17.878 25.633 18.6304C27.1293 19.0438 28.5956 19.5587 30.0217 20.1717C31.4484 19.5589 32.9151 19.0439 34.4117 18.6304Z" fill="#30A2FF"/>
<defs>
<linearGradient id="paint0_linear_3798_12829" x1="30" y1="0" x2="30" y2="65.9224" gradientUnits="userSpaceOnUse">
<stop offset="0.490274" stop-color="white"/>
<stop offset="1" stop-color="white" stop-opacity="0"/>
</linearGradient>
<linearGradient id="paint1_linear_3798_12829" x1="30" y1="0" x2="30" y2="49.9512" gradientUnits="userSpaceOnUse">
<stop stop-color="#FC8B20"/>
<stop offset="1" stop-color="#FC8B20" stop-opacity="0"/>
</linearGradient>
</defs>
</svg>
