<svg width="60" height="60" viewBox="0 0 60 60" fill="none" xmlns="http://www.w3.org/2000/svg">
<rect x="0.5" y="0.5" width="59" height="59" rx="29.5" fill="white"/>
<rect x="0.5" y="0.5" width="59" height="59" rx="29.5" stroke="url(#paint0_linear_3798_12857)"/>
<path d="M17.2534 24.0056C16.011 24.0056 15.0039 25.0128 15.0039 26.2551V36.7526C15.0039 37.995 16.011 39.0021 17.2534 39.0021C18.4957 39.0021 19.5029 37.995 19.5029 36.7526V26.2551C19.5029 25.0128 18.4957 24.0056 17.2534 24.0056ZM42.7474 24.0056C41.505 24.0056 40.4979 25.0128 40.4979 26.2551V36.7526C40.4979 37.995 41.505 39.0021 42.7474 39.0021C43.9897 39.0021 44.9968 37.995 44.9968 36.7526V26.2551C44.9968 25.0128 43.9898 24.0056 42.7474 24.0056ZM38.2484 24.0056H21.7523C21.3382 24.0056 21.0025 24.3414 21.0025 24.7555V36.7526C21.0021 38.5345 22.2559 40.0704 24.0018 40.4268V45.7505C24.0018 46.9929 25.0089 48 26.2513 48C27.4936 48 28.5007 46.9929 28.5007 45.7505V40.5017H31.5001V45.7505C31.5001 46.9929 32.5072 48 33.7495 48C34.9919 48 35.999 46.9929 35.999 45.7505V40.4268C37.7449 40.0704 38.9987 38.5345 38.9983 36.7526V24.7555C38.9983 24.3414 38.6625 24.0056 38.2484 24.0056ZM35.4516 15.1157L37.2797 13.2892C37.5775 13.0014 37.5857 12.5268 37.2981 12.2289C37.0104 11.931 36.5357 11.9228 36.2378 12.2105C36.2315 12.2165 36.2254 12.2226 36.2194 12.2289L34.0899 14.3584C32.7996 13.7979 31.4079 13.5087 30.0011 13.5087C28.5943 13.5087 27.2026 13.7979 25.9123 14.3584L23.7828 12.2274C23.485 11.9397 23.0103 11.948 22.7225 12.2458C22.4419 12.5364 22.4419 12.9971 22.7225 13.2876L24.5491 15.1157C23.453 15.8409 22.5548 16.8278 21.9356 17.9871C21.3164 19.1465 20.9957 20.4418 21.0025 21.7561C21.0025 22.1702 21.3382 22.506 21.7523 22.506H38.2485C38.6626 22.506 38.9983 22.1702 38.9983 21.7561C39.0051 20.4418 38.6843 19.1465 38.0651 17.9872C37.4459 16.8278 36.5477 15.841 35.4516 15.1157Z" fill="#4CAF50"/>
<path d="M26.2498 19.5075C26.664 19.5075 26.9997 19.1718 26.9997 18.7577C26.9997 18.3435 26.664 18.0078 26.2498 18.0078C25.8357 18.0078 25.5 18.3435 25.5 18.7577C25.5 19.1718 25.8357 19.5075 26.2498 19.5075Z" fill="#FAFAFA"/>
<path d="M33.7498 19.5075C34.164 19.5075 34.4997 19.1718 34.4997 18.7577C34.4997 18.3435 34.164 18.0078 33.7498 18.0078C33.3357 18.0078 33 18.3435 33 18.7577C33 19.1718 33.3357 19.5075 33.7498 19.5075Z" fill="#FAFAFA"/>
<defs>
<linearGradient id="paint0_linear_3798_12857" x1="30" y1="0" x2="30" y2="60" gradientUnits="userSpaceOnUse">
<stop stop-color="#FC8B20"/>
<stop offset="1" stop-color="#FC8B20" stop-opacity="0"/>
</linearGradient>
</defs>
</svg>
