<svg width="100%" height="100%" viewBox="0 0 115 36" fill="#686672" xmlns="http://www.w3.org/2000/svg" aria-labelledby="spotifyLogoTitle" role="img"><title id="spotifyLogoTitle">Spotify Logo</title><g clip-path="url(#clip0_1901_19253)"><path d="M112.216 14.7666H113.117C113.362 14.7666 113.567 14.828 113.69 14.9713C113.792 15.0736 113.853 15.2373 113.853 15.4215C113.853 15.749 113.69 15.9332 113.424 16.0356L113.915 16.7518H113.403L112.973 16.1174H112.646V16.7518H112.216V14.7666ZM113.096 15.7286C113.301 15.7286 113.424 15.6058 113.424 15.442C113.424 15.2578 113.301 15.1555 113.076 15.1555H112.646V15.7286H113.096Z" fill="var(--color-navy-500)"></path><path d="M112.993 17.6732C111.969 17.6732 111.13 16.834 111.13 15.8107C111.13 14.7874 111.969 13.9482 112.993 13.9482C114.016 13.9482 114.855 14.7874 114.855 15.8107C114.855 16.834 114.036 17.6732 112.993 17.6732ZM112.993 14.1325C112.072 14.1325 111.335 14.8693 111.335 15.7902C111.335 16.7113 112.092 17.4481 112.993 17.4481C113.893 17.4481 114.651 16.6908 114.651 15.7902C114.651 14.8897 113.914 14.1325 112.993 14.1325Z" fill="var(--color-navy-500)"></path><path d="M17.7003 35.09C27.1612 35.09 34.8308 27.4205 34.8308 17.9595C34.8308 8.49869 27.1612 0.829102 17.7003 0.829102C8.23941 0.829102 0.569824 8.49869 0.569824 17.9595C0.569824 27.4205 8.23941 35.09 17.7003 35.09Z" fill="var(--color-navy-500)"></path><path d="M46.0672 9.97664C46.5993 9.97664 48.8711 9.8129 51.6545 11.9005C51.7773 12.0028 51.7978 12.1666 51.7159 12.3098L50.3856 14.1723C50.2832 14.3156 50.099 14.336 49.9762 14.2337C49.7307 14.0495 49.3213 13.7425 48.8096 13.4969C48.0115 13.0875 46.9677 12.7601 46.0672 12.7601C45.1666 12.7601 43.7135 13.0466 43.7135 14.4792C43.7135 15.6254 44.7368 16.0552 47.8682 16.8329C49.9149 17.365 52.289 18.3474 52.289 21.4583C52.289 24.3237 49.8944 26.1452 46.5993 26.1452C44.614 26.1452 41.892 25.3879 40.1728 23.6483C40.0705 23.5459 40.0704 23.3822 40.1523 23.2594L41.6464 21.4993C41.7487 21.3765 41.9534 21.356 42.0557 21.4788C42.6288 22.0109 44.2865 23.3617 46.5788 23.3617C49.2804 23.3617 49.1781 21.7244 49.1781 21.4788C49.1781 20.9672 48.8096 20.2304 47.4589 19.8619C46.1285 19.4936 42.772 18.8591 41.5031 17.3855C40.7254 16.4645 40.623 15.4617 40.623 14.6839C40.623 12.9647 41.7487 9.97664 46.0672 9.97664Z" fill="var(--color-navy-500)"></path><path d="M60.0456 13.7236C57.6305 13.7236 56.3205 15.5043 56.3205 15.5043V14.2762C56.3205 14.1125 56.1977 13.9897 56.034 13.9897H53.5575C53.3938 13.9897 53.271 14.1125 53.271 14.2762V29.1759C53.271 29.3396 53.3938 29.4624 53.5575 29.4624H56.034C56.1977 29.4624 56.3205 29.3396 56.3205 29.1759V24.53C56.3205 24.53 57.528 26.1468 60.1683 26.1468C62.2557 26.1468 65.6122 24.4686 65.6122 19.9864C65.633 15.4838 62.4606 13.7236 60.0456 13.7236ZM59.411 23.4862C57.7324 23.4862 56.3001 22.0126 56.3001 19.925C56.3001 18.6561 57.0984 16.4047 59.3907 16.4047C61.683 16.4047 62.5423 18.2467 62.5423 19.925C62.522 21.6033 61.6008 23.4862 59.411 23.4862Z" fill="var(--color-navy-500)"></path><path d="M72.7961 13.7236C68.8872 13.7236 66.4722 16.9164 66.4722 19.9455C66.4722 23.2611 69.0511 26.1673 72.8169 26.1673C76.6031 26.1673 79.1612 23.1792 79.1612 19.9455C79.1612 16.7118 76.7056 13.7236 72.7961 13.7236ZM72.8169 23.4862C71.2201 23.4862 69.4807 22.1559 69.4807 19.9455C69.4807 17.7351 71.0568 16.4252 72.8169 16.4252C74.1672 16.4252 76.0912 17.5509 76.0912 19.9455C76.0912 22.34 74.4133 23.4862 72.8169 23.4862Z" fill="var(--color-navy-500)"></path><path d="M86.9794 16.3423V14.2343C86.9794 14.0705 86.8566 13.9477 86.6927 13.9477H83.8683V11.0824C83.8683 10.9187 83.7456 10.7959 83.5817 10.7959H81.1464C80.9826 10.7959 80.8598 10.9187 80.8598 11.0824V13.9477H79.6728C79.509 13.9477 79.3862 14.0705 79.3862 14.2343V16.3423C79.3862 16.5061 79.509 16.6289 79.6728 16.6289H80.8598C80.8598 16.6289 80.8598 21.2747 80.8598 22.6051C80.8598 23.9354 81.4741 26.0844 84.1549 26.0844C85.383 26.0844 86.4472 25.6546 86.8363 25.4704C86.9382 25.4295 86.9996 25.3271 86.9996 25.2044V23.1372C86.9996 22.953 86.7952 22.8303 86.6314 22.953C86.3448 23.1372 85.8949 23.3419 85.2192 23.3419C83.9505 23.3419 83.8683 22.4823 83.8683 21.8683C83.8683 21.2543 83.8683 16.6289 83.8683 16.6289H86.6927C86.8566 16.6289 86.9794 16.5061 86.9794 16.3423Z" fill="var(--color-navy-500)"></path><path d="M89.7633 12.4953C90.8033 12.4953 91.6462 11.6523 91.6462 10.6124C91.6462 9.57248 90.8033 8.72949 89.7633 8.72949C88.7233 8.72949 87.8804 9.57248 87.8804 10.6124C87.8804 11.6523 88.7233 12.4953 89.7633 12.4953Z" fill="var(--color-navy-500)"></path><path d="M90.9714 25.9007H88.5361C88.3723 25.9007 88.2495 25.7779 88.2495 25.6142V14.2348C88.2495 14.071 88.3723 13.9482 88.5361 13.9482H90.9714C91.1353 13.9482 91.258 14.071 91.258 14.2348V25.6142C91.258 25.7574 91.1353 25.9007 90.9714 25.9007Z" fill="var(--color-navy-500)"></path><path d="M93.9581 16.6281H92.792C92.6281 16.6281 92.5054 16.5053 92.5054 16.3415V14.2335C92.5054 14.0698 92.6281 13.947 92.792 13.947H93.9581C93.9581 13.947 93.9581 13.6809 93.9581 13.1693C93.9581 12.6576 94.0403 9.44434 97.6626 9.44434C99.4639 9.44434 100.037 9.85369 100.037 9.85369C100.037 9.85369 100.037 11.8185 100.037 12.0231C100.037 12.2278 99.9549 12.412 99.7297 12.3301C99.505 12.2483 98.8293 12.0641 98.2769 12.0641C97.724 12.0641 96.9672 12.3915 96.9672 13.3535C96.9672 13.7014 96.9672 13.947 96.9672 13.947H101.408C101.531 13.947 101.633 14.0289 101.674 14.1312L104.765 22.154L107.548 14.1721C107.589 14.0493 107.692 13.9674 107.814 13.9674H110.536C110.659 13.9674 110.762 14.0902 110.7 14.2131C110.066 15.8709 106.443 25.2445 105.972 26.4316C105.461 27.7414 104.601 29.522 102.104 29.522C100.651 29.522 99.7297 29.0308 99.3412 28.7852C99.2184 28.7033 99.1773 28.5601 99.2387 28.4168L100.119 26.5134C100.16 26.4316 100.262 26.4111 100.324 26.452C100.569 26.6158 101.163 26.9023 101.838 26.9023C102.82 26.9023 103.271 25.7357 103.271 25.7357L99.4639 16.6486H96.9672V25.6334C96.9672 25.7971 96.8439 25.9199 96.6806 25.9199H94.2245C94.0606 25.9199 93.9378 25.7971 93.9378 25.6334L93.9581 16.6281Z" fill="var(--color-navy-500)"></path><path d="M24.5775 26.1258C24.3728 26.1258 24.1886 26.0644 24.0044 25.9621C17.2504 21.9097 9.24808 24.2429 9.16621 24.2838C8.57267 24.468 7.93819 24.1201 7.754 23.5266C7.56982 22.9331 7.91775 22.2986 8.51129 22.1144C8.87966 22.012 17.537 19.4333 25.1506 24.0178C25.6827 24.3453 25.8464 25.0206 25.5394 25.5528C25.3347 25.9212 24.9663 26.1258 24.5775 26.1258Z" fill="var(--color-beige)"></path><path d="M26.5217 21.5002C26.2966 21.5002 26.0715 21.4387 25.8668 21.3159C17.3937 16.4449 8.83866 19.2693 8.75679 19.3102C8.06093 19.5559 7.30365 19.1874 7.05809 18.4916C6.81247 17.7957 7.1809 17.0385 7.87675 16.7928C8.26561 16.6496 17.6597 13.5387 27.1767 19.0033C27.8111 19.3716 28.0363 20.1903 27.6679 20.8248C27.4427 21.2546 26.9924 21.5002 26.5217 21.5002Z" fill="var(--color-beige)"></path><path d="M28.6295 16.2613C28.3634 16.2613 28.1178 16.1999 27.8722 16.0771C18.1097 10.9399 8.06064 14.01 7.95828 14.0509C7.09874 14.3169 6.17772 13.8462 5.91165 12.9866C5.64559 12.127 6.11632 11.206 6.97593 10.9399C7.44666 10.7967 18.4167 7.44017 29.3868 13.1913C30.1849 13.6211 30.4919 14.6034 30.0826 15.4017C29.7961 15.9338 29.223 16.2613 28.6295 16.2613Z" fill="var(--color-beige)"></path></g><defs><clipPath id="clip0_1901_19253"><rect width="114.305" height="34.3478" fill="white" transform="translate(0.569824 0.829102)"></rect></clipPath></defs></svg>
