<svg width="56" height="54" viewBox="0 0 56 54" fill="none" xmlns="http://www.w3.org/2000/svg">
<rect width="56" height="54" rx="27" fill="#FC8B20"/>
<g clip-path="url(#clip0_3771_11109)">
<path d="M18.625 38.25C18.6241 37.9601 18.5335 37.6776 18.3657 37.4413C18.1978 37.205 17.9609 37.0264 17.6875 36.9301V35.4375C17.6875 35.3759 17.6754 35.315 17.6519 35.2581C17.6283 35.2012 17.5938 35.1495 17.5503 35.106C17.5067 35.0625 17.455 35.028 17.3982 35.0044C17.3413 34.9809 17.2803 34.9687 17.2188 34.9688H14.4063C14.0748 34.9679 13.7538 35.0845 13.5001 35.2977C13.2465 35.511 13.0765 35.8072 13.0203 36.1338C12.9641 36.4604 13.0254 36.7964 13.1933 37.0821C13.3612 37.3679 13.6249 37.5849 13.9375 37.6948V38.8051C13.6249 38.9151 13.3612 39.1321 13.1933 39.4179C13.0254 39.7036 12.9641 40.0396 13.0203 40.3662C13.0765 40.6928 13.2465 40.989 13.5002 41.2023C13.7538 41.4155 14.0748 41.5321 14.4063 41.5313H17.2188C17.2803 41.5313 17.3413 41.5192 17.3982 41.4956C17.455 41.4721 17.5067 41.4375 17.5503 41.394C17.5938 41.3505 17.6283 41.2988 17.6519 41.2419C17.6754 41.185 17.6875 41.1241 17.6875 41.0625V39.5699C17.9609 39.4736 18.1978 39.295 18.3657 39.0587C18.5335 38.8224 18.6241 38.5399 18.625 38.25ZM14.4063 35.9063H16.75V36.8438H14.4063C14.2819 36.8438 14.1627 36.7944 14.0748 36.7065C13.9869 36.6186 13.9375 36.4993 13.9375 36.375C13.9375 36.2507 13.9869 36.1315 14.0748 36.0435C14.1627 35.9556 14.2819 35.9063 14.4063 35.9063ZM16.75 40.5938H14.4063C14.2819 40.5938 14.1627 40.5444 14.0748 40.4565C13.9869 40.3686 13.9375 40.2493 13.9375 40.125C13.9375 40.0007 13.9869 39.8815 14.0748 39.7935C14.1627 39.7056 14.2819 39.6563 14.4063 39.6563H16.75V40.5938ZM17.2188 38.7188H14.875V37.7813H17.2188C17.3431 37.7813 17.4623 37.8306 17.5502 37.9185C17.6381 38.0065 17.6875 38.1257 17.6875 38.25C17.6875 38.3743 17.6381 38.4936 17.5502 38.5815C17.4623 38.6694 17.3431 38.7188 17.2188 38.7188Z" fill="white"/>
<path d="M42.5071 23.7916L42.2923 15.9478C42.2838 15.6438 42.1572 15.3551 41.9392 15.1431C41.7212 14.9311 41.4292 14.8125 41.1251 14.8125C40.821 14.8124 40.529 14.931 40.311 15.143C40.093 15.3549 39.9662 15.6436 39.9577 15.9475L39.7272 24.2511L35.6581 29.7996L32.5236 27.1128C32.4822 27.0771 32.4348 27.0489 32.3835 27.0298L28.6726 25.6382L26.5938 24.3908V22.8914C26.9722 22.5876 27.2885 22.2135 27.5254 21.7899C27.681 21.8257 27.8403 21.8437 28 21.8438C28.4656 21.8722 28.9236 21.7159 29.2746 21.4087C29.6257 21.1016 29.8414 20.6684 29.875 20.2031V16.2188C29.8739 15.2245 29.4784 14.2714 28.7754 13.5684C28.0724 12.8653 27.1192 12.4699 26.125 12.4688H22.375C21.9528 12.4693 21.5431 12.6121 21.212 12.8741C20.8809 13.136 20.6477 13.5018 20.5499 13.9125C20.0101 14.0113 19.5219 14.2961 19.1703 14.7174C18.8186 15.1387 18.6257 15.67 18.625 16.2188V20.2031C18.6586 20.6684 18.8743 21.1016 19.2254 21.4087C19.5764 21.7159 20.0344 21.8722 20.5 21.8438C20.6597 21.8437 20.819 21.8257 20.9746 21.7899C21.2115 22.2135 21.5278 22.5876 21.9062 22.8914V24.3908L19.8274 25.6382L17.942 26.3454C17.3177 26.5817 16.7798 27.0019 16.3996 27.5506C16.0193 28.0992 15.8146 28.7504 15.8125 29.4179V33.5625C15.8125 33.6868 15.8619 33.806 15.9498 33.894C16.0377 33.9819 16.1569 34.0312 16.2812 34.0312C16.4056 34.0312 16.5248 33.9819 16.6127 33.894C16.7006 33.806 16.75 33.6868 16.75 33.5625V29.4179C16.7515 28.9411 16.8977 28.476 17.1694 28.0841C17.441 27.6923 17.8252 27.3921 18.2712 27.2234L19.5625 26.7391V40.5938H19.0938C18.9694 40.5938 18.8502 40.6431 18.7623 40.731C18.6744 40.819 18.625 40.9382 18.625 41.0625C18.625 41.1868 18.6744 41.306 18.7623 41.394C18.8502 41.4819 18.9694 41.5312 19.0938 41.5312H32.2188C32.2803 41.5313 32.3413 41.5192 32.3982 41.4956C32.455 41.472 32.5067 41.4375 32.5502 41.394C32.5938 41.3505 32.6283 41.2988 32.6519 41.2419C32.6754 41.185 32.6875 41.1241 32.6875 41.0625V34.7396L36.2068 36.2347C36.3117 36.2792 36.4292 36.2841 36.5374 36.2483C36.6455 36.2125 36.737 36.1385 36.7946 36.0402L42.767 25.8414C42.9554 25.5188 43.032 25.143 42.9851 24.7724C42.9381 24.4018 42.7701 24.057 42.5071 23.7916ZM41.125 15.75C41.185 15.7497 41.2427 15.773 41.2857 15.8148C41.3286 15.8566 41.3535 15.9137 41.3548 15.9736L41.5557 23.3087C41.2642 23.2562 40.9638 23.2871 40.6891 23.3979L40.8952 15.9736C40.8965 15.9136 40.9213 15.8566 40.9643 15.8147C41.0073 15.7729 41.065 15.7497 41.125 15.75ZM23.7343 29.3438H24.7657L25.6311 37.5659L24.25 38.6016L22.8689 37.5659L23.7343 29.3438ZM24.9051 28.4062H23.5949L23.2197 27.6961L24.25 27.0779L25.2803 27.6961L24.9051 28.4062ZM25.0058 26.4381L26.1978 25.2465L27.713 26.1557L26.521 27.3472L25.0058 26.4381ZM21.4375 19.9688V18.0477C22.0191 17.9654 22.559 17.6987 22.9779 17.287C24.2725 17.8232 25.6612 18.0953 27.0625 18.0873V19.9688C27.0625 20.7147 26.7662 21.43 26.2387 21.9575C25.7113 22.4849 24.9959 22.7812 24.25 22.7812C23.5041 22.7812 22.7887 22.4849 22.2613 21.9575C21.7338 21.43 21.4375 20.7147 21.4375 19.9688ZM28 20.9062C27.9598 20.9039 27.9197 20.8994 27.88 20.8929C27.9585 20.5911 27.9988 20.2806 28 19.9688V19.5C28.5081 19.5 28.9375 19.822 28.9375 20.2031C28.9375 20.5842 28.5081 20.9062 28 20.9062ZM20.9688 14.8125C21.0303 14.8125 21.0913 14.8004 21.1482 14.7769C21.205 14.7533 21.2567 14.7188 21.3002 14.6752C21.3438 14.6317 21.3783 14.58 21.4019 14.5232C21.4254 14.4663 21.4375 14.4053 21.4375 14.3438C21.4378 14.0952 21.5366 13.8569 21.7124 13.6812C21.8882 13.5054 22.1264 13.4065 22.375 13.4062H26.125C26.8707 13.4071 27.5856 13.7036 28.1128 14.2309C28.6401 14.7582 28.9367 15.4731 28.9375 16.2188V18.7907C28.6475 18.6414 28.3262 18.5631 28 18.5625V17.625C28 17.5634 27.9879 17.5025 27.9644 17.4456C27.9408 17.3887 27.9063 17.337 27.8627 17.2935C27.8192 17.25 27.7675 17.2154 27.7107 17.1919C27.6538 17.1683 27.5928 17.1562 27.5312 17.1562C24.4665 17.1562 23.1143 16.3044 23.1038 16.2975C23.0506 16.262 22.9907 16.2378 22.9279 16.2264C22.865 16.2149 22.8005 16.2164 22.7382 16.2308C22.6759 16.2452 22.6173 16.2722 22.5658 16.3102C22.5144 16.3481 22.4713 16.3961 22.4391 16.4513C22.0372 17.14 20.9774 17.1562 20.9688 17.1562C20.9072 17.1562 20.8462 17.1683 20.7893 17.1919C20.7325 17.2154 20.6808 17.25 20.6373 17.2935C20.5937 17.337 20.5592 17.3887 20.5356 17.4456C20.5121 17.5025 20.5 17.5634 20.5 17.625V18.5625C20.1738 18.5631 19.8525 18.6414 19.5625 18.7907V16.2188C19.5629 15.8459 19.7112 15.4885 19.9748 15.2248C20.2385 14.9612 20.5959 14.8129 20.9688 14.8125ZM20.5 20.9062C19.9919 20.9062 19.5625 20.5842 19.5625 20.2031C19.5625 19.822 19.9919 19.5 20.5 19.5V19.9688C20.5012 20.2806 20.5415 20.5911 20.62 20.8929C20.5803 20.8994 20.5402 20.9039 20.5 20.9062ZM24.25 23.7188C24.7322 23.7186 25.2098 23.6248 25.6562 23.4427V24.4622L24.25 25.8684L22.8438 24.4622V23.4427C23.2902 23.6248 23.7678 23.7186 24.25 23.7188ZM22.3022 25.2465L23.4942 26.4381L21.979 27.3472L20.787 26.1557L22.3022 25.2465ZM20.5 27.1941L21.5748 28.2689C21.6488 28.3429 21.7453 28.39 21.849 28.4028C21.9528 28.4155 22.0579 28.3932 22.1475 28.3394L22.4148 28.1791L22.8314 28.968L21.909 37.7323C21.9004 37.8129 21.9129 37.8944 21.9454 37.9687C21.9778 38.043 22.029 38.1076 22.0939 38.1562L23.9689 39.5624C24.05 39.6233 24.1486 39.6563 24.25 39.6563C24.3514 39.6563 24.45 39.6233 24.5311 39.5624L26.4061 38.1562C26.471 38.1076 26.5222 38.043 26.5546 37.9687C26.5871 37.8944 26.5996 37.8129 26.591 37.7323L25.6686 28.9679L26.0853 28.1791L26.3525 28.3394C26.4421 28.3932 26.5472 28.4155 26.651 28.4027C26.7547 28.3899 26.8512 28.3428 26.9252 28.2689L28 27.1941V40.5938H20.5V27.1941ZM36.1935 35.2107L32.6875 33.7212V31.6875C32.6875 31.5632 32.6381 31.444 32.5502 31.356C32.4623 31.2681 32.3431 31.2188 32.2188 31.2188C32.0944 31.2188 31.9752 31.2681 31.8873 31.356C31.7994 31.444 31.75 31.5632 31.75 31.6875V40.5938H28.9375V26.7391L31.9766 27.8787L35.1023 30.5576L34.6499 31.1744C34.5767 31.2747 34.5463 31.3999 34.5653 31.5226C34.5844 31.6453 34.6513 31.7554 34.7514 31.8289C34.8516 31.9023 34.9768 31.933 35.0995 31.9142C35.2222 31.8954 35.3325 31.8287 35.4061 31.7287L39.4774 26.1772L40.8713 27.2227L36.1935 35.2107ZM41.9577 25.3676L41.348 26.4088L40.0317 25.4214L40.6846 24.5311C40.8002 24.3734 40.972 24.2661 41.1644 24.2314C41.3568 24.1967 41.5551 24.2373 41.7185 24.3446C41.8819 24.452 41.9978 24.618 42.0423 24.8084C42.0868 24.9988 42.0565 25.1989 41.9577 25.3676Z" fill="white"/>
</g>
<defs>
<clipPath id="clip0_3771_11109">
<rect width="30" height="30" fill="white" transform="translate(13 12)"/>
</clipPath>
</defs>
</svg>
