<svg width="74" height="74" viewBox="0 0 74 74" fill="none" xmlns="http://www.w3.org/2000/svg">
<g clip-path="url(#clip0_3937_3410)">
<path d="M73.0111 39.1769C72.1691 37.718 70.804 36.6729 69.1672 36.2342C67.5302 35.7956 65.8256 36.0179 64.3667 36.8602L47.1 46.8288C46.8975 43.9954 44.9394 41.4638 42.047 40.6764L22.7742 35.4308C22.7244 35.4172 22.6736 35.4069 22.6223 35.4003C19.7534 35.0205 17.1346 35.7197 14.8386 37.4784L9.51378 41.5562L9.24177 40.5413C9.08336 39.9501 8.70324 39.4556 8.1718 39.1486C7.63993 38.8416 7.02191 38.7599 6.43078 38.918L1.84495 40.1467C0.622502 40.4744 -0.105501 41.7354 0.222006 42.958L6.8703 67.7695C7.02871 68.3606 7.40868 68.8554 7.94041 69.1624C8.29494 69.3672 8.68807 69.4717 9.08596 69.4717C9.28469 69.4717 9.48458 69.4455 9.68143 69.3929L14.2671 68.1642C15.4896 67.8366 16.2176 66.5755 15.8901 65.353L15.6091 64.3044C18.4114 62.177 20.9802 61.5742 24.1025 62.2902L35.1416 64.8209C36.1096 65.0428 37.0402 65.1541 37.9392 65.1541C39.7727 65.1541 41.4743 64.691 43.0884 63.7592L70.6949 47.821C73.7163 46.0767 74.7553 42.1989 73.0111 39.1769ZM9.09955 67.1548L2.46007 42.3761L7.01252 41.1563L13.652 65.935L9.09955 67.1548ZM69.5386 45.8183L41.9321 61.7566C40.0563 62.8397 38.0038 63.1051 35.6585 62.567L24.6193 60.0362C21.0936 59.2282 18.0631 59.8074 14.9691 61.9161L10.1613 43.973L16.2446 39.3142C18.0414 37.9378 20.0044 37.4036 22.2439 37.683L41.4397 42.9077C43.8686 43.5689 45.3067 46.0827 44.6457 48.5114C43.9845 50.94 41.4715 52.3781 39.0421 51.7171L28.7471 48.9151C28.1313 48.7478 27.4956 49.1111 27.328 49.7271C27.1602 50.3432 27.5237 50.9787 28.14 51.1464L38.4349 53.9484C39.0372 54.1123 39.6429 54.1905 40.2391 54.1905C43.0527 54.1905 45.6527 52.4475 46.6726 49.7456L65.523 38.8627C66.4468 38.3294 67.5279 38.1889 68.5685 38.4677C69.6084 38.7465 70.4749 39.4087 71.0082 40.3326C72.1152 42.2506 71.456 44.7114 69.5386 45.8183ZM15.949 29.6388H32.1229C31.9301 30.4956 31.8249 31.3854 31.8249 32.2995C31.8249 32.9381 32.3426 33.4558 32.9812 33.4558H54.8924C55.5309 33.4558 56.0486 32.9381 56.0486 32.2995C56.0486 31.3852 55.9434 30.4956 55.7506 29.6388H71.9245C72.5631 29.6388 73.0808 29.1211 73.0808 28.4826C73.0808 23.3373 69.8543 18.934 65.3193 17.1821C66.9774 15.8857 68.0463 13.8689 68.0463 11.606C68.0463 7.70348 64.8713 4.52856 60.9688 4.52856C57.0663 4.52856 53.8914 7.70348 53.8914 11.606C53.8914 13.8718 54.9629 15.8907 56.6243 17.187C54.1559 18.1441 52.0289 19.8985 50.6218 22.2065C49.8948 21.7233 49.1124 21.318 48.2872 20.9992C49.9451 19.7028 51.014 17.686 51.014 15.423C51.014 11.5206 47.8391 8.34563 43.9366 8.34563C40.0341 8.34563 36.8591 11.5206 36.8591 15.423C36.8591 17.686 37.928 19.7028 39.5861 20.9992C38.7608 21.318 37.9785 21.7234 37.2515 22.2065C35.8443 19.8983 33.7174 18.1441 31.249 17.1869C32.9105 15.8906 33.9819 13.8716 33.9819 11.606C33.9819 7.70348 30.807 4.52856 26.9045 4.52856C23.002 4.52856 19.8272 7.70334 19.8272 11.6058C19.8272 13.8689 20.8962 15.8855 22.5541 17.182C18.0193 18.9338 14.7928 23.3371 14.7928 28.4825C14.7928 29.1211 15.3105 29.6388 15.949 29.6388ZM56.2037 11.6058C56.2037 8.97839 58.3412 6.84092 60.9686 6.84092C63.5961 6.84092 65.7337 8.97854 65.7337 11.6058C65.7337 14.2331 63.5961 16.3707 60.9686 16.3707C58.3412 16.3707 56.2037 14.2333 56.2037 11.6058ZM60.9686 18.6832C65.981 18.6832 70.1264 22.4658 70.7004 27.3263H54.9761C54.3571 25.9578 53.4929 24.7233 52.4367 23.6816C54.1703 20.6205 57.4335 18.6832 60.9686 18.6832ZM39.1717 15.4228C39.1717 12.7953 41.3093 10.6578 43.9368 10.6578C46.5642 10.6578 48.7017 12.7955 48.7017 15.4228C48.7017 18.05 46.5642 20.1877 43.9368 20.1877C41.3093 20.1877 39.1717 18.0502 39.1717 15.4228ZM53.6682 31.1433H34.2051C34.779 26.2828 38.9243 22.5002 43.9366 22.5002C48.949 22.5002 53.0944 26.2828 53.6682 31.1433ZM26.9046 6.84092C29.5321 6.84092 31.6695 8.97854 31.6695 11.6058C31.6695 14.2331 29.5321 16.3707 26.9046 16.3707C24.2772 16.3707 22.1397 14.2333 22.1397 11.6058C22.1397 8.97839 24.2772 6.84092 26.9046 6.84092ZM26.9048 18.6832C30.4399 18.6832 33.7031 20.6205 35.4368 23.6816C34.3807 24.7233 33.5164 25.9576 32.8973 27.3263H17.1731C17.7469 22.4658 21.8924 18.6832 26.9048 18.6832Z" fill="#FC8B20"/>
</g>
<defs>
<clipPath id="clip0_3937_3410">
<rect width="74" height="74" fill="white"/>
</clipPath>
</defs>
</svg>
