<svg width="24" height="23" viewBox="0 0 24 23" fill="none" xmlns="http://www.w3.org/2000/svg">
<path d="M7.09815 13.2045H0V22.7363H7.09815V13.2045Z" fill="#FC8B20"/>
<path d="M23.9995 10.7554H16.9014V22.7363H23.9995V10.7554Z" fill="#FC8B20"/>
<path d="M15.5504 7.20117H8.4502V22.7364H15.5504V7.20117Z" fill="#FC8B20"/>
<path d="M20.5056 3.53357L21.5108 5.57278L23.7622 5.90027L22.1349 7.48738L22.518 9.72952L20.5056 8.67076L18.4932 9.72952L18.8763 7.48738L17.249 5.90027L19.4984 5.57274L20.5056 3.53357Z" fill="#FC8B20"/>
<path d="M12.0388 0L13.045 2.04027L15.2964 2.3678L13.6692 3.95591L14.0533 6.19595L12.0399 5.13824L10.0264 6.19595L10.4095 3.95591L8.78223 2.3678L11.0326 2.04027L12.0388 0Z" fill="#FC8B20"/>
<path d="M3.42548 5.91162L4.43067 7.95189L6.68207 8.28042L5.05585 9.86649L5.43896 12.1076L3.42548 11.0499L1.412 12.1086L1.79616 9.86754L0.168945 8.28143L2.41929 7.95289L3.42548 5.91162Z" fill="#FC8B20"/>
</svg>
