<svg width="24" height="24" viewBox="0 0 24 24" fill="none" xmlns="http://www.w3.org/2000/svg">
<g clip-path="url(#clip0_3937_3350)">
<path fill-rule="evenodd" clip-rule="evenodd" d="M2.66546 15.5316C1.81836 14.6872 1.14606 13.6841 0.687017 12.5797C0.227973 11.4752 -0.00880201 10.2911 -0.00976269 9.09509C-0.0107234 7.89905 0.22415 6.71456 0.681418 5.60938C1.13869 4.50421 1.80938 3.50003 2.65512 2.65432C3.50086 1.8086 4.50505 1.13794 5.61024 0.680706C6.71543 0.22347 7.89992 -0.0113684 9.09596 -0.0103728C10.292 -0.00937729 11.4761 0.227433 12.5805 0.686508C13.685 1.14558 14.688 1.81792 15.5324 2.66504C16.3795 3.50939 17.0518 4.51249 17.5108 5.61693C17.9699 6.72137 18.2066 7.90548 18.2076 9.10152C18.2085 10.2976 17.9737 11.482 17.5164 12.5872C17.0591 13.6924 16.3884 14.6966 15.5427 15.5423C14.697 16.388 13.6928 17.0587 12.5876 17.5159C11.4824 17.9731 10.2979 18.208 9.10186 18.207C7.90582 18.206 6.72172 17.9692 5.61729 17.5101C4.51286 17.051 3.50979 16.3787 2.66546 15.5316ZM23.4856 23.4848C23.8141 23.1536 23.9985 22.7059 23.9985 22.2394C23.9985 21.7728 23.8141 21.3252 23.4856 20.9939L17.5504 15.0586C17.2088 15.54 16.8273 15.9918 16.4099 16.4091C15.9928 16.8269 15.5409 17.2085 15.0591 17.5496L20.9943 23.4848C21.3249 23.8147 21.7729 24 22.24 24C22.707 24 23.155 23.8147 23.4856 23.4848ZM14.0778 4.47704C11.7866 4.64912 10.3398 4.05755 9.65588 2.66799C9.60466 2.56397 9.52534 2.47638 9.4269 2.41512C9.32846 2.35387 9.21483 2.3214 9.09889 2.3214C8.98295 2.3214 8.86932 2.35387 8.77088 2.41512C8.67244 2.47638 8.59312 2.56397 8.5419 2.66799C7.85804 4.05755 6.41152 4.64912 4.11994 4.47694C3.96546 4.46547 3.81227 4.51212 3.6904 4.60774C3.56853 4.70336 3.48678 4.84106 3.46116 4.99383C3.05696 7.41943 3.43491 9.7763 4.55513 11.8099C5.55826 13.6317 7.08455 15.0579 8.85249 15.8242C8.9303 15.8581 9.01426 15.8756 9.09912 15.8756C9.18399 15.8756 9.26795 15.8581 9.34576 15.8242C11.1137 15.0579 12.64 13.6317 13.6431 11.8099C14.7634 9.7763 15.1413 7.41943 14.7371 4.99383C14.7118 4.84088 14.63 4.70297 14.508 4.6073C14.386 4.51162 14.2326 4.46512 14.078 4.47694L14.0778 4.47704ZM9.09873 14.5721C11.7013 13.3155 14.0899 10.1092 13.5893 5.74351C13.5084 5.74569 13.4283 5.74679 13.3488 5.74679C11.4335 5.74679 10.0106 5.18926 9.09877 4.08418C8.14923 5.23547 6.64435 5.79151 4.60857 5.74355C4.10785 10.1092 6.49651 13.3155 9.09873 14.5721ZM11.7412 7.92301C11.7918 7.85892 11.8294 7.78547 11.8516 7.70685C11.8738 7.62824 11.8802 7.54601 11.8706 7.46489C11.861 7.38376 11.8354 7.30534 11.7954 7.23412C11.7554 7.16291 11.7017 7.10029 11.6374 7.04987C11.5731 6.99945 11.4995 6.96222 11.4208 6.94032C11.3421 6.91841 11.2598 6.91226 11.1788 6.92222C11.0977 6.93218 11.0194 6.95806 10.9483 6.99836C10.8772 7.03866 10.8148 7.09259 10.7647 7.15707L8.72813 9.75338L7.35812 8.53041C7.29741 8.47571 7.2265 8.43354 7.14946 8.40632C7.07241 8.3791 6.99075 8.36736 6.90915 8.37179C6.82756 8.37622 6.74765 8.39672 6.674 8.43212C6.60035 8.46752 6.53442 8.51711 6.47999 8.57806C6.42557 8.63901 6.38372 8.71011 6.35684 8.78728C6.32997 8.86445 6.31861 8.94616 6.3234 9.02774C6.3282 9.10931 6.34906 9.18913 6.3848 9.26262C6.42053 9.3361 6.47042 9.40181 6.53162 9.45596L8.39494 11.1197C8.50881 11.221 8.65594 11.2771 8.80838 11.2771C8.82664 11.2773 8.8449 11.2765 8.86308 11.2748C8.94758 11.2674 9.02965 11.2426 9.1042 11.2022C9.17875 11.1617 9.2442 11.1063 9.29649 11.0395L11.7412 7.92301Z" fill="#FC8B20"/>
</g>
<defs>
<clipPath id="clip0_3937_3350">
<rect width="24" height="24" fill="white"/>
</clipPath>
</defs>
</svg>
