<svg width="23" height="23" viewBox="0 0 23 23" fill="none" xmlns="http://www.w3.org/2000/svg">
<g clip-path="url(#clip0_3937_3330)">
<path d="M6.66375 14.5073C6.66375 13.1523 5.56138 12.0499 4.20639 12.0499C0.946364 12.1849 0.94729 16.8302 4.20639 16.9646C5.56142 16.9646 6.66375 15.8623 6.66375 14.5073Z" fill="#FC8B20"/>
<path d="M20.8395 14.5073C20.8395 13.1523 19.7372 12.0499 18.3822 12.0499C15.1221 12.1849 15.1231 16.8302 18.3822 16.9646C19.7372 16.9646 20.8395 15.8623 20.8395 14.5073Z" fill="#FC8B20"/>
<path d="M13.7516 14.5073C13.7516 13.1523 12.6493 12.0499 11.2943 12.0499C8.03425 12.1849 8.03518 16.8302 11.2943 16.9646C12.6493 16.9646 13.7516 15.8623 13.7516 14.5073Z" fill="#FC8B20"/>
<path d="M6.84177 17.8957C4.14667 15.6878 -0.0164072 17.6564 4.86365e-05 21.1705V21.9263C4.86365e-05 22.2918 0.296343 22.5881 0.661813 22.5881H5.87859C5.80514 22.381 5.76477 22.1584 5.76477 21.9263V21.1705C5.76477 19.9458 6.16527 18.813 6.84177 17.8957Z" fill="#FC8B20"/>
<path d="M18.3819 16.9647C17.3848 16.9647 16.4678 17.3138 15.7461 17.8958C16.4226 18.8131 16.8231 19.9459 16.8231 21.1706V21.9265C16.8231 22.1584 16.7827 22.3811 16.7093 22.5882H21.9261C22.2915 22.5882 22.5878 22.2919 22.5878 21.9265V21.1706C22.5878 18.8515 20.7011 16.9647 18.3819 16.9647Z" fill="#FC8B20"/>
<path d="M11.2938 16.9647C8.97463 16.9647 7.08789 18.8515 7.08789 21.1706V21.9265C7.08789 22.2919 7.38418 22.5882 7.74966 22.5882H14.8379C15.2034 22.5882 15.4997 22.2919 15.4997 21.9265V21.1706C15.4996 18.8515 13.6129 16.9647 11.2938 16.9647Z" fill="#FC8B20"/>
<path d="M6.09161 0.193814C5.83322 -0.0645827 5.41419 -0.0646268 5.15574 0.193814C4.8973 0.452256 4.8973 0.871241 5.15574 1.12968L5.86454 1.83852C6.12302 2.09701 6.54201 2.09687 6.80041 1.83852C7.05885 1.58008 7.05885 1.16109 6.80041 0.902653L6.09161 0.193814Z" fill="#FC8B20"/>
<path d="M5.86451 5.86436L5.15571 6.5732C4.89731 6.83164 4.89731 7.25063 5.15571 7.50907C5.41424 7.76755 5.83323 7.76742 6.09158 7.50907L6.80037 6.80023C7.05877 6.54179 7.05877 6.1228 6.80037 5.86436C6.54193 5.60592 6.12299 5.60592 5.86451 5.86436Z" fill="#FC8B20"/>
<path d="M4.30183 4.51323H5.30427C6.1823 4.47824 6.18164 3.22433 5.30427 3.1897H4.30183C3.4238 3.22468 3.42446 4.47859 4.30183 4.51323Z" fill="#FC8B20"/>
<path d="M16.7235 1.8385L17.4323 1.12967C17.6907 0.871224 17.6907 0.452239 17.4323 0.193798C17.1738 -0.0645993 16.7548 -0.0645993 16.4964 0.193798L15.7875 0.902636C15.5292 1.16108 15.5292 1.58006 15.7875 1.8385C16.046 2.09686 16.465 2.09699 16.7235 1.8385Z" fill="#FC8B20"/>
<path d="M16.4964 7.50907C16.7547 7.76742 17.1737 7.7676 17.4322 7.50907C17.6907 7.25063 17.6907 6.83164 17.4322 6.5732L16.7234 5.86436C16.465 5.60592 16.046 5.60592 15.7876 5.86436C15.5291 6.1228 15.5291 6.54179 15.7876 6.80023L16.4964 7.50907Z" fill="#FC8B20"/>
<path d="M16.6221 3.85146C16.6221 4.21693 16.9184 4.51323 17.2838 4.51323H18.2863C19.1643 4.47824 19.1636 3.22433 18.2863 3.1897H17.2838C16.9184 3.1897 16.6221 3.48599 16.6221 3.85146Z" fill="#FC8B20"/>
<path d="M9.21484 8.45885C9.32942 11.2181 13.2602 11.216 13.3737 8.45885V8.36475H9.21484V8.45885Z" fill="#FC8B20"/>
<path d="M9.21428 7.04119H13.3731C13.3731 6.61868 13.5381 6.2161 13.8267 5.90723C15.9383 3.70713 14.3445 -0.00810437 11.2936 1.32804e-05C8.24285 -0.00810437 6.64893 3.70762 8.76062 5.90723C9.04923 6.2161 9.21428 6.61868 9.21428 7.04119Z" fill="#FC8B20"/>
</g>
<defs>
<clipPath id="clip0_3937_3330">
<rect width="22.5882" height="22.5882" fill="white"/>
</clipPath>
</defs>
</svg>
