<svg width="74" height="74" viewBox="0 0 74 74" fill="none" xmlns="http://www.w3.org/2000/svg">
<g clip-path="url(#clip0_3937_3372)">
<path d="M36.998 8.67041C35.8007 8.67041 35.002 9.3027 35.002 10.5C35.002 11.6973 36.3047 12 37.502 12C44.6756 12 51.002 18.3275 51.002 25.5C51.002 26.6973 51.3047 28 52.502 28C53.6992 28 54.344 27.2115 54.344 26.0142C54.344 16.4508 46.5627 8.67041 36.998 8.67041Z" fill="#FF9500"/>
<path d="M31.4113 0.582462C21.6164 2.62917 13.6744 10.4951 11.5846 20.3509C9.82005 28.6733 11.9945 37.0286 17.5504 43.2745C20.2663 46.3275 21.8238 50.3574 21.8238 54.3423V58.6782C21.8238 61.5631 23.7124 64.0139 26.3177 64.8627C27.1745 69.9249 31.5682 73.9984 36.9996 73.9984C42.4295 73.9984 46.8244 69.9262 47.6815 64.8627C50.2868 64.0139 52.1754 61.5631 52.1754 58.6781V54.3422C52.1754 50.3495 53.738 46.3679 56.5752 43.131C60.7281 38.3933 63.0152 32.3143 63.0152 26.0142C63.0152 9.60049 47.9913 -2.88137 31.4113 0.582462ZM37.001 71.5002C33.001 71.5002 29.135 68.0002 29.501 64.0002H33.9332H37.001H40.0658H44.501C44.8699 68.0002 41.501 71.5002 37.001 71.5002ZM49.001 58.0002C49.001 60.0002 46.8669 60.8462 45.6715 60.8462H28.3277C27.1323 60.8462 25.001 60.0002 25.001 58.0002V55.0002H49.001V58.0002ZM54.501 40.0002C52.1754 44.0002 50.001 47.0002 49.001 51.2749H25.001C24.501 47.0002 22.501 43.5002 20.001 40.0002C15.3705 34.7948 13.5252 27.46 15.001 20.5002C16.7236 12.3756 24.3432 5.62617 32.4729 3.92749C46.3514 1.02718 59.501 11.3351 59.501 25.0002C59.501 30.2485 57.9605 36.0534 54.501 40.0002Z" fill="#FF9500"/>
<path d="M8.55066 28.239C8.54708 27.0416 7.77134 26.4458 6.57409 26.4495L2.23821 26.4624C1.04086 26.466 0.0618582 27.0669 0.0654315 28.2643C0.0689023 29.4615 0.993538 29.6758 2.191 29.6721L4.35894 29.6656L6.52688 29.6592C7.72424 29.6556 8.55423 29.4363 8.55066 28.239Z" fill="#FF9500"/>
<path d="M1.30762 12.2437C2.15428 11.3971 3.1245 11.5214 3.97102 12.368L7.03697 15.434C7.88363 16.2806 8.15428 17.397 7.30761 18.2437C6.46109 19.0904 5.65428 18.5905 4.80762 17.7437L3.27465 16.2107L1.74168 14.6777C0.895011 13.831 0.460953 13.0904 1.30762 12.2437Z" fill="#FF9500"/>
<path d="M6.99902 37.9998C6.15236 37.1532 5.18214 37.2775 4.33562 38.1242L1.26967 41.1901C0.423011 42.0368 0.152365 43.1531 0.999029 43.9998C1.84555 44.8465 2.65236 44.3466 3.49902 43.4998L5.03199 41.9668L6.56497 40.4338C7.41163 39.5871 7.84569 38.8465 6.99902 37.9998Z" fill="#FF9500"/>
<path d="M73.8778 28.239C73.8742 27.0416 73.0985 26.4458 71.9012 26.4495L67.5654 26.4624C66.368 26.466 65.389 27.0669 65.3926 28.2643C65.3961 29.4615 66.3207 29.6758 67.5181 29.6721L69.6861 29.6656L71.854 29.6592C73.0514 29.6556 73.8814 29.4363 73.8778 28.239Z" fill="#FF9500"/>
<path d="M72.6953 12.2437C71.8486 11.3971 70.8784 11.5214 70.0319 12.368L66.966 15.434C66.1193 16.2806 65.8487 17.397 66.6953 18.2437C67.5418 19.0904 68.3486 18.5905 69.1953 17.7437L70.7283 16.2107L72.2613 14.6777C73.1079 13.831 73.542 13.0904 72.6953 12.2437Z" fill="#FF9500"/>
<path d="M66.6357 38.2594C67.4824 37.4127 68.4526 37.537 69.2991 38.3837L72.3651 41.4496C73.2118 42.2963 73.4824 43.4127 72.6357 44.2593C71.7892 45.106 70.9824 44.6061 70.1357 43.7593L68.6028 42.2263L67.0698 40.6933C66.2231 39.8467 65.7891 39.106 66.6357 38.2594Z" fill="#FF9500"/>
</g>
<defs>
<clipPath id="clip0_3937_3372">
<rect width="74" height="74" fill="white"/>
</clipPath>
</defs>
</svg>
