<svg width="24" height="24" viewBox="0 0 24 24" fill="none" xmlns="http://www.w3.org/2000/svg">
<g clip-path="url(#clip0_10882_9689)">
<path d="M9.83242 4.37705L9.56162 5.95636C9.51639 6.22017 9.62481 6.48675 9.84133 6.64406C9.96381 6.73303 10.1089 6.77831 10.2547 6.77831C10.3666 6.77831 10.479 6.75164 10.5818 6.6975L12 5.95191L13.4184 6.69759C13.5212 6.75164 13.6336 6.77836 13.7455 6.77836H13.7475C14.1354 6.77784 14.4497 6.46322 14.4497 6.07523C14.4497 6.02128 14.4436 5.96864 14.432 5.91811L14.1676 4.377L15.315 3.25861C15.5066 3.07181 15.5756 2.79239 15.4929 2.53786C15.4102 2.28328 15.1901 2.09775 14.9253 2.05931L13.3398 1.82887L12.6305 0.391875C12.5121 0.151922 12.2676 0 11.9999 0C11.7323 0 11.4879 0.151969 11.3695 0.391969L10.6604 1.82883L9.07464 2.05927C8.80984 2.0977 8.58977 2.28323 8.50712 2.53781C8.42434 2.79234 8.49339 3.07177 8.68502 3.25856L9.83242 4.37705Z" fill="#48BF84"/>
<path d="M22.6823 17.3435C21.7268 18.1449 20.496 18.6282 19.1542 18.6282C18.707 18.6282 18.2722 18.5742 17.8556 18.4729C18.111 19.1542 18.2511 19.8915 18.2511 20.661V21.4141C18.2511 22.3999 17.8912 23.3028 17.2969 24H21.4136C22.8396 24 23.9996 22.84 23.9996 21.4141V20.661C23.9996 19.3786 23.4986 18.2111 22.6823 17.3435Z" fill="#48BF84"/>
<path d="M11.9985 17.222C14.2549 17.222 16.0906 15.3863 16.0906 13.1298C16.0906 10.8733 14.2549 9.0376 11.9985 9.0376C9.74202 9.0376 7.90625 10.8733 7.90625 13.1298C7.90625 15.3863 9.74206 17.222 11.9985 17.222Z" fill="#48BF84"/>
<path d="M19.1549 17.222C21.4114 17.222 23.2471 15.3863 23.2471 13.1298C23.2471 10.8733 21.4114 9.0376 19.1549 9.0376C18.1519 9.0376 17.2321 9.4006 16.5195 10.0018C17.1364 10.8904 17.4986 11.9685 17.4986 13.1297C17.4986 14.291 17.1364 15.3691 16.5195 16.2577C17.2321 16.859 18.1518 17.222 19.1549 17.222Z" fill="#48BF84"/>
<path d="M4.84605 17.2219C5.84917 17.2219 6.76891 16.8589 7.48145 16.2577C6.86453 15.3691 6.50233 14.291 6.50233 13.1297C6.50233 11.9685 6.86453 10.8904 7.48145 10.0018C6.76895 9.4006 5.84922 9.0376 4.84605 9.0376C2.58962 9.0376 0.753906 10.8733 0.753906 13.1298C0.753906 15.3863 2.58967 17.2219 4.84605 17.2219Z" fill="#48BF84"/>
<path d="M12.0016 18.6282C10.6599 18.6282 9.42903 18.1448 8.47353 17.3435C7.65725 18.2111 7.15625 19.3786 7.15625 20.661V21.4141C7.15625 22.84 8.31631 24 9.74216 24H14.2609C15.6868 24 16.8468 22.84 16.8468 21.4141V20.661C16.8468 19.3786 16.3458 18.2111 15.5295 17.3435C14.574 18.1449 13.3433 18.6282 12.0016 18.6282Z" fill="#48BF84"/>
<path d="M5.74842 20.661C5.74842 19.8915 5.88853 19.1542 6.14395 18.4729C5.72738 18.5741 5.29256 18.6282 4.84523 18.6282C3.50353 18.6282 2.27278 18.1448 1.31723 17.3435C0.501 18.2111 0 19.3785 0 20.661V21.4141C0 22.84 1.16002 24 2.58591 24H6.70275C6.10838 23.3028 5.74842 22.3999 5.74842 21.4141V20.661Z" fill="#48BF84"/>
</g>
<defs>
<clipPath id="clip0_10882_9689">
<rect width="24" height="24" fill="white"/>
</clipPath>
</defs>
</svg>
