<svg width="24" height="24" viewBox="0 0 24 24" fill="none" xmlns="http://www.w3.org/2000/svg">
<path d="M12.0008 17.7137C15.1564 17.7137 17.7146 15.1556 17.7146 12C17.7146 8.84438 15.1564 6.28625 12.0008 6.28625C8.84523 6.28625 6.28711 8.84438 6.28711 12C6.28711 15.1556 8.84523 17.7137 12.0008 17.7137Z" stroke="#F27D26" stroke-width="1.5" stroke-miterlimit="10" stroke-linecap="round" stroke-linejoin="round"/>
<path d="M12.0001 14.1427C13.1834 14.1427 14.1427 13.1834 14.1427 12C14.1427 10.8167 13.1834 9.85736 12.0001 9.85736C10.8167 9.85736 9.85742 10.8167 9.85742 12C9.85742 13.1834 10.8167 14.1427 12.0001 14.1427Z" stroke="#F27D26" stroke-width="1.5" stroke-miterlimit="10" stroke-linecap="round" stroke-linejoin="round"/>
<path d="M22.7579 12C22.7579 12 17.9168 17.7137 12.0001 17.7137C6.08332 17.7137 1.24219 12 1.24219 12C1.24219 12 6.08332 6.28625 12.0001 6.28625C17.9168 6.28625 22.7579 12 22.7579 12Z" stroke="#F27D26" stroke-width="1.5" stroke-miterlimit="10" stroke-linecap="round" stroke-linejoin="round"/>
<path d="M15.8626 16.2097C15.0301 14.9635 13.6108 14.1426 11.9996 14.1426C10.3885 14.1426 8.96918 14.9635 8.13672 16.2097" stroke="#F27D26" stroke-width="1.5" stroke-miterlimit="10" stroke-linecap="round" stroke-linejoin="round"/>
<path d="M12 2.00098V3.78651" stroke="#F27D26" stroke-width="1.5" stroke-miterlimit="10" stroke-linecap="round" stroke-linejoin="round"/>
<path d="M6.28711 3.07233L7.35843 4.50076" stroke="#F27D26" stroke-width="1.5" stroke-miterlimit="10" stroke-linecap="round" stroke-linejoin="round"/>
<path d="M17.7119 3.07233L16.6406 4.50076" stroke="#F27D26" stroke-width="1.5" stroke-miterlimit="10" stroke-linecap="round" stroke-linejoin="round"/>
<path d="M12 21.999V20.2134" stroke="#F27D26" stroke-width="1.5" stroke-miterlimit="10" stroke-linecap="round" stroke-linejoin="round"/>
<path d="M17.7119 20.9277L16.6406 19.4993" stroke="#F27D26" stroke-width="1.5" stroke-miterlimit="10" stroke-linecap="round" stroke-linejoin="round"/>
<path d="M6.28711 20.9277L7.35843 19.4993" stroke="#F27D26" stroke-width="1.5" stroke-miterlimit="10" stroke-linecap="round" stroke-linejoin="round"/>
</svg>
