<svg width="412" height="438" viewBox="0 0 412 438" fill="none" xmlns="http://www.w3.org/2000/svg">
<mask id="mask0_3937_3424" style="mask-type:alpha" maskUnits="userSpaceOnUse" x="-856" y="0" width="1268" height="794">
<path d="M90.6696 790.246L400.452 745.024C408.46 743.856 413.346 735.978 410.575 728.704L194.878 162.663C152.656 51.8631 34.4129 -14.9752 -87.7227 2.86986L-634.417 82.6919C-796.775 106.444 -895.86 266.1 -839.731 413.439C-797.261 524.784 -678.487 592.048 -555.763 574.154L-241.828 528.295C-235.781 527.412 -229.922 530.729 -227.828 536.221L-191.94 630.359C-149.718 741.159 -31.4661 808.091 90.6696 790.246Z" fill="url(#paint0_linear_3937_3424)"/>
</mask>
<g mask="url(#mask0_3937_3424)">
<mask id="mask1_3937_3424" style="mask-type:luminance" maskUnits="userSpaceOnUse" x="-122" y="-126" width="1571" height="948">
<path d="M-122 -125.873H1448.8V821.127H-122V-125.873Z" fill="white"/>
</mask>
<g mask="url(#mask1_3937_3424)">
<path d="M89.1076 788.287L397.348 743.291C405.316 742.128 410.178 734.289 407.42 727.052L192.798 163.827C150.786 53.5779 33.131 -12.9278 -88.3966 4.82848L-632.369 84.2534C-793.919 107.887 -892.511 266.749 -836.662 413.355C-794.403 524.146 -676.22 591.075 -554.107 573.271L-241.735 527.64C-235.718 526.761 -229.888 530.061 -227.805 535.526L-192.096 629.196C-150.083 739.445 -32.42 806.043 89.1076 788.287Z" fill="url(#paint1_linear_3937_3424)"/>
<path d="M1447.15 -113.246V808.501C1447.15 815.47 1441.23 821.127 1433.95 821.127H-110.448C-117.734 821.127 -123.648 815.47 -123.648 808.501V-113.246C-123.648 -120.215 -117.734 -125.873 -110.448 -125.873H1433.95C1441.23 -125.873 1447.15 -120.215 1447.15 -113.246Z" fill="url(#paint2_linear_3937_3424)"/>
</g>
</g>
<defs>
<linearGradient id="paint0_linear_3937_3424" x1="1448.32" y1="833.297" x2="-89.1705" y2="-180.061" gradientUnits="userSpaceOnUse">
<stop stop-color="#E5F0FF"/>
<stop offset="0.5" stop-color="#E9EBFF"/>
<stop offset="1" stop-color="#EBE5FF"/>
</linearGradient>
<linearGradient id="paint1_linear_3937_3424" x1="1439.99" y1="831.124" x2="-89.8399" y2="-177.188" gradientUnits="userSpaceOnUse">
<stop stop-color="#FFD69C" stop-opacity="0.3"/>
<stop offset="0.5" stop-color="#FFBD61" stop-opacity="0.3"/>
<stop offset="1" stop-color="#FFBE62" stop-opacity="0.5"/>
</linearGradient>
<linearGradient id="paint2_linear_3937_3424" x1="661.749" y1="-125.873" x2="661.749" y2="821.127" gradientUnits="userSpaceOnUse">
<stop offset="0.35" stop-color="white" stop-opacity="0"/>
<stop offset="0.68" stop-color="white" stop-opacity="0.5"/>
<stop offset="1" stop-color="white"/>
</linearGradient>
</defs>
</svg>
