<svg width="24" height="24" viewBox="0 0 24 24" fill="none" xmlns="http://www.w3.org/2000/svg">
<g clip-path="url(#clip0_3937_3321)">
<path d="M23.5078 0.00294914C18.8228 -0.0810509 13.4798 2.36795 10.0978 6.16695C6.86577 6.22795 3.71877 7.55295 1.40177 9.86995C1.26677 10.003 1.21877 10.202 1.27777 10.382C1.33777 10.563 1.49377 10.694 1.68177 10.721L5.53577 11.273L5.05977 11.806C4.88277 12.004 4.89177 12.305 5.07977 12.493L11.5068 18.92C11.6038 19.017 11.7318 19.066 11.8608 19.066C11.9798 19.066 12.0988 19.024 12.1938 18.9389L12.7268 18.4629L13.2788 22.3169C13.3058 22.505 13.4538 22.643 13.6328 22.7029C13.6788 22.718 13.7268 22.725 13.7758 22.725C13.9178 22.725 14.0628 22.663 14.1628 22.5639C16.4478 20.2789 17.7728 17.132 17.8338 13.9C21.6368 10.511 24.1058 5.16995 23.9968 0.490949C23.9898 0.224949 23.7748 0.00994914 23.5078 0.00294914ZM18.8998 8.63495C18.4128 9.12195 17.7728 9.36595 17.1318 9.36595C16.4908 9.36595 15.8508 9.12195 15.3638 8.63495C14.3898 7.65995 14.3898 6.07395 15.3638 5.09895C16.3388 4.12395 17.9248 4.12395 18.8998 5.09895C19.8748 6.07395 19.8748 7.66095 18.8998 8.63495Z" fill="#FC8B20"/>
<path d="M2.72406 16.905C1.65406 17.975 0.185057 22.809 0.0210574 23.356C-0.0319426 23.532 0.0170574 23.723 0.146057 23.853C0.242057 23.949 0.369057 24 0.500058 24C0.548058 24 0.596058 23.993 0.644058 23.979C1.19106 23.815 6.02506 22.346 7.09506 21.276C8.30006 20.071 8.30006 18.11 7.09506 16.905C5.88906 15.7 3.92906 15.701 2.72406 16.905Z" fill="#FC8B20"/>
</g>
<defs>
<clipPath id="clip0_3937_3321">
<rect width="24" height="24" fill="white"/>
</clipPath>
</defs>
</svg>
