<svg preserveAspectRatio="none" width="100%" height="100%" overflow="visible" style="display: block;" viewBox="0 0 22 19.9995" fill="none" xmlns="http://www.w3.org/2000/svg">
<g id="Group">
<path id="Vector" d="M21 6.49947V11.4995M13.217 1.49947C12.5242 1.17061 11.7669 1 11 1C10.2331 1 9.47581 1.17061 8.783 1.49947L2.092 4.63647C0.636 5.31847 0.636 7.68047 2.092 8.36247L8.782 11.4995C9.47494 11.8285 10.2324 11.9992 10.9995 11.9992C11.7666 11.9992 12.5241 11.8285 13.217 11.4995L19.908 8.36247C21.364 7.68047 21.364 5.31847 19.908 4.63647L13.217 1.49947Z" stroke="var(--stroke-0, white)" stroke-width="2" stroke-linecap="round" stroke-linejoin="round"/>
<path id="Vector_2" d="M4 9.49951V14.6245C4 17.5425 8.694 18.9995 11 18.9995C13.306 18.9995 18 17.5425 18 14.6245V9.49951" stroke="var(--stroke-0, white)" stroke-width="2" stroke-linecap="round" stroke-linejoin="round"/>
</g>
</svg>
