<svg width="335" height="56" viewBox="0 0 335 56" fill="none" xmlns="http://www.w3.org/2000/svg">
<path d="M19.1831 0.015625C27.5414 0.015625 30.9669 3.34458 30.9669 10.8201V16.0375C30.9669 23.513 27.5414 26.842 19.1831 26.842H1.1549C0.39149 26.842 0 26.4526 0 25.6934V1.16421C0 0.404976 0.39149 0.015625 1.1549 0.015625H19.1831ZM5.89194 21.0212C5.89194 21.3716 6.04854 21.5273 6.40088 21.5273H19.0265C23.5678 21.5273 25.075 20.0672 25.075 15.5508V11.3458C25.075 6.82928 23.5678 5.36921 19.0265 5.36921H6.40088C6.04854 5.36921 5.89194 5.52495 5.89194 5.9143V21.0212Z" fill="#FF6614"/>
<path d="M43.4144 0.0194688C45.7241 0.0194688 46.4876 0.525626 47.5446 2.93961L55.5506 21.3365C55.668 21.609 55.8246 21.6869 56.0987 21.6869H56.5684C56.8425 21.6869 56.9991 21.609 57.1165 21.3365L65.1225 2.93961C66.16 0.525626 66.9234 0.0194688 69.2136 0.0194688H73.3438C76.0451 0.0194688 76.7302 1.09019 76.7302 4.01032V26.0087C76.7302 26.5927 76.4171 26.8458 75.8494 26.8458H71.9149C71.3277 26.8458 71.0732 26.5733 71.0732 26.0087V5.99602C71.0732 5.72347 70.9949 5.60667 70.76 5.60667H70.4077C70.1336 5.60667 69.977 5.68454 69.8987 5.91815L62.1276 23.0886C60.8553 25.853 59.7787 26.8458 57.1948 26.8458H55.3548C52.771 26.8458 51.6944 25.853 50.422 23.0886L42.6118 5.91815C42.5335 5.68454 42.3769 5.60667 42.1029 5.60667H41.7505C41.5156 5.60667 41.4373 5.72347 41.4373 5.99602V25.9892C41.4373 26.5733 41.1633 26.8263 40.5956 26.8263H36.6611C36.0739 26.8263 35.7803 26.5538 35.7803 25.9892V3.99086C35.7803 1.07072 36.4654 0 39.2058 0H43.4144V0.0194688Z" fill="#FF6614"/>
<path d="M86.7553 0.015625C87.3425 0.015625 87.597 0.28817 87.597 0.852731V16.1348C87.597 20.2035 88.7519 21.391 92.7256 21.391H108.326C108.914 21.391 109.168 21.6636 109.168 22.2281V25.9854C109.168 26.5694 108.894 26.8225 108.326 26.8225H92.4907C84.7196 26.8225 81.7051 24.0581 81.7051 16.7188V0.852731C81.7051 0.268703 82.0183 0.015625 82.5859 0.015625H86.7553Z" fill="black"/>
<path d="M140.056 0.015625C140.643 0.015625 140.936 0.28817 140.936 0.852731V4.49317C140.936 5.0772 140.623 5.33028 140.056 5.33028H123.221C119.209 5.33028 118.093 6.5178 118.093 10.5476V10.9369H139.86C140.447 10.9369 140.701 11.2095 140.701 11.774V14.7915C140.701 15.3756 140.427 15.6286 139.86 15.6286H118.093V16.2711C118.093 20.3009 119.209 21.4884 123.221 21.4884H140.056C140.643 21.4884 140.936 21.7609 140.936 22.3255V25.9659C140.936 26.55 140.623 26.803 140.056 26.803H123.104C115.333 26.803 112.318 24.0386 112.318 16.6994V10.1193C112.318 2.76055 115.313 0.015625 123.104 0.015625H140.056Z" fill="black"/>
<path d="M162.471 0.015625C164.428 0.015625 165.622 0.61912 166.894 2.93576L179.638 25.9659C179.912 26.4721 179.794 26.842 179.168 26.842H174.274C173.765 26.842 173.589 26.7252 173.393 26.3358L170.653 21.391H152.546L149.884 26.3358C149.688 26.7252 149.454 26.842 149.003 26.842H143.992C143.346 26.842 143.229 26.4526 143.483 25.9659L156.109 2.93576C157.381 0.638588 158.536 0.015625 160.161 0.015625H162.471ZM155.013 16.9524H168.265L162.138 5.71963C162.02 5.52495 161.903 5.44708 161.707 5.44708H161.472C161.277 5.44708 161.159 5.52495 161.042 5.71963L155.013 16.9524Z" fill="black"/>
<path d="M204.769 0.015625C210.661 0.015625 213.049 2.74109 213.049 7.9V10.0804C213.049 14.4411 211.346 17.0108 207.314 17.7506L213.891 25.8686C214.126 26.1411 214.087 26.8225 213.382 26.8225H208.41C207.764 26.8225 207.568 26.6668 207.333 26.3163L201.246 18.3541H188.796V25.9854C188.796 26.5694 188.522 26.8225 187.955 26.8225H183.785C183.198 26.8225 182.904 26.55 182.904 25.9854V1.16421C182.904 0.404976 183.296 0.015625 184.059 0.015625H204.769ZM188.816 13.7013H203.575C206.198 13.7013 207.157 12.5917 207.157 10.2945V8.6787C207.157 6.38153 206.198 5.27188 203.575 5.27188H189.325C188.972 5.27188 188.816 5.42762 188.816 5.7391V13.7013Z" fill="black"/>
<path d="M224.638 0.015625C227.105 0.015625 227.633 0.327106 229.101 2.27387L243.43 20.9628C243.547 21.1574 243.704 21.2353 243.939 21.2353H244.291C244.487 21.2353 244.604 21.1185 244.604 20.846V0.872198C244.604 0.28817 244.878 0.0350923 245.446 0.0350923H249.498C250.085 0.0350923 250.34 0.307638 250.34 0.872198V22.8706C250.34 25.9659 249.224 26.8614 246.875 26.8614H243.567C241.218 26.8614 240.631 26.6278 239.104 24.6032L224.736 5.91431C224.579 5.71963 224.462 5.64176 224.227 5.64176H223.875C223.64 5.64176 223.562 5.75856 223.562 6.03111V26.0243C223.562 26.6084 223.288 26.8614 222.72 26.8614H218.668C218.081 26.8614 217.787 26.5889 217.787 26.0243V4.02595C217.787 0.930602 218.903 0.0350923 221.252 0.0350923H224.638V0.015625Z" fill="black"/>
<path d="M260.498 0.015625C261.086 0.015625 261.34 0.28817 261.34 0.852731V25.9854C261.34 26.5694 261.066 26.8225 260.498 26.8225H256.329C255.742 26.8225 255.448 26.55 255.448 25.9854V0.872198C255.448 0.28817 255.761 0.0350923 256.329 0.0350923H260.498V0.015625Z" fill="black"/>
<path d="M273.339 0.015625C275.806 0.015625 276.334 0.327106 277.802 2.27387L292.131 20.9628C292.248 21.1574 292.405 21.2353 292.64 21.2353H292.992C293.188 21.2353 293.305 21.1185 293.305 20.846V0.872198C293.305 0.28817 293.579 0.0350923 294.147 0.0350923H298.199C298.786 0.0350923 299.041 0.307638 299.041 0.872198V22.8706C299.041 25.9659 297.925 26.8614 295.576 26.8614H292.268C289.919 26.8614 289.332 26.6278 287.805 24.6032L273.437 5.91431C273.281 5.71963 273.163 5.64176 272.928 5.64176H272.576C272.341 5.64176 272.263 5.75856 272.263 6.03111V26.0243C272.263 26.6084 271.989 26.8614 271.421 26.8614H267.369C266.782 26.8614 266.488 26.5889 266.488 26.0243V4.02595C266.488 0.930602 267.604 0.0350923 269.953 0.0350923H273.339V0.015625Z" fill="black"/>
<path d="M334.159 0.015625C334.746 0.015625 335.001 0.28817 335.001 0.852731V4.62944C335.001 5.21347 334.727 5.50548 334.159 5.50548H314.858C310.885 5.50548 309.73 6.65407 309.73 10.7228V16.2321C309.73 20.3009 310.885 21.4884 314.858 21.4884H327.562C328.913 21.4884 329.481 20.8849 329.481 19.1523V16.0569C329.481 15.7065 329.363 15.5508 329.011 15.5508H317.716C317.168 15.5508 316.875 15.2393 316.875 14.6747V11.7935C316.875 11.2095 317.188 10.9175 317.716 10.9175H333.787C334.55 10.9175 334.942 11.3068 334.942 12.0661V20.9822C334.942 25.2651 333.239 26.842 330.166 26.842H314.604C306.833 26.842 303.818 24.0776 303.818 16.7383V10.1582C303.818 2.79949 306.813 0.0545596 314.604 0.0545596H334.159V0.015625Z" fill="black"/>
<path d="M100.424 40.8H102.152C102.392 40.8 102.504 40.912 102.504 41.152V51.648C102.504 51.888 102.392 52 102.152 52H100.424C100.184 52 100.056 51.888 100.056 51.648V41.152C100.056 40.912 100.184 40.8 100.424 40.8ZM108.346 43.216H112.938C115.818 43.216 116.746 44.144 116.746 46.464V51.648C116.746 51.888 116.634 52 116.394 52H114.826C114.586 52 114.474 51.888 114.474 51.648V47.008C114.474 45.664 114.202 45.248 112.826 45.248H108.57C107.194 45.248 106.826 45.664 106.826 47.008V51.648C106.826 51.888 106.714 52 106.474 52H104.906C104.666 52 104.538 51.888 104.538 51.648V46.464C104.538 44.144 105.466 43.216 108.346 43.216ZM119.095 43.216H120.663C120.903 43.216 121.015 43.344 121.015 43.584V51.648C121.015 51.888 120.903 52 120.663 52H119.095C118.855 52 118.743 51.888 118.743 51.648V43.584C118.743 43.344 118.855 43.216 119.095 43.216ZM119.095 39.968H120.663C120.903 39.968 121.015 40.08 121.015 40.32V41.84C121.015 42.08 120.903 42.208 120.663 42.208H119.095C118.855 42.208 118.727 42.08 118.727 41.84V40.32C118.727 40.08 118.855 39.968 119.095 39.968ZM122.591 43.216H124.111V41.104C124.111 40.864 124.239 40.752 124.463 40.752H126.047C126.271 40.752 126.399 40.864 126.399 41.104V43.216H129.199C129.407 43.216 129.487 43.312 129.487 43.504V44.816C129.487 45.008 129.407 45.104 129.199 45.104H126.399V48.816C126.399 49.696 126.687 50.112 127.743 50.112H129.295C129.503 50.112 129.583 50.208 129.583 50.4V51.712C129.583 51.904 129.503 52 129.295 52H127.359C124.799 52 124.111 51.088 124.111 48.816V45.104H122.591C122.399 45.104 122.303 45.008 122.303 44.816V43.504C122.303 43.312 122.399 43.216 122.591 43.216ZM131.251 43.216H132.819C133.059 43.216 133.171 43.344 133.171 43.584V51.648C133.171 51.888 133.059 52 132.819 52H131.251C131.011 52 130.899 51.888 130.899 51.648V43.584C130.899 43.344 131.011 43.216 131.251 43.216ZM131.251 39.968H132.819C133.059 39.968 133.171 40.08 133.171 40.32V41.84C133.171 42.08 133.059 42.208 132.819 42.208H131.251C131.011 42.208 130.883 42.08 130.883 41.84V40.32C130.883 40.08 131.011 39.968 131.251 39.968ZM135.388 43.216H142.3C145.18 43.216 146.108 44.144 146.108 46.464V50.72C146.108 51.76 145.852 52 144.924 52H137.308C135.42 52 134.844 51.312 134.844 49.728V48.96C134.844 47.616 135.42 46.864 137.308 46.864H143.82V46.56C143.82 45.536 143.468 45.136 142.076 45.136H135.388C135.196 45.136 135.1 45.056 135.1 44.848V43.504C135.1 43.312 135.196 43.216 135.388 43.216ZM143.356 50.24C143.692 50.24 143.82 50.096 143.82 49.696V48.288H137.964C137.308 48.288 137.068 48.56 137.068 49.072V49.408C137.068 49.984 137.308 50.24 137.964 50.24H143.356ZM147.373 43.216H148.893V41.104C148.893 40.864 149.021 40.752 149.245 40.752H150.829C151.053 40.752 151.181 40.864 151.181 41.104V43.216H153.981C154.189 43.216 154.269 43.312 154.269 43.504V44.816C154.269 45.008 154.189 45.104 153.981 45.104H151.181V48.816C151.181 49.696 151.469 50.112 152.525 50.112H154.077C154.285 50.112 154.365 50.208 154.365 50.4V51.712C154.365 51.904 154.285 52 154.077 52H152.141C149.581 52 148.893 51.088 148.893 48.816V45.104H147.373C147.181 45.104 147.085 45.008 147.085 44.816V43.504C147.085 43.312 147.181 43.216 147.373 43.216ZM156.032 43.216H157.6C157.84 43.216 157.952 43.344 157.952 43.584V51.648C157.952 51.888 157.84 52 157.6 52H156.032C155.792 52 155.68 51.888 155.68 51.648V43.584C155.68 43.344 155.792 43.216 156.032 43.216ZM156.032 39.968H157.6C157.84 39.968 157.952 40.08 157.952 40.32V41.84C157.952 42.08 157.84 42.208 157.6 42.208H156.032C155.792 42.208 155.664 42.08 155.664 41.84V40.32C155.664 40.08 155.792 39.968 156.032 39.968ZM159.449 43.216H161.289C161.481 43.216 161.593 43.28 161.673 43.44L165.433 50.048C165.481 50.128 165.529 50.144 165.609 50.144H165.673C165.753 50.144 165.801 50.128 165.849 50.048L169.625 43.44C169.705 43.296 169.801 43.216 170.009 43.216H171.785C172.009 43.216 172.105 43.408 171.993 43.616L167.609 51.28C167.305 51.808 166.985 52 166.265 52H164.953C164.249 52 163.929 51.808 163.625 51.28L159.241 43.616C159.129 43.408 159.225 43.216 159.449 43.216ZM175.839 43.216H180.527C182.719 43.216 183.295 43.904 183.295 45.84V47.36C183.295 48.048 183.007 48.272 182.383 48.272H174.303V48.656C174.303 49.664 174.671 50.08 176.063 50.08H182.735C182.927 50.08 183.023 50.176 183.023 50.368V51.712C183.023 51.904 182.927 52 182.735 52H175.839C172.959 52 172.031 51.088 172.031 48.768V46.464C172.031 44.144 172.959 43.216 175.839 43.216ZM174.303 46.416V46.848H180.783C180.975 46.848 181.055 46.784 181.055 46.576V45.904C181.055 45.248 180.815 44.992 180.079 44.992H176.063C174.671 44.992 174.303 45.392 174.303 46.416ZM190.687 40H192.255C192.495 40 192.607 40.112 192.607 40.352V43.216H198.607C201.487 43.216 202.415 44.144 202.415 46.464V48.768C202.415 51.088 201.487 52 198.607 52H194.127C191.247 52 190.319 51.088 190.319 48.768V40.352C190.319 40.112 190.447 40 190.687 40ZM198.383 45.136H192.607V48.32C192.607 49.664 192.975 50.08 194.351 50.08H198.383C199.775 50.08 200.143 49.664 200.143 48.32V46.896C200.143 45.552 199.775 45.136 198.383 45.136ZM213.628 43.216H215.42C215.644 43.216 215.74 43.408 215.628 43.616L209.484 54.448C209.068 55.184 208.332 55.536 206.956 55.536H205.836C205.644 55.536 205.548 55.44 205.548 55.248V53.936C205.548 53.744 205.644 53.648 205.836 53.648H206.78C207.212 53.648 207.452 53.536 207.596 53.28L208.46 51.76C207.932 51.712 207.692 51.52 207.436 51.072L203.116 43.616C203.004 43.408 203.1 43.216 203.324 43.216H205.164C205.356 43.216 205.468 43.28 205.548 43.44L209.1 49.6C209.276 49.888 209.34 49.968 209.484 49.968L213.244 43.44C213.324 43.28 213.436 43.216 213.628 43.216ZM222.661 40.8H230.149C233.621 40.8 235.045 42.192 235.045 45.312V47.488C235.045 50.608 233.621 52 230.149 52H222.661C222.341 52 222.181 51.84 222.181 51.52V41.28C222.181 40.96 222.341 40.8 222.661 40.8ZM224.629 43.248V49.568C224.629 49.712 224.693 49.776 224.837 49.776H230.085C231.973 49.776 232.597 49.168 232.597 47.28V45.52C232.597 43.632 231.973 43.024 230.085 43.024H224.837C224.693 43.024 224.629 43.088 224.629 43.248ZM237.36 43.216H238.928C239.168 43.216 239.28 43.344 239.28 43.584V51.648C239.28 51.888 239.168 52 238.928 52H237.36C237.12 52 237.008 51.888 237.008 51.648V43.584C237.008 43.344 237.12 43.216 237.36 43.216ZM237.36 39.968H238.928C239.168 39.968 239.28 40.08 239.28 40.32V41.84C239.28 42.08 239.168 42.208 238.928 42.208H237.36C237.12 42.208 236.992 42.08 236.992 41.84V40.32C236.992 40.08 237.12 39.968 237.36 39.968ZM244.969 43.216H249.449C252.345 43.216 253.257 44.144 253.257 46.448V52.272C253.257 54.608 252.345 55.536 249.449 55.536H241.913C241.721 55.536 241.625 55.44 241.625 55.248V53.904C241.625 53.712 241.721 53.616 241.913 53.616H249.225C250.617 53.616 250.985 53.2 250.985 51.84V51.424H244.969C242.089 51.424 241.161 50.496 241.161 48.16V46.48C241.161 44.144 242.089 43.216 244.969 43.216ZM243.449 48.144C243.449 49.232 243.817 49.648 245.193 49.648H250.985V46.656C250.985 45.52 250.617 45.104 249.225 45.104H245.193C243.817 45.104 243.449 45.52 243.449 46.608V48.144ZM255.61 43.216H257.178C257.418 43.216 257.53 43.344 257.53 43.584V51.648C257.53 51.888 257.418 52 257.178 52H255.61C255.37 52 255.258 51.888 255.258 51.648V43.584C255.258 43.344 255.37 43.216 255.61 43.216ZM255.61 39.968H257.178C257.418 39.968 257.53 40.08 257.53 40.32V41.84C257.53 42.08 257.418 42.208 257.178 42.208H255.61C255.37 42.208 255.242 42.08 255.242 41.84V40.32C255.242 40.08 255.37 39.968 255.61 39.968ZM261.027 40.8H262.771C263.731 40.8 264.051 41.008 264.483 42.016L267.811 49.696C267.859 49.808 267.923 49.84 268.035 49.84H268.227C268.339 49.84 268.403 49.808 268.451 49.696L271.779 42.016C272.211 41.008 272.531 40.8 273.475 40.8H275.187C276.307 40.8 276.595 41.248 276.595 42.464V51.648C276.595 51.888 276.467 52 276.227 52H274.595C274.355 52 274.243 51.888 274.243 51.648V43.296C274.243 43.184 274.211 43.136 274.115 43.136H273.971C273.859 43.136 273.795 43.168 273.763 43.264L270.531 50.432C270.003 51.584 269.555 52 268.483 52H267.715C266.643 52 266.195 51.584 265.667 50.432L262.435 43.264C262.403 43.168 262.339 43.136 262.227 43.136H262.083C261.987 43.136 261.955 43.184 261.955 43.296V51.648C261.955 51.888 261.843 52 261.603 52H259.971C259.731 52 259.603 51.888 259.603 51.648V42.464C259.603 41.248 259.891 40.8 261.027 40.8ZM278.856 43.216H285.768C288.648 43.216 289.576 44.144 289.576 46.464V50.72C289.576 51.76 289.32 52 288.392 52H280.776C278.888 52 278.312 51.312 278.312 49.728V48.96C278.312 47.616 278.888 46.864 280.776 46.864H287.288V46.56C287.288 45.536 286.936 45.136 285.544 45.136H278.856C278.664 45.136 278.568 45.056 278.568 44.848V43.504C278.568 43.312 278.664 43.216 278.856 43.216ZM286.824 50.24C287.16 50.24 287.288 50.096 287.288 49.696V48.288H281.432C280.776 48.288 280.536 48.56 280.536 49.072V49.408C280.536 49.984 280.776 50.24 281.432 50.24H286.824ZM295.049 43.216H299.641C302.521 43.216 303.449 44.144 303.449 46.464V51.648C303.449 51.888 303.337 52 303.097 52H301.529C301.289 52 301.177 51.888 301.177 51.648V47.008C301.177 45.664 300.905 45.248 299.529 45.248H295.273C293.897 45.248 293.529 45.664 293.529 47.008V51.648C293.529 51.888 293.417 52 293.177 52H291.609C291.369 52 291.241 51.888 291.241 51.648V46.464C291.241 44.144 292.169 43.216 295.049 43.216ZM304.982 43.216H306.502V41.104C306.502 40.864 306.63 40.752 306.854 40.752H308.438C308.662 40.752 308.79 40.864 308.79 41.104V43.216H311.59C311.798 43.216 311.878 43.312 311.878 43.504V44.816C311.878 45.008 311.798 45.104 311.59 45.104H308.79V48.816C308.79 49.696 309.078 50.112 310.134 50.112H311.686C311.894 50.112 311.974 50.208 311.974 50.4V51.712C311.974 51.904 311.894 52 311.686 52H309.75C307.19 52 306.502 51.088 306.502 48.816V45.104H304.982C304.79 45.104 304.694 45.008 304.694 44.816V43.504C304.694 43.312 304.79 43.216 304.982 43.216ZM317.034 43.216H321.514C321.706 43.216 321.802 43.312 321.802 43.504V44.848C321.802 45.056 321.706 45.136 321.514 45.136H317.258C315.882 45.136 315.514 45.552 315.514 46.896V51.648C315.514 51.888 315.402 52 315.162 52H313.594C313.354 52 313.226 51.888 313.226 51.648V46.464C313.226 44.144 314.154 43.216 317.034 43.216ZM323.278 43.216H330.19C333.07 43.216 333.998 44.144 333.998 46.464V50.72C333.998 51.76 333.742 52 332.814 52H325.198C323.31 52 322.734 51.312 322.734 49.728V48.96C322.734 47.616 323.31 46.864 325.198 46.864H331.71V46.56C331.71 45.536 331.358 45.136 329.966 45.136H323.278C323.086 45.136 322.99 45.056 322.99 44.848V43.504C322.99 43.312 323.086 43.216 323.278 43.216ZM331.246 50.24C331.582 50.24 331.71 50.096 331.71 49.696V48.288H325.854C325.198 48.288 324.958 48.56 324.958 49.072V49.408C324.958 49.984 325.198 50.24 325.854 50.24H331.246Z" fill="black"/>
</svg>
