<svg width="24" height="24" viewBox="0 0 24 24" fill="none" xmlns="http://www.w3.org/2000/svg">
<path d="M4.114 12.0057L8.354 16.2457C8.44733 16.3391 8.49733 16.4541 8.504 16.5907C8.51066 16.7261 8.46066 16.8471 8.354 16.9537C8.24733 17.0604 8.12933 17.1137 8 17.1137C7.87066 17.1137 7.75266 17.0604 7.646 16.9537L3.258 12.5647C3.17066 12.4781 3.10933 12.3891 3.074 12.2977C3.03866 12.2071 3.021 12.1077 3.021 11.9997C3.021 11.8917 3.03866 11.7924 3.074 11.7017C3.10933 11.6111 3.17066 11.5221 3.258 11.4347L7.646 7.04574C7.74333 6.94841 7.859 6.89641 7.993 6.88974C8.127 6.88308 8.249 6.93508 8.359 7.04574C8.469 7.15641 8.52433 7.27541 8.525 7.40274C8.52566 7.53008 8.47066 7.64908 8.36 7.75974L4.114 12.0057ZM19.887 11.9937L15.647 7.75374C15.553 7.66041 15.503 7.54574 15.497 7.40974C15.491 7.27374 15.541 7.15241 15.647 7.04574C15.753 6.93908 15.8707 6.88574 16 6.88574C16.1293 6.88574 16.2473 6.93908 16.354 7.04574L20.742 11.4347C20.8293 11.5214 20.8907 11.6104 20.926 11.7017C20.9613 11.7931 20.979 11.8924 20.979 11.9997C20.979 12.1071 20.9613 12.2064 20.926 12.2977C20.8907 12.3891 20.8293 12.4784 20.742 12.5657L16.354 16.9537C16.2567 17.0511 16.142 17.1021 16.01 17.1067C15.878 17.1107 15.7567 17.0577 15.646 16.9477C15.5353 16.8377 15.4803 16.7187 15.481 16.5907C15.481 16.4634 15.536 16.3444 15.646 16.2337L19.887 11.9937Z" fill="black"/>
</svg>
