<svg width="24" height="24" viewBox="0 0 24 24" fill="none" xmlns="http://www.w3.org/2000/svg">
<path d="M4.5 20.75V3.54167C4.5 2.69021 5.19021 2 6.04167 2H19.5V19.5" stroke="#F27D26" stroke-width="1.5" stroke-miterlimit="10" stroke-linecap="round" stroke-linejoin="round"/>
<path d="M19.5 22H5.75C5.05967 22 4.5 21.4403 4.5 20.75C4.5 20.0597 5.05967 19.5 5.75 19.5H19.5V22Z" stroke="#F27D26" stroke-width="1.5" stroke-miterlimit="10" stroke-linecap="round" stroke-linejoin="round"/>
<path d="M7 2V19.5" stroke="#F27D26" stroke-width="1.5" stroke-miterlimit="10" stroke-linecap="round" stroke-linejoin="round"/>
<path d="M10 14.501H16" stroke="#F27D26" stroke-width="1.5" stroke-miterlimit="10" stroke-linecap="round" stroke-linejoin="round"/>
<path d="M8.875 17H17.625" stroke="#F27D26" stroke-width="1.5" stroke-miterlimit="10" stroke-linecap="round" stroke-linejoin="round"/>
<path d="M13.2495 11C15.0442 11 16.499 9.54514 16.499 7.75048C16.499 5.95583 15.0442 4.50098 13.2495 4.50098C11.4549 4.50098 10 5.95583 10 7.75048C10 9.54514 11.4549 11 13.2495 11Z" stroke="#F27D26" stroke-width="1.2998" stroke-miterlimit="10" stroke-linecap="round" stroke-linejoin="round"/>
<path d="M12.0449 7.80659L12.8108 8.5725L14.4548 6.92847" stroke="#F27D26" stroke-width="1.2998" stroke-miterlimit="10" stroke-linecap="round" stroke-linejoin="round"/>
</svg>
