<svg width="24" height="24" viewBox="0 0 24 24" fill="none" xmlns="http://www.w3.org/2000/svg">
<path d="M12.9999 18.0459L8.21286 20.9132C8.0722 20.982 7.94164 21.01 7.82119 20.9969C7.70163 20.9829 7.58514 20.9419 7.47173 20.8739C7.35744 20.8041 7.27128 20.7056 7.21326 20.5783C7.15523 20.451 7.14996 20.3119 7.19743 20.161L8.47133 14.7849L4.25796 11.1616C4.13927 11.0657 4.06103 10.951 4.02322 10.8176C3.98542 10.6842 3.99377 10.5564 4.04828 10.4343C4.10279 10.3122 4.17532 10.212 4.26587 10.1335C4.3573 10.0576 4.48039 10.0062 4.63512 9.97912L10.1949 9.49776L12.3629 4.40681C12.4227 4.26292 12.5089 4.15915 12.6214 4.09549C12.7339 4.03183 12.8601 4 12.9999 4C13.1397 4 13.2663 4.03183 13.3797 4.09549C13.4931 4.15915 13.5788 4.26292 13.6368 4.40681L15.8048 9.49776L21.3633 9.97912C21.5189 10.0053 21.6425 10.0572 21.7339 10.1348C21.8253 10.2115 21.8983 10.3114 21.9528 10.4343C22.0064 10.5564 22.0144 10.6842 21.9766 10.8176C21.9387 10.951 21.8605 11.0657 21.7418 11.1616L17.5284 14.7849L18.8023 20.161C18.8516 20.3101 18.8467 20.4488 18.7878 20.577C18.7289 20.7052 18.6423 20.8037 18.528 20.8726C18.4155 20.9424 18.299 20.9838 18.1786 20.9969C18.059 21.01 17.9289 20.982 17.7882 20.9132L12.9999 18.0459Z" fill="#C4710D"/>
</svg>
