<svg preserveAspectRatio="none" width="100%" height="100%" overflow="visible" style="display: block;" viewBox="0 0 17.5 21.5" fill="none" xmlns="http://www.w3.org/2000/svg">
<g id="Group">
<path id="Vector" d="M5.75 11.75H11.75M5.75 15.75H8.75M0.75 2.75V18.75C0.75 19.2804 0.960714 19.7891 1.33579 20.1642C1.71086 20.5393 2.21957 20.75 2.75 20.75H14.75C15.2804 20.75 15.7891 20.5393 16.1642 20.1642C16.5393 19.7891 16.75 19.2804 16.75 18.75V7.092C16.75 6.82556 16.6967 6.56181 16.5933 6.31624C16.4899 6.07068 16.3385 5.84824 16.148 5.662L11.708 1.32C11.3344 0.954658 10.8326 0.750065 10.31 0.75H2.75C2.21957 0.75 1.71086 0.960714 1.33579 1.33579C0.960714 1.71086 0.75 2.21957 0.75 2.75Z" stroke="var(--stroke-0, white)" stroke-width="1.5" stroke-linecap="round" stroke-linejoin="round"/>
<path id="Vector_2" d="M10.75 0.75V4.75C10.75 5.28043 10.9607 5.78914 11.3358 6.16421C11.7109 6.53929 12.2196 6.75 12.75 6.75H16.75" stroke="var(--stroke-0, white)" stroke-width="1.5" stroke-linejoin="round"/>
</g>
</svg>
