<svg preserveAspectRatio="none" width="100%" height="100%" overflow="visible" style="display: block;" viewBox="0 0 23.7857 20.5515" fill="none" xmlns="http://www.w3.org/2000/svg">
<g id="Group">
<path id="Vector" d="M7.60714 13.8015L20.7729 18.1901C21.0307 18.2751 21.305 18.2976 21.5732 18.2559C21.8414 18.2142 22.0959 18.1094 22.3157 17.9501C22.5373 17.7923 22.7181 17.5841 22.8433 17.3427C22.9685 17.1012 23.0345 16.8335 23.0357 16.5615V2.45293C23.0331 2.04349 22.8841 1.6485 22.6156 1.33941C22.3471 1.03033 21.9768 0.827554 21.5717 0.767784C21.3033 0.728824 21.0296 0.754088 20.7729 0.841498L7.60714 5.23007M7.60714 13.8015V5.23007M7.60714 13.8015H5.03571C4.47291 13.8015 3.91561 13.6906 3.39564 13.4753C2.87568 13.2599 2.40322 12.9442 2.00526 12.5462C1.20153 11.7425 0.75 10.6524 0.75 9.51578C0.75 8.37914 1.20153 7.28905 2.00526 6.48533C2.40322 6.08736 2.87568 5.77168 3.39564 5.5563C3.91561 5.34092 4.47291 5.23007 5.03571 5.23007H7.60714" stroke="var(--stroke-0, white)" stroke-width="1.5" stroke-linecap="round" stroke-linejoin="round"/>
<path id="Vector_2" d="M5.03571 13.8015V15.5158C5.03571 16.0786 5.14657 16.6359 5.36194 17.1559C5.57732 17.6758 5.89301 18.1483 6.29097 18.5462C6.68894 18.9442 7.16139 19.2599 7.68136 19.4753C8.20132 19.6906 8.75862 19.8015 9.32143 19.8015" stroke="var(--stroke-0, white)" stroke-width="1.5" stroke-linecap="round" stroke-linejoin="round"/>
</g>
</svg>
