<svg preserveAspectRatio="none" width="100%" height="100%" overflow="visible" style="display: block;" viewBox="0 0 24 24" fill="none" xmlns="http://www.w3.org/2000/svg">
<g id="star">
<path id="Vector" d="M12 2L15.09 8.26L22 9.27L17 14.14L18.18 21.02L12 17.77L5.82 21.02L7 14.14L2 9.27L8.91 8.26L12 2Z" fill="#B2B2B2" stroke="#B2B2B2" stroke-width="1.65" stroke-linecap="round" stroke-linejoin="round"/>
<path id="Subtract" d="M12.2499 18.8994L6.53506 21.9053C6.19826 22.0822 5.79019 22.0527 5.48233 21.8291C5.17437 21.6054 5.01955 21.2258 5.08389 20.8506L6.17471 14.4883L1.55264 9.98633C1.28012 9.72087 1.18152 9.32383 1.29874 8.96191C1.41611 8.59992 1.72884 8.33533 2.10538 8.28027L8.496 7.3457L11.3534 1.55762L11.4247 1.43555C11.6093 1.16557 11.9169 1.00001 12.2499 1V18.8994Z" fill="#FBBB05"/>
</g>
</svg>
